<svg width="40" height="40" viewBox="0 0 40 40" fill="none" xmlns="http://www.w3.org/2000/svg">
<path d="M23.6344 7.12651C23.9546 7.21209 24.2277 7.42134 24.3937 7.70826C24.5596 7.99518 24.6049 8.33626 24.5194 8.65651L17.8977 33.3732C17.8117 33.6937 17.602 33.9668 17.3146 34.1327C17.0272 34.2985 16.6857 34.3433 16.3652 34.2573C16.0447 34.1714 15.7715 33.9616 15.6057 33.6742C15.4399 33.3868 15.3951 33.0453 15.481 32.7248L22.1044 8.00818C22.1469 7.84959 22.2203 7.70094 22.3203 7.57071C22.4203 7.44048 22.545 7.33123 22.6872 7.2492C22.8294 7.16717 22.9865 7.11397 23.1493 7.09263C23.3121 7.07129 23.4775 7.08224 23.636 7.12485M27.406 12.2132C27.6278 11.9668 27.9382 11.8186 28.2692 11.8011C28.6002 11.7836 28.9246 11.8982 29.171 12.1198L32.066 14.7265C33.2944 15.8298 34.311 16.7465 35.011 17.5765C35.7444 18.4515 36.2677 19.3898 36.2677 20.5498C36.2677 21.7082 35.746 22.6465 35.011 23.5198C34.311 24.3515 33.2944 25.2682 32.066 26.3715L29.171 28.9782C28.9246 29.2001 28.6001 29.315 28.269 29.2976C27.9378 29.2803 27.6271 29.1321 27.4052 28.8857C27.1833 28.6392 27.0684 28.3148 27.0857 27.9836C27.1031 27.6524 27.2513 27.3417 27.4977 27.1198L30.326 24.5748C31.6394 23.3932 32.5244 22.5915 33.0977 21.9115C33.6477 21.2565 33.7677 20.8748 33.7677 20.5482C33.7677 20.2215 33.6477 19.8415 33.0977 19.1865C32.5244 18.5048 31.6394 17.7032 30.326 16.5232L27.4977 13.9782C27.3755 13.8684 27.2761 13.7356 27.2052 13.5873C27.1344 13.439 27.0934 13.2783 27.0848 13.1142C27.0761 12.9501 27.0999 12.7859 27.1547 12.631C27.2095 12.4761 27.2944 12.3336 27.4044 12.2115M12.5044 13.9782C12.7508 13.7563 12.899 13.4456 12.9163 13.1144C12.9337 12.7833 12.8188 12.4588 12.5969 12.2123C12.375 11.9659 12.0643 11.8177 11.7331 11.8004C11.402 11.783 11.0775 11.8979 10.831 12.1198L7.93604 14.7265C6.70771 15.8298 5.69104 16.7465 4.99104 17.5765C4.25771 18.4515 3.73438 19.3898 3.73438 20.5498C3.73438 21.7082 4.25604 22.6465 4.99104 23.5198C5.69104 24.3515 6.70771 25.2682 7.93604 26.3715L10.831 28.9782C11.0775 29.2001 11.402 29.315 11.7331 29.2976C12.0643 29.2803 12.375 29.1321 12.5969 28.8857C12.8188 28.6392 12.9337 28.3148 12.9163 27.9836C12.899 27.6524 12.7508 27.3417 12.5044 27.1198L9.67604 24.5748C8.36271 23.3932 7.47771 22.5915 6.90438 21.9115C6.35438 21.2565 6.23438 20.8748 6.23438 20.5482C6.23438 20.2215 6.35438 19.8415 6.90438 19.1865C7.47771 18.5048 8.36271 17.7032 9.67604 16.5232L12.5044 13.9782Z" fill="black"/>
</svg>
