<?xml version="1.0" encoding="utf-8"?>
<!-- Generator: Adobe Illustrator 16.0.0, SVG Export Plug-In . SVG Version: 6.00 Build 0)  -->
<!DOCTYPE svg PUBLIC "-//W3C//DTD SVG 1.1//EN" "http://www.w3.org/Graphics/SVG/1.1/DTD/svg11.dtd">
<svg version="1.1" id="Layer_1" xmlns="http://www.w3.org/2000/svg" xmlns:xlink="http://www.w3.org/1999/xlink" x="0px" y="0px"
	 width="1920px" height="1080px" viewBox="0 0 1920 1080" enable-background="new 0 0 1920 1080" xml:space="preserve">
<g>
	<g>
		<path d="M1156.561,674.136c-0.973-8.315-8.101-14.58-16.416-14.58h-71.064v-64.584c0-9.18-7.452-16.523-16.524-16.523h-34.128
			l25.596-126.9l44.173,23.004c2.376,1.188,5.075,1.836,7.775,1.836c3.456,0,6.912-1.188,9.721-3.239
			c5.075-3.673,7.668-10.044,6.588-16.2l-24.948-141.912l103.14-100.548c4.429-4.32,6.048-10.8,4.212-16.74
			c-1.943-5.94-7.128-10.26-13.392-11.016l-142.56-21.168L975.012,36.288c-3.996-8.208-13.932-11.664-22.14-7.668
			c-3.349,1.62-6.048,4.32-7.668,7.668l-63.828,129.168l-142.021,21.168c-6.155,0.864-11.34,5.076-13.392,11.016
			c-1.944,6.048-0.324,12.636,4.212,16.956l103.141,100.548l-24.948,141.804c-1.513,9.071,4.644,17.604,13.716,19.116
			c3.564,0.54,7.128,0,10.368-1.62l44.172-23.004l25.596,127.224h-34.668c-9.18,0-16.523,7.452-16.523,16.523v64.152h-71.064
			c-8.424,0-15.444,6.264-16.416,14.58l-44.172,360.288c-0.54,4.752,0.972,9.504,4.212,13.068c3.132,3.563,7.561,5.615,12.313,5.615
			H1184.1c4.752,0,9.288-2.052,12.313-5.615c3.132-3.456,4.644-8.208,4.104-12.96L1156.561,674.136z M862.152,297.108l-85.429-83.16
			l118.044-17.172c5.4-0.756,10.045-4.212,12.42-9.072l52.705-106.596l52.703,106.92c2.376,4.86,7.129,8.316,12.42,9.072
			l118.045,17.172l-85.429,82.836c-3.888,3.888-5.616,9.289-4.752,14.688l20.196,117.72l-105.624-55.188
			c-4.86-2.7-10.692-2.7-15.444,0l-105.624,55.188l20.196-117.611C867.876,306.396,866.04,300.888,862.152,297.108z M906.324,435.24
			l53.783-27.756l53.353,28.08L984.624,578.88h-49.248L906.324,435.24z M754.26,1020.06l40.284-327.348h73.008
			c9.181,0,16.524-7.452,16.524-16.524l0,0v-64.151h151.848v64.151c0,9.181,7.452,16.524,16.524,16.524h73.008l39.96,327.132
			L754.26,1020.06z"/>
		<path d="M1066.164,784.62h-212.22c-9.181,0-16.524,7.452-16.524,16.524c0,9.18,7.452,16.523,16.524,16.523h212.327
			c9.181,0,16.524-7.452,16.524-16.523C1082.796,792.072,1075.344,784.62,1066.164,784.62z"/>
		<path d="M1066.164,903.96h-212.22c-9.181,0-16.524,7.452-16.524,16.524c0,9.18,7.452,16.523,16.524,16.523h212.327
			c9.181,0,16.524-7.452,16.524-16.523C1082.796,911.304,1075.344,903.96,1066.164,903.96z"/>
		<path d="M1066.164,844.452h-212.22c-9.181,0-16.524,7.452-16.524,16.523c0,9.072,7.452,16.524,16.524,16.524h212.327
			c9.181,0,16.524-7.452,16.524-16.524C1082.796,851.904,1075.344,844.452,1066.164,844.452z"/>
		<path d="M1359.816,529.848c-6.48-6.372-16.956-6.372-23.545,0l-22.031,22.032l-22.032-22.032
			c-7.021-5.939-17.388-4.968-23.328,1.944c-5.292,6.264-5.185,15.336,0.108,21.492l22.031,22.032l-22.031,22.031
			c-6.588,6.372-6.805,16.849-0.433,23.437c3.024,3.132,7.128,4.968,11.448,5.076c4.428,0,8.64-1.729,11.664-4.86l22.032-22.032
			L1335.732,621c6.479,6.48,16.955,6.48,23.543,0c6.373-6.479,6.373-16.956,0-23.436l-22.031-22.032l22.031-22.032
			C1366.08,547.236,1366.296,536.544,1359.816,529.848L1359.816,529.848z"/>
		<path d="M651.12,529.848c-6.48-6.372-16.956-6.372-23.437,0l-22.031,22.032l-22.032-22.032
			c-6.912-6.048-17.496-5.292-23.544,1.729c-5.4,6.264-5.4,15.552,0,21.815l22.032,22.032l-22.032,22.032
			c-6.372,6.479-6.372,16.956,0,23.437c6.479,6.479,16.956,6.479,23.544,0l22.032-22.032l22.031,22.032
			c3.133,3.132,7.345,4.859,11.664,4.859c9.181-0.107,16.416-7.668,16.309-16.74c-0.108-4.212-1.729-8.208-4.645-11.231
			l-22.031-22.032l22.031-22.032c6.588-6.372,6.696-16.848,0.324-23.436C651.336,530.064,651.229,529.956,651.12,529.848z"/>
		<path d="M1402.477,196.344l22.031-22.032c6.264-6.588,6.048-17.064-0.54-23.436c-6.264-6.048-16.2-6.048-22.571-0.216
			l-22.032,22.032l-22.032-22.032c-6.48-6.372-16.956-6.372-23.436,0c-6.48,6.372-6.48,16.74-0.108,23.22l0.108,0.108l22.031,22.032
			l-22.031,22.032c-6.48,6.372-6.48,16.74-0.108,23.22l0.108,0.108c3.132,3.132,7.344,4.86,11.664,4.86
			c4.319,0.108,8.531-1.512,11.664-4.536l22.031-22.032l22.032,22.032c3.132,3.132,7.344,4.86,11.664,4.86
			c4.32-0.108,8.532-1.836,11.556-4.86c6.372-6.48,6.372-16.956,0-23.436L1402.477,196.344z"/>
		<path d="M574.98,246.78c4.428,0,8.64-1.729,11.664-4.86c6.479-6.372,6.479-16.74,0.107-23.22l-0.107-0.108l-22.032-22.032
			l22.032-22.032c6.479-6.372,6.479-16.74,0.107-23.22l-0.107-0.108c-6.48-6.372-16.957-6.372-23.437,0l-22.032,22.032
			L519.145,151.2c-6.265-6.696-16.74-7.02-23.437-0.864c-6.696,6.264-7.021,16.74-0.864,23.436c0.217,0.324,0.54,0.54,0.864,0.864
			l22.032,22.032L495.708,218.7c-6.372,6.48-6.372,16.956,0,23.436c3.132,3.132,7.452,4.86,11.88,4.86
			c4.212-0.216,8.1-1.944,11.016-4.86l22.032-22.032l22.032,22.032C566.016,245.16,570.444,246.888,574.98,246.78z"/>
	</g>
</g>
</svg>
