<?xml version="1.0" encoding="utf-8"?>
<!-- Generator: Adobe Illustrator 16.0.0, SVG Export Plug-In . SVG Version: 6.00 Build 0)  -->
<!DOCTYPE svg PUBLIC "-//W3C//DTD SVG 1.1//EN" "http://www.w3.org/Graphics/SVG/1.1/DTD/svg11.dtd">
<svg version="1.1" xmlns="http://www.w3.org/2000/svg" xmlns:xlink="http://www.w3.org/1999/xlink" x="0px" y="0px" width="65px"
	 height="65px" viewBox="0 0 65 65" enable-background="new 0 0 65 65" xml:space="preserve">
<g id="Layer_1">
	<g display="none">
		<path display="inline" d="M16.75,23.883c-1.263-1.263-2.977-1.966-4.761-1.966c-3.714,0-6.726,3.012-6.726,6.727
			c0,3.716,3.012,6.728,6.726,6.728c3.716,0,6.728-3.011,6.728-6.728C18.717,26.862,18.007,25.147,16.75,23.883z M15.664,32.318
			c-2.029,2.029-5.328,2.029-7.355,0c-2.029-2.028-2.029-5.327,0-7.355c2.027-2.028,5.319-2.028,7.355,0
			c0.976,0.97,1.53,2.294,1.523,3.675C17.187,30.016,16.64,31.341,15.664,32.318z M16.75,23.883
			c-1.263-1.263-2.977-1.966-4.761-1.966c-3.714,0-6.726,3.012-6.726,6.727c0,3.716,3.012,6.728,6.726,6.728
			c3.716,0,6.728-3.011,6.728-6.728C18.717,26.862,18.007,25.147,16.75,23.883z M15.664,32.318c-2.029,2.029-5.328,2.029-7.355,0
			c-2.029-2.028-2.029-5.327,0-7.355c2.027-2.028,5.319-2.028,7.355,0c0.976,0.97,1.53,2.294,1.523,3.675
			C17.187,30.016,16.64,31.341,15.664,32.318z M16.75,23.883c-1.263-1.263-2.977-1.966-4.761-1.966
			c-3.714,0-6.726,3.012-6.726,6.727c0,3.716,3.012,6.728,6.726,6.728c3.716,0,6.728-3.011,6.728-6.728
			C18.717,26.862,18.007,25.147,16.75,23.883z M15.664,32.318c-2.029,2.029-5.328,2.029-7.355,0c-2.029-2.028-2.029-5.327,0-7.355
			c2.027-2.028,5.319-2.028,7.355,0c0.976,0.97,1.53,2.294,1.523,3.675C17.187,30.016,16.64,31.341,15.664,32.318z M16.75,23.883
			c-1.263-1.263-2.977-1.966-4.761-1.966c-3.714,0-6.726,3.012-6.726,6.727c0,3.716,3.012,6.728,6.726,6.728
			c3.716,0,6.728-3.011,6.728-6.728C18.717,26.862,18.007,25.147,16.75,23.883z M15.664,32.318c-2.029,2.029-5.328,2.029-7.355,0
			c-2.029-2.028-2.029-5.327,0-7.355c2.027-2.028,5.319-2.028,7.355,0c0.976,0.97,1.53,2.294,1.523,3.675
			C17.187,30.016,16.64,31.341,15.664,32.318z M16.75,23.883c-1.263-1.263-2.977-1.966-4.761-1.966
			c-3.714,0-6.726,3.012-6.726,6.727c0,3.716,3.012,6.728,6.726,6.728c3.716,0,6.728-3.011,6.728-6.728
			C18.717,26.862,18.007,25.147,16.75,23.883z M15.664,32.318c-2.029,2.029-5.328,2.029-7.355,0c-2.029-2.028-2.029-5.327,0-7.355
			c2.027-2.028,5.319-2.028,7.355,0c0.976,0.97,1.53,2.294,1.523,3.675C17.187,30.016,16.64,31.341,15.664,32.318z M16.75,23.883
			c-1.263-1.263-2.977-1.966-4.761-1.966c-3.714,0-6.726,3.012-6.726,6.727c0,3.716,3.012,6.728,6.726,6.728
			c3.716,0,6.728-3.011,6.728-6.728C18.717,26.862,18.007,25.147,16.75,23.883z M15.664,32.318c-2.029,2.029-5.328,2.029-7.355,0
			c-2.029-2.028-2.029-5.327,0-7.355c2.027-2.028,5.319-2.028,7.355,0c0.976,0.97,1.53,2.294,1.523,3.675
			C17.187,30.016,16.64,31.341,15.664,32.318z M62.396,20.257c-1.763-0.423-3.53,0.663-3.945,2.424h-8.627
			c-0.207-2.288-0.806-4.528-1.776-6.618h4.412c0.232,0,0.452-0.103,0.595-0.279l1.68-2.104h0.991
			c0.265,0.916,0.977,1.625,1.884,1.884c1.454,0.417,2.979-0.422,3.401-1.884c0.418-1.455-0.423-2.978-1.885-3.401
			c-1.454-0.417-2.977,0.423-3.4,1.884H54.38c-0.255,0-0.485,0.123-0.63,0.327l-1.651,2.056h-4.835
			c-2.171-3.769-5.513-6.739-9.521-8.441c-10.162-4.323-21.909,0.417-26.231,10.58h-1.106c-0.266,0-0.519,0.109-0.703,0.3
			c-0.156,0.171-0.259,0.383-0.287,0.608L9.196,19.13c-0.676,0.206-1.331,0.472-1.946,0.813l-1.244-0.936
			c-0.178-0.137-0.402-0.212-0.628-0.219c-0.266-0.007-0.519,0.089-0.709,0.28l-2.24,2.24c-0.034,0.034-0.054,0.061-0.083,0.095
			c-0.136,0.179-0.212,0.396-0.205,0.622c0.007,0.226,0.083,0.444,0.219,0.629l0.93,1.249c-0.171,0.314-0.321,0.628-0.458,0.956
			c-0.138,0.329-0.253,0.657-0.355,0.998l-1.537,0.219c-0.232,0.028-0.443,0.13-0.608,0.287c-0.19,0.184-0.3,0.437-0.3,0.704v3.176
			c0,0.265,0.11,0.518,0.3,0.702c0.17,0.157,0.383,0.26,0.608,0.288l1.537,0.218c0.198,0.676,0.471,1.331,0.813,1.947l-0.943,1.242
			c-0.136,0.178-0.212,0.402-0.218,0.627c0,0.008,0,0.02,0,0.026c0,0.256,0.102,0.5,0.281,0.686l2.24,2.232
			c0.185,0.187,0.444,0.286,0.71,0.281c0.226-0.008,0.444-0.084,0.629-0.22l1.243-0.936c0.314,0.17,0.628,0.321,0.956,0.458
			c0.328,0.136,0.655,0.253,0.997,0.355l0.219,1.534c0.027,0.234,0.13,0.445,0.287,0.609c0.184,0.191,0.438,0.301,0.704,0.301h3.168
			c0.265,0,0.519-0.109,0.703-0.301c0.158-0.171,0.26-0.382,0.294-0.609l0.218-1.534c0.136-0.043,0.273-0.084,0.404-0.131
			c0.32,0.348,0.654,0.69,1.004,1.018c0.478,0.451,0.97,0.875,1.475,1.271c1.517,1.133,2.405,2.915,2.397,4.807
			c-0.99,0.279-1.783,1.037-2.104,2.021c-0.54,1.639,0.349,3.4,1.988,3.941c-0.246,0.424-0.376,0.899-0.376,1.394
			c0,1.515,1.236,2.744,2.753,2.737h1.898v0.641c0.041,3.101,2.54,5.607,5.64,5.643c3.149,0.035,5.729-2.493,5.764-5.643V55.21
			h1.912c0.483,0,0.964-0.131,1.379-0.375c1.318-0.766,1.764-2.452,0.999-3.761c0.984-0.323,1.733-1.114,2.02-2.107
			c0.471-1.65-0.484-3.379-2.145-3.851c-0.005-1.892,0.883-3.674,2.398-4.807c2.971-2.31,5.237-5.409,6.53-8.94h3.023l1.646,2.055
			c0.143,0.205,0.375,0.328,0.628,0.328h1.345c0.13,0.445,0.37,0.855,0.697,1.182c1.072,1.073,2.821,1.073,3.895,0
			c1.069-1.072,1.069-2.82,0-3.893c-0.338-0.334-0.739-0.58-1.203-0.718c-1.464-0.422-2.985,0.425-3.408,1.886h-0.983l-1.678-2.103
			c-0.075-0.089-0.163-0.16-0.263-0.207c-0.101-0.047-0.212-0.073-0.327-0.073h-2.901c0.482-1.735,0.724-3.531,0.724-5.334v-0.287
			h8.544c0.285,1.201,1.222,2.137,2.424,2.424c1.76,0.423,3.53-0.662,3.946-2.424C65.245,22.443,64.159,20.682,62.396,20.257z
			 M57.5,12.056c0.486-0.479,1.264-0.479,1.741,0c0.48,0.484,0.48,1.263,0,1.741c-0.231,0.232-0.538,0.362-0.872,0.362
			c-0.322,0-0.637-0.13-0.869-0.362C57.021,13.312,57.017,12.534,57.5,12.056z M15.199,36.402c-0.409,0.171-0.833,0.306-1.263,0.41
			c-0.3,0.073-0.532,0.327-0.573,0.635l-0.232,1.632h-2.26l-0.225-1.599c-0.035-0.319-0.267-0.595-0.588-0.668
			c-0.867-0.204-1.694-0.554-2.452-1.018c-0.266-0.171-0.607-0.158-0.86,0.034L5.42,36.826l-1.605-1.607l0.983-1.303
			c0.198-0.252,0.218-0.6,0.048-0.873c-0.236-0.379-0.439-0.778-0.608-1.189c-0.17-0.411-0.307-0.836-0.409-1.27
			C3.753,30.283,3.5,30.05,3.193,30.009l-1.632-0.232v-2.261l1.599-0.225c0.327-0.035,0.594-0.267,0.669-0.587
			c0.212-0.867,0.553-1.694,1.018-2.452c0.17-0.266,0.157-0.608-0.035-0.86l-0.997-1.326l1.605-1.605l1.304,0.983
			c0.246,0.205,0.595,0.226,0.868,0.055c0.378-0.235,0.777-0.438,1.188-0.609c0.412-0.17,0.837-0.306,1.271-0.409
			c0.299-0.075,0.532-0.328,0.574-0.635l0.232-1.639h2.26l0.226,1.599c0.035,0.328,0.273,0.6,0.58,0.669
			c0.868,0.211,1.694,0.552,2.453,1.017c0.266,0.171,0.608,0.156,0.86-0.035l1.326-0.997l1.604,1.605l-0.963,1.326
			c-0.198,0.245-0.226,0.594-0.055,0.866c0.233,0.376,0.438,0.779,0.608,1.188c0.171,0.41,0.309,0.833,0.41,1.264
			c0.074,0.301,0.328,0.533,0.635,0.573l1.631,0.232v2.261l-1.597,0.226c-0.322,0.034-0.595,0.266-0.669,0.586
			c-0.211,0.868-0.553,1.694-1.018,2.453c-0.171,0.266-0.156,0.607,0.034,0.859l0.99,1.324l-1.604,1.605l-1.304-0.983
			c-0.246-0.206-0.595-0.225-0.868-0.054C16.012,36.025,15.609,36.231,15.199,36.402z M34.097,55.846
			c0,2.308-1.873,4.179-4.181,4.179c-2.307,0-4.179-1.871-4.179-4.179v-0.642h8.36V55.846z M37.531,53.681H22.316
			c-0.657-0.02-1.189-0.547-1.203-1.203c-0.014-0.675,0.526-1.241,1.203-1.256h15.215c0.655,0.022,1.188,0.545,1.2,1.202
			C38.748,53.1,38.209,53.668,37.531,53.681z M40.488,48.073c0.021,0.882-0.683,1.61-1.563,1.634H20.909
			c-0.854-0.023-1.543-0.713-1.563-1.565c-0.021-0.883,0.683-1.611,1.563-1.632h18.016C39.779,46.523,40.469,47.213,40.488,48.073z
			 M27.335,23.112c0,0.484-0.197,0.956-0.54,1.297c-0.724,0.724-1.891,0.724-2.616,0c-0.724-0.724-0.724-1.891,0-2.616
			c0.725-0.724,1.892-0.724,2.616,0c0.348,0.342,0.54,0.813,0.54,1.298V23.112z M41.238,39.107c-1.85,1.398-2.947,3.571-2.982,5.887
			h-5.757V25.925c0.546,0.355,1.18,0.547,1.831,0.554c1.862,0.007,3.386-1.489,3.392-3.354c0.008-1.864-1.488-3.38-3.353-3.394
			h-0.011c-1.859,0-3.369,1.492-3.382,3.353v21.897h-2.118V23.078c-0.007-0.648-0.198-1.284-0.553-1.83
			c-1.024-1.557-3.114-1.994-4.672-0.97c-1.557,1.025-1.994,3.116-0.97,4.672c1.025,1.558,3.114,1.995,4.672,0.97v19.069h-5.757
			c-0.027-2.316-1.133-4.489-2.978-5.889c-0.483-0.375-0.942-0.766-1.372-1.174c-0.191-0.179-0.376-0.364-0.561-0.554l0.069-0.034
			l1.249,0.936c0.178,0.136,0.403,0.212,0.628,0.22c0.266,0.005,0.52-0.095,0.71-0.281l2.24-2.239
			c0.184-0.185,0.287-0.445,0.28-0.711c-0.007-0.225-0.082-0.443-0.218-0.629l-0.936-1.25c0.178-0.313,0.329-0.635,0.465-0.962
			c0.137-0.329,0.252-0.656,0.355-0.997l1.536-0.219c0.232-0.028,0.445-0.13,0.608-0.287c0.192-0.185,0.301-0.437,0.301-0.704
			v-3.169c0-0.266-0.109-0.518-0.301-0.703c-0.171-0.157-0.381-0.26-0.608-0.287l-1.536-0.218c-0.205-0.677-0.472-1.333-0.813-1.946
			l0.936-1.243c0.136-0.178,0.211-0.403,0.218-0.629c0.006-0.266-0.095-0.519-0.28-0.71l-2.24-2.24
			c-0.185-0.185-0.444-0.287-0.71-0.28c-0.226,0.007-0.443,0.082-0.628,0.219l-1.25,0.936c-0.313-0.171-0.628-0.321-0.956-0.458
			c-0.327-0.136-0.655-0.259-0.997-0.355l-0.219-1.536c-0.035-0.232-0.137-0.444-0.293-0.608c-0.185-0.191-0.437-0.3-0.703-0.3
			h-0.404c1.243-2.657,3.101-4.986,5.416-6.782c8.059-6.249,19.669-4.788,25.925,3.278C50.766,21.248,49.3,32.852,41.238,39.107z
			 M32.491,23.106c0-1.025,0.826-1.851,1.852-1.851c0.491,0,0.962,0.19,1.312,0.539c0.343,0.349,0.538,0.82,0.538,1.312
			c0,1.024-0.826,1.85-1.85,1.85C33.317,24.956,32.491,24.13,32.491,23.106z M58,31.758c0.676,0,1.229,0.546,1.229,1.229
			c0,0.329-0.129,0.636-0.362,0.868c-0.226,0.231-0.54,0.361-0.866,0.361c-0.679,0-1.23-0.547-1.23-1.229
			C56.77,32.312,57.316,31.758,58,31.758z M62.888,24.697c-0.326,0.327-0.776,0.512-1.242,0.512c-0.971,0-1.754-0.785-1.754-1.755
			s0.783-1.755,1.754-1.755s1.755,0.785,1.755,1.755C63.406,23.918,63.218,24.369,62.888,24.697z M16.75,23.883
			c-1.263-1.263-2.977-1.966-4.761-1.966c-3.714,0-6.726,3.012-6.726,6.727c0,3.716,3.012,6.728,6.726,6.728
			c3.716,0,6.728-3.011,6.728-6.728C18.717,26.862,18.007,25.147,16.75,23.883z M15.664,32.318c-2.029,2.029-5.328,2.029-7.355,0
			c-2.029-2.028-2.029-5.327,0-7.355c2.027-2.028,5.319-2.028,7.355,0c0.976,0.97,1.53,2.294,1.523,3.675
			C17.187,30.016,16.64,31.341,15.664,32.318z M16.75,23.883c-1.263-1.263-2.977-1.966-4.761-1.966
			c-3.714,0-6.726,3.012-6.726,6.727c0,3.716,3.012,6.728,6.726,6.728c3.716,0,6.728-3.011,6.728-6.728
			C18.717,26.862,18.007,25.147,16.75,23.883z M15.664,32.318c-2.029,2.029-5.328,2.029-7.355,0c-2.029-2.028-2.029-5.327,0-7.355
			c2.027-2.028,5.319-2.028,7.355,0c0.976,0.97,1.53,2.294,1.523,3.675C17.187,30.016,16.64,31.341,15.664,32.318z M16.75,23.883
			c-1.263-1.263-2.977-1.966-4.761-1.966c-3.714,0-6.726,3.012-6.726,6.727c0,3.716,3.012,6.728,6.726,6.728
			c3.716,0,6.728-3.011,6.728-6.728C18.717,26.862,18.007,25.147,16.75,23.883z M15.664,32.318c-2.029,2.029-5.328,2.029-7.355,0
			c-2.029-2.028-2.029-5.327,0-7.355c2.027-2.028,5.319-2.028,7.355,0c0.976,0.97,1.53,2.294,1.523,3.675
			C17.187,30.016,16.64,31.341,15.664,32.318z M16.75,23.883c-1.263-1.263-2.977-1.966-4.761-1.966
			c-3.714,0-6.726,3.012-6.726,6.727c0,3.716,3.012,6.728,6.726,6.728c3.716,0,6.728-3.011,6.728-6.728
			C18.717,26.862,18.007,25.147,16.75,23.883z M15.664,32.318c-2.029,2.029-5.328,2.029-7.355,0c-2.029-2.028-2.029-5.327,0-7.355
			c2.027-2.028,5.319-2.028,7.355,0c0.976,0.97,1.53,2.294,1.523,3.675C17.187,30.016,16.64,31.341,15.664,32.318z M16.75,23.883
			c-1.263-1.263-2.977-1.966-4.761-1.966c-3.714,0-6.726,3.012-6.726,6.727c0,3.716,3.012,6.728,6.726,6.728
			c3.716,0,6.728-3.011,6.728-6.728C18.717,26.862,18.007,25.147,16.75,23.883z M15.664,32.318c-2.029,2.029-5.328,2.029-7.355,0
			c-2.029-2.028-2.029-5.327,0-7.355c2.027-2.028,5.319-2.028,7.355,0c0.976,0.97,1.53,2.294,1.523,3.675
			C17.187,30.016,16.64,31.341,15.664,32.318z M16.75,23.883c-1.263-1.263-2.977-1.966-4.761-1.966
			c-3.714,0-6.726,3.012-6.726,6.727c0,3.716,3.012,6.728,6.726,6.728c3.716,0,6.728-3.011,6.728-6.728
			C18.717,26.862,18.007,25.147,16.75,23.883z M15.664,32.318c-2.029,2.029-5.328,2.029-7.355,0c-2.029-2.028-2.029-5.327,0-7.355
			c2.027-2.028,5.319-2.028,7.355,0c0.976,0.97,1.53,2.294,1.523,3.675C17.187,30.016,16.64,31.341,15.664,32.318z M16.75,23.883
			c-1.263-1.263-2.977-1.966-4.761-1.966c-3.714,0-6.726,3.012-6.726,6.727c0,3.716,3.012,6.728,6.726,6.728
			c3.716,0,6.728-3.011,6.728-6.728C18.717,26.862,18.007,25.147,16.75,23.883z M15.664,32.318c-2.029,2.029-5.328,2.029-7.355,0
			c-2.029-2.028-2.029-5.327,0-7.355c2.027-2.028,5.319-2.028,7.355,0c0.976,0.97,1.53,2.294,1.523,3.675
			C17.187,30.016,16.64,31.341,15.664,32.318z"/>
		<path d="M15.664,24.963c-2.036-2.028-5.328-2.028-7.355,0c-2.029,2.028-2.029,5.327,0,7.355c2.027,2.029,5.326,2.029,7.355,0
			c0.976-0.977,1.523-2.302,1.523-3.681C17.194,27.257,16.64,25.933,15.664,24.963z M14.912,26.999l-2.341,4.063
			c-0.211,0.363-0.677,0.485-1.039,0.28c-0.013-0.006-0.026-0.014-0.04-0.021l-2.145-1.236c-0.362-0.212-0.484-0.669-0.28-1.031
			c0.212-0.362,0.669-0.485,1.031-0.28l1.53,0.887l1.974-3.428c0.212-0.361,0.676-0.484,1.038-0.272
			C15.001,26.171,15.124,26.635,14.912,26.999z"/>
		<path display="inline" d="M14.912,26.999l-2.341,4.063c-0.211,0.363-0.677,0.485-1.039,0.28c-0.013-0.006-0.026-0.014-0.04-0.021
			l-2.145-1.236c-0.362-0.212-0.484-0.669-0.28-1.031c0.212-0.362,0.669-0.485,1.031-0.28l1.53,0.887l1.974-3.428
			c0.212-0.361,0.676-0.484,1.038-0.272C15.001,26.171,15.124,26.635,14.912,26.999z"/>
	</g>
</g>
<g id="Layer_2" display="none">
	<g display="inline">
		<path d="M44.764,40.108h18.211c-0.41,2.266-1.826,4.352-4.371,5.549c-2.907,1.375-6.561,1.375-9.468,0
			C46.591,44.453,45.182,42.366,44.764,40.108z M2.027,40.108h18.212c-0.411,2.266-1.827,4.352-4.372,5.549
			c-2.914,1.375-6.561,1.375-9.475,0C3.848,44.453,2.438,42.366,2.027,40.108z M54.766,28.788l7.491,9.529h-7.491V28.788z
			 M52.967,28.788v9.529h-7.491L52.967,28.788z M12.022,28.788l7.498,9.529h-7.498V28.788z M10.23,28.788v9.529H2.739L10.23,28.788z
			 M32.505,18.361c7.149,0,14.318,0.493,21.542,1.546c0.014,0,0.028,0.007,0.042,0.007c0.513,0.048,0.738,0.226,0.902,0.472
			c0.164,0.239,0.239,0.581,0.191,0.917c-0.048,0.342-0.205,0.67-0.444,0.828c-0.424,0.281-0.671,0.24-1.033,0.185
			c-5.192-0.739-10.351-1.211-15.495-1.396c-0.506-0.021-0.923,0.383-0.923,0.889v37.688c0,0.67-0.206,0.943-0.562,1.217
			c-0.342,0.26-0.903,0.438-1.478,0.438c-0.581,0-1.143-0.178-1.478-0.438c-0.362-0.28-0.562-0.547-0.562-1.217
			c0-7.313,0-14.634,0-21.953c0.007-0.541-0.458-0.965-0.998-0.903c-0.452,0.055-0.794,0.444-0.787,0.903
			c-0.014,7.319,0.014,14.633-0.007,21.953c0,0.67-0.198,0.943-0.554,1.217c-0.342,0.26-0.903,0.438-1.478,0.438
			c-0.582,0-1.143-0.178-1.484-0.438c-0.356-0.28-0.555-0.547-0.555-1.217V21.844c0-0.513-0.424-0.917-0.931-0.896
			c-5.008,0.191-10.049,0.567-15.084,1.375c-0.425,0.068-0.773,0.014-1.04-0.185c-0.226-0.171-0.391-0.485-0.438-0.828
			c-0.049-0.342,0-0.698,0.185-0.917c0.328-0.397,0.554-0.417,0.943-0.479C18.173,18.841,25.355,18.361,32.505,18.361z
			 M32.505,16.576c-7.218,0-14.483,0.438-21.769,1.56c-0.923,0.144-1.758,0.609-2.203,1.245c-0.451,0.657-0.588,1.45-0.479,2.182
			c0.109,0.739,0.466,1.458,1.088,1.963c0.301,0.247,0.678,0.431,1.088,0.527v1.833L0.194,38.651
			c-0.116,0.158-0.185,0.343-0.191,0.541c-0.007,0.164,0,0.314,0.014,0.485c0.28,3.161,2.326,6.041,5.609,7.594
			c3.428,1.621,7.58,1.621,11.001,0c3.283-1.553,5.329-4.427,5.609-7.594c0.014-0.164,0.014-0.314,0.021-0.485
			c0.007-0.219-0.089-0.418-0.191-0.541L12.022,25.887v-1.854c4.516-0.643,9.017-1.012,13.505-1.217v36.682
			c0,1.155,0.54,2.093,1.259,2.641c0.738,0.567,1.655,0.813,2.571,0.813c0.917,0,1.834-0.253,2.573-0.813h0.725
			c0.732,0.561,1.648,0.813,2.572,0.813c0.917,0,1.841-0.246,2.572-0.813c0.711-0.548,1.259-1.485,1.259-2.641V22.801
			c4.618,0.192,9.249,0.575,13.901,1.231v1.854L42.938,38.651c-0.123,0.158-0.191,0.343-0.191,0.541c0,0.164,0,0.314,0.014,0.485
			c0.28,3.161,2.333,6.041,5.609,7.594c3.427,1.621,7.587,1.621,11.008,0c3.283-1.553,5.322-4.427,5.603-7.594
			C65,39.514,64.993,39.363,65,39.192c0.007-0.219-0.089-0.418-0.191-0.541L54.766,25.887V24.06
			c0.417-0.103,0.787-0.287,1.102-0.534c0.622-0.506,0.972-1.224,1.081-1.963c0.109-0.732-0.034-1.519-0.479-2.182
			c-0.492-0.739-1.423-1.156-2.203-1.245C46.967,17.069,39.715,16.576,32.505,16.576z"/>
		<path d="M31.458,3.961c2.408-0.568,4.803,0.903,5.377,3.304c0.575,2.408-0.889,4.809-3.304,5.384
			c-2.408,0.568-4.796-0.903-5.371-3.304C27.586,6.937,29.057,4.536,31.458,3.961z M31.048,2.217
			c-3.353,0.8-5.426,4.187-4.625,7.539c0.801,3.346,4.193,5.432,7.539,4.631c3.345-0.8,5.425-4.187,4.625-7.539
			C37.779,3.51,34.394,1.423,31.048,2.217z"/>
	</g>
</g>
<g id="Layer_3">
	<g>
		<g>
			<path d="M44.57,41.082c-0.062-0.524-0.518-0.921-1.049-0.921h-4.542v-4.077c0-0.579-0.476-1.044-1.056-1.044h-2.181l1.636-8.012
				l2.822,1.452c0.152,0.075,0.325,0.116,0.497,0.116c0.221,0,0.442-0.074,0.621-0.205c0.325-0.231,0.49-0.634,0.422-1.022
				l-1.595-8.961l6.592-6.349c0.282-0.273,0.386-0.682,0.269-1.058c-0.124-0.375-0.455-0.647-0.855-0.695L37.04,8.969l-4.072-8.163
				c-0.255-0.518-0.89-0.736-1.414-0.484c-0.215,0.103-0.387,0.273-0.49,0.484l-4.079,8.156l-9.076,1.336
				c-0.394,0.055-0.726,0.321-0.856,0.696c-0.124,0.382-0.021,0.798,0.27,1.071l6.592,6.349l-1.595,8.955
				c-0.097,0.573,0.297,1.111,0.876,1.207c0.229,0.034,0.456,0,0.663-0.103l2.823-1.452l1.636,8.034h-2.216
				c-0.587,0-1.056,0.469-1.056,1.042v4.051h-4.542c-0.538,0-0.987,0.396-1.049,0.92l-2.823,22.751
				c-0.034,0.301,0.063,0.6,0.27,0.825c0.2,0.227,0.482,0.355,0.786,0.355h28.645c0.304,0,0.593-0.129,0.786-0.355
				c0.2-0.218,0.297-0.519,0.263-0.817L44.57,41.082z M25.756,17.276l-5.46-5.251l7.544-1.085c0.345-0.048,0.642-0.266,0.794-0.573
				l3.368-6.731l3.368,6.751c0.152,0.307,0.456,0.526,0.794,0.573l7.544,1.084l-5.46,5.231c-0.248,0.245-0.358,0.586-0.304,0.927
				l1.291,7.434l-6.75-3.485c-0.311-0.17-0.684-0.17-0.987,0l-6.75,3.485l1.29-7.427C26.121,17.863,26.004,17.515,25.756,17.276z
				 M28.578,25.999l3.438-1.753l3.41,1.773l-1.844,9.05h-3.146L28.578,25.999z M18.86,62.926l2.574-20.67h4.666
				c0.587,0,1.056-0.472,1.056-1.043l0,0v-4.052h9.705v4.052c0,0.579,0.476,1.043,1.056,1.043h4.666l2.554,20.656L18.86,62.926z"/>
			<path d="M38.794,48.061H25.23c-0.586,0-1.056,0.469-1.056,1.042c0,0.581,0.477,1.044,1.056,1.044h13.57
				c0.586,0,1.056-0.471,1.056-1.044S39.38,48.061,38.794,48.061z"/>
			<path d="M38.794,55.596H25.23c-0.586,0-1.056,0.47-1.056,1.043c0,0.58,0.477,1.044,1.056,1.044h13.57
				c0.586,0,1.056-0.472,1.056-1.044C39.856,56.06,39.38,55.596,38.794,55.596z"/>
			<path d="M38.794,51.837H25.23c-0.586,0-1.056,0.471-1.056,1.044s0.477,1.044,1.056,1.044h13.57c0.586,0,1.056-0.471,1.056-1.044
				S39.38,51.837,38.794,51.837z"/>
			<path d="M57.561,31.972c-0.414-0.402-1.084-0.402-1.505,0l-1.408,1.391l-1.408-1.391c-0.448-0.375-1.11-0.313-1.49,0.124
				c-0.338,0.396-0.331,0.968,0.007,1.356l1.408,1.391l-1.408,1.392c-0.421,0.401-0.435,1.063-0.027,1.48
				c0.193,0.196,0.455,0.313,0.731,0.32c0.283,0,0.552-0.11,0.745-0.307l1.408-1.392l1.408,1.392c0.414,0.409,1.083,0.409,1.505,0
				c0.407-0.409,0.407-1.071,0-1.48l-1.408-1.392l1.408-1.392C57.961,33.069,57.975,32.395,57.561,31.972L57.561,31.972z"/>
			<path d="M12.269,31.972c-0.414-0.402-1.083-0.402-1.498,0l-1.407,1.391l-1.408-1.391c-0.442-0.382-1.118-0.333-1.505,0.11
				c-0.345,0.396-0.345,0.981,0,1.377l1.408,1.39L6.45,36.24c-0.407,0.409-0.407,1.071,0,1.48c0.414,0.409,1.084,0.409,1.505,0
				l1.408-1.392l1.407,1.392c0.2,0.198,0.47,0.307,0.746,0.307c0.587-0.006,1.049-0.484,1.042-1.056
				c-0.007-0.267-0.11-0.52-0.297-0.71l-1.408-1.392l1.408-1.392c0.421-0.401,0.428-1.063,0.021-1.479
				C12.282,31.985,12.275,31.98,12.269,31.972z"/>
			<path d="M60.287,10.914l1.408-1.391c0.399-0.416,0.386-1.078-0.035-1.48c-0.4-0.382-1.035-0.382-1.442-0.013L58.81,9.42
				l-1.408-1.391c-0.414-0.402-1.083-0.402-1.497,0s-0.414,1.056-0.007,1.465l0.007,0.008l1.407,1.391l-1.407,1.391
				c-0.414,0.402-0.414,1.058-0.007,1.467l0.007,0.007c0.2,0.198,0.469,0.307,0.745,0.307c0.276,0.007,0.545-0.095,0.745-0.287
				l1.408-1.391l1.408,1.391c0.2,0.198,0.47,0.307,0.745,0.307c0.276-0.007,0.546-0.116,0.739-0.307c0.407-0.409,0.407-1.071,0-1.48
				L60.287,10.914z"/>
			<path d="M7.402,14.098c0.283,0,0.553-0.109,0.746-0.307c0.414-0.402,0.414-1.057,0.007-1.466l-0.007-0.007L6.74,10.927
				l1.408-1.392c0.414-0.402,0.414-1.058,0.007-1.466L8.148,8.063c-0.414-0.402-1.084-0.402-1.498,0L5.242,9.454L3.834,8.063
				C3.434,7.64,2.765,7.62,2.337,8.008C1.908,8.404,1.888,9.065,2.281,9.487c0.014,0.021,0.034,0.035,0.056,0.055l1.407,1.392
				l-1.407,1.391c-0.407,0.409-0.407,1.07,0,1.479c0.2,0.198,0.476,0.307,0.759,0.307c0.27-0.014,0.518-0.123,0.704-0.307
				l1.408-1.392l1.408,1.392C6.83,13.996,7.113,14.104,7.402,14.098z"/>
		</g>
	</g>
</g>
</svg>
