<?xml version="1.0" encoding="utf-8"?>
<!-- Generator: Adobe Illustrator 16.0.0, SVG Export Plug-In . SVG Version: 6.00 Build 0)  -->
<!DOCTYPE svg PUBLIC "-//W3C//DTD SVG 1.1//EN" "http://www.w3.org/Graphics/SVG/1.1/DTD/svg11.dtd">
<svg version="1.1" id="Layer_1" xmlns="http://www.w3.org/2000/svg" xmlns:xlink="http://www.w3.org/1999/xlink" x="0px" y="0px"
	 width="1920px" height="1080px" viewBox="0 0 1920 1080" enable-background="new 0 0 1920 1080" xml:space="preserve">
<g>
	<g>
		<path d="M745.188,104.544l19.332,28.188c141.48-96.876,328.32-95.256,468.072,3.996l-36.396,37.8
			c-59.509-40.608-129.925-62.316-201.96-62.1c-197.964,0-359.101,161.136-359.101,359.101c0,0,0.108,40.067,0.433,42.983
			c4.319,43.633,41.147,76.896,84.996,76.788H1267.8c47.196,0,85.429-38.34,85.536-85.536v-34.235
			c0.108-56.16-12.96-111.564-38.34-161.568l-30.564,15.444c22.896,45.359,34.776,95.363,34.668,146.231v34.236
			c0,28.296-23.004,51.3-51.3,51.3H720.564c-23.761,0.108-44.389-16.2-49.896-39.312l205.848-244.404l89.532,74.628
			c7.128,5.94,17.712,5.076,23.868-1.836l107.676-123.012l38.34,38.34c6.696,6.696,17.496,6.696,24.192,0
			c0.108-0.108,0.108-0.108,0.216-0.216l140.4-146.016c6.588-6.804,6.372-17.604-0.433-24.192c-0.756-0.756-1.62-1.404-2.592-2.052
			l-8.315-5.4l95.58-18.252l-10.584,95.472l-9.072-9.072c-6.696-6.696-17.496-6.696-24.192,0c-0.432,0.432-0.972,0.972-1.403,1.512
			l-176.041,224.1l-54.756-54.756c-6.695-6.696-17.496-6.696-24.191,0c-0.756,0.756-1.296,1.512-1.944,2.268l-108,154.332
			l-71.063-71.063c-6.696-6.696-17.496-6.696-24.192,0c-0.54,0.54-0.972,1.08-1.404,1.62L792.6,519.696l27,20.952l73.656-94.608
			l71.82,71.82c6.695,6.695,17.496,6.695,24.191,0c0.757-0.757,1.297-1.513,1.944-2.269l108-154.332l54,54
			c6.696,6.696,17.496,6.696,24.192,0c0.432-0.432,0.972-0.972,1.403-1.512l146.232-186.084
			c51.731,70.308,79.704,155.304,79.704,242.568v50.111c0,54.864-14.04,108.756-40.608,156.708
			c-14.688,26.353-25.92,54.54-33.479,83.809c-2.809,10.8-5.185,21.924-6.912,32.939l33.804,5.4
			c1.62-9.937,3.672-19.98,6.265-29.809c6.804-26.46,17.063-51.84,30.239-75.708c29.376-53.027,44.82-112.644,44.929-173.231V470.34
			c-0.108-97.848-32.4-192.888-92.017-270.432l8.1-10.26l20.521,20.52c6.696,6.696,17.496,6.696,24.191,0
			c2.7-2.7,4.429-6.372,4.86-10.152l17.064-153.9c1.079-9.396-5.725-17.82-15.12-18.9c-1.729-0.216-3.456-0.108-5.076,0.216
			l-160.38,30.456c-9.288,1.728-15.336,10.692-13.608,19.98c0.864,4.644,3.564,8.64,7.561,11.124l26.784,17.28l-5.292,5.508
			C1104.72,1.512,899.952-1.512,745.188,104.544L745.188,104.544z M1147.813,224.856l-38.988-38.988
			c-6.696-6.696-17.496-6.696-24.192,0c-0.216,0.216-0.54,0.54-0.756,0.864l-108.756,124.2l-89.748-74.844
			c-7.236-6.048-17.928-5.076-23.976,2.16L669.372,466.344c2.808-176.688,147.42-319.68,324.864-319.68
			c63.18-0.108,125.063,18.252,177.876,53.028L1147.813,224.856z M635.136,933.336v-68.364h34.236v68.364
			c0,47.196,38.34,85.428,85.536,85.536h371.952c24.191-0.108,45.144-17.064,50.22-40.716l46.224-219.24l33.48,7.021
			l-46.224,219.239c-2.593,12.204-7.885,23.76-15.337,33.696h123.984V850.393c0-6.805,0.216-13.824,0.647-20.629l34.129,1.944
			c-0.324,6.156-0.541,12.42-0.541,18.685v185.543c0,9.396-7.668,17.064-17.063,17.064H754.8
			C688.704,1052.892,635.136,999.324,635.136,933.336z M600.684,363.528l-80.027,296.136H652.2c9.396,0,17.063,7.668,17.063,17.064
			v85.428c40.5-0.972,79.057-17.496,107.568-46.225l24.192,24.192c-34.992,35.1-82.188,55.296-131.761,56.16v34.344h-34.235V693.9
			H498.3c-9.396,0-17.063-7.668-17.063-17.064c0-1.512,0.216-3.023,0.54-4.428l85.859-317.736
			c23.437-87.048,72.9-164.916,141.912-223.02l22.032,26.136C667.968,211.356,622.284,283.176,600.684,363.528z"/>
		<path d="M1267.8,659.664h-34.235v-34.236h34.235c20.952,0,41.688-5.508,59.832-16.092l17.172,29.592
			C1321.368,652.536,1294.8,659.664,1267.8,659.664z"/>
	</g>
</g>
</svg>
