<svg width="40" height="40" viewBox="0 0 40 40" fill="none" xmlns="http://www.w3.org/2000/svg">
<path d="M6.28785 9.20437L15.1442 17.9554V9.20437H17.4736L25.9396 17.7913V3.80664H36.1953V36.193H3.80895V9.20437H6.28785ZM5.96804 34.0339H34.0362V5.96573H28.0987V20.5396H25.6173L17.3033 12.1069V20.5396H14.6878L5.96804 11.9235V34.0339Z" fill="black"/>
<path d="M28.0938 24.8576V25.3974H25.9347V23.2383H28.0938V24.8576ZM28.0938 28.0962H25.9347V30.2553H28.0938V28.0962ZM22.696 24.8576V25.3974H20.5369V23.2383H22.696V24.8576ZM22.696 28.0962H20.5369V30.2553H22.696V28.0962ZM17.2983 24.8576V25.3974H15.1392V23.2383H17.2983V24.8576ZM17.2983 28.0962H15.1392V30.2553H17.2983V28.0962ZM11.9006 23.2383H9.74148V25.3974H11.9006V23.2383ZM11.9006 28.0962H9.74148V30.2553H11.9006V28.0962Z" fill="black"/>
</svg>
