<?xml version="1.0" encoding="utf-8"?>
<!-- Generator: Adobe Illustrator 16.0.0, SVG Export Plug-In . SVG Version: 6.00 Build 0)  -->
<!DOCTYPE svg PUBLIC "-//W3C//DTD SVG 1.1//EN" "http://www.w3.org/Graphics/SVG/1.1/DTD/svg11.dtd">
<svg version="1.1" id="Layer_1" xmlns="http://www.w3.org/2000/svg" xmlns:xlink="http://www.w3.org/1999/xlink" x="0px" y="0px"
	 width="1920px" height="1080px" viewBox="0 0 1920 1080" enable-background="new 0 0 1920 1080" xml:space="preserve">
<g>
	<path d="M711.28,395.93c-19.98-19.98-47.09-31.11-75.28-31.11c-58.75,0-106.38,47.63-106.38,106.38
		c0,58.76,47.63,106.38,106.38,106.38s106.38-47.62,106.38-106.38C742.38,443.02,731.15,415.91,711.28,395.93z M694.1,529.31
		c-32.07,32.07-84.24,32.07-116.31,0c-32.08-32.08-32.08-84.24,0-116.32c32.07-32.07,84.13-32.07,116.31,0
		c15.45,15.34,24.2,36.29,24.09,58.11C718.19,492.91,709.55,513.86,694.1,529.31z M711.28,395.93
		c-19.98-19.98-47.09-31.11-75.28-31.11c-58.75,0-106.38,47.63-106.38,106.38c0,58.76,47.63,106.38,106.38,106.38
		s106.38-47.62,106.38-106.38C742.38,443.02,731.15,415.91,711.28,395.93z M694.1,529.31c-32.07,32.07-84.24,32.07-116.31,0
		c-32.08-32.08-32.08-84.24,0-116.32c32.07-32.07,84.13-32.07,116.31,0c15.45,15.34,24.2,36.29,24.09,58.11
		C718.19,492.91,709.55,513.86,694.1,529.31z M711.28,395.93c-19.98-19.98-47.09-31.11-75.28-31.11
		c-58.75,0-106.38,47.63-106.38,106.38c0,58.76,47.63,106.38,106.38,106.38s106.38-47.62,106.38-106.38
		C742.38,443.02,731.15,415.91,711.28,395.93z M694.1,529.31c-32.07,32.07-84.24,32.07-116.31,0c-32.08-32.08-32.08-84.24,0-116.32
		c32.07-32.07,84.13-32.07,116.31,0c15.45,15.34,24.2,36.29,24.09,58.11C718.19,492.91,709.55,513.86,694.1,529.31z M711.28,395.93
		c-19.98-19.98-47.09-31.11-75.28-31.11c-58.75,0-106.38,47.63-106.38,106.38c0,58.76,47.63,106.38,106.38,106.38
		s106.38-47.62,106.38-106.38C742.38,443.02,731.15,415.91,711.28,395.93z M694.1,529.31c-32.07,32.07-84.24,32.07-116.31,0
		c-32.08-32.08-32.08-84.24,0-116.32c32.07-32.07,84.13-32.07,116.31,0c15.45,15.34,24.2,36.29,24.09,58.11
		C718.19,492.91,709.55,513.86,694.1,529.31z M711.28,395.93c-19.98-19.98-47.09-31.11-75.28-31.11
		c-58.75,0-106.38,47.63-106.38,106.38c0,58.76,47.63,106.38,106.38,106.38s106.38-47.62,106.38-106.38
		C742.38,443.02,731.15,415.91,711.28,395.93z M694.1,529.31c-32.07,32.07-84.24,32.07-116.31,0c-32.08-32.08-32.08-84.24,0-116.32
		c32.07-32.07,84.13-32.07,116.31,0c15.45,15.34,24.2,36.29,24.09,58.11C718.19,492.91,709.55,513.86,694.1,529.31z M711.28,395.93
		c-19.98-19.98-47.09-31.11-75.28-31.11c-58.75,0-106.38,47.63-106.38,106.38c0,58.76,47.63,106.38,106.38,106.38
		s106.38-47.62,106.38-106.38C742.38,443.02,731.15,415.91,711.28,395.93z M694.1,529.31c-32.07,32.07-84.24,32.07-116.31,0
		c-32.08-32.08-32.08-84.24,0-116.32c32.07-32.07,84.13-32.07,116.31,0c15.45,15.34,24.2,36.29,24.09,58.11
		C718.19,492.91,709.55,513.86,694.1,529.31z M1433.15,338.58c-27.87-6.7-55.841,10.48-62.431,38.34H1234.32
		c-3.24-36.18-12.74-71.6-28.08-104.65h69.77c3.67,0,7.13-1.62,9.391-4.43l26.569-33.26h15.66c4.21,14.47,15.45,25.7,29.811,29.8
		c23,6.59,47.09-6.69,53.779-29.8c6.59-23.01-6.689-47.09-29.8-53.79c-23.01-6.59-47.09,6.7-53.79,29.81h-21.27
		c-4,0-7.67,1.94-9.94,5.18l-26.14,32.51h-76.46c-34.34-59.61-87.16-106.59-150.551-133.49C882.56,46.44,696.8,121.39,628.44,282.1
		h-17.5c-4.21,0-8.2,1.72-11.12,4.75c-2.48,2.7-4.1,6.05-4.54,9.61l-3.45,24.3c-10.69,3.24-21.06,7.45-30.78,12.85l-19.66-14.79
		c-2.81-2.16-6.37-3.35-9.93-3.46c-4.22-0.11-8.21,1.4-11.24,4.43l-35.42,35.42c-0.54,0.54-0.86,0.97-1.3,1.51
		c-2.16,2.81-3.34,6.27-3.24,9.83c0.11,3.57,1.3,7.02,3.46,9.94l14.69,19.76c-2.7,4.97-5.08,9.94-7.24,15.12
		c-2.16,5.19-3.99,10.37-5.61,15.77l-24.3,3.46c-3.68,0.43-7.02,2.05-9.62,4.53c-3.02,2.92-4.75,6.91-4.75,11.13v50.22
		c0,4.21,1.73,8.2,4.75,11.12c2.7,2.48,6.05,4.1,9.62,4.54l24.3,3.45c3.13,10.69,7.45,21.06,12.85,30.78l-14.91,19.66
		c-2.16,2.81-3.34,6.37-3.45,9.93c0,0.13-0.01,0.271-0.01,0.4c0,4.069,1.61,7.909,4.44,10.84l35.42,35.31
		c2.92,2.92,7.02,4.54,11.23,4.431c3.57-0.11,7.02-1.301,9.94-3.46l19.65-14.79c4.97,2.699,9.94,5.069,15.12,7.229
		c5.19,2.16,10.37,4,15.77,5.62l3.46,24.3c0.43,3.67,2.05,7.021,4.53,9.61c2.92,3.03,6.92,4.75,11.13,4.75h50.11
		c4.21,0,8.21-1.72,11.12-4.75c2.49-2.7,4.11-6.05,4.65-9.61l3.45-24.3c2.16-0.65,4.32-1.3,6.38-2.05
		c5.07,5.51,10.36,10.91,15.87,16.09c7.56,7.13,15.34,13.82,23.33,20.09c23.98,17.93,38.02,46.11,37.91,76.03
		c-15.66,4.43-28.19,16.42-33.27,31.97c-8.53,25.92,5.51,53.78,31.43,62.311c-3.89,6.699-5.94,14.26-5.94,22.039
		c0,23.971,19.55,43.41,43.53,43.301h30.02v10.16c0.65,49.029,40.18,88.659,89.21,89.199c49.791,0.54,90.61-39.42,91.15-89.199
		v-10.16h30.24c7.67,0,15.23-2.051,21.82-5.94c20.84-12.09,27.859-38.77,15.76-59.5c15.56-5.08,27.44-17.61,31.97-33.27
		c7.45-26.13-7.67-53.46-33.91-60.91c-0.109-29.92,13.931-58.101,37.91-76.03c46.98-36.51,82.83-85.54,103.25-141.37h47.84
		l26.03,32.5c2.271,3.24,5.94,5.19,9.93,5.19h21.28c2.05,7.02,5.83,13.5,11.021,18.68c16.949,16.96,44.6,16.96,61.56,0
		c16.95-16.95,16.95-44.6,0-61.56c-5.3-5.29-11.67-9.18-19.01-11.34c-23.11-6.69-47.2,6.7-53.89,29.81h-15.561l-26.56-33.26
		c-1.141-1.4-2.54-2.51-4.12-3.27c-1.58-0.75-3.34-1.16-5.17-1.16h-45.9c7.67-27.43,11.45-55.84,11.45-84.35V401h135.1
		c4.54,19.01,19.34,33.81,38.34,38.34c27.87,6.7,55.841-10.47,62.431-38.34C1478.18,373.14,1461.01,345.28,1433.15,338.58z
		 M1355.71,208.87c7.67-7.56,19.98-7.56,27.54,0c7.56,7.67,7.56,19.98,0,27.54c-3.67,3.67-8.53,5.73-13.82,5.73
		c-5.08,0-10.05-2.06-13.72-5.73C1348.15,228.74,1348.04,216.43,1355.71,208.87z M686.76,593.89c-6.48,2.7-13.18,4.86-19.98,6.48
		c-4.75,1.189-8.42,5.189-9.07,10.05l-3.67,25.811h-35.75l-3.57-25.271c-0.54-5.08-4.21-9.4-9.28-10.59
		c-13.72-3.24-26.79-8.75-38.78-16.09c-4.21-2.7-9.61-2.48-13.6,0.54l-20.96,15.77l-25.38-25.38l15.56-20.63
		c3.13-4,3.45-9.5,0.75-13.82c-3.73-6-6.94-12.29-9.62-18.8c-2.69-6.5-4.85-13.22-6.47-20.08c-1.19-4.76-5.18-8.43-10.04-9.08
		l-25.82-3.67v-35.75l25.28-3.56c5.18-0.54,9.39-4.21,10.58-9.29c3.35-13.71,8.75-26.78,16.09-38.77c2.7-4.21,2.49-9.61-0.54-13.61
		l-15.77-20.95l25.38-25.38l20.63,15.55c3.89,3.24,9.4,3.57,13.72,0.87c5.99-3.73,12.29-6.94,18.79-9.63
		c6.51-2.69,13.23-4.85,20.09-6.47c4.75-1.18,8.42-5.18,9.07-10.04l3.67-25.92h35.75l3.56,25.27c0.54,5.19,4.32,9.51,9.18,10.59
		c13.72,3.34,26.79,8.74,38.78,16.09c4.21,2.7,9.61,2.48,13.6-0.54l20.96-15.77l25.38,25.38l-15.23,20.95
		c-3.13,3.89-3.57,9.4-0.87,13.72c3.68,5.94,6.92,12.31,9.62,18.79c2.7,6.48,4.86,13.18,6.48,19.98c1.18,4.75,5.18,8.42,10.04,9.07
		l25.81,3.67v35.75l-25.27,3.57c-5.08,0.54-9.4,4.21-10.58,9.28c-3.35,13.72-8.75,26.79-16.1,38.78c-2.7,4.21-2.48,9.61,0.54,13.601
		l15.66,20.96L740,600.7l-20.62-15.561c-3.89-3.239-9.4-3.56-13.72-0.859C699.61,587.95,693.24,591.19,686.76,593.89z M985.6,901.37
		c0,36.5-29.6,66.09-66.1,66.09s-66.1-29.59-66.1-66.09v-10.15h132.2V901.37z M1039.92,867.13H799.3
		c-10.37-0.32-18.8-8.64-19.01-19.01c-0.22-10.69,8.31-19.65,19.01-19.87h240.62c10.37,0.33,18.79,8.64,19.01,19.01
		C1059.14,857.95,1050.61,866.92,1039.92,867.13z M1086.68,778.46c0.33,13.94-10.8,25.49-24.729,25.82h-284.9
		c-13.5-0.33-24.41-11.24-24.73-24.74c-0.33-13.93,10.8-25.48,24.73-25.81h284.9C1075.45,753.95,1086.36,764.86,1086.68,778.46z
		 M878.68,383.72c0,7.67-3.14,15.12-8.54,20.52c-11.44,11.45-29.91,11.45-41.36,0c-11.45-11.44-11.45-29.91,0-41.36
		c11.45-11.45,29.92-11.45,41.36,0c5.51,5.4,8.54,12.85,8.54,20.52V383.72z M1098.56,636.66c-29.26,22.14-46.649,56.479-47.189,93.1
		h-91.05V428.22c8.64,5.62,18.69,8.64,28.95,8.75c29.48,0.11,53.57-23.55,53.671-53.03c0.109-29.48-23.54-53.46-53.021-53.68h-0.189
		c-29.4,0-53.271,23.61-53.49,53.03v346.25h-33.48V383.18c-0.11-10.26-3.13-20.3-8.75-28.94c-16.2-24.62-49.25-31.54-73.87-15.34
		c-24.62,16.2-31.54,49.25-15.34,73.88c16.2,24.62,49.25,31.53,73.88,15.33V729.65h-91.05c-0.43-36.61-17.93-70.96-47.09-93.101
		c-7.66-5.939-14.9-12.09-21.7-18.569c-3.03-2.811-5.94-5.73-8.86-8.75l1.08-0.54l19.76,14.79c2.81,2.159,6.38,3.35,9.94,3.46
		c4.21,0.109,8.21-1.511,11.23-4.431l35.43-35.42c2.91-2.92,4.53-7.02,4.42-11.229c-0.1-3.57-1.29-7.021-3.45-9.94l-14.8-19.76
		c2.81-4.97,5.19-10.05,7.35-15.23c2.16-5.19,3.99-10.37,5.61-15.77l24.3-3.46c3.67-0.43,7.02-2.05,9.61-4.53
		c3.03-2.92,4.76-6.91,4.76-11.13v-50.11c0-4.21-1.73-8.21-4.76-11.12c-2.7-2.49-6.04-4.11-9.61-4.54l-24.3-3.45
		c-3.24-10.7-7.45-21.06-12.85-30.78l14.8-19.66c2.16-2.81,3.34-6.37,3.45-9.94c0.11-4.21-1.51-8.2-4.43-11.23l-35.42-35.42
		c-2.92-2.92-7.02-4.54-11.23-4.43c-3.57,0.11-7.02,1.3-9.94,3.46l-19.76,14.79c-4.97-2.7-9.94-5.07-15.12-7.23
		c-5.19-2.16-10.37-4.11-15.77-5.62l-3.46-24.3c-0.54-3.67-2.16-7.02-4.64-9.61c-2.92-3.03-6.91-4.75-11.12-4.75h-6.38
		c19.66-42.02,49.04-78.84,85.65-107.25c127.44-98.82,311.04-75.71,409.97,51.84C1249.22,354.24,1226,537.73,1098.56,636.66z
		 M960.22,383.62c0-16.2,13.06-29.27,29.26-29.27c7.779,0,15.229,3.02,20.739,8.53c5.4,5.51,8.53,12.96,8.53,20.74
		c0,16.2-13.07,29.26-29.27,29.26C973.28,412.88,960.22,399.82,960.22,383.62z M1363.6,520.45c10.69,0,19.44,8.64,19.44,19.44
		c0,5.19-2.06,10.05-5.73,13.72c-3.56,3.67-8.529,5.72-13.71,5.72c-10.699,0-19.439-8.64-19.439-19.44
		C1344.16,529.2,1352.8,520.45,1363.6,520.45z M1440.92,408.78c-5.18,5.18-12.31,8.1-19.65,8.1c-15.34,0-27.76-12.42-27.76-27.76
		c0-15.33,12.42-27.75,27.76-27.75c15.33,0,27.75,12.42,27.75,27.75C1449.13,396.47,1446.11,403.6,1440.92,408.78z M711.28,395.93
		c-19.98-19.98-47.09-31.11-75.28-31.11c-58.75,0-106.38,47.63-106.38,106.38c0,58.76,47.63,106.38,106.38,106.38
		s106.38-47.62,106.38-106.38C742.38,443.02,731.15,415.91,711.28,395.93z M694.1,529.31c-32.07,32.07-84.24,32.07-116.31,0
		c-32.08-32.08-32.08-84.24,0-116.32c32.07-32.07,84.13-32.07,116.31,0c15.45,15.34,24.2,36.29,24.09,58.11
		C718.19,492.91,709.55,513.86,694.1,529.31z M711.28,395.93c-19.98-19.98-47.09-31.11-75.28-31.11
		c-58.75,0-106.38,47.63-106.38,106.38c0,58.76,47.63,106.38,106.38,106.38s106.38-47.62,106.38-106.38
		C742.38,443.02,731.15,415.91,711.28,395.93z M694.1,529.31c-32.07,32.07-84.24,32.07-116.31,0c-32.08-32.08-32.08-84.24,0-116.32
		c32.07-32.07,84.13-32.07,116.31,0c15.45,15.34,24.2,36.29,24.09,58.11C718.19,492.91,709.55,513.86,694.1,529.31z M711.28,395.93
		c-19.98-19.98-47.09-31.11-75.28-31.11c-58.75,0-106.38,47.63-106.38,106.38c0,58.76,47.63,106.38,106.38,106.38
		s106.38-47.62,106.38-106.38C742.38,443.02,731.15,415.91,711.28,395.93z M694.1,529.31c-32.07,32.07-84.24,32.07-116.31,0
		c-32.08-32.08-32.08-84.24,0-116.32c32.07-32.07,84.13-32.07,116.31,0c15.45,15.34,24.2,36.29,24.09,58.11
		C718.19,492.91,709.55,513.86,694.1,529.31z M711.28,395.93c-19.98-19.98-47.09-31.11-75.28-31.11
		c-58.75,0-106.38,47.63-106.38,106.38c0,58.76,47.63,106.38,106.38,106.38s106.38-47.62,106.38-106.38
		C742.38,443.02,731.15,415.91,711.28,395.93z M694.1,529.31c-32.07,32.07-84.24,32.07-116.31,0c-32.08-32.08-32.08-84.24,0-116.32
		c32.07-32.07,84.13-32.07,116.31,0c15.45,15.34,24.2,36.29,24.09,58.11C718.19,492.91,709.55,513.86,694.1,529.31z M711.28,395.93
		c-19.98-19.98-47.09-31.11-75.28-31.11c-58.75,0-106.38,47.63-106.38,106.38c0,58.76,47.63,106.38,106.38,106.38
		s106.38-47.62,106.38-106.38C742.38,443.02,731.15,415.91,711.28,395.93z M694.1,529.31c-32.07,32.07-84.24,32.07-116.31,0
		c-32.08-32.08-32.08-84.24,0-116.32c32.07-32.07,84.13-32.07,116.31,0c15.45,15.34,24.2,36.29,24.09,58.11
		C718.19,492.91,709.55,513.86,694.1,529.31z M711.28,395.93c-19.98-19.98-47.09-31.11-75.28-31.11
		c-58.75,0-106.38,47.63-106.38,106.38c0,58.76,47.63,106.38,106.38,106.38s106.38-47.62,106.38-106.38
		C742.38,443.02,731.15,415.91,711.28,395.93z M694.1,529.31c-32.07,32.07-84.24,32.07-116.31,0c-32.08-32.08-32.08-84.24,0-116.32
		c32.07-32.07,84.13-32.07,116.31,0c15.45,15.34,24.2,36.29,24.09,58.11C718.19,492.91,709.55,513.86,694.1,529.31z M711.28,395.93
		c-19.98-19.98-47.09-31.11-75.28-31.11c-58.75,0-106.38,47.63-106.38,106.38c0,58.76,47.63,106.38,106.38,106.38
		s106.38-47.62,106.38-106.38C742.38,443.02,731.15,415.91,711.28,395.93z M694.1,529.31c-32.07,32.07-84.24,32.07-116.31,0
		c-32.08-32.08-32.08-84.24,0-116.32c32.07-32.07,84.13-32.07,116.31,0c15.45,15.34,24.2,36.29,24.09,58.11
		C718.19,492.91,709.55,513.86,694.1,529.31z"/>
	<path display="none" d="M694.1,412.99c-32.18-32.07-84.24-32.07-116.31,0c-32.08,32.08-32.08,84.24,0,116.32
		c32.07,32.07,84.24,32.07,116.31,0c15.45-15.45,24.09-36.4,24.09-58.21C718.3,449.28,709.55,428.33,694.1,412.99z M682.22,445.18
		l-37.04,64.26c-3.35,5.72-10.69,7.66-16.42,4.42c-0.21-0.1-0.43-0.21-0.64-0.32l-33.92-19.55c-5.72-3.35-7.66-10.58-4.42-16.31
		c3.34-5.72,10.58-7.66,16.3-4.42l24.2,14.04l31.21-54.22c3.35-5.72,10.69-7.67,16.41-4.32
		C683.63,432.11,685.57,439.45,682.22,445.18z"/>
	<path d="M682.22,445.18l-37.04,64.26c-3.35,5.72-10.69,7.66-16.42,4.42c-0.21-0.1-0.43-0.21-0.64-0.32l-33.92-19.55
		c-5.72-3.35-7.66-10.58-4.42-16.31c3.34-5.72,10.58-7.66,16.3-4.42l24.2,14.04l31.21-54.22c3.35-5.72,10.69-7.67,16.41-4.32
		C683.63,432.11,685.57,439.45,682.22,445.18z"/>
</g>
</svg>
