<?xml version="1.0" encoding="utf-8"?>
<!-- Generator: Adobe Illustrator 16.0.0, SVG Export Plug-In . SVG Version: 6.00 Build 0)  -->
<!DOCTYPE svg PUBLIC "-//W3C//DTD SVG 1.1//EN" "http://www.w3.org/Graphics/SVG/1.1/DTD/svg11.dtd">
<svg version="1.1" id="Layer_1" xmlns="http://www.w3.org/2000/svg" xmlns:xlink="http://www.w3.org/1999/xlink" x="0px" y="0px"
	 width="65px" height="65px" viewBox="0 0 65 65" enable-background="new 0 0 65 65" xml:space="preserve">
<g>
	<path d="M16.75,23.883c-1.263-1.263-2.977-1.966-4.761-1.966c-3.714,0-6.726,3.012-6.726,6.727c0,3.716,3.012,6.728,6.726,6.728
		c3.716,0,6.728-3.011,6.728-6.728C18.717,26.862,18.007,25.147,16.75,23.883z M15.664,32.318c-2.029,2.029-5.328,2.029-7.355,0
		c-2.029-2.028-2.029-5.327,0-7.355c2.027-2.028,5.319-2.028,7.355,0c0.976,0.97,1.53,2.294,1.523,3.675
		C17.187,30.016,16.64,31.341,15.664,32.318z M16.75,23.883c-1.263-1.263-2.977-1.966-4.761-1.966c-3.714,0-6.726,3.012-6.726,6.727
		c0,3.716,3.012,6.728,6.726,6.728c3.716,0,6.728-3.011,6.728-6.728C18.717,26.862,18.007,25.147,16.75,23.883z M15.664,32.318
		c-2.029,2.029-5.328,2.029-7.355,0c-2.029-2.028-2.029-5.327,0-7.355c2.027-2.028,5.319-2.028,7.355,0
		c0.976,0.97,1.53,2.294,1.523,3.675C17.187,30.016,16.64,31.341,15.664,32.318z M16.75,23.883
		c-1.263-1.263-2.977-1.966-4.761-1.966c-3.714,0-6.726,3.012-6.726,6.727c0,3.716,3.012,6.728,6.726,6.728
		c3.716,0,6.728-3.011,6.728-6.728C18.717,26.862,18.007,25.147,16.75,23.883z M15.664,32.318c-2.029,2.029-5.328,2.029-7.355,0
		c-2.029-2.028-2.029-5.327,0-7.355c2.027-2.028,5.319-2.028,7.355,0c0.976,0.97,1.53,2.294,1.523,3.675
		C17.187,30.016,16.64,31.341,15.664,32.318z M16.75,23.883c-1.263-1.263-2.977-1.966-4.761-1.966c-3.714,0-6.726,3.012-6.726,6.727
		c0,3.716,3.012,6.728,6.726,6.728c3.716,0,6.728-3.011,6.728-6.728C18.717,26.862,18.007,25.147,16.75,23.883z M15.664,32.318
		c-2.029,2.029-5.328,2.029-7.355,0c-2.029-2.028-2.029-5.327,0-7.355c2.027-2.028,5.319-2.028,7.355,0
		c0.976,0.97,1.53,2.294,1.523,3.675C17.187,30.016,16.64,31.341,15.664,32.318z M16.75,23.883
		c-1.263-1.263-2.977-1.966-4.761-1.966c-3.714,0-6.726,3.012-6.726,6.727c0,3.716,3.012,6.728,6.726,6.728
		c3.716,0,6.728-3.011,6.728-6.728C18.717,26.862,18.007,25.147,16.75,23.883z M15.664,32.318c-2.029,2.029-5.328,2.029-7.355,0
		c-2.029-2.028-2.029-5.327,0-7.355c2.027-2.028,5.319-2.028,7.355,0c0.976,0.97,1.53,2.294,1.523,3.675
		C17.187,30.016,16.64,31.341,15.664,32.318z M16.75,23.883c-1.263-1.263-2.977-1.966-4.761-1.966c-3.714,0-6.726,3.012-6.726,6.727
		c0,3.716,3.012,6.728,6.726,6.728c3.716,0,6.728-3.011,6.728-6.728C18.717,26.862,18.007,25.147,16.75,23.883z M15.664,32.318
		c-2.029,2.029-5.328,2.029-7.355,0c-2.029-2.028-2.029-5.327,0-7.355c2.027-2.028,5.319-2.028,7.355,0
		c0.976,0.97,1.53,2.294,1.523,3.675C17.187,30.016,16.64,31.341,15.664,32.318z M62.396,20.257
		c-1.763-0.423-3.53,0.663-3.945,2.424h-8.627c-0.207-2.288-0.806-4.528-1.776-6.618h4.412c0.232,0,0.452-0.103,0.595-0.279
		l1.68-2.104h0.991c0.265,0.916,0.977,1.625,1.884,1.884c1.454,0.417,2.979-0.422,3.401-1.884c0.418-1.455-0.423-2.978-1.885-3.401
		c-1.454-0.417-2.977,0.423-3.4,1.884H54.38c-0.255,0-0.485,0.123-0.63,0.327l-1.651,2.056h-4.835
		c-2.171-3.769-5.513-6.739-9.521-8.441c-10.162-4.323-21.909,0.417-26.231,10.58h-1.106c-0.266,0-0.519,0.109-0.703,0.3
		c-0.156,0.171-0.259,0.383-0.287,0.608L9.196,19.13c-0.676,0.206-1.331,0.472-1.946,0.813l-1.244-0.936
		c-0.178-0.137-0.402-0.212-0.628-0.219c-0.266-0.007-0.519,0.089-0.709,0.28l-2.24,2.24c-0.034,0.034-0.054,0.061-0.083,0.095
		c-0.136,0.179-0.212,0.396-0.205,0.622c0.007,0.226,0.083,0.444,0.219,0.629l0.93,1.249c-0.171,0.314-0.321,0.628-0.458,0.956
		c-0.138,0.329-0.253,0.657-0.355,0.998l-1.537,0.219c-0.232,0.028-0.443,0.13-0.608,0.287c-0.19,0.184-0.3,0.437-0.3,0.704v3.176
		c0,0.265,0.11,0.518,0.3,0.702c0.17,0.157,0.383,0.26,0.608,0.288l1.537,0.218c0.198,0.676,0.471,1.331,0.813,1.947l-0.943,1.242
		c-0.136,0.178-0.212,0.402-0.218,0.627c0,0.008,0,0.02,0,0.026c0,0.256,0.102,0.5,0.281,0.686l2.24,2.232
		c0.185,0.187,0.444,0.286,0.71,0.281c0.226-0.008,0.444-0.084,0.629-0.22l1.243-0.936c0.314,0.17,0.628,0.321,0.956,0.458
		c0.328,0.136,0.655,0.253,0.997,0.355l0.219,1.534c0.027,0.234,0.13,0.445,0.287,0.609c0.184,0.191,0.438,0.301,0.704,0.301h3.168
		c0.265,0,0.519-0.109,0.703-0.301c0.158-0.171,0.26-0.382,0.294-0.609l0.218-1.534c0.136-0.043,0.273-0.084,0.404-0.131
		c0.32,0.348,0.654,0.69,1.004,1.018c0.478,0.451,0.97,0.875,1.475,1.271c1.517,1.133,2.405,2.915,2.397,4.807
		c-0.99,0.279-1.783,1.037-2.104,2.021c-0.54,1.639,0.349,3.4,1.988,3.941c-0.246,0.424-0.376,0.899-0.376,1.394
		c0,1.515,1.236,2.744,2.753,2.737h1.898v0.641c0.041,3.101,2.54,5.607,5.64,5.643c3.149,0.035,5.729-2.493,5.764-5.643V55.21h1.912
		c0.483,0,0.964-0.131,1.379-0.375c1.318-0.766,1.764-2.452,0.999-3.761c0.984-0.323,1.733-1.114,2.02-2.107
		c0.471-1.65-0.484-3.379-2.145-3.851c-0.005-1.892,0.883-3.674,2.398-4.807c2.971-2.31,5.237-5.409,6.53-8.94h3.023l1.646,2.055
		c0.143,0.205,0.375,0.328,0.628,0.328h1.345c0.13,0.445,0.37,0.855,0.697,1.182c1.072,1.073,2.821,1.073,3.895,0
		c1.069-1.072,1.069-2.82,0-3.893c-0.338-0.334-0.739-0.58-1.203-0.718c-1.464-0.422-2.985,0.425-3.408,1.886h-0.983l-1.678-2.103
		c-0.075-0.089-0.163-0.16-0.263-0.207c-0.101-0.047-0.212-0.073-0.327-0.073h-2.901c0.482-1.735,0.724-3.531,0.724-5.334v-0.287
		h8.544c0.285,1.201,1.222,2.137,2.424,2.424c1.76,0.423,3.53-0.662,3.946-2.424C65.245,22.443,64.159,20.682,62.396,20.257z
		 M57.5,12.056c0.486-0.479,1.264-0.479,1.741,0c0.48,0.484,0.48,1.263,0,1.741c-0.231,0.232-0.538,0.362-0.872,0.362
		c-0.322,0-0.637-0.13-0.869-0.362C57.021,13.312,57.017,12.534,57.5,12.056z M15.199,36.402c-0.409,0.171-0.833,0.306-1.263,0.41
		c-0.3,0.073-0.532,0.327-0.573,0.635l-0.232,1.632h-2.26l-0.225-1.599c-0.035-0.319-0.267-0.595-0.588-0.668
		c-0.867-0.204-1.694-0.554-2.452-1.018c-0.266-0.171-0.607-0.158-0.86,0.034L5.42,36.826l-1.605-1.607l0.983-1.303
		c0.198-0.252,0.218-0.6,0.048-0.873c-0.236-0.379-0.439-0.778-0.608-1.189c-0.17-0.411-0.307-0.836-0.409-1.27
		C3.753,30.283,3.5,30.05,3.193,30.009l-1.632-0.232v-2.261l1.599-0.225c0.327-0.035,0.594-0.267,0.669-0.587
		c0.212-0.867,0.553-1.694,1.018-2.452c0.17-0.266,0.157-0.608-0.035-0.86l-0.997-1.326l1.605-1.605l1.304,0.983
		c0.246,0.205,0.595,0.226,0.868,0.055c0.378-0.235,0.777-0.438,1.188-0.609c0.412-0.17,0.837-0.306,1.271-0.409
		c0.299-0.075,0.532-0.328,0.574-0.635l0.232-1.639h2.26l0.226,1.599c0.035,0.328,0.273,0.6,0.58,0.669
		c0.868,0.211,1.694,0.552,2.453,1.017c0.266,0.171,0.608,0.156,0.86-0.035l1.326-0.997l1.604,1.605l-0.963,1.326
		c-0.198,0.245-0.226,0.594-0.055,0.866c0.233,0.376,0.438,0.779,0.608,1.188c0.171,0.41,0.309,0.833,0.41,1.264
		c0.074,0.301,0.328,0.533,0.635,0.573l1.631,0.232v2.261l-1.597,0.226c-0.322,0.034-0.595,0.266-0.669,0.586
		c-0.211,0.868-0.553,1.694-1.018,2.453c-0.171,0.266-0.156,0.607,0.034,0.859l0.99,1.324l-1.604,1.605l-1.304-0.983
		c-0.246-0.206-0.595-0.225-0.868-0.054C16.012,36.025,15.609,36.231,15.199,36.402z M34.097,55.846
		c0,2.308-1.873,4.179-4.181,4.179c-2.307,0-4.179-1.871-4.179-4.179v-0.642h8.36V55.846z M37.531,53.681H22.316
		c-0.657-0.02-1.189-0.547-1.203-1.203c-0.014-0.675,0.526-1.241,1.203-1.256h15.215c0.655,0.022,1.188,0.545,1.2,1.202
		C38.748,53.1,38.209,53.668,37.531,53.681z M40.488,48.073c0.021,0.882-0.683,1.61-1.563,1.634H20.909
		c-0.854-0.023-1.543-0.713-1.563-1.565c-0.021-0.883,0.683-1.611,1.563-1.632h18.016C39.779,46.523,40.469,47.213,40.488,48.073z
		 M27.335,23.112c0,0.484-0.197,0.956-0.54,1.297c-0.724,0.724-1.891,0.724-2.616,0c-0.724-0.724-0.724-1.891,0-2.616
		c0.725-0.724,1.892-0.724,2.616,0c0.348,0.342,0.54,0.813,0.54,1.298V23.112z M41.238,39.107c-1.85,1.398-2.947,3.571-2.982,5.887
		h-5.757V25.925c0.546,0.355,1.18,0.547,1.831,0.554c1.862,0.007,3.386-1.489,3.392-3.354c0.008-1.864-1.488-3.38-3.353-3.394
		h-0.011c-1.859,0-3.369,1.492-3.382,3.353v21.897h-2.118V23.078c-0.007-0.648-0.198-1.284-0.553-1.83
		c-1.024-1.557-3.114-1.994-4.672-0.97c-1.557,1.025-1.994,3.116-0.97,4.672c1.025,1.558,3.114,1.995,4.672,0.97v19.069h-5.757
		c-0.027-2.316-1.133-4.489-2.978-5.889c-0.483-0.375-0.942-0.766-1.372-1.174c-0.191-0.179-0.376-0.364-0.561-0.554l0.069-0.034
		l1.249,0.936c0.178,0.136,0.403,0.212,0.628,0.22c0.266,0.005,0.52-0.095,0.71-0.281l2.24-2.239
		c0.184-0.185,0.287-0.445,0.28-0.711c-0.007-0.225-0.082-0.443-0.218-0.629l-0.936-1.25c0.178-0.313,0.329-0.635,0.465-0.962
		c0.137-0.329,0.252-0.656,0.355-0.997l1.536-0.219c0.232-0.028,0.445-0.13,0.608-0.287c0.192-0.185,0.301-0.437,0.301-0.704v-3.169
		c0-0.266-0.109-0.518-0.301-0.703c-0.171-0.157-0.381-0.26-0.608-0.287l-1.536-0.218c-0.205-0.677-0.472-1.333-0.813-1.946
		l0.936-1.243c0.136-0.178,0.211-0.403,0.218-0.629c0.006-0.266-0.095-0.519-0.28-0.71l-2.24-2.24
		c-0.185-0.185-0.444-0.287-0.71-0.28c-0.226,0.007-0.443,0.082-0.628,0.219l-1.25,0.936c-0.313-0.171-0.628-0.321-0.956-0.458
		c-0.327-0.136-0.655-0.259-0.997-0.355l-0.219-1.536c-0.035-0.232-0.137-0.444-0.293-0.608c-0.185-0.191-0.437-0.3-0.703-0.3
		h-0.404c1.243-2.657,3.101-4.986,5.416-6.782c8.059-6.249,19.669-4.788,25.925,3.278C50.766,21.248,49.3,32.852,41.238,39.107z
		 M32.491,23.106c0-1.025,0.826-1.851,1.852-1.851c0.491,0,0.962,0.19,1.312,0.539c0.343,0.349,0.538,0.82,0.538,1.312
		c0,1.024-0.826,1.85-1.85,1.85C33.317,24.956,32.491,24.13,32.491,23.106z M58,31.758c0.676,0,1.229,0.546,1.229,1.229
		c0,0.329-0.129,0.636-0.362,0.868c-0.226,0.231-0.54,0.361-0.866,0.361c-0.679,0-1.23-0.547-1.23-1.229
		C56.77,32.312,57.316,31.758,58,31.758z M62.888,24.697c-0.326,0.327-0.776,0.512-1.242,0.512c-0.971,0-1.754-0.785-1.754-1.755
		s0.783-1.755,1.754-1.755s1.755,0.785,1.755,1.755C63.406,23.918,63.218,24.369,62.888,24.697z M16.75,23.883
		c-1.263-1.263-2.977-1.966-4.761-1.966c-3.714,0-6.726,3.012-6.726,6.727c0,3.716,3.012,6.728,6.726,6.728
		c3.716,0,6.728-3.011,6.728-6.728C18.717,26.862,18.007,25.147,16.75,23.883z M15.664,32.318c-2.029,2.029-5.328,2.029-7.355,0
		c-2.029-2.028-2.029-5.327,0-7.355c2.027-2.028,5.319-2.028,7.355,0c0.976,0.97,1.53,2.294,1.523,3.675
		C17.187,30.016,16.64,31.341,15.664,32.318z M16.75,23.883c-1.263-1.263-2.977-1.966-4.761-1.966c-3.714,0-6.726,3.012-6.726,6.727
		c0,3.716,3.012,6.728,6.726,6.728c3.716,0,6.728-3.011,6.728-6.728C18.717,26.862,18.007,25.147,16.75,23.883z M15.664,32.318
		c-2.029,2.029-5.328,2.029-7.355,0c-2.029-2.028-2.029-5.327,0-7.355c2.027-2.028,5.319-2.028,7.355,0
		c0.976,0.97,1.53,2.294,1.523,3.675C17.187,30.016,16.64,31.341,15.664,32.318z M16.75,23.883
		c-1.263-1.263-2.977-1.966-4.761-1.966c-3.714,0-6.726,3.012-6.726,6.727c0,3.716,3.012,6.728,6.726,6.728
		c3.716,0,6.728-3.011,6.728-6.728C18.717,26.862,18.007,25.147,16.75,23.883z M15.664,32.318c-2.029,2.029-5.328,2.029-7.355,0
		c-2.029-2.028-2.029-5.327,0-7.355c2.027-2.028,5.319-2.028,7.355,0c0.976,0.97,1.53,2.294,1.523,3.675
		C17.187,30.016,16.64,31.341,15.664,32.318z M16.75,23.883c-1.263-1.263-2.977-1.966-4.761-1.966c-3.714,0-6.726,3.012-6.726,6.727
		c0,3.716,3.012,6.728,6.726,6.728c3.716,0,6.728-3.011,6.728-6.728C18.717,26.862,18.007,25.147,16.75,23.883z M15.664,32.318
		c-2.029,2.029-5.328,2.029-7.355,0c-2.029-2.028-2.029-5.327,0-7.355c2.027-2.028,5.319-2.028,7.355,0
		c0.976,0.97,1.53,2.294,1.523,3.675C17.187,30.016,16.64,31.341,15.664,32.318z M16.75,23.883
		c-1.263-1.263-2.977-1.966-4.761-1.966c-3.714,0-6.726,3.012-6.726,6.727c0,3.716,3.012,6.728,6.726,6.728
		c3.716,0,6.728-3.011,6.728-6.728C18.717,26.862,18.007,25.147,16.75,23.883z M15.664,32.318c-2.029,2.029-5.328,2.029-7.355,0
		c-2.029-2.028-2.029-5.327,0-7.355c2.027-2.028,5.319-2.028,7.355,0c0.976,0.97,1.53,2.294,1.523,3.675
		C17.187,30.016,16.64,31.341,15.664,32.318z M16.75,23.883c-1.263-1.263-2.977-1.966-4.761-1.966c-3.714,0-6.726,3.012-6.726,6.727
		c0,3.716,3.012,6.728,6.726,6.728c3.716,0,6.728-3.011,6.728-6.728C18.717,26.862,18.007,25.147,16.75,23.883z M15.664,32.318
		c-2.029,2.029-5.328,2.029-7.355,0c-2.029-2.028-2.029-5.327,0-7.355c2.027-2.028,5.319-2.028,7.355,0
		c0.976,0.97,1.53,2.294,1.523,3.675C17.187,30.016,16.64,31.341,15.664,32.318z M16.75,23.883
		c-1.263-1.263-2.977-1.966-4.761-1.966c-3.714,0-6.726,3.012-6.726,6.727c0,3.716,3.012,6.728,6.726,6.728
		c3.716,0,6.728-3.011,6.728-6.728C18.717,26.862,18.007,25.147,16.75,23.883z M15.664,32.318c-2.029,2.029-5.328,2.029-7.355,0
		c-2.029-2.028-2.029-5.327,0-7.355c2.027-2.028,5.319-2.028,7.355,0c0.976,0.97,1.53,2.294,1.523,3.675
		C17.187,30.016,16.64,31.341,15.664,32.318z"/>
	<path display="none" d="M15.664,24.963c-2.036-2.028-5.328-2.028-7.355,0c-2.029,2.028-2.029,5.327,0,7.355
		c2.027,2.029,5.326,2.029,7.355,0c0.976-0.977,1.523-2.302,1.523-3.681C17.194,27.257,16.64,25.933,15.664,24.963z M14.912,26.999
		l-2.341,4.063c-0.211,0.363-0.677,0.485-1.039,0.28c-0.013-0.006-0.026-0.014-0.04-0.021l-2.145-1.236
		c-0.362-0.212-0.484-0.669-0.28-1.031c0.212-0.362,0.669-0.485,1.031-0.28l1.53,0.887l1.974-3.428
		c0.212-0.361,0.676-0.484,1.038-0.272C15.001,26.171,15.124,26.635,14.912,26.999z"/>
	<path d="M14.912,26.999l-2.341,4.063c-0.211,0.363-0.677,0.485-1.039,0.28c-0.013-0.006-0.026-0.014-0.04-0.021l-2.145-1.236
		c-0.362-0.212-0.484-0.669-0.28-1.031c0.212-0.362,0.669-0.485,1.031-0.28l1.53,0.887l1.974-3.428
		c0.212-0.361,0.676-0.484,1.038-0.272C15.001,26.171,15.124,26.635,14.912,26.999z"/>
</g>
</svg>
