<?xml version="1.0" encoding="utf-8"?>
<!-- Generator: Adobe Illustrator 16.0.0, SVG Export Plug-In . SVG Version: 6.00 Build 0)  -->
<!DOCTYPE svg PUBLIC "-//W3C//DTD SVG 1.1//EN" "http://www.w3.org/Graphics/SVG/1.1/DTD/svg11.dtd">
<svg version="1.1" id="Layer_1" xmlns="http://www.w3.org/2000/svg" xmlns:xlink="http://www.w3.org/1999/xlink" x="0px" y="0px"
	 width="1920px" height="1080px" viewBox="0 0 1920 1080" enable-background="new 0 0 1920 1080" xml:space="preserve">
<g>
	<path d="M1153.645,660.096h287.496c-6.48,35.748-28.837,68.688-69.013,87.588c-45.899,21.708-103.571,21.708-149.472,0
		C1182.48,728.676,1160.232,695.736,1153.645,660.096z M478.968,660.096h287.496c-6.479,35.748-28.836,68.688-69.012,87.588
		c-46.008,21.708-103.572,21.708-149.58,0C507.696,728.676,485.448,695.736,478.968,660.096z M1311.54,481.356L1429.8,631.8h-118.26
		V481.356z M1283.136,481.356V631.8h-118.26L1283.136,481.356z M636.756,481.356L755.124,631.8H636.756V481.356z M608.46,481.356
		V631.8H490.2L608.46,481.356z M960.107,316.764c112.86,0,226.045,7.776,340.093,24.408c0.216,0,0.432,0.108,0.647,0.108
		c8.101,0.756,11.664,3.563,14.256,7.452c2.593,3.779,3.78,9.18,3.024,14.472c-0.756,5.399-3.24,10.584-7.021,13.068
		c-6.695,4.428-10.584,3.779-16.308,2.916c-81.972-11.664-163.403-19.116-244.62-22.032c-7.992-0.324-14.58,6.048-14.58,14.04
		v594.972c0,10.584-3.24,14.904-8.855,19.224c-5.4,4.104-14.256,6.912-23.328,6.912c-9.18,0-18.036-2.808-23.328-6.912
		c-5.724-4.428-8.855-8.64-8.855-19.224c0-115.452,0-231.012,0-346.572c0.107-8.531-7.236-15.228-15.769-14.256
		c-7.128,0.864-12.528,7.021-12.42,14.256c-0.216,115.561,0.216,231.013-0.108,346.572c0,10.584-3.132,14.904-8.748,19.224
		c-5.399,4.104-14.256,6.912-23.328,6.912c-9.18,0-18.035-2.808-23.436-6.912c-5.616-4.428-8.748-8.64-8.748-19.224V371.736
		c0-8.101-6.695-14.473-14.688-14.148c-79.057,3.024-158.652,8.964-238.141,21.708c-6.695,1.08-12.204,0.216-16.416-2.916
		c-3.563-2.7-6.156-7.668-6.912-13.068c-0.756-5.399,0-11.016,2.916-14.472c5.185-6.264,8.748-6.588,14.904-7.56
		C733.848,324.324,847.248,316.764,960.107,316.764z M960.107,288.576c-113.939,0-228.636,6.912-343.655,24.624
		c-14.58,2.268-27.756,9.612-34.776,19.655c-7.128,10.368-9.288,22.896-7.56,34.452c1.728,11.664,7.344,23.005,17.172,30.996
		c4.752,3.889,10.692,6.805,17.172,8.316v28.944L450.024,637.092c-1.837,2.484-2.916,5.4-3.024,8.532
		c-0.108,2.592,0,4.968,0.216,7.668c4.428,49.896,36.72,95.364,88.561,119.88c54.107,25.596,119.663,25.596,173.663,0
		c51.841-24.516,84.133-69.876,88.561-119.88c0.216-2.592,0.216-4.968,0.324-7.668c0.107-3.456-1.404-6.588-3.024-8.532
		L636.756,435.564v-29.269c71.28-10.151,142.344-15.983,213.192-19.224v579.096c0,18.252,8.532,33.048,19.872,41.688
		c11.664,8.964,26.136,12.852,40.607,12.852c14.473,0,28.944-3.996,40.608-12.852h11.448c11.556,8.855,26.027,12.852,40.607,12.852
		c14.473,0,29.052-3.888,40.608-12.852c11.231-8.641,19.872-23.437,19.872-41.688V386.856
		c72.899,3.023,146.016,9.071,219.455,19.439v29.269l-158.219,201.527c-1.944,2.484-3.024,5.4-3.024,8.532
		c0,2.592,0,4.968,0.216,7.668c4.428,49.896,36.828,95.364,88.561,119.88c54.107,25.596,119.771,25.596,173.771,0
		c51.84-24.516,84.023-69.876,88.452-119.88c0.323-2.592,0.216-4.968,0.323-7.668c0.108-3.456-1.403-6.588-3.023-8.532
		L1311.54,435.564v-28.836c6.588-1.62,12.42-4.536,17.388-8.425c9.828-7.991,15.336-19.332,17.064-30.996
		c1.728-11.556-0.54-23.976-7.561-34.451c-7.775-11.664-22.464-18.252-34.775-19.656
		C1188.42,296.352,1073.939,288.576,960.107,288.576z"/>
	<path d="M943.584,89.424c38.016-8.964,75.816,14.256,84.888,52.164c9.072,38.016-14.04,75.924-52.163,84.996
		c-38.017,8.964-75.709-14.256-84.78-52.164C882.456,136.404,905.676,98.496,943.584,89.424z M937.104,61.884
		C884.184,74.52,851.46,127.98,864.096,180.9c12.637,52.812,66.204,85.752,119.017,73.116
		c52.812-12.636,85.644-66.096,73.008-119.016C1043.376,82.296,989.916,49.356,937.104,61.884z"/>
</g>
</svg>
