<svg xmlns="http://www.w3.org/2000/svg" width="46" height="44" viewBox="0 0 46 44"><path d="M17.092,3A3.111,3.111,0,0,0,14,6.1V16a3.018,3.018,0,0,0,3,3h5.383l1.723,3.447a1,1,0,0,0,1.789,0L27.617,19h5.475a3.018,3.018,0,0,0,3-3V6.1A3.111,3.111,0,0,0,33,3Zm0,2H33a1.093,1.093,0,0,1,1.092,1.1V16a.887.887,0,0,1-1,1H27a1,1,0,0,0-.895.553L25,19.764l-1.105-2.211A1,1,0,0,0,23,17H17a.887.887,0,0,1-1-1V6.1A1.093,1.093,0,0,1,17.092,5ZM14.031,23a7.874,7.874,0,0,0-5.156,1.576A5.36,5.36,0,0,0,7,28.75a7.858,7.858,0,0,0,.277,1.814c.061.251.075.277.123.449A2.764,2.764,0,0,0,7,32.5a2.657,2.657,0,0,0,.668,1.926c.2.2.423.169.652.258a6.707,6.707,0,0,0,.5,1.512,5.664,5.664,0,0,0,.518.811c.042.054.121.1.162.146V38.7a2.1,2.1,0,0,1-1.018.9c-.634.336-1.5.657-2.41,1.076A8.171,8.171,0,0,0,3.43,42.465,5.512,5.512,0,0,0,2,45.939,1,1,0,0,0,3,47H47a1,1,0,0,0,1-1.061,5.2,5.2,0,0,0-1.633-3.523,9.358,9.358,0,0,0-2.982-1.754c-1.027-.415-2.023-.738-2.752-1.08A2.232,2.232,0,0,1,39.5,38.7V37.15c.041-.051.12-.092.162-.146a5.653,5.653,0,0,0,.516-.809,6.727,6.727,0,0,0,.5-1.512c.229-.089.449-.054.652-.258A2.657,2.657,0,0,0,42,32.5a2.764,2.764,0,0,0-.4-1.486c.048-.172.062-.2.123-.449A7.858,7.858,0,0,0,42,28.75a5.19,5.19,0,0,0-.979-3.133,4.146,4.146,0,0,0-2.738-1.467l-.393-.66a1,1,0,0,0-.859-.49,7.874,7.874,0,0,0-5.156,1.576A5.36,5.36,0,0,0,30,28.75a7.858,7.858,0,0,0,.277,1.814c.061.251.075.277.123.449A2.764,2.764,0,0,0,30,32.5a2.657,2.657,0,0,0,.668,1.926c.2.2.423.169.652.258a6.707,6.707,0,0,0,.5,1.512,5.664,5.664,0,0,0,.518.811c.042.054.121.1.162.146V38.7a2.1,2.1,0,0,1-1.018.9c-.634.336-1.5.657-2.41,1.076a8.171,8.171,0,0,0-2.643,1.783A5.512,5.512,0,0,0,25,45.939q0,.016,0,.031,0-.016,0-.031a5.2,5.2,0,0,0-1.633-3.523,9.358,9.358,0,0,0-2.982-1.754c-1.027-.415-2.023-.738-2.752-1.08A2.232,2.232,0,0,1,16.5,38.7V37.15c.041-.051.12-.092.162-.146a5.652,5.652,0,0,0,.516-.809,6.727,6.727,0,0,0,.5-1.512c.229-.089.449-.054.652-.258A2.657,2.657,0,0,0,19,32.5a2.764,2.764,0,0,0-.4-1.486c.048-.172.062-.2.123-.449A7.858,7.858,0,0,0,19,28.75a5.19,5.19,0,0,0-.979-3.133,4.146,4.146,0,0,0-2.738-1.467l-.393-.66a1,1,0,0,0-.859-.49ZM13.5,25.07l.262.439a1,1,0,0,0,.859.49,2,2,0,0,1,1.8.82A3.335,3.335,0,0,1,17,28.75a7.871,7.871,0,0,1-.223,1.342c-.117.484-.232.863-.232.863a1,1,0,0,0,.375,1.107A.738.738,0,0,1,17,32.5c0,.458-.1.529-.082.512s.04-.012-.043-.012a1,1,0,0,0-.994.891,4.318,4.318,0,0,1-.467,1.363,3.854,3.854,0,0,1-.332.523c-.094.121-.208.169-.039.082a1,1,0,0,0-.543.891V39a1,1,0,0,0,.066.355,3.924,3.924,0,0,0,2.213,2.037c.91.427,1.919.745,2.854,1.123A7.723,7.723,0,0,1,22,43.875,3.061,3.061,0,0,1,22.746,45H4.424a3.9,3.9,0,0,1,.471-1.174A6.4,6.4,0,0,1,6.912,42.5c.806-.373,1.69-.692,2.508-1.125a3.971,3.971,0,0,0,2.014-2.016A1,1,0,0,0,11.5,39V36.75a1,1,0,0,0-.545-.891c.169.086.055.039-.039-.082a3.864,3.864,0,0,1-.33-.523,4.313,4.313,0,0,1-.467-1.363A1,1,0,0,0,9.125,33c-.083,0-.06-.005-.043.012S9,32.958,9,32.5a.738.738,0,0,1,.08-.437,1,1,0,0,0,.375-1.107s-.115-.379-.232-.863A7.871,7.871,0,0,1,9,28.75a3.223,3.223,0,0,1,1.158-2.639A5.781,5.781,0,0,1,13.5,25.07Zm23,0,.262.439a1,1,0,0,0,.859.49,2,2,0,0,1,1.8.82A3.335,3.335,0,0,1,40,28.75a7.871,7.871,0,0,1-.223,1.342c-.117.484-.232.863-.232.863a1,1,0,0,0,.375,1.107A.738.738,0,0,1,40,32.5c0,.458-.1.529-.082.512s.04-.012-.043-.012a1,1,0,0,0-.994.891,4.318,4.318,0,0,1-.467,1.363,3.855,3.855,0,0,1-.332.523c-.094.121-.208.169-.039.082a1,1,0,0,0-.543.891V39a1,1,0,0,0,.066.355,3.924,3.924,0,0,0,2.213,2.037c.91.427,1.919.745,2.854,1.123A7.723,7.723,0,0,1,45,43.875,3.061,3.061,0,0,1,45.746,45H27.424a3.9,3.9,0,0,1,.471-1.174,6.4,6.4,0,0,1,2.018-1.33c.806-.373,1.69-.692,2.508-1.125a3.971,3.971,0,0,0,2.014-2.016A1,1,0,0,0,34.5,39V36.75a1,1,0,0,0-.545-.891c.169.086.055.039-.039-.082a3.864,3.864,0,0,1-.33-.523,4.313,4.313,0,0,1-.467-1.363A1,1,0,0,0,32.125,33c-.083,0-.06-.005-.043.012S32,32.958,32,32.5a.738.738,0,0,1,.08-.437,1,1,0,0,0,.375-1.107s-.115-.379-.232-.863A7.87,7.87,0,0,1,32,28.75a3.223,3.223,0,0,1,1.158-2.639A5.781,5.781,0,0,1,36.5,25.07Z" transform="translate(-2 -3)" fill="#f29232"/></svg>