<svg width="40" height="40" viewBox="0 0 40 40" fill="none" xmlns="http://www.w3.org/2000/svg">
<path d="M35 30H30V25H27.5V30H22.5V32.5H27.5V37.5H30V32.5H35V30Z" fill="white"/>
<path d="M12.5 35V12.5H27.5V21.25H30V7.5C30 6.83696 29.7366 6.20107 29.2678 5.73223C28.7989 5.26339 28.163 5 27.5 5H12.5C11.837 5 11.2011 5.26339 10.7322 5.73223C10.2634 6.20107 10 6.83696 10 7.5V35C10 35.663 10.2634 36.2989 10.7322 36.7678C11.2011 37.2366 11.837 37.5 12.5 37.5H20V35H12.5ZM12.5 7.5H27.5V10H12.5V7.5Z" fill="white"/>
</svg>
