<svg width="40" height="40" viewBox="0 0 40 40" fill="none" xmlns="http://www.w3.org/2000/svg">
<path d="M20 35H37.5V37.5H20V35ZM33.75 32.5H23.75C22.3713 32.5 21.25 31.3787 21.25 30V23.75C21.25 22.3713 22.3713 21.25 23.75 21.25H33.75C35.1287 21.25 36.25 22.3713 36.25 23.75V30C36.25 31.3787 35.1287 32.5 33.75 32.5ZM23.75 23.75V30H33.75V23.75H23.75ZM18.75 28.75H12.5C11.1213 28.75 10 27.6287 10 26.25V21.25H12.5V26.25H18.75V28.75ZM2.5 16.25H20V18.75H2.5V16.25ZM16.25 13.75H6.25C4.87125 13.75 3.75 12.6287 3.75 11.25V5C3.75 3.62125 4.87125 2.5 6.25 2.5H16.25C17.6287 2.5 18.75 3.62125 18.75 5V11.25C18.75 12.6287 17.6287 13.75 16.25 13.75ZM6.25 5V11.25H16.25V5H6.25Z" fill="white"/>
</svg>
