<svg width="40" height="40" viewBox="0 0 40 40" fill="none" xmlns="http://www.w3.org/2000/svg">
<path d="M9.66463 4.70703L8.08063 6.28878L10.4375 8.64453L12.0192 7.06278L9.66463 4.70703ZM30.3365 4.70703L27.9796 7.06278L29.5625 8.64453L31.9182 6.28991L30.3365 4.70703ZM20 5.40903C19.6287 5.41203 19.2537 5.43603 18.875 5.48103H18.8413C14.2782 6.00416 10.6467 9.69078 10.0156 14.2335C9.51162 17.8898 11.0191 21.2052 13.5312 23.3404C14.5587 24.2175 15.2537 25.4209 15.5 26.7492V33.4992H18.065C18.4565 34.1708 19.1709 34.6242 20 34.6242C20.8291 34.6242 21.5435 34.1708 21.935 33.4992H24.5V28.9992H24.6057V27.6627C24.6057 26.0134 25.463 24.3507 26.8557 23.058C28.7188 21.1928 30.125 18.5434 30.125 15.5003C30.125 9.94278 25.5508 5.35728 20 5.40903ZM20 7.65903C24.3481 7.59828 27.875 11.1578 27.875 15.5003C27.875 17.856 26.7838 19.9305 25.2729 21.4403L25.3089 21.4763C23.808 22.8613 22.8373 24.7264 22.5639 26.7503H17.6431C17.3956 24.822 16.5688 22.9557 15.0061 21.6169C13.0182 19.9294 11.8336 17.3869 12.2296 14.5159C12.7213 10.9722 15.5968 8.12253 19.1203 7.73216C19.4112 7.69181 19.7041 7.66777 19.9978 7.66016L20 7.65903ZM4.25 15.5003V17.7503H7.625V15.5003H4.25ZM32.375 15.5003V17.7503H35.75V15.5003H32.375ZM10.4375 24.606L8.08175 26.9607L9.66463 28.5435L12.0181 26.1878L10.4375 24.606ZM29.5625 24.606L27.9807 26.1878L30.3354 28.5435L31.9182 26.9607L29.5625 24.606ZM17.75 29.0003H22.25V31.2503H17.75V29.0003Z" fill="black"/>
</svg>
