<?xml version="1.0" encoding="utf-8"?>
<!-- Generator: Adobe Illustrator 16.0.0, SVG Export Plug-In . SVG Version: 6.00 Build 0)  -->
<!DOCTYPE svg PUBLIC "-//W3C//DTD SVG 1.1//EN" "http://www.w3.org/Graphics/SVG/1.1/DTD/svg11.dtd">
<svg version="1.1" id="Layer_1" xmlns="http://www.w3.org/2000/svg" xmlns:xlink="http://www.w3.org/1999/xlink" x="0px" y="0px"
	 width="1920px" height="1080px" viewBox="0 0 1920 1080" enable-background="new 0 0 1920 1080" xml:space="preserve">
<g>
	<g>
		<polygon points="1091.544,759.564 976.74,693.252 976.74,560.736 941.208,560.736 941.208,693.252 826.404,759.564 
			844.116,790.236 959.028,723.924 1073.832,790.236 		"/>
		<path d="M670.776,733.536c35.531-12.636,61.128-46.548,61.128-86.292c0-50.544-41.148-91.692-91.692-91.692
			S548.52,596.7,548.52,647.244c0,40.176,26.028,74.304,61.992,86.616C517.956,752.112,447,851.364,447,970.704h35.424
			c0-112.752,71.28-204.444,158.977-204.444c87.695,0,158.976,91.692,158.976,204.444H835.8
			C835.908,850.716,764.196,750.924,670.776,733.536z M584.052,647.136c0-30.996,25.164-56.16,56.16-56.16s56.16,25.164,56.16,56.16
			s-25.164,56.16-56.16,56.16C609.216,703.404,584.052,678.132,584.052,647.136z"/>
		<path d="M959.028,320.004c87.695,0,158.976,91.692,158.976,204.552h35.532c0-119.987-71.82-219.78-165.24-237.275
			c35.532-12.636,61.128-46.548,61.128-86.292c0-50.544-41.147-91.692-91.691-91.692c-50.545,0-91.692,41.148-91.692,91.692
			c0,40.176,26.028,74.304,61.992,86.616c-92.556,18.36-163.62,117.504-163.62,236.952h35.424
			C799.944,411.696,871.332,320.004,959.028,320.004z M901.572,200.988c0-30.996,25.164-56.16,56.16-56.16s56.16,25.164,56.16,56.16
			c0,30.996-25.164,56.16-56.16,56.16S901.572,231.876,901.572,200.988z"/>
		<path d="M1307.76,732.456c35.532-12.636,61.128-46.656,61.128-86.508c0-50.544-41.147-91.692-91.691-91.692
			s-91.692,41.148-91.692,91.692c0,40.284,26.028,74.52,61.992,86.939c-92.556,18.252-163.62,117.396-163.62,236.628h35.424
			c0-112.644,71.28-204.228,158.977-204.228c87.695,0,158.976,91.584,158.976,204.228h35.424
			C1473,849.528,1401.18,749.952,1307.76,732.456z M1221.036,645.948c0-30.996,25.164-56.16,56.16-56.16
			c30.995,0,56.159,25.164,56.159,56.16c0,31.104-25.164,56.483-56.159,56.483C1246.2,702.432,1221.036,677.052,1221.036,645.948z"
			/>
	</g>
</g>
</svg>
