<svg xmlns="http://www.w3.org/2000/svg" width="42.907" height="46" viewBox="0 0 42.907 46"><path d="M14,2a5,5,0,1,0,5,5A5.015,5.015,0,0,0,14,2ZM35,2a5,5,0,1,0,5,5A5.015,5.015,0,0,0,35,2ZM14,4a3,3,0,1,1-3,3A2.986,2.986,0,0,1,14,4ZM35,4a3,3,0,1,1-3,3A2.986,2.986,0,0,1,35,4ZM9.5,13A5.518,5.518,0,0,0,4,18.5V30.813A.753.753,0,0,0,4,31a.972.972,0,0,0,.031.281A3.009,3.009,0,0,0,7,34a2.95,2.95,0,0,0,1-.187V45.344A2.664,2.664,0,0,0,10.656,48h1.688A2.6,2.6,0,0,0,14,47.313,2.6,2.6,0,0,0,15.656,48h1.688A2.664,2.664,0,0,0,20,45.344V38.813A2.95,2.95,0,0,0,21,39v6.5A2.518,2.518,0,0,0,23.5,48h3A2.518,2.518,0,0,0,29,45.5V39a2.95,2.95,0,0,0,1-.187V45a3.016,3.016,0,0,0,3,3,2.984,2.984,0,0,0,2-.781A2.984,2.984,0,0,0,37,48a3.016,3.016,0,0,0,3-3V37h2.594a1.954,1.954,0,0,0,1.625-.875v-.031a2.147,2.147,0,0,0,.25-1.781v-.031L44.063,33a2.794,2.794,0,0,0,2.406-1.281A3.269,3.269,0,0,0,46.719,29c-.918-2.836-4.031-12.312-4.031-12.312a5.776,5.776,0,0,0-1.281-2.219A4.672,4.672,0,0,0,38,13H32a4.665,4.665,0,0,0-3.406,1.469,1.006,1.006,0,1,0,1.469,1.375A2.456,2.456,0,0,1,32,15h6a2.474,2.474,0,0,1,1.938.844,4.252,4.252,0,0,1,.875,1.469s3.082,9.453,4,12.281a1.292,1.292,0,0,1-.031,1.063.714.714,0,0,1-.719.344.978.978,0,0,1-.906-.625c0-.008,0-.023,0-.031a.918.918,0,0,0-.094-.281l-2.781-8.375a1,1,0,0,0-1.809-.223.985.985,0,0,0-.1.848l2.813,8.438a.967.967,0,0,0,.094.25l1.281,3.906v.031c0,.031-.027.047-.031.063H32V29a4.013,4.013,0,0,0-4-4H22a4.013,4.013,0,0,0-4,4V45.344a.634.634,0,0,1-.656.656H15.656A.632.632,0,0,1,15,45.344V32.656a.993.993,0,0,0-.336-.754A1,1,0,0,0,13,32.656V45.344a.634.634,0,0,1-.656.656H10.656A.632.632,0,0,1,10,45.344V21a1,1,0,0,0-1.094-1.031A1.169,1.169,0,0,0,8.781,20,1,1,0,0,0,8,21V31a1,1,0,0,1-2,.063V31a.753.753,0,0,0,0-.187V18.5A3.492,3.492,0,0,1,9.5,15h9a3.444,3.444,0,0,1,2,.625A1,1,0,1,0,21.656,14,5.5,5.5,0,0,0,18.5,13ZM25,16a4,4,0,1,0,4,4A4.013,4.013,0,0,0,25,16Zm0,2a2,2,0,1,1-2,2A1.984,1.984,0,0,1,25,18Zm-3,9h6a1.984,1.984,0,0,1,2,2v7a.982.982,0,0,1-1,1H28a1,1,0,0,0-1,1v7.5a.489.489,0,0,1-.5.5h-3a.489.489,0,0,1-.5-.5V38a1,1,0,0,0-1-1H21a.982.982,0,0,1-1-1V29A1.984,1.984,0,0,1,22,27ZM32,37h2v8a1,1,0,0,1-2,0Zm4,0h2v8a1,1,0,0,1-2,0Z" transform="translate(-3.994 -2)" fill="#f29232"/></svg>