<svg xmlns="http://www.w3.org/2000/svg" width="46.023" height="43" viewBox="0 0 46.023 43"><path d="M26,3a9.867,9.867,0,0,0-1.48,2.844A3.419,3.419,0,0,0,22.363,5a6.92,6.92,0,0,0-3.643,1.131A4.77,4.77,0,0,1,16,7h-.014l-.051,0-.074.008a1,1,0,0,0-.844.738c-.063.145-1.34,3.087-2.617,6.023-1.186,2.728-2.318,5.33-2.318,5.33a1,1,0,0,0-.082.4,4.1,4.1,0,0,0,1.891,3.295A7.169,7.169,0,0,0,16,24a7.169,7.169,0,0,0,4.109-1.205A4.1,4.1,0,0,0,22,19.5a1,1,0,0,0-.082-.4l-4.5-10.35a9.028,9.028,0,0,0,2.295-.883A4.664,4.664,0,0,1,22.363,7,3.849,3.849,0,0,1,24.1,8.18c.022.024.031.041.053.064A1.988,1.988,0,0,0,25,10.723V27a1,1,0,1,0,2,0V10.723a1.988,1.988,0,0,0,.852-2.479c.021-.024.031-.041.053-.064A3.849,3.849,0,0,1,29.637,7a4.664,4.664,0,0,1,2.65.869,9.028,9.028,0,0,0,2.295.883c-.376.866-1.118,2.572-2.182,5.02-1.186,2.728-2.318,5.33-2.318,5.33a1,1,0,0,0-.082.4,4.1,4.1,0,0,0,1.891,3.295,7.609,7.609,0,0,0,8.219,0A4.1,4.1,0,0,0,42,19.5a1,1,0,0,0-.082-.4L36.979,7.738A1,1,0,0,0,36.061,7L36,7a4.77,4.77,0,0,1-2.721-.869A6.92,6.92,0,0,0,29.637,5a3.419,3.419,0,0,0-2.156.844A9.867,9.867,0,0,0,26,3ZM16,10.51,19.256,18H12.744l1.49-3.43Zm20,0L39.256,18H32.744l1.49-3.43ZM12.148,20h7.7a2.247,2.247,0,0,1-.889,1.156A5.274,5.274,0,0,1,16,22a5.274,5.274,0,0,1-2.963-.844A2.247,2.247,0,0,1,12.148,20Zm20,0h7.7a2.247,2.247,0,0,1-.889,1.156,5.624,5.624,0,0,1-5.926,0A2.247,2.247,0,0,1,32.148,20Zm12.01,5.984a3.757,3.757,0,0,0-1.941.578l-11.1,6.84c-.256-.14-.57-.295-.984-.494-.476-.229-.973-.463-1.254-.59-1.511-.683-6.327-2.671-9.982-4.275a12.51,12.51,0,0,0-9.834-.092L2.615,30.637a1,1,0,1,0,.77,1.846L9.832,29.8a10.5,10.5,0,0,1,8.26.078c3.691,1.62,8.586,3.643,9.963,4.266.247.112.747.347,1.211.57s.952.471.992.494A1.466,1.466,0,0,1,31,36.488a1.484,1.484,0,0,1-1.5,1.5,1.456,1.456,0,0,1-.34-.039h0c-.025-.006-.816-.228-1.775-.51S25.2,36.8,24,36.439c-2.4-.714-4.717-1.408-4.717-1.408a1,1,0,1,0-.574,1.916s2.321.694,4.723,1.408c1.2.357,2.422.719,3.385,1s1.575.466,1.875.537a3.456,3.456,0,0,0,.8.094,3.515,3.515,0,0,0,3.5-3.5,3.452,3.452,0,0,0-.418-1.639l10.693-6.59.01-.006a1.77,1.77,0,0,1,1.949,2.955l-.037.025L29.424,43.186a4,4,0,0,1-3.762.584L14.014,39.641a8.354,8.354,0,0,0-8.125.986L2.4,43.184a1,1,0,1,0,1.184,1.611L7.072,42.24a6.344,6.344,0,0,1,6.178-.75l.047.018,11.7,4.146a6.011,6.011,0,0,0,5.639-.875L46.369,32.855a3.768,3.768,0,0,0-2.211-6.871Z" transform="translate(-1.972 -3)" fill="#f29232"/></svg>