<svg xmlns="http://www.w3.org/2000/svg" width="48" height="48" viewBox="0 0 48 48"><path d="M25,2a23,23,0,1,0,4.266,45.6,13.1,13.1,0,0,1-1.346-1.824A21.175,21.175,0,1,1,45.773,27.92,13.044,13.044,0,0,1,47.6,29.266,22.984,22.984,0,0,0,25,2Zm-.016,4.986A1,1,0,0,0,24,8V22.176a3,3,0,0,0-1.705,4.115l-6,6a1,1,0,1,0,1.414,1.414l6-6A3,3,0,1,0,26,22.172V8a1,1,0,0,0-1.016-1.014ZM37,28l-.6,3.2a4.181,4.181,0,0,0-1,.4l-2.7-1.9-3,3,1.8,2.5c-.1.4-.3.7-.4,1.1l-3.1.5V41l3.1.5a4.181,4.181,0,0,0,.4,1l-1.8,2.7,3,3,2.7-1.8a4.873,4.873,0,0,0,1.1.4L37,50h4.1l.6-3.1a6.9,6.9,0,0,0,1-.4l2.7,1.8,3-3-1.9-2.6a7.6,7.6,0,0,0,.4-1.1L50,41V36.8l-3.2-.5a4.181,4.181,0,0,0-.4-1l1.8-2.7-2.9-2.9-2.6,1.9a4.181,4.181,0,0,0-1-.4L41.2,28Zm1.7,2h.8l.4,2.7.6.2a8.642,8.642,0,0,1,1.7.7l.6.4,2.3-1.7.5.5L44,35.1l.3.5a13.359,13.359,0,0,1,.7,1.8l.2.6,2.8.4v.8l-2.7.6-.2.6a8.642,8.642,0,0,1-.7,1.7l-.4.6L45.7,45l-.6.6L42.8,44l-.5.3a13.359,13.359,0,0,1-1.8.7l-.6.2L39.4,48h-.8l-.4-2.7-.6-.2a8.642,8.642,0,0,1-1.7-.7l-.6-.4-2.4,1.6-.6-.6,1.6-2.3-.3-.5c-.3-.6-.5-1.3-.7-1.8l-.2-.6L30,39.3v-.8l2.8-.5.1-.7a5.235,5.235,0,0,1,.6-1.6l.4-.5-1.6-2.3.6-.6,2.3,1.6.5-.2c.7-.3,1.3-.6,1.9-.8l.6-.1Zm.3,4.9a4,4,0,0,0,0,8,3.949,3.949,0,0,0,4-4A4.012,4.012,0,0,0,39,34.9ZM39,37a1.944,1.944,0,0,1,2,2,2,2,0,1,1-2-2Z" transform="translate(-2 -2)" fill="#f29232"/></svg>