<svg width="24" height="24" viewBox="0 0 24 24" fill="none" xmlns="http://www.w3.org/2000/svg">
<circle cx="12" cy="12" r="12" transform="rotate(-90 12 12)" fill="#6B6B6B"/>
<path d="M16.4673 12.0204C16.4673 12.3696 16.3176 12.669 16.0682 12.8685L10.5306 17.8075C10.1315 18.1068 9.53286 18.0569 9.23353 17.6578C8.9342 17.2587 8.9342 16.7099 9.33331 16.4106L14.2223 12.1202C14.2722 12.0703 14.2722 12.0204 14.2223 11.9207L9.33331 7.63028C8.9342 7.28106 8.88432 6.73229 9.23353 6.33319C9.58275 5.93408 10.1315 5.88419 10.5306 6.23341C10.5306 6.23341 10.5306 6.23341 10.5805 6.2833L16.1181 11.1723C16.3176 11.3719 16.4673 11.7211 16.4673 12.0204Z" fill="#FAFAFA"/>
</svg>
