<svg width="130" height="130" viewBox="0 0 130 130" fill="none" xmlns="http://www.w3.org/2000/svg">
<path opacity="0.49" d="M43.6381 52.991L42.2672 51.4699C42.2518 49.9489 42.5329 48.6011 43.1028 47.5691C43.4648 48.0004 43.8999 48.5241 44.2927 49.0016C43.7228 50.0182 43.4956 51.4199 43.6381 52.991Z" fill="#FFF3D8"/>
<path d="M41.4287 103.12L70.1128 115.662C70.2938 115.739 70.4979 115.743 70.6827 115.67L110.072 100.401C110.519 100.224 110.476 99.5771 110.01 99.4616L96.0013 95.9266L41.4248 103.12H41.4287Z" fill="#21002A"/>
<path d="M63.7859 58.5742L32.7412 68.5708L63.7859 80.4197L97.4182 68.4861L63.7859 58.5742Z" fill="#21002A" stroke="#001B4B" stroke-width="0.189821" stroke-linecap="round" stroke-linejoin="round"/>
<path d="M84.2464 71.3622C84.1155 71.1697 83.9653 70.9848 83.792 70.8077C82.606 69.5716 80.515 68.6744 78.0313 68.3971C77.5885 68.347 77.1302 68.3201 76.6643 68.3124C76.4949 68.3085 76.3254 68.3124 76.156 68.3124C76.0097 68.3124 75.8672 68.3201 75.7247 68.3239C72.2475 68.478 69.3325 69.8142 68.1734 71.6241L67.4688 71.6356L67.6343 73.3993C67.6459 74.0308 67.8615 74.6354 68.2504 75.186C68.3621 75.3439 68.4853 75.498 68.624 75.6481C70.0757 77.2193 72.983 78.2667 76.3177 78.2128C78.3856 78.1781 80.2802 77.7276 81.755 77.0036C83.6611 76.0679 84.8664 74.67 84.8394 73.1259C84.8394 72.9911 84.824 72.8563 84.8009 72.7215L84.6738 71.3584L84.2464 71.3661V71.3622Z" fill="#D96D00" stroke="#0E1844" stroke-width="0.0237277" stroke-linecap="round" stroke-linejoin="round"/>
<path d="M68.5391 70.1573L68.5121 71.1739L68.4004 75.3828C68.3465 75.3173 68.2965 75.2519 68.2503 75.1864C68.2349 75.1633 68.2156 75.1363 68.2002 75.1094L68.2965 71.4473L68.3273 70.1496C68.3273 70.0918 68.3735 70.0494 68.4312 70.0494C68.489 70.0494 68.5352 70.0995 68.5352 70.1573H68.5391Z" fill="#AD5700"/>
<path d="M69.7864 70.0651C69.8134 70.0843 69.8288 70.1151 69.8326 70.1536L69.667 76.5228C69.5977 76.4766 69.5284 76.4343 69.4668 76.3842L69.6324 70.1729V70.1498C69.6324 70.092 69.6824 70.0458 69.7402 70.0497C69.7595 70.0497 69.7787 70.0574 69.7941 70.0689L69.7864 70.0651Z" fill="#AD5700"/>
<path d="M71.134 70.1421L70.9453 77.2199C70.876 77.1929 70.8105 77.1621 70.7412 77.1275L70.926 70.1383C70.926 70.0805 70.9761 70.0343 71.0339 70.0343C71.0916 70.0343 71.1378 70.0844 71.1378 70.1421H71.134Z" fill="#AD5700"/>
<path d="M72.4287 70.1341L72.2324 77.6894C72.1592 77.6701 72.0899 77.647 72.0244 77.6239L72.2208 70.1264C72.2208 70.0725 72.2709 70.0263 72.3286 70.0263C72.3864 70.0263 72.4287 70.0725 72.4287 70.1303V70.1341Z" fill="#AD5700"/>
<path d="M73.7303 70.1227L73.5185 77.986C73.4492 77.9745 73.3799 77.9591 73.3145 77.9437L73.5224 70.115C73.5224 70.0573 73.5686 70.0149 73.6264 70.0149C73.6841 70.0149 73.7303 70.065 73.7303 70.1227Z" fill="#AD5700"/>
<path d="M75.0243 70.1187L74.8125 78.163C74.7432 78.1553 74.6739 78.1515 74.6084 78.1438L74.8202 70.1149C74.8202 70.0571 74.8702 70.0148 74.9319 70.0148C74.9858 70.0148 75.032 70.0648 75.032 70.1226L75.0243 70.1187Z" fill="#AD5700"/>
<path d="M76.3259 70.107L76.1103 78.2129C76.041 78.2129 75.9717 78.2129 75.9023 78.2129L76.118 70.1031C76.118 70.0454 76.168 69.9991 76.2258 69.9991C76.2836 69.9991 76.3298 70.0492 76.3298 70.107H76.3259Z" fill="#AD5700"/>
<path d="M77.618 70.0993L77.4023 78.1552C77.3369 78.1629 77.2676 78.1667 77.1982 78.1706L77.41 70.0916C77.41 70.0339 77.4601 69.9915 77.5179 69.9915C77.5718 69.9915 77.618 70.0377 77.618 70.0955V70.0993Z" fill="#AD5700"/>
<path d="M78.9169 70.0877L78.7089 77.978C78.6435 77.9934 78.5741 78.0011 78.501 78.0165L78.7089 70.0839C78.7089 70.0261 78.759 69.9799 78.8129 69.9837C78.8706 69.9837 78.9169 70.0338 78.913 70.0877H78.9169Z" fill="#AD5700"/>
<path d="M80.2177 70.0804L80.0175 77.6703C79.9481 77.6895 79.8788 77.7088 79.8057 77.728L80.0059 70.0727C80.0059 70.0149 80.056 69.9687 80.1137 69.9687C80.1715 69.9687 80.2177 70.0187 80.2177 70.0765V70.0804Z" fill="#AD5700"/>
<path d="M81.5128 70.0688L81.3242 77.1966C81.2587 77.2274 81.1855 77.2543 81.1162 77.2851L81.3049 70.0649C81.3049 70.0071 81.355 69.9609 81.4127 69.9609C81.4705 69.9609 81.5167 70.011 81.5128 70.0649V70.0688Z" fill="#AD5700"/>
<path d="M82.7648 69.9764C82.7917 69.9957 82.811 70.0303 82.811 70.065L82.6415 76.4996C82.5722 76.542 82.5029 76.5882 82.4336 76.6306L82.603 70.0573C82.603 69.9995 82.6492 69.9572 82.707 69.9572C82.7262 69.9572 82.7455 69.9649 82.7609 69.9764H82.7648Z" fill="#AD5700"/>
<path d="M84.1082 70.0535L84.0812 71.1317L83.9695 75.356C83.9041 75.4369 83.8309 75.5178 83.7539 75.5948L83.881 70.9045L83.9041 70.0535C83.9041 69.9957 83.9541 69.9495 84.0119 69.9495C84.0697 69.9495 84.112 69.9996 84.112 70.0573L84.1082 70.0535Z" fill="#AD5700"/>
<path d="M75.9937 66.5491C76.1632 66.5491 76.3365 66.5491 76.502 66.5491C76.968 66.5568 77.4262 66.5876 77.869 66.6338C80.3528 66.9111 82.4437 67.8083 83.6298 69.0444C84.2844 69.726 84.6618 70.5154 84.6772 71.3549C84.7003 72.899 83.4988 74.293 81.5927 75.2326C80.1217 75.9566 78.2233 76.411 76.1555 76.4418C72.8207 76.4957 69.9134 75.4483 68.4617 73.8771C68.3231 73.727 68.196 73.5729 68.0882 73.415C67.7031 72.8644 67.4836 72.2637 67.4721 71.6283C67.4297 68.9789 71.0147 66.757 75.5625 66.5529C75.7049 66.5452 75.8513 66.5414 75.9937 66.5414V66.5491Z" fill="#FACF00" stroke="#0E1844" stroke-width="0.030507" stroke-linecap="round" stroke-linejoin="round"/>
<path d="M83.0796 71.3855C83.0796 71.451 83.0796 71.5087 83.0758 71.5703C83.0758 71.5703 83.0758 71.5703 83.0758 71.5742C82.9371 73.7152 79.895 75.4635 76.1406 75.5251C72.4477 75.5867 69.3941 73.9925 69.0937 71.9092C69.0783 71.8091 69.0706 71.7128 69.0668 71.6088C69.0283 69.3831 72.1396 67.527 76.0096 67.4654C79.8796 67.4038 83.0449 69.1559 83.0796 71.3855Z" fill="#D96D00" stroke="#0E1844" stroke-width="0.020338" stroke-linecap="round" stroke-linejoin="round"/>
<path d="M83.0758 71.5708C82.9372 73.7157 79.8951 75.4678 76.1406 75.5256C72.4477 75.5872 69.3941 73.993 69.0938 71.9097C69.2208 69.7648 72.2668 68.0088 76.0289 67.9434C79.7256 67.8818 82.7793 69.4798 83.0758 71.567V71.5708Z" fill="#FFB200" stroke="#0E1844" stroke-width="0.020338" stroke-linecap="round" stroke-linejoin="round"/>
<path opacity="0.49" d="M72.2197 68.1704C71.026 68.6364 70.0864 69.3026 69.555 70.0843C69.0659 69.9726 68.5268 69.8455 68.084 69.7377C68.6269 68.9522 69.5049 68.259 70.6178 67.7238L72.2197 68.1704Z" fill="#FFF0D3"/>
<path d="M96.3572 73.8695C96.2186 73.6731 96.0646 73.4806 95.8874 73.2957C94.6629 72.0173 92.4988 71.0892 89.9303 70.8043C89.4721 70.7504 88.9985 70.7234 88.5171 70.7157C88.3438 70.7118 88.1667 70.7157 87.9896 70.7157C87.8394 70.7157 87.6892 70.7234 87.5429 70.7273C83.9463 70.889 80.9312 72.2714 79.7336 74.1391L79.002 74.1506L79.1752 75.9759C79.1868 76.6305 79.4101 77.2543 79.8106 77.8243C79.9261 77.986 80.0532 78.1477 80.1995 78.3018C81.7013 79.9268 84.7087 81.0089 88.159 80.9511C90.3 80.9164 92.26 80.4505 93.7811 79.6996C95.7527 78.7292 96.9965 77.2852 96.9734 75.6909C96.9734 75.5523 96.9541 75.4137 96.9348 75.275L96.8039 73.8656L96.3611 73.8734L96.3572 73.8695Z" fill="#D96D00" stroke="#0E1844" stroke-width="0.0237277" stroke-linecap="round" stroke-linejoin="round"/>
<path d="M80.1102 72.6216L80.0833 73.6729L79.9678 78.0243C79.9139 77.9588 79.8599 77.8895 79.8137 77.8202C79.7983 77.7932 79.7791 77.7701 79.7637 77.7432L79.8638 73.9578L79.8985 72.6139C79.8985 72.5562 79.9447 72.5099 80.0063 72.5099C80.064 72.5099 80.1141 72.56 80.1141 72.6216H80.1102Z" fill="#AD5700"/>
<path d="M81.4034 72.5212C81.4303 72.5404 81.4496 72.5712 81.4496 72.6136L81.2763 79.2023C81.2031 79.1561 81.1338 79.1099 81.0684 79.0598L81.2378 72.6328V72.6059C81.2378 72.5481 81.2917 72.4981 81.3495 72.5019C81.3687 72.5019 81.3918 72.5096 81.4072 72.5212H81.4034Z" fill="#AD5700"/>
<path d="M82.7939 72.6018L82.5975 79.9222C82.5244 79.8952 82.4551 79.8606 82.3857 79.8259L82.5783 72.598C82.5783 72.5402 82.6283 72.4902 82.69 72.4902C82.7477 72.4902 82.7978 72.5402 82.7978 72.6018H82.7939Z" fill="#AD5700"/>
<path d="M84.1385 72.5944L83.9344 80.4076C83.8612 80.3845 83.7881 80.3653 83.7188 80.3421L83.9228 72.5905C83.9228 72.5366 83.9729 72.4865 84.0345 72.4904C84.0923 72.4904 84.1385 72.5366 84.1385 72.5982V72.5944Z" fill="#AD5700"/>
<path d="M85.4782 72.587L85.2626 80.7199C85.1933 80.7083 85.1201 80.6929 85.0508 80.6775L85.2626 72.5793C85.2626 72.5216 85.3088 72.4753 85.3704 72.4753C85.432 72.4753 85.4782 72.5254 85.4782 72.587Z" fill="#AD5700"/>
<path d="M86.819 72.5792L86.5995 80.8969C86.5263 80.8892 86.457 80.8854 86.3877 80.8777L86.6072 72.5753C86.6072 72.5176 86.6611 72.4714 86.7227 72.4714C86.7766 72.4714 86.8267 72.5214 86.8228 72.583L86.819 72.5792Z" fill="#AD5700"/>
<path d="M88.1665 72.5674L87.9432 80.9506C87.87 80.9506 87.8007 80.9506 87.7275 80.9506L87.9509 72.5636C87.9509 72.5058 88.0009 72.4557 88.0626 72.4557C88.1203 72.4557 88.1704 72.5058 88.1704 72.5674H88.1665Z" fill="#AD5700"/>
<path d="M89.5064 72.5599L89.2831 80.8931C89.2138 80.9008 89.1406 80.9085 89.0713 80.9123L89.2908 72.5561C89.2908 72.4983 89.3408 72.4521 89.4025 72.456C89.4602 72.456 89.5064 72.5022 89.5064 72.5638V72.5599Z" fill="#AD5700"/>
<path d="M90.8473 72.5488L90.6317 80.7087C90.5623 80.7241 90.4892 80.7318 90.416 80.7472L90.6317 72.545C90.6317 72.4872 90.6817 72.4372 90.7395 72.441C90.7972 72.441 90.8473 72.4911 90.8434 72.5488H90.8473Z" fill="#AD5700"/>
<path d="M92.1911 72.5402L91.9832 80.3881C91.91 80.4074 91.8407 80.4305 91.7637 80.4497L91.9716 72.5325C91.9716 72.4747 92.0217 72.4247 92.0833 72.4247C92.141 72.4247 92.1911 72.4747 92.1911 72.5364V72.5402Z" fill="#AD5700"/>
<path d="M93.5302 72.5293L93.3338 79.9036C93.2645 79.9344 93.1913 79.9652 93.1182 79.996L93.3145 72.5293C93.3145 72.4716 93.3646 72.4215 93.4262 72.4215C93.484 72.4215 93.534 72.4716 93.5302 72.5293Z" fill="#AD5700"/>
<path d="M94.8242 72.4331C94.8512 72.4524 94.8743 72.487 94.8743 72.5256L94.701 79.1836C94.6317 79.2298 94.5585 79.276 94.4854 79.3183L94.6625 72.5178C94.6625 72.4601 94.7087 72.4139 94.7703 72.4139C94.7896 72.4139 94.8127 72.4216 94.8281 72.4331H94.8242Z" fill="#AD5700"/>
<path d="M96.2154 72.5134L96.1846 73.6263L96.0691 77.9931C95.9998 78.0778 95.9266 78.1587 95.8496 78.2395L95.9805 73.3875L96.0036 72.5057C96.0036 72.4479 96.0537 72.3979 96.1153 72.3979C96.1731 72.3979 96.2193 72.4518 96.2154 72.5096V72.5134Z" fill="#AD5700"/>
<path d="M87.8234 68.886C88.0005 68.886 88.1776 68.886 88.3471 68.886C88.8284 68.8937 89.3021 68.9245 89.7603 68.9746C92.3326 69.2595 94.4929 70.1914 95.7174 71.466C96.3951 72.1746 96.7841 72.9871 96.7995 73.8574C96.8226 75.4516 95.5788 76.8995 93.6072 77.866C92.0861 78.6169 90.1223 79.0829 87.9851 79.1175C84.5387 79.1715 81.5274 78.0932 80.0256 76.4682C79.8832 76.3142 79.7522 76.1524 79.6367 75.9907C79.2362 75.4208 79.0129 74.797 79.0013 74.1423C78.959 71.4006 82.6634 69.1055 87.369 68.8937C87.5153 68.886 87.6694 68.8821 87.8157 68.8821L87.8234 68.886Z" fill="#FACF00" stroke="#0E1844" stroke-width="0.030507" stroke-linecap="round" stroke-linejoin="round"/>
<path d="M95.1479 73.888C95.1479 73.9534 95.1479 74.0189 95.144 74.0805C95.144 74.0805 95.144 74.0805 95.144 74.0882C95.0016 76.3024 91.8555 78.1123 87.9701 78.1739C84.1502 78.2355 80.9926 76.5874 80.6845 74.4348C80.6691 74.3308 80.6614 74.2307 80.6576 74.1229C80.6191 71.8201 83.8344 69.9024 87.8392 69.8369C91.8401 69.7715 95.1132 71.5852 95.1518 73.888H95.1479Z" fill="#D96D00" stroke="#0E1844" stroke-width="0.020338" stroke-linecap="round" stroke-linejoin="round"/>
<path d="M95.147 74.0811V74.0888C95.0007 76.303 91.8546 78.1128 87.9731 78.1745C84.1532 78.2361 80.9956 76.5879 80.6875 74.4353C80.8184 72.2173 83.9683 70.3997 87.8614 70.3342C91.6852 70.2726 94.8428 71.9246 95.147 74.0849V74.0811Z" fill="#FFB200" stroke="#0E1844" stroke-width="0.020338" stroke-linecap="round" stroke-linejoin="round"/>
<path d="M64.8152 72.2867C64.6843 72.0787 64.5379 71.8746 64.3646 71.6782C63.1786 70.3151 61.0222 69.2599 58.4191 68.8441C57.9532 68.767 57.4757 68.717 56.9828 68.6823C56.8056 68.6708 56.6247 68.6631 56.4437 68.6554C56.2896 68.6515 56.1395 68.6477 55.9893 68.6477C52.3157 68.6323 49.1773 69.8915 47.8604 71.736L47.1172 71.7129L47.2019 73.5805C47.1788 74.2467 47.3752 74.8936 47.7564 75.4944C47.8642 75.6676 47.9875 75.8371 48.1261 76.0027C49.574 77.7317 52.5891 78.9832 56.1048 79.0987C58.2882 79.168 60.306 78.7906 61.8963 78.1013C63.9526 77.2118 65.2927 75.7986 65.3466 74.1735C65.3466 74.0311 65.3427 73.8886 65.3273 73.7461L65.2619 72.3021L64.8113 72.2867H64.8152Z" fill="#D96D00" stroke="#0E1844" stroke-width="0.0237277" stroke-linecap="round" stroke-linejoin="round"/>
<path d="M48.3184 70.2109L48.2375 71.2814L47.9063 75.7099C47.8524 75.6405 47.8062 75.5674 47.76 75.4942C47.7446 75.4673 47.7254 75.4403 47.71 75.4133L47.9988 71.5587L48.0989 70.1917C48.1027 70.1301 48.1528 70.0877 48.2144 70.0916C48.276 70.0954 48.3222 70.1493 48.3184 70.2109Z" fill="#AD5700"/>
<path d="M49.6428 70.1761C49.6698 70.1954 49.6852 70.23 49.6852 70.2724L49.1846 76.9766C49.1152 76.9265 49.0421 76.8765 48.9805 76.8187L49.4734 70.2801V70.2531C49.4811 70.1915 49.535 70.1453 49.5927 70.153C49.6158 70.1569 49.6351 70.1646 49.6505 70.1761H49.6428Z" fill="#AD5700"/>
<path d="M51.0572 70.3266L50.495 77.7778C50.4218 77.747 50.3525 77.7085 50.2832 77.67L50.8377 70.315C50.8416 70.2534 50.8955 70.2072 50.9571 70.211C51.0148 70.2187 51.0649 70.2688 51.0611 70.3304L51.0572 70.3266Z" fill="#AD5700"/>
<path d="M52.4238 70.3841L51.827 78.3359C51.7538 78.309 51.6806 78.2859 51.6113 78.2589L52.2043 70.3687C52.2082 70.3148 52.2621 70.2647 52.3237 70.2724C52.3853 70.2762 52.4277 70.3263 52.4238 70.3879V70.3841Z" fill="#AD5700"/>
<path d="M53.7906 70.442L53.1668 78.7174C53.0936 78.702 53.0243 78.6827 52.9512 78.6634L53.5711 70.4228C53.575 70.3611 53.625 70.3188 53.6867 70.3226C53.7483 70.3265 53.7945 70.3804 53.7906 70.442Z" fill="#AD5700"/>
<path d="M55.1577 70.5002L54.5223 78.9642C54.4491 78.9527 54.376 78.945 54.3066 78.9334L54.942 70.4848C54.9497 70.427 54.9998 70.3808 55.0652 70.3847C55.1191 70.3885 55.1692 70.4424 55.1615 70.5041L55.1577 70.5002Z" fill="#AD5700"/>
<path d="M56.5286 70.5576L55.8855 79.0871C55.8123 79.0871 55.7392 79.0833 55.666 79.0756L56.3091 70.5422C56.3129 70.4806 56.3669 70.4344 56.4285 70.4383C56.4901 70.4421 56.5363 70.496 56.5324 70.5576H56.5286Z" fill="#AD5700"/>
<path d="M57.8959 70.6156L57.2567 79.095C57.1873 79.0989 57.1103 79.1027 57.041 79.1027L57.6802 70.6002C57.6879 70.5424 57.738 70.4962 57.7996 70.5039C57.8574 70.5039 57.9036 70.5578 57.8997 70.6194L57.8959 70.6156Z" fill="#AD5700"/>
<path d="M59.2632 70.6692L58.6394 78.9715C58.5701 78.9831 58.4931 78.9908 58.4199 78.9985L59.0476 70.65C59.0514 70.5884 59.1054 70.5421 59.1631 70.5499C59.2247 70.5537 59.2709 70.6076 59.2632 70.6654V70.6692Z" fill="#AD5700"/>
<path d="M60.6336 70.7273L60.0329 78.7138C59.9559 78.7292 59.8827 78.7484 59.8096 78.7677L60.4141 70.7118C60.4218 70.6541 60.4719 70.604 60.5335 70.6079C60.5913 70.6156 60.6413 70.6656 60.6375 70.7273H60.6336Z" fill="#AD5700"/>
<path d="M61.9965 70.7849L61.4343 78.2901C61.365 78.317 61.2841 78.344 61.2109 78.3709L61.7808 70.7695C61.7847 70.7079 61.8386 70.6617 61.9002 70.6655C61.9618 70.6694 62.008 70.7233 62.0003 70.781L61.9965 70.7849Z" fill="#AD5700"/>
<path d="M63.3211 70.7461C63.3481 70.7654 63.3673 70.8039 63.3673 70.8424L62.859 77.6159C62.7859 77.6583 62.7089 77.7045 62.6318 77.743L63.1478 70.8231C63.1555 70.7654 63.2017 70.7192 63.2634 70.723C63.2826 70.7269 63.3057 70.7346 63.3211 70.7461Z" fill="#AD5700"/>
<path d="M64.7337 70.9004L64.649 72.0326L64.3178 76.4764C64.2447 76.5572 64.1638 76.6381 64.0791 76.7151L64.4526 71.7784L64.5219 70.8812C64.5258 70.8196 64.5797 70.7734 64.6413 70.7772C64.6991 70.7849 64.7453 70.835 64.7376 70.8966L64.7337 70.9004Z" fill="#AD5700"/>
<path d="M56.3627 66.7879C56.5437 66.7918 56.7208 66.8033 56.898 66.8149C57.387 66.8457 57.8684 66.9034 58.3343 66.9766C60.9412 67.3963 63.0977 68.4515 64.2798 69.8108C64.9345 70.5655 65.2926 71.4127 65.2656 72.3023C65.2117 73.9311 63.8717 75.3405 61.8154 76.2301C60.225 76.9194 58.2072 77.2967 56.0238 77.2274C52.5081 77.1119 49.4968 75.8642 48.0451 74.1314C47.9065 73.9658 47.7833 73.7964 47.6754 73.6231C47.2981 73.0224 47.0978 72.3793 47.1209 71.7092C47.2134 68.9136 51.1026 66.7571 55.9083 66.7764C56.0585 66.7764 56.2125 66.7764 56.3627 66.7841V66.7879Z" fill="#FACF00" stroke="#0E1844" stroke-width="0.030507" stroke-linecap="round" stroke-linejoin="round"/>
<path d="M63.5794 72.2484C63.5794 72.3177 63.5717 72.3793 63.564 72.4448C63.564 72.4448 63.564 72.4448 63.564 72.4525C63.3099 74.7014 60.0136 76.3919 56.0512 76.2609C52.1543 76.1339 49.0198 74.297 48.8118 72.0867C48.8003 71.9827 48.7964 71.8787 48.8003 71.7671C48.8734 69.4181 52.2467 67.6236 56.3285 67.7545C60.4103 67.8893 63.6526 69.8956 63.5794 72.2484Z" fill="#D96D00" stroke="#0E1844" stroke-width="0.020338" stroke-linecap="round" stroke-linejoin="round"/>
<path d="M63.5676 72.4443V72.452C63.3096 74.7009 60.0134 76.3914 56.0548 76.2605C52.1579 76.1334 49.0234 74.2966 48.8154 72.0901C49.0619 69.8335 52.3581 68.1391 56.3282 68.2662C60.2252 68.3895 63.3635 70.2301 63.5676 72.4482V72.4443Z" fill="#FFB200" stroke="#0E1844" stroke-width="0.020338" stroke-linecap="round" stroke-linejoin="round"/>
<path d="M81.2383 73.7736C81.0688 73.6157 80.8801 73.4655 80.6761 73.3307C79.2513 72.3796 77.0179 71.9521 74.5303 72.2217C74.0874 72.2679 73.6331 72.3411 73.1748 72.4335C73.0092 72.4643 72.8437 72.5028 72.6781 72.5413C72.5356 72.576 72.397 72.6106 72.2583 72.6453C68.8966 73.5502 66.3398 75.4833 65.5966 77.4973L64.9111 77.6629L65.4541 79.3495C65.6004 79.9656 65.9431 80.5086 66.4399 80.9591C66.5823 81.0901 66.7364 81.2133 66.9058 81.3288C68.6618 82.5495 71.7308 82.9423 74.9731 82.1683C76.987 81.6908 78.7391 80.8398 80.0214 79.8116C81.6811 78.4831 82.5552 76.8581 82.1971 75.3601C82.1663 75.2292 82.1201 75.1021 82.0739 74.975L81.6541 73.6734L81.2383 73.7736Z" fill="#D96D00" stroke="#0E1844" stroke-width="0.0237277" stroke-linecap="round" stroke-linejoin="round"/>
<path d="M65.6379 75.9873L65.8304 76.9885L66.6314 81.1204C66.5659 81.0704 66.5043 81.0165 66.4427 80.9626C66.4196 80.9433 66.4003 80.9241 66.3772 80.9009L65.6802 77.3043L65.4299 76.0297C65.4184 75.9719 65.4531 75.9219 65.5108 75.9103C65.5686 75.8988 65.6225 75.9373 65.634 75.9912L65.6379 75.9873Z" fill="#AD5700"/>
<path d="M66.8394 75.6255C66.8702 75.6371 66.8933 75.6641 66.901 75.7026L68.114 81.9601C68.037 81.9293 67.9599 81.9023 67.8868 81.8677L66.7046 75.768V75.7449C66.6892 75.6872 66.7277 75.6333 66.7816 75.6255C66.8009 75.6255 66.824 75.6255 66.8394 75.6332V75.6255Z" fill="#AD5700"/>
<path d="M68.169 75.4099L69.5129 82.3606C69.4398 82.349 69.3666 82.3336 69.2935 82.3143L67.9649 75.4522C67.9534 75.3945 67.9919 75.3406 68.0458 75.329C68.0997 75.3213 68.1575 75.356 68.169 75.4099Z" fill="#AD5700"/>
<path d="M69.4317 75.125L70.868 82.5416C70.7948 82.5378 70.7217 82.5301 70.6524 82.5224L69.2237 75.1597C69.2122 75.1096 69.2507 75.0519 69.3084 75.0403C69.3662 75.0287 69.4163 75.0634 69.4278 75.1212L69.4317 75.125Z" fill="#AD5700"/>
<path d="M70.6985 74.836L72.1926 82.5607C72.1233 82.5607 72.0539 82.5607 71.9846 82.5646L70.4944 74.8745C70.4828 74.8168 70.5175 74.7667 70.5753 74.7552C70.633 74.7436 70.6869 74.7821 70.6985 74.836Z" fill="#AD5700"/>
<path d="M71.962 74.5476L73.4907 82.4455C73.4214 82.4532 73.3521 82.4648 73.2866 82.4725L71.7579 74.5899C71.7502 74.536 71.7849 74.4783 71.8426 74.4667C71.8927 74.4552 71.9504 74.4937 71.962 74.5514V74.5476Z" fill="#AD5700"/>
<path d="M73.2276 74.2585L74.7679 82.2181C74.6986 82.2335 74.6331 82.2489 74.5638 82.2643L73.0235 74.3009C73.012 74.2431 73.0505 74.1892 73.1044 74.1777C73.1622 74.1661 73.2161 74.2046 73.2276 74.2585Z" fill="#AD5700"/>
<path d="M74.4952 73.9698L76.0239 81.8832C75.9623 81.9063 75.893 81.9255 75.8275 81.9448L74.2911 74.0122C74.2834 73.9582 74.3181 73.9043 74.3758 73.8928C74.4297 73.8812 74.4836 73.9159 74.4952 73.9736V73.9698Z" fill="#AD5700"/>
<path d="M75.7589 73.681L77.2607 81.4288C77.1991 81.4557 77.1336 81.4827 77.0682 81.5097L75.5587 73.7195C75.5471 73.6618 75.5857 73.6078 75.6396 73.6001C75.6973 73.5886 75.7512 73.6271 75.7589 73.681Z" fill="#AD5700"/>
<path d="M77.0255 73.3886L78.4695 80.8438C78.404 80.8784 78.3424 80.9131 78.277 80.9477L76.8214 73.431C76.8137 73.3771 76.8483 73.3193 76.9022 73.3078C76.9562 73.3001 77.0139 73.3347 77.0255 73.3886Z" fill="#AD5700"/>
<path d="M78.2892 73.0996L79.6446 80.1003C79.5869 80.1427 79.5214 80.1889 79.4598 80.2312L78.0851 73.1419C78.0735 73.0842 78.112 73.0303 78.1659 73.0187C78.2237 73.0072 78.2776 73.0457 78.2853 73.0996H78.2892Z" fill="#AD5700"/>
<path d="M79.4894 72.7377C79.5202 72.7493 79.5471 72.7801 79.5548 72.8148L80.7793 79.1339C80.7216 79.1917 80.6638 79.2494 80.6022 79.3072L79.3469 72.8533C79.3392 72.7993 79.37 72.7454 79.4277 72.7339C79.447 72.7339 79.4701 72.7339 79.4855 72.7416L79.4894 72.7377Z" fill="#AD5700"/>
<path d="M80.8175 72.5252L81.0216 73.5841L81.8264 77.7314C81.7802 77.8239 81.7263 77.9163 81.6685 78.0087L80.779 73.3993L80.6173 72.5637C80.6057 72.5059 80.6442 72.452 80.6982 72.4405C80.7521 72.4328 80.8098 72.4674 80.8175 72.5252Z" fill="#AD5700"/>
<path d="M72.1388 70.8542C72.3043 70.8157 72.4699 70.7772 72.6355 70.7464C73.0899 70.654 73.5443 70.5847 73.991 70.5346C76.4785 70.2689 78.712 70.6925 80.1367 71.6436C80.9261 72.1674 81.4614 72.8566 81.6578 73.673C82.0159 75.1748 81.1418 76.7999 79.4821 78.1245C78.1998 79.1527 76.4477 80.0037 74.4338 80.4812C71.1915 81.2552 68.1224 80.8624 66.3665 79.6417C66.1971 79.5262 66.043 79.403 65.9006 79.2721C65.4038 78.8177 65.0611 78.2786 64.9148 77.6624C64.3025 75.0863 67.3215 72.1404 71.719 70.9582C71.8577 70.9197 72.0001 70.885 72.1388 70.8504V70.8542Z" fill="#FACF00" stroke="#0E1844" stroke-width="0.030507" stroke-linecap="round" stroke-linejoin="round"/>
<path d="M80.1024 74.0471C80.1178 74.1087 80.1294 74.1703 80.1371 74.2281C80.1371 74.2281 80.1371 74.2281 80.1371 74.2358C80.4644 76.3537 77.8728 78.722 74.2185 79.5923C70.6258 80.4471 67.2987 79.5499 66.5594 77.5821C66.5209 77.4897 66.4939 77.3935 66.4708 77.2933C65.9548 75.1292 68.5887 72.6454 72.3547 71.7482C76.1208 70.851 79.5864 71.8791 80.1063 74.0471H80.1024Z" fill="#D96D00" stroke="#0E1844" stroke-width="0.020338" stroke-linecap="round" stroke-linejoin="round"/>
<path d="M80.1377 74.2278V74.2355C80.4651 76.3534 77.8735 78.7216 74.2192 79.5919C70.6264 80.4468 67.2994 79.5534 66.56 77.5818C66.2212 75.46 68.8127 73.0879 72.4748 72.2138C76.0714 71.3551 79.3984 72.2562 80.1377 74.2316V74.2278Z" fill="#FFB200" stroke="#0E1844" stroke-width="0.020338" stroke-linecap="round" stroke-linejoin="round"/>
<path opacity="0.49" d="M68.808 73.2535C67.7414 73.9659 66.9712 74.8208 66.6208 75.6987C66.1202 75.6987 65.5657 75.6872 65.1113 75.6795C65.4694 74.7938 66.178 73.9312 67.1522 73.1649L68.8119 73.2535H68.808Z" fill="#FFF0D3"/>
<path d="M54.4519 76.0296C54.3941 75.787 54.3133 75.5483 54.2093 75.3057C53.4969 73.6267 51.7525 71.9362 49.3805 70.7194C48.9569 70.4999 48.5141 70.2996 48.052 70.1148C47.8864 70.0455 47.7131 69.9839 47.5437 69.9184C47.3973 69.8645 47.2549 69.8144 47.1085 69.7682C43.5813 68.6053 40.1695 68.8325 38.3289 70.1918L37.6203 69.9338L37.1159 71.7552C36.8848 72.3906 36.8733 73.0722 37.0504 73.7692C37.1005 73.9694 37.1659 74.1697 37.2468 74.3738C38.0978 76.4917 40.6008 78.6366 43.9432 79.8457C46.0188 80.5966 48.0789 80.8662 49.8233 80.7006C52.0798 80.4888 53.8088 79.5531 54.371 78.0051C54.4172 77.8703 54.4558 77.7278 54.4866 77.5892L54.8755 76.1836L54.4481 76.0258L54.4519 76.0296Z" fill="#D96D00" stroke="#0E1844" stroke-width="0.0237277" stroke-linecap="round" stroke-linejoin="round"/>
<path d="M39.2493 68.8674L38.8372 69.8724L37.1314 74.0236C37.1006 73.9389 37.0775 73.8542 37.0544 73.7733C37.0467 73.7425 37.039 73.7117 37.0312 73.6809L38.5176 70.0688L39.0413 68.7865C39.0644 68.7288 39.1261 68.7057 39.1838 68.7288C39.2416 68.7519 39.2685 68.8173 39.2454 68.8751L39.2493 68.8674Z" fill="#AD5700"/>
<path d="M40.5321 69.2488C40.5514 69.2757 40.5591 69.3142 40.5437 69.3527L37.9598 75.6411C37.9097 75.5679 37.8558 75.4986 37.8135 75.4254L40.3319 69.295L40.3434 69.2719C40.3665 69.2141 40.432 69.1872 40.4859 69.2141C40.5051 69.2257 40.5244 69.2372 40.5321 69.2526V69.2488Z" fill="#AD5700"/>
<path d="M41.8448 69.838L38.9722 76.8195C38.9144 76.7656 38.8566 76.7078 38.8027 76.6462L41.6369 69.7494C41.66 69.6917 41.7254 69.6647 41.7832 69.6878C41.8371 69.7109 41.8679 69.7764 41.8448 69.8341V69.838Z" fill="#AD5700"/>
<path d="M43.1388 70.3191L40.0775 77.7742C40.0159 77.728 39.9542 77.678 39.8965 77.6318L42.9347 70.2344C42.9578 70.1843 43.0233 70.1535 43.0772 70.1766C43.135 70.1997 43.1581 70.2613 43.135 70.3191H43.1388Z" fill="#AD5700"/>
<path d="M44.4366 70.8046L41.2443 78.5639C41.1789 78.5254 41.1173 78.4831 41.0557 78.4446L44.2325 70.7199C44.2556 70.6621 44.3172 70.6352 44.375 70.6621C44.4328 70.6852 44.4597 70.7507 44.4366 70.8084V70.8046Z" fill="#AD5700"/>
<path d="M45.7304 71.2858L42.4688 79.2223C42.3995 79.1915 42.3341 79.1607 42.2725 79.126L45.5263 71.2049C45.5494 71.151 45.6149 71.1241 45.6765 71.1472C45.7266 71.1703 45.7574 71.2357 45.7343 71.2896L45.7304 71.2858Z" fill="#AD5700"/>
<path d="M47.0336 71.7704L43.745 79.7685C43.6757 79.7415 43.6064 79.7184 43.5371 79.6914L46.8295 71.6895C46.8526 71.6317 46.9181 71.6048 46.9758 71.6279C47.0336 71.651 47.0605 71.7164 47.0374 71.7742L47.0336 71.7704Z" fill="#AD5700"/>
<path d="M48.3259 72.2562L45.0566 80.2042C44.9873 80.1888 44.9141 80.1657 44.8486 80.1426L48.1256 72.1715C48.1487 72.1176 48.2142 72.0906 48.2681 72.1137C48.322 72.1368 48.349 72.1984 48.3259 72.2562Z" fill="#AD5700"/>
<path d="M49.6206 72.7375L46.4207 80.5199C46.3475 80.5083 46.2743 80.4929 46.2012 80.4775L49.4165 72.6527C49.4396 72.595 49.5051 72.568 49.559 72.595C49.6168 72.6181 49.6437 72.6835 49.6168 72.7375H49.6206Z" fill="#AD5700"/>
<path d="M50.922 73.219L47.8453 80.7088C47.7683 80.7011 47.6913 80.6972 47.6143 80.6895L50.718 73.1381C50.7411 73.0842 50.8065 73.0534 50.8643 73.0765C50.9182 73.0996 50.949 73.1651 50.9259 73.2228L50.922 73.219Z" fill="#AD5700"/>
<path d="M52.2156 73.6999L49.3237 80.7353C49.2467 80.7391 49.162 80.743 49.085 80.743L52.0115 73.6152C52.0346 73.5574 52.1001 73.5304 52.1578 73.5535C52.2156 73.5766 52.2426 73.6421 52.2156 73.696V73.6999Z" fill="#AD5700"/>
<path d="M53.4969 74.081C53.5162 74.108 53.5239 74.1503 53.5084 74.1888L50.8976 80.5388C50.8129 80.558 50.7244 80.5773 50.6396 80.5888L53.3044 74.1002C53.3275 74.0463 53.3891 74.0194 53.4468 74.0425C53.4661 74.054 53.4853 74.0656 53.493 74.081H53.4969Z" fill="#AD5700"/>
<path d="M54.8075 74.6703L54.3723 75.7331L52.6626 79.8996C52.5663 79.9535 52.4662 80.0075 52.3584 80.0537L54.2645 75.425L54.6111 74.5856C54.6342 74.5278 54.6996 74.5008 54.7574 74.5239C54.8113 74.547 54.8383 74.6125 54.8152 74.6664L54.8075 74.6703Z" fill="#AD5700"/>
<path d="M48.0525 68.0971C48.2257 68.1587 48.3952 68.2241 48.5569 68.2896C49.019 68.4744 49.4618 68.6785 49.8854 68.8942C52.2575 70.111 54.0019 71.8015 54.7142 73.4805C55.107 74.4123 55.1879 75.3365 54.8798 76.1837C54.3176 77.7317 52.5886 78.6675 50.3321 78.8793C48.5916 79.0448 46.5276 78.7753 44.452 78.0244C41.1096 76.8114 38.6066 74.6665 37.7556 72.5524C37.6747 72.3522 37.6054 72.1481 37.5592 71.9478C37.3821 71.2547 37.3936 70.5693 37.6247 69.9339C38.5873 67.2768 43.0041 66.422 47.6135 67.943C47.7598 67.9892 47.9061 68.0431 48.0486 68.0932L48.0525 68.0971Z" fill="#FACF00" stroke="#0E1844" stroke-width="0.030507" stroke-linecap="round" stroke-linejoin="round"/>
<path d="M53.2774 75.6067C53.2543 75.6722 53.2273 75.7299 53.2042 75.7915C53.2042 75.7915 53.2042 75.7915 53.2004 75.7954C52.2493 77.8748 48.5564 78.4678 44.7904 77.1046C41.086 75.7646 38.6484 73.0151 39.1413 70.8279C39.1644 70.7239 39.1914 70.6238 39.2299 70.5198C40.0386 68.2863 43.8392 67.6163 47.7208 69.0218C51.6023 70.4274 54.0899 73.3732 53.2812 75.6105L53.2774 75.6067Z" fill="#D96D00" stroke="#0E1844" stroke-width="0.020338" stroke-linecap="round" stroke-linejoin="round"/>
<path d="M53.2042 75.791H53.2004C52.2492 77.8782 48.5564 78.4673 44.7904 77.1042C41.086 75.7641 38.6484 73.0146 39.1413 70.8274C40.0848 68.7364 43.7815 68.1395 47.559 69.5066C51.2673 70.8466 53.7048 73.5999 53.2081 75.791H53.2042Z" fill="#FFB200" stroke="#0E1844" stroke-width="0.020338" stroke-linecap="round" stroke-linejoin="round"/>
<path opacity="0.49" d="M43.6742 68.2861C42.3072 68.2977 41.1173 68.6058 40.2932 69.1834C39.8504 68.8869 39.3614 68.5557 38.957 68.2784C39.7965 67.7008 40.9325 67.3427 42.2456 67.231L43.6742 68.2823V68.2861Z" fill="#FFF0D3"/>
<path d="M66.4084 79.0911C66.3045 78.8755 66.1774 78.6676 66.031 78.4596C65.0144 77.0233 63.0236 75.791 60.5399 75.1364C60.0971 75.017 59.635 74.9207 59.1613 74.8399C58.9919 74.8091 58.8186 74.786 58.6415 74.759C58.4951 74.7398 58.345 74.7205 58.1986 74.7051C54.6367 74.3354 51.4714 75.2519 50.0197 76.9116L49.2996 76.8153L49.1995 78.6368C49.1147 79.2837 49.2418 79.9268 49.5537 80.5467C49.6423 80.7239 49.7463 80.901 49.8656 81.0743C51.1017 82.8919 53.9012 84.3975 57.3014 84.8481C59.4116 85.1292 61.4063 84.9559 63.0159 84.4437C65.0953 83.7814 66.5316 82.5415 66.7434 80.9703C66.7588 80.8317 66.7665 80.6931 66.7665 80.5544L66.8435 79.1489L66.4084 79.0911Z" fill="#D96D00" stroke="#0E1844" stroke-width="0.0271173" stroke-linecap="round" stroke-linejoin="round"/>
<path d="M50.621 75.4827L50.44 76.5147L49.6891 80.7775C49.6429 80.7044 49.6044 80.6312 49.5659 80.5542C49.5543 80.5272 49.5389 80.5003 49.5273 80.4695L50.182 76.7612L50.413 75.4442C50.4246 75.3864 50.4746 75.3479 50.5362 75.3595C50.594 75.371 50.6325 75.4249 50.6248 75.4827H50.621Z" fill="#AD5700"/>
<path d="M51.9072 75.5755C51.9341 75.5986 51.9457 75.6333 51.938 75.6718L50.802 82.1257C50.7404 82.0679 50.6749 82.014 50.6172 81.9524L51.7262 75.6602L51.7339 75.6371C51.7455 75.5794 51.7994 75.5409 51.8571 75.5524C51.8764 75.5601 51.8956 75.5678 51.911 75.5794L51.9072 75.5755Z" fill="#AD5700"/>
<path d="M53.2631 75.8561L51.9962 83.0263C51.9308 82.9878 51.8653 82.9454 51.8037 82.8992L53.0514 75.8215C53.0629 75.7637 53.1168 75.7252 53.1746 75.7329C53.2323 75.7445 53.2708 75.7984 53.2631 75.8561Z" fill="#AD5700"/>
<path d="M54.5783 76.0454L53.2305 83.6969C53.1612 83.6661 53.0919 83.6353 53.0303 83.6007L54.3703 76.0069C54.378 75.953 54.4358 75.9145 54.4936 75.9222C54.5513 75.9337 54.5898 75.9838 54.5783 76.0454Z" fill="#AD5700"/>
<path d="M55.9045 76.234L54.4952 84.1974C54.4258 84.1743 54.3604 84.1474 54.2949 84.1242L55.6927 76.1955C55.7043 76.1377 55.7544 76.0992 55.816 76.1108C55.8737 76.1223 55.9122 76.1762 55.9045 76.234Z" fill="#AD5700"/>
<path d="M57.2195 76.4226L55.7831 84.5671C55.7138 84.5517 55.6445 84.5363 55.5752 84.517L57.0077 76.3841C57.0192 76.3264 57.0731 76.2879 57.1347 76.2994C57.1887 76.3071 57.2272 76.3649 57.2195 76.4226Z" fill="#AD5700"/>
<path d="M58.5454 76.6111L57.0936 84.821C57.0205 84.8094 56.9511 84.8017 56.8818 84.7902L58.3336 76.5764C58.3451 76.5187 58.399 76.4802 58.4568 76.4879C58.5145 76.4994 58.5531 76.5533 58.5454 76.6111Z" fill="#AD5700"/>
<path d="M59.8619 76.7996L58.4218 84.9594C58.3524 84.9594 58.2793 84.9517 58.21 84.944L59.6501 76.7611C59.6617 76.7033 59.7156 76.6687 59.7734 76.6764C59.8311 76.6841 59.8696 76.738 59.8581 76.7996H59.8619Z" fill="#AD5700"/>
<path d="M61.1836 76.985L59.7742 84.9754C59.7049 84.9792 59.6318 84.9754 59.5586 84.9831L60.9757 76.9504C60.9872 76.8926 61.0411 76.8541 61.0989 76.8656C61.1567 76.8772 61.1952 76.9311 61.1836 76.9889V76.985Z" fill="#AD5700"/>
<path d="M62.5075 77.1734L61.1521 84.8596C61.0789 84.8673 61.0057 84.8788 60.9287 84.8865L62.2957 77.1349C62.3073 77.0771 62.3612 77.0386 62.419 77.0463C62.4767 77.0579 62.5152 77.1118 62.5075 77.1696V77.1734Z" fill="#AD5700"/>
<path d="M63.8251 77.3623L62.5505 84.5825C62.4773 84.6018 62.4003 84.621 62.3271 84.6403L63.6171 77.3276C63.6287 77.2699 63.6826 77.2314 63.7404 77.2391C63.7981 77.2506 63.8366 77.3045 63.8251 77.3623Z" fill="#AD5700"/>
<path d="M65.1105 77.4545C65.1374 77.4776 65.149 77.5161 65.1451 77.5508L63.9976 84.0701C63.9206 84.1048 63.8436 84.1395 63.7627 84.1703L64.9333 77.5122C64.9449 77.4545 64.9949 77.416 65.0565 77.4275C65.0758 77.4352 65.0951 77.4429 65.1105 77.4545Z" fill="#AD5700"/>
<path d="M66.4671 77.7396L66.2745 78.8294L65.5198 83.1076C65.4389 83.1808 65.3542 83.2501 65.2656 83.3156L66.1051 78.5637L66.2591 77.7011C66.2707 77.6434 66.3246 77.6048 66.3823 77.6126C66.4401 77.6241 66.4786 77.678 66.4671 77.7358V77.7396Z" fill="#AD5700"/>
<path d="M58.7494 72.9417C58.9227 72.9648 59.096 72.9918 59.2654 73.0187C59.7391 73.0957 60.1973 73.1958 60.644 73.3152C63.1277 73.9737 65.1186 75.206 66.1352 76.6385C66.6974 77.4317 66.9631 78.2904 66.8476 79.1492C66.6396 80.7203 65.2033 81.9602 63.12 82.6226C61.5143 83.1386 59.5157 83.308 57.4055 83.0269C54.0092 82.5764 51.2097 81.0707 49.9698 79.2531C49.8504 79.0799 49.7464 78.9027 49.6578 78.7256C49.3498 78.1095 49.2189 77.4625 49.3036 76.8156C49.6617 74.1162 53.6434 72.3987 58.3028 72.8839C58.4491 72.8993 58.5993 72.9186 58.7456 72.9378L58.7494 72.9417Z" fill="#FACF00" stroke="#0E1844" stroke-width="0.0338967" stroke-linecap="round" stroke-linejoin="round"/>
<path d="M65.2187 78.9373C65.211 79.0027 65.1995 79.0644 65.1879 79.126C65.1879 79.126 65.1879 79.126 65.1879 79.1298C64.722 81.2863 61.3641 82.6032 57.5365 82.0949C53.7705 81.5943 50.9094 79.5111 50.9209 77.3469C50.9209 77.2429 50.9286 77.1428 50.9402 77.0388C51.2405 74.7707 54.6831 73.3575 58.6301 73.8773C62.5733 74.4011 65.5268 76.6653 65.2226 78.9334L65.2187 78.9373Z" fill="#D96D00" stroke="#0E1844" stroke-width="0.020338" stroke-linecap="round" stroke-linejoin="round"/>
<path d="M65.1879 79.1223C64.722 81.2826 61.3641 82.6034 57.5365 82.0913C53.7705 81.5907 50.9094 79.5074 50.9209 77.3432C51.3753 75.1791 54.737 73.8583 58.5762 74.3627C62.3422 74.8633 65.2072 76.9505 65.1918 79.1185L65.1879 79.1223Z" fill="#FFB200" stroke="#0E1844" stroke-width="0.0237277" stroke-linecap="round" stroke-linejoin="round"/>
<path opacity="0.49" d="M54.6674 74.0198C53.3812 74.3125 52.3261 74.8477 51.6677 75.5601C51.1863 75.3714 50.6588 75.1635 50.2236 74.9864C50.8937 74.2701 51.8949 73.7002 53.1078 73.3228L54.6674 74.0198Z" fill="#FFF0D3"/>
<path d="M71.266 68.3786C71.0619 68.2322 70.8463 68.0974 70.6075 67.9781C68.9633 67.154 66.5219 66.9923 63.9073 67.6045C63.4375 67.7124 62.9677 67.8471 62.4902 68.0089C62.3169 68.0666 62.1436 68.1283 61.9742 68.1899C61.8279 68.2438 61.6815 68.3015 61.539 68.3593C58.0695 69.7648 55.5974 72.1639 55.0698 74.4127L54.3574 74.6784L55.1584 76.4075C55.3971 77.0467 55.8323 77.5781 56.4214 77.9978C56.5909 78.1172 56.7718 78.2289 56.9682 78.3328C59.0053 79.4034 62.3246 79.4188 65.6863 78.1673C67.7695 77.3894 69.5293 76.2534 70.7616 74.9904C72.3558 73.3576 73.0759 71.5092 72.4983 69.9535C72.4482 69.8188 72.3827 69.6878 72.3134 69.5607L71.6935 68.2245L71.2622 68.3824L71.266 68.3786Z" fill="#D96D00" stroke="#0E1844" stroke-width="0.0237277" stroke-linecap="round" stroke-linejoin="round"/>
<path d="M54.9128 72.7956L55.2516 73.8353L56.6495 78.1405C56.5724 78.0943 56.4993 78.0442 56.4261 77.9941C56.3992 77.9749 56.3761 77.9556 56.3491 77.9364L55.1323 74.1896L54.6971 72.861C54.6779 72.8033 54.7087 72.7417 54.7664 72.7224C54.8242 72.7032 54.8897 72.734 54.9089 72.7917L54.9128 72.7956Z" fill="#AD5700"/>
<path d="M56.1484 72.2485C56.183 72.2562 56.21 72.2831 56.2254 72.3216L58.3433 78.8372C58.2586 78.8141 58.17 78.7948 58.0891 78.7679L56.0251 72.414L56.0174 72.3871C55.9982 72.3293 56.029 72.2639 56.0868 72.2485C56.1099 72.2446 56.1291 72.2408 56.1484 72.2485Z" fill="#AD5700"/>
<path d="M57.5388 71.8481L59.8878 79.0876C59.8069 79.0876 59.7299 79.076 59.6452 79.0644L57.327 71.9174C57.3078 71.8596 57.3386 71.7942 57.3963 71.7749C57.4541 71.7595 57.5196 71.7865 57.5388 71.8442V71.8481Z" fill="#AD5700"/>
<path d="M58.8476 71.3746L61.3583 79.0992C61.2774 79.1031 61.2004 79.1069 61.1272 79.1069L58.6358 71.44C58.6204 71.3861 58.6512 71.3206 58.7089 71.3014C58.7667 71.2821 58.8283 71.3129 58.8476 71.3707V71.3746Z" fill="#AD5700"/>
<path d="M60.1609 70.8973L62.7717 78.9416C62.6985 78.9532 62.6215 78.9647 62.5483 78.9724L59.9491 70.9628C59.9298 70.905 59.9606 70.8434 60.0184 70.8242C60.08 70.8049 60.1416 70.8357 60.1609 70.8935V70.8973Z" fill="#AD5700"/>
<path d="M61.4696 70.4278L64.142 78.653C64.0689 78.6723 63.9957 78.6916 63.9264 78.707L61.2578 70.4971C61.2424 70.4393 61.2732 70.3777 61.3348 70.3546C61.3888 70.3392 61.4542 70.37 61.4735 70.4278H61.4696Z" fill="#AD5700"/>
<path d="M62.7868 69.9496L65.4746 78.2404C65.4053 78.2673 65.336 78.2904 65.2628 78.3174L62.5712 70.0228C62.5519 69.965 62.5827 69.8996 62.6405 69.8803C62.6982 69.861 62.7637 69.8919 62.7829 69.9496H62.7868Z" fill="#AD5700"/>
<path d="M64.0966 69.4758L66.769 77.7165C66.7035 77.7473 66.6342 77.7781 66.5688 77.8089L63.8848 69.5451C63.8694 69.4874 63.9002 69.4257 63.958 69.4065C64.0157 69.3872 64.0773 69.418 64.0966 69.4758Z" fill="#AD5700"/>
<path d="M65.405 69.0023L68.0235 77.0697C67.9619 77.1082 67.8926 77.1429 67.8271 77.1814L65.1932 69.0716C65.174 69.0138 65.2048 68.9484 65.2625 68.933C65.3203 68.9137 65.3858 68.9445 65.4012 69.0023H65.405Z" fill="#AD5700"/>
<path d="M66.718 68.5248L69.2402 76.288C69.1748 76.3342 69.1132 76.3804 69.0477 76.4227L66.5062 68.5941C66.4908 68.5363 66.5178 68.4709 66.5755 68.4516C66.6333 68.4362 66.6988 68.4632 66.718 68.5209V68.5248Z" fill="#AD5700"/>
<path d="M68.0281 68.0505L70.3963 75.3439C70.3386 75.3978 70.277 75.4556 70.2192 75.5095L67.8202 68.1237C67.8009 68.0659 67.8317 68.0004 67.8895 67.9812C67.9473 67.9619 68.0127 67.9927 68.0281 68.0505Z" fill="#AD5700"/>
<path d="M69.264 67.5044C69.2987 67.5121 69.3295 67.5429 69.3449 67.5776L71.4821 74.1625C71.4282 74.2318 71.3743 74.3011 71.3165 74.3704L69.1293 67.6469C69.1139 67.5892 69.1408 67.5275 69.1986 67.5083C69.2217 67.5044 69.2409 67.5006 69.2602 67.5083L69.264 67.5044Z" fill="#AD5700"/>
<path d="M70.6542 67.104L71.0123 68.2053L72.4178 72.5259C72.3793 72.6299 72.3369 72.7377 72.2869 72.8416L70.7312 68.0436L70.4501 67.1733C70.4308 67.1155 70.4616 67.0501 70.5194 67.0308C70.5771 67.0154 70.6388 67.0462 70.658 67.104H70.6542Z" fill="#AD5700"/>
<path d="M61.1733 66.4605C61.3466 66.395 61.5199 66.3373 61.6893 66.2795C62.1629 66.1216 62.6366 65.9868 63.1064 65.8752C65.7249 65.2629 68.1662 65.4246 69.8067 66.2487C70.7154 66.7069 71.3816 67.3693 71.6974 68.2165C72.275 69.7722 71.5588 71.6206 69.9607 73.2533C68.7285 74.5164 66.9687 75.6562 64.8854 76.4302C61.5276 77.6817 58.2044 77.6663 56.1673 76.5958C55.9748 76.4957 55.79 76.384 55.6205 76.2608C55.0314 75.841 54.5924 75.3096 54.3575 74.6704C53.364 72.0018 56.1982 68.4629 60.7343 66.6222C60.8768 66.5645 61.0231 66.5067 61.1695 66.4528L61.1733 66.4605Z" fill="#FACF00" stroke="#0E1844" stroke-width="0.030507" stroke-linecap="round" stroke-linejoin="round"/>
<path d="M70.0881 68.8215C70.1112 68.887 70.1305 68.9486 70.1497 69.0102C70.1497 69.0102 70.1497 69.0102 70.1497 69.0179C70.7774 71.236 68.3245 74.101 64.5392 75.5104C60.8194 76.8966 57.1535 76.3768 56.1022 74.3744C56.0522 74.2781 56.006 74.1818 55.9674 74.0779C55.1318 71.8367 57.6156 68.8408 61.5164 67.389C65.4133 65.9373 69.2486 66.5765 70.0881 68.8215Z" fill="#D96D00" stroke="#0E1844" stroke-width="0.020338" stroke-linecap="round" stroke-linejoin="round"/>
<path d="M70.1535 69.0099V69.0176C70.7812 71.2356 68.3283 74.1006 64.543 75.51C60.8232 76.8963 57.1573 76.3764 56.106 74.374C55.4668 72.1521 57.9197 69.2794 61.7127 67.8662C65.4364 66.476 69.1023 66.9997 70.1535 69.0099Z" fill="#FFB200" stroke="#0E1844" stroke-width="0.020338" stroke-linecap="round" stroke-linejoin="round"/>
<path opacity="0.49" d="M57.935 69.4606C56.8915 70.3617 56.1791 71.3744 55.9211 72.3564C55.3858 72.418 54.7967 72.4834 54.3076 72.5335C54.5733 71.54 55.2164 70.5272 56.1521 69.5838L57.935 69.4606Z" fill="#FFF0D3"/>
<path d="M33.1725 99.3512L32.7412 68.5718L63.7859 80.4207L64.0092 112.652L33.1725 99.3512Z" fill="white" stroke="#001B4B" stroke-width="0.189821" stroke-linecap="round" stroke-linejoin="round"/>
<path d="M97.4185 68.4861V99.6043L64.0095 112.651L63.7861 80.4197L97.4185 68.4861Z" fill="#B24DD4" stroke="#21002A" stroke-width="0.189821" stroke-linecap="round" stroke-linejoin="round"/>
<path d="M55.2699 119.688H54.6217C54.0392 119.68 53.4699 119.653 52.9137 119.609C52.9005 119.609 52.8874 119.609 52.8742 119.609C52.8042 119.605 52.7341 119.596 52.664 119.592C49.5852 119.32 47.0057 118.545 45.5429 117.494C44.7502 116.925 44.286 116.277 44.2422 115.585C44.2422 115.554 44.2422 115.523 44.2422 115.493C44.2422 115.374 44.2553 115.261 44.2772 115.147C44.2991 115.037 44.3342 114.923 44.378 114.814C44.4874 114.542 44.6626 114.28 44.8947 114.025C45.1663 113.732 45.5166 113.456 45.9371 113.198C46.5633 112.808 47.3473 112.462 48.2495 112.169C48.6611 112.033 49.0991 111.915 49.5546 111.801C51.21 111.402 53.1502 111.17 55.2217 111.157C57.3414 111.144 59.3253 111.367 61.007 111.757C61.0246 111.761 61.0465 111.766 61.064 111.77C61.5939 111.897 62.0932 112.037 62.5574 112.195C62.7676 112.265 62.9691 112.339 63.1618 112.418C63.9019 112.712 64.5326 113.044 65.0275 113.417C65.2026 113.548 65.3603 113.68 65.5004 113.815C65.8771 114.183 66.1223 114.582 66.2143 114.993C66.2406 115.116 66.2537 115.234 66.2581 115.357C66.2581 115.65 66.1837 115.935 66.0435 116.211C65.9121 116.465 65.7238 116.71 65.4873 116.942C65.1939 117.231 64.8216 117.503 64.3837 117.761C64.2348 117.849 64.0771 117.936 63.9107 118.015C63.6435 118.147 63.3589 118.274 63.061 118.392C62.8552 118.471 62.645 118.55 62.4304 118.624C62.1457 118.72 61.8479 118.812 61.5413 118.896C59.9078 119.347 57.9501 119.631 55.8392 119.684C55.7166 119.684 55.5939 119.688 55.4713 119.693H55.283L55.2699 119.688Z" fill="#21002A" stroke="#21002A" stroke-width="0.0732478" stroke-linejoin="round"/>
<path d="M53.7916 118.056C53.9142 118.056 54.0368 118.052 54.1595 118.047C56.2748 117.995 58.2324 117.71 59.8616 117.259C60.1682 117.176 60.4704 117.084 60.7507 116.987C60.9696 116.913 61.1799 116.834 61.3813 116.755C61.6835 116.637 61.9682 116.51 62.231 116.379C62.3974 116.296 62.555 116.212 62.7039 116.125C63.1419 115.871 63.5142 115.595 63.8076 115.306C64.0485 115.069 64.2324 114.828 64.3638 114.574C64.5039 114.298 64.5828 114.009 64.5784 113.72L64.5652 111.653L63.8558 112.214C63.8558 112.214 63.8339 112.192 63.8207 112.179C63.685 112.043 63.5229 111.907 63.3477 111.78C62.8528 111.412 62.2266 111.075 61.4821 110.782C61.2894 110.703 61.0879 110.628 60.8777 110.558C60.4134 110.401 59.9142 110.256 59.3843 110.133C59.3667 110.129 59.3448 110.125 59.3273 110.12C57.6456 109.726 55.6617 109.507 53.542 109.52C51.4704 109.533 49.5259 109.766 47.8748 110.164C47.415 110.274 46.977 110.396 46.5697 110.532C45.6676 110.825 44.8836 111.176 44.2573 111.561C43.8632 111.806 43.5303 112.065 43.2676 112.341L42.5537 111.609L42.5712 113.777V113.86C42.5712 113.891 42.5712 113.922 42.5712 113.952C42.615 114.644 43.0793 115.293 43.8719 115.862C45.3347 116.913 47.9143 117.688 50.9931 117.96C51.0631 117.969 51.1332 117.973 51.2033 117.977C51.2164 117.977 51.2296 117.977 51.2427 117.977C51.7945 118.021 52.3639 118.047 52.9507 118.056H53.0909C53.2573 118.056 53.4281 118.056 53.5989 118.056H53.7872H53.7828H53.7916Z" fill="#D96D00" stroke="#0E1844" stroke-width="0.026986" stroke-linecap="round" stroke-linejoin="round"/>
<path d="M63.8165 115.305C63.8515 115.27 63.8822 115.24 63.9172 115.205L63.8997 112.187L63.869 112.209C63.869 112.209 63.8471 112.187 63.834 112.174C63.7902 112.13 63.742 112.091 63.6982 112.047L63.7201 115.406C63.7552 115.371 63.7902 115.34 63.8209 115.31L63.8165 115.305Z" fill="#AD5700"/>
<path d="M62.6384 116.164L62.6077 111.294C62.542 111.259 62.4763 111.22 62.4062 111.185L62.4369 116.274C62.507 116.239 62.5727 116.199 62.6384 116.164Z" fill="#AD5700"/>
<path d="M61.359 116.764L61.3196 110.707C61.2539 110.681 61.1839 110.659 61.1182 110.633L61.1576 116.843C61.2277 116.817 61.2933 116.79 61.359 116.768V116.764Z" fill="#AD5700"/>
<path d="M60.0753 117.198L60.0315 110.291C59.9658 110.274 59.8958 110.256 59.8301 110.239L59.8739 117.259C59.9439 117.242 60.0096 117.22 60.0753 117.202V117.198Z" fill="#AD5700"/>
<path d="M58.5965 117.561C58.6666 117.548 58.7323 117.535 58.798 117.517L58.7542 109.984C58.6885 109.971 58.6228 109.958 58.5615 109.945C58.5571 109.958 58.5527 109.967 58.5527 109.98L58.6009 117.557L58.5965 117.561Z" fill="#AD5700"/>
<path d="M57.3654 109.893C57.3084 109.893 57.2646 109.936 57.2646 109.993L57.3128 117.785C57.3785 117.776 57.4486 117.767 57.5143 117.754L57.4661 109.993C57.4661 109.936 57.4223 109.893 57.3654 109.893Z" fill="#AD5700"/>
<path d="M56.0861 109.897C56.0291 109.897 55.9854 109.941 55.9854 109.998L56.0335 117.929C56.1036 117.92 56.1693 117.916 56.235 117.912L56.1868 109.993C56.1868 109.937 56.143 109.893 56.0861 109.893V109.897Z" fill="#AD5700"/>
<path d="M54.8029 109.91C54.7459 109.91 54.7021 109.954 54.7021 110.011L54.7503 118.026C54.816 118.026 54.8861 118.021 54.9518 118.017L54.9036 110.011C54.9036 109.954 54.8598 109.91 54.8029 109.91Z" fill="#AD5700"/>
<path d="M53.5197 109.915C53.4627 109.915 53.4189 109.959 53.4189 110.016L53.4671 118.056H53.6686L53.6204 110.016C53.6204 109.959 53.5766 109.915 53.5197 109.915Z" fill="#AD5700"/>
<path d="M52.2423 109.923C52.1854 109.923 52.1416 109.967 52.1416 110.024L52.1898 118.03C52.2555 118.03 52.3255 118.034 52.3912 118.038L52.3431 110.028C52.3431 109.971 52.2993 109.927 52.2423 109.927V109.923Z" fill="#AD5700"/>
<path d="M50.9542 109.932C50.8973 109.932 50.8535 109.976 50.8535 110.033L50.9017 117.942C50.9323 117.942 50.963 117.951 50.9937 117.951C51.0287 117.951 51.0681 117.96 51.1031 117.96L51.055 110.033C51.055 109.976 51.0112 109.932 50.9542 109.932Z" fill="#AD5700"/>
<path d="M49.674 109.94C49.617 109.94 49.5732 109.984 49.5732 110.041L49.6214 117.793C49.6871 117.802 49.7572 117.811 49.8229 117.819L49.7747 110.041C49.7747 109.984 49.7309 109.94 49.674 109.94Z" fill="#AD5700"/>
<path d="M48.5363 117.61L48.4881 110.046C48.4881 110.046 48.4881 110.029 48.4881 110.024C48.4224 110.037 48.3567 110.055 48.291 110.068L48.3348 117.57C48.4005 117.583 48.4706 117.597 48.5363 117.61Z" fill="#AD5700"/>
<path d="M47.2531 117.312L47.2093 110.335C47.1392 110.352 47.0735 110.374 47.0078 110.396L47.0516 117.259C47.1173 117.277 47.1874 117.298 47.2531 117.312Z" fill="#AD5700"/>
<path d="M45.9694 116.908L45.93 110.751C45.8599 110.777 45.7942 110.803 45.7285 110.83L45.7636 116.834C45.8292 116.86 45.8993 116.887 45.965 116.908H45.9694Z" fill="#AD5700"/>
<path d="M44.6823 116.348L44.6517 111.334C44.5816 111.373 44.5159 111.408 44.4502 111.448L44.4765 116.239C44.5422 116.278 44.6079 116.313 44.6779 116.348H44.6823Z" fill="#AD5700"/>
<path d="M43.3938 115.463L43.3763 112.235C43.3412 112.27 43.3062 112.305 43.2755 112.336L43.1748 112.235L43.1923 115.257C43.258 115.327 43.3237 115.393 43.3982 115.463H43.3938Z" fill="#AD5700"/>
<path d="M53.5941 115.985H52.9459C52.3634 115.976 51.7941 115.95 51.2379 115.906C51.2247 115.906 51.2116 115.906 51.1985 115.906C51.1284 115.901 51.0583 115.893 50.9883 115.888C47.9094 115.617 45.3299 114.841 43.8671 113.79C43.0744 113.221 42.6102 112.573 42.5664 111.881C42.5664 111.85 42.5664 111.82 42.5664 111.789C42.5664 111.671 42.5795 111.557 42.6014 111.443C42.6233 111.333 42.6584 111.22 42.7022 111.11C42.8117 110.839 42.9868 110.576 43.2233 110.322C43.4949 110.028 43.8452 109.752 44.2657 109.494C44.8919 109.104 45.6759 108.758 46.5781 108.465C46.9897 108.329 47.4277 108.211 47.8832 108.097C49.5386 107.698 51.4788 107.466 53.5503 107.453C55.67 107.44 57.6539 107.663 59.3356 108.053C59.3532 108.058 59.3751 108.062 59.3926 108.066C59.9225 108.193 60.4218 108.333 60.886 108.491C61.0962 108.561 61.2977 108.636 61.4904 108.714C62.2305 109.008 62.8612 109.341 63.3561 109.713C63.5312 109.844 63.6889 109.976 63.8291 110.112C64.2057 110.479 64.4509 110.878 64.5429 111.29C64.5692 111.412 64.5823 111.531 64.5867 111.653C64.5867 111.947 64.5123 112.231 64.3721 112.507C64.2407 112.761 64.0568 113.006 63.8159 113.239C63.5225 113.528 63.1546 113.799 62.7123 114.058C62.5634 114.145 62.4057 114.233 62.2393 114.312C61.9721 114.443 61.6875 114.57 61.3897 114.688C61.1838 114.767 60.9736 114.846 60.759 114.92C60.4743 115.017 60.1765 115.109 59.87 115.192C58.2364 115.643 56.2787 115.928 54.1678 115.98C54.0452 115.98 53.9225 115.985 53.7999 115.989H53.6116L53.5941 115.985Z" fill="#FACF00" stroke="#0E1844" stroke-width="0.026986" stroke-linecap="round" stroke-linejoin="round"/>
<path d="M53.5864 115.192C48.6376 115.222 44.6128 113.689 44.5996 111.767C44.5865 109.844 48.5938 108.263 53.5427 108.233C58.4915 108.202 62.5163 109.735 62.5295 111.657C62.5295 111.885 62.4769 112.108 62.3674 112.327C62.0871 112.892 61.4608 113.409 60.5718 113.847C58.9339 114.649 56.4156 115.174 53.5864 115.192Z" fill="#FFB300" stroke="#0E1844" stroke-width="0.026986" stroke-linecap="round" stroke-linejoin="round"/>
<path d="M44.6075 111.855C44.6075 111.829 44.6075 111.803 44.6075 111.772C44.5943 109.849 48.6016 108.268 53.5505 108.238C58.4993 108.207 62.5241 109.74 62.5373 111.663V111.741C62.4103 109.858 58.5169 108.544 53.6424 108.571C48.7636 108.601 44.7169 109.968 44.6118 111.851L44.6075 111.855Z" fill="#D96D00" stroke="#0E1844" stroke-width="0.026986" stroke-linecap="round" stroke-linejoin="round"/>
<path opacity="0.49" d="M52.6706 115.945C52.4648 115.731 52.4691 115.499 52.6531 115.293C52.6881 115.253 52.7275 115.214 52.7801 115.175C54.1596 115.218 55.5786 115.135 56.9144 114.921C56.9319 114.929 56.9538 114.938 56.9713 114.942C57.0457 114.978 57.1114 115.008 57.1771 115.048C57.4881 115.232 57.6195 115.442 57.5888 115.643C55.999 115.897 54.3173 115.994 52.6794 115.945H52.6706Z" fill="#FFF2D4"/>
<path d="M9.97909 38.785C9.35142 34.6184 11.5232 29.1041 14.8426 26.4663C16.4907 25.1609 18.108 24.8066 19.398 25.2995L25.1395 27.3289L18.2235 44.7344L12.5437 42.7282L12.5244 42.7205C11.2421 42.2122 10.2872 40.8605 9.97524 38.7888L9.97909 38.785Z" fill="#23DB88" stroke="#001B4B" stroke-width="0.189821" stroke-miterlimit="10"/>
<path d="M26.714 38.0342C28.6278 33.2284 27.9231 28.4342 25.139 27.329C22.3549 26.22 18.5504 29.2198 16.6366 34.0256C14.7228 38.8313 15.4274 43.6256 18.2115 44.7308C20.9956 45.8398 24.8001 42.84 26.714 38.0342Z" fill="#0DBC69" stroke="#001B4B" stroke-width="0.189821" stroke-miterlimit="10"/>
<path d="M37.2883 51.2851C31.8703 53.5955 33.5146 55.8791 33.5146 55.8791C34.2501 57.0535 37.065 56.4105 37.065 56.4105C35.698 58.7479 37.2036 59.4949 37.2036 59.4949C39.2368 60.654 42.7525 58.4706 42.7525 58.4706C41.2623 61.224 43.3032 62.1674 43.3032 62.1674C47.8663 63.7424 54.8747 50.977 54.8747 50.977L47.4928 33.6638C46.9421 31.8424 45.2016 30.5909 43.2262 30.5948L24.1573 28.8658C23.7106 28.8272 23.2678 28.9543 22.9174 29.2277C21.1961 30.5755 16.3557 35.0886 18.3427 41.9777C18.4544 42.3589 18.7162 42.6785 19.0782 42.848L37.2922 51.2812L37.2883 51.2851Z" fill="white" stroke="#001B4B" stroke-width="0.189821" stroke-miterlimit="10"/>
<path d="M42.5596 58.617C42.5596 58.617 46.5143 56.0331 49.1405 52.991" stroke="#001B4B" stroke-width="0.162704" stroke-miterlimit="10"/>
<path d="M36.6758 56.5604C36.6758 56.5604 42.6367 54.8199 45.1436 52.4824" stroke="#001B4B" stroke-width="0.162704" stroke-miterlimit="10"/>
<path d="M44.967 37.4683C44.967 37.4683 44.6011 43.4793 42.8105 44.9157" stroke="#001B4B" stroke-width="0.193211" stroke-miterlimit="10"/>
<path d="M53.7493 64.5165L53.9765 64.994L55.5514 64.3894C55.7093 64.3393 55.8633 64.2854 56.0135 64.2122C57.7309 63.3959 58.6128 61.301 58.6012 58.6825C58.5935 56.6608 58.0544 54.3196 56.9608 52.0168C55.1933 48.3085 52.4477 45.6668 49.9178 44.9275C49.6752 44.8582 49.4403 44.8004 49.2054 44.7658C48.3852 44.6387 47.6035 44.7311 46.8988 45.0661L44.8579 45.8517L45.2314 46.6372C43.8721 48.9054 43.9954 52.8563 45.7282 56.7802C45.7975 56.9458 45.8745 57.1037 45.9477 57.2654C46.0362 57.4541 46.1325 57.6428 46.2288 57.8276C46.4945 58.3398 46.7756 58.825 47.0759 59.2871C48.7433 61.8787 50.8805 63.6924 52.8944 64.3239C53.1832 64.4163 53.472 64.4818 53.7531 64.5203L53.7493 64.5165Z" fill="#D77300" stroke="#101841" stroke-width="0.0576243" stroke-linecap="round" stroke-linejoin="round"/>
<path d="M43.6374 47.7848C43.6066 47.7232 43.6258 47.6462 43.6913 47.6153L45.1045 46.8683L49.0939 44.7542C49.1324 44.7542 49.167 44.7619 49.2055 44.7658C49.3057 44.7812 49.4058 44.8004 49.5059 44.8235L44.9235 47.2534L43.8145 47.8387C43.7529 47.8695 43.672 47.8464 43.6412 47.7848H43.6374Z" fill="#A45C0B"/>
<path d="M44.3923 49.2752C44.3923 49.2752 44.3576 49.2483 44.3422 49.2252C44.3076 49.1636 44.3307 49.0866 44.3961 49.0558L44.4231 49.0403L51.1927 45.4553C51.2812 45.4976 51.3698 45.5515 51.4545 45.6016L44.5116 49.2791C44.4693 49.2984 44.4269 49.2984 44.3884 49.2791L44.3923 49.2752Z" fill="#A45C0B"/>
<path d="M45.2132 50.7154C45.1516 50.7462 45.0746 50.7193 45.04 50.6615C45.0091 50.5999 45.0323 50.519 45.0939 50.4882L52.7068 46.4526C52.7799 46.5103 52.8531 46.5681 52.9224 46.6297L45.2132 50.7154Z" fill="#A45C0B"/>
<path d="M45.7439 52.0977C45.7092 52.0322 45.7362 51.9552 45.794 51.9244L53.9614 47.6C54.023 47.6577 54.0846 47.7271 54.1462 47.7925L45.9172 52.1516C45.8556 52.1824 45.7786 52.1632 45.7478 52.0977H45.7439Z" fill="#A45C0B"/>
<path d="M46.618 53.5879C46.5564 53.6187 46.4794 53.5994 46.4447 53.5339C46.4101 53.4685 46.4332 53.3953 46.4987 53.3645L55.028 48.8475C55.0781 48.913 55.132 48.9785 55.1859 49.0478L46.618 53.5879Z" fill="#A45C0B"/>
<path d="M47.3195 55.0202C47.2541 55.0549 47.1771 55.0279 47.1463 54.9702C47.1116 54.9047 47.1385 54.8277 47.1963 54.793L55.9452 50.1605C55.9914 50.2298 56.0376 50.303 56.08 50.3762L47.3195 55.0164V55.0202Z" fill="#A45C0B"/>
<path d="M47.8427 56.4105C47.8119 56.3489 47.835 56.2681 47.8966 56.2372L56.7302 51.5547C56.7687 51.6317 56.8072 51.7049 56.8457 51.7857L48.0198 56.4683C47.9582 56.4991 47.8773 56.476 47.8465 56.4144L47.8427 56.4105Z" fill="#A45C0B"/>
<path d="M48.5477 57.847C48.5168 57.7854 48.5361 57.7084 48.5977 57.6737L57.4005 53.0143C57.4352 53.0913 57.466 53.1722 57.4929 53.2492L48.7171 57.8971C48.6555 57.9279 48.5746 57.9048 48.5477 57.8432V57.847Z" fill="#A45C0B"/>
<path d="M49.2514 59.2832C49.2167 59.2254 49.2398 59.1446 49.3053 59.1137L57.9425 54.5352C57.9656 54.6199 57.9926 54.7007 58.0157 54.7855L49.4208 59.3371C49.3631 59.3717 49.2822 59.3486 49.2514 59.2832Z" fill="#A45C0B"/>
<path d="M50.1224 60.7735C50.0608 60.8043 49.9838 60.7774 49.9491 60.7196C49.9145 60.6541 49.9453 60.581 50.0031 60.5463L58.3399 56.1295C58.3553 56.218 58.3707 56.3066 58.39 56.3952L50.1186 60.7735H50.1224Z" fill="#A45C0B"/>
<path d="M50.8234 62.2099C50.7656 62.2446 50.6886 62.2215 50.654 62.156C50.6193 62.0905 50.6463 62.0135 50.7079 61.9827L58.5749 57.8162C58.5826 57.9086 58.5865 58.0049 58.5903 58.0934L50.8234 62.2099Z" fill="#A45C0B"/>
<path d="M51.3505 63.5923C51.3197 63.5307 51.3428 63.4576 51.4044 63.4229L58.5668 59.6337C58.5591 59.7338 58.5475 59.8378 58.536 59.9341L51.5238 63.6463C51.4814 63.6655 51.4352 63.6617 51.4006 63.6424C51.3813 63.6308 51.3659 63.6154 51.3505 63.5923Z" fill="#A45C0B"/>
<path d="M52.2289 65.0825C52.1672 65.1172 52.0902 65.0941 52.0556 65.0325C52.0248 64.9709 52.0479 64.89 52.1095 64.8592L53.0375 64.3663L58.1474 61.6592C58.1012 61.7863 58.0512 61.9056 58.0011 62.025L53.3995 64.4587L52.225 65.0787L52.2289 65.0825Z" fill="#A45C0B"/>
<path d="M43.9109 58.0473C43.8339 57.8856 43.7607 57.7239 43.6876 57.5621C41.4195 52.429 41.9085 47.2574 44.8544 45.8519C45.559 45.5169 46.3446 45.4244 47.1609 45.5515C47.3958 45.5862 47.6346 45.6401 47.8733 45.7133C50.4033 46.4565 53.1527 49.0942 54.9163 52.8026C56.0138 55.1053 56.5529 57.4466 56.5567 59.4683C56.5644 62.0868 55.6826 64.1816 53.9691 64.998C53.0333 65.4447 51.9551 65.4563 50.8423 65.1097C48.8283 64.4782 46.6912 62.6644 45.0238 60.0728C44.7273 59.6108 44.4423 59.1217 44.1805 58.6134C44.0842 58.4286 43.9918 58.2437 43.8994 58.0512L43.9109 58.0473Z" fill="#F5D30E" stroke="#101841" stroke-width="0.0576243" stroke-linecap="round" stroke-linejoin="round"/>
<path d="M44.9316 57.5619C42.8792 53.2567 43.2258 48.8091 45.7018 47.6269C45.8134 47.573 45.929 47.5268 46.0483 47.4882C48.509 46.6796 51.9438 49.1749 53.9 53.2837C55.8908 57.4618 55.6251 61.7785 53.3378 63.1032C53.3378 63.1032 53.3378 63.1071 53.3339 63.1071C53.2685 63.1456 53.203 63.1802 53.1299 63.2149C50.6538 64.3932 46.9841 61.8594 44.9316 57.5581V57.5619Z" fill="#CD7302" stroke="#101841" stroke-width="0.0576243" stroke-linecap="round" stroke-linejoin="round"/>
<path d="M45.4712 57.3233C43.4765 53.1337 43.7499 48.8092 46.045 47.4961C48.5094 46.6875 51.9405 49.1828 53.8966 53.2916C55.8875 57.4697 55.6218 61.7864 53.3344 63.1111L53.3306 63.1149C50.8661 63.9313 47.4274 61.436 45.4674 57.3233H45.4712Z" fill="#FFC200" stroke="#101841" stroke-width="0.0576243" stroke-linecap="round" stroke-linejoin="round"/>
<path d="M18.8555 42.7244L29.187 48.4737C29.549 48.7432 29.9494 48.955 30.3769 49.0975L43.5156 54.169C47.1006 55.0239 48.4869 53.2487 48.4869 53.2487C50.6626 50.7148 47.9517 48.0501 47.9517 48.0501L38.8216 40.6489" fill="white"/>
<path d="M18.8555 42.7244L29.187 48.4737C29.549 48.7432 29.9494 48.955 30.3769 49.0975L43.5156 54.169C47.1006 55.0239 48.4869 53.2487 48.4869 53.2487C50.6626 50.7148 47.9517 48.0501 47.9517 48.0501L38.8216 40.6489" stroke="#001B4B" stroke-width="0.193211" stroke-miterlimit="10"/>
<path d="M120.821 45.0471C120.467 47.3807 119.393 48.9018 117.948 49.4756L117.929 49.4833L111.529 51.7437L103.739 32.1316L110.209 29.8442C111.664 29.2897 113.485 29.6863 115.342 31.1573C119.081 34.1302 121.534 40.3415 120.821 45.0394V45.0471Z" fill="#23DB88" stroke="#001B4B" stroke-width="0.189821" stroke-miterlimit="10"/>
<path d="M111.547 51.7393C114.682 50.4916 114.497 45.3778 112.344 39.9635C110.188 34.5493 106.876 30.8795 103.742 32.131C100.607 33.3787 99.8101 38.7814 101.967 44.1956C104.123 49.6098 108.413 52.9869 111.547 51.7393Z" fill="#0DBC69" stroke="#001B4B" stroke-width="0.189821" stroke-miterlimit="10"/>
<path d="M86.9569 52.8948C82.5286 45.4127 74.415 49.5369 74.415 49.5369L82.6402 37.507C83.7184 36.7176 85.0123 36.2709 86.3485 36.2285L104.67 34.7075C104.932 34.6844 105.194 34.7344 105.421 34.8615C106.75 35.5778 111.116 38.616 111.409 47.6731C111.428 48.2469 111.078 48.7744 110.543 48.9747L89.5562 56.9227L86.953 52.8948H86.9569Z" fill="white" stroke="#001B4B" stroke-width="0.189821" stroke-miterlimit="10"/>
<path d="M74.7112 64.2389C75.0232 64.2428 75.3466 64.2235 75.6739 64.1735C77.9613 63.8346 80.5836 62.2365 82.8286 59.7143C83.2329 59.2676 83.618 58.7862 83.9954 58.2779C84.1302 58.0969 84.2649 57.9082 84.3959 57.7195C84.5075 57.5578 84.6153 57.3999 84.7193 57.2343C87.2647 53.2834 88.0695 49.0283 86.9874 46.3405L87.5265 45.5549L85.451 44.3573C84.7463 43.8721 83.9145 43.6411 83.0057 43.6372C82.7477 43.6372 82.4782 43.6526 82.2048 43.6873C79.3398 44.0569 75.9165 46.4483 73.3712 50.1604C71.7924 52.4671 70.8104 54.9046 70.4562 57.0957C69.9979 59.926 70.5948 62.3443 72.3161 63.5227C72.4663 63.6267 72.628 63.7152 72.7897 63.7922L74.3916 64.7164L74.7189 64.2389H74.7112Z" fill="#D77300" stroke="#101841" stroke-width="0.0576243" stroke-linecap="round" stroke-linejoin="round"/>
<path d="M88.3161 47.8807L87.2186 47.0567L82.6709 43.6449C82.7826 43.6372 82.8942 43.6333 83.0059 43.6333C83.0483 43.6333 83.0868 43.6333 83.1291 43.6372L87.0877 46.6061L88.4894 47.6574C88.551 47.7036 88.5625 47.7883 88.5163 47.8499C88.4701 47.9115 88.3815 47.9231 88.3199 47.8807H88.3161Z" fill="#A45C0B"/>
<path d="M87.4457 49.3324C87.4034 49.3478 87.3572 49.344 87.3148 49.3132L80.4297 44.1493C80.5337 44.1069 80.6376 44.0684 80.7377 44.0376L87.4534 49.0744L87.4804 49.0937C87.542 49.1399 87.5574 49.2285 87.5073 49.2862C87.4881 49.3055 87.4688 49.3247 87.4457 49.3324Z" fill="#A45C0B"/>
<path d="M86.3097 50.7534L78.6621 45.0157C78.7468 44.9618 78.8354 44.9118 78.924 44.8617L86.4753 50.5262C86.5369 50.5724 86.5484 50.661 86.5022 50.7226C86.456 50.7804 86.3674 50.7958 86.3058 50.7534H86.3097Z" fill="#A45C0B"/>
<path d="M85.3042 52.1895L77.1406 46.0668C77.2176 46.0052 77.2947 45.9436 77.3755 45.8896L85.4775 51.9662C85.5352 52.0086 85.5468 52.0971 85.5006 52.1626C85.4544 52.2242 85.3696 52.2358 85.308 52.1895H85.3042Z" fill="#A45C0B"/>
<path d="M84.2955 53.6222L75.7969 47.2453C75.8662 47.1798 75.9355 47.1143 76.001 47.0527L84.461 53.3988C84.5227 53.445 84.5342 53.5298 84.488 53.5914C84.4418 53.653 84.3532 53.6645 84.2916 53.6222H84.2955Z" fill="#A45C0B"/>
<path d="M83.2946 55.0547L74.6035 48.5353C74.6651 48.4622 74.7229 48.389 74.7883 48.3235L83.4641 54.8275C83.5218 54.8737 83.5372 54.9623 83.4872 55.0278C83.4448 55.0855 83.3562 55.0971 83.2908 55.0509L83.2946 55.0547Z" fill="#A45C0B"/>
<path d="M82.2898 56.4992L73.5332 49.9259C73.5871 49.8451 73.641 49.7719 73.6949 49.6987L82.4554 56.2759C82.517 56.3221 82.5285 56.4107 82.4862 56.4723C82.44 56.5339 82.3514 56.5454 82.2898 56.4992Z" fill="#A45C0B"/>
<path d="M81.2857 57.9314L72.583 51.4005C72.6254 51.3196 72.6754 51.2388 72.7216 51.1617L81.4551 57.7081C81.5129 57.7543 81.5244 57.839 81.4782 57.9045C81.4359 57.9661 81.3473 57.9776 81.2857 57.9314Z" fill="#A45C0B"/>
<path d="M80.2794 59.3637L71.7539 52.9714C71.7924 52.8867 71.8348 52.8019 71.8771 52.7134L80.445 59.1403C80.5066 59.1866 80.5182 59.2751 80.472 59.3329C80.4258 59.3945 80.3372 59.4061 80.2794 59.3598V59.3637Z" fill="#A45C0B"/>
<path d="M79.2782 60.8042L71.0762 54.6545C71.1108 54.562 71.1416 54.4696 71.1763 54.3772L79.4477 60.5808C79.5054 60.627 79.5247 60.7156 79.4746 60.7772C79.4284 60.835 79.3399 60.8504 79.2782 60.808V60.8042Z" fill="#A45C0B"/>
<path d="M78.2737 62.24L70.5684 56.46C70.5876 56.3637 70.6107 56.2597 70.6338 56.1596L78.4354 62.009C78.497 62.0552 78.5124 62.1437 78.4662 62.2053C78.42 62.2708 78.3315 62.2785 78.2737 62.2323V62.24Z" fill="#A45C0B"/>
<path d="M77.4017 63.6921C77.3593 63.7075 77.3093 63.7037 77.2669 63.6767L70.3125 58.4589C70.3202 58.3511 70.324 58.2356 70.3317 58.1277L77.4364 63.4534C77.4941 63.4996 77.5095 63.5843 77.4633 63.6459C77.4441 63.6652 77.4248 63.6844 77.4017 63.6921Z" fill="#A45C0B"/>
<path d="M76.2627 65.1098L75.0959 64.2357L70.5328 60.8162C70.4981 60.6814 70.4635 60.5389 70.4365 60.3964L75.5079 64.201L76.4283 64.8903C76.4899 64.9365 76.5014 65.0251 76.4591 65.0867C76.4129 65.1444 76.3243 65.1599 76.2627 65.1098Z" fill="#A45C0B"/>
<path d="M86.4681 58.9137C86.3371 59.1062 86.2024 59.2911 86.0676 59.4721C85.6941 59.9804 85.3051 60.4617 84.9047 60.9084C82.6597 63.4268 80.0373 65.0288 77.75 65.3676C76.487 65.5563 75.324 65.3561 74.3844 64.713C72.667 63.5347 72.0702 61.1202 72.5245 58.286C72.875 56.0988 73.8569 53.6574 75.4396 51.3508C77.9849 47.6386 81.4082 45.2472 84.2731 44.8776C84.5466 44.8429 84.8123 44.8237 85.0741 44.8275C85.9829 44.8314 86.8146 45.0624 87.5193 45.5476C90.469 47.5731 90.1186 53.2569 86.7838 58.4247C86.6799 58.5864 86.572 58.752 86.4604 58.9137H86.4681Z" fill="#F5D30E" stroke="#101841" stroke-width="0.0576243" stroke-linecap="round" stroke-linejoin="round"/>
<path d="M75.6051 62.9374C75.5319 62.8873 75.4664 62.8373 75.401 62.7872C75.401 62.7872 75.401 62.7872 75.3971 62.7834C73.1483 60.9581 73.5988 56.2409 76.4638 52.0589C79.2825 47.9463 83.4259 45.8283 85.952 47.1261C86.0714 47.1877 86.1907 47.257 86.3024 47.334C88.7823 49.0322 88.3972 53.9073 85.4437 58.2163C82.4863 62.5254 78.0849 64.6395 75.6051 62.9413V62.9374Z" fill="#CD7302" stroke="#101841" stroke-width="0.0576243" stroke-linecap="round" stroke-linejoin="round"/>
<path d="M75.401 62.7872C75.401 62.7872 75.401 62.7872 75.3971 62.7834C73.1483 60.9581 73.5988 56.2409 76.4638 52.0589C79.2825 47.9463 83.4259 45.8283 85.952 47.1261C88.2162 48.9436 87.7734 53.6686 84.8969 57.8621C82.0743 61.9824 77.9271 64.0926 75.3971 62.7911L75.401 62.7872Z" fill="#FFC200" stroke="#101841" stroke-width="0.0576243" stroke-linecap="round" stroke-linejoin="round"/>
<path opacity="0.49" d="M87.6236 53.4916C88.0472 51.8127 88.0434 50.257 87.5967 49.0632C88.1011 48.6127 88.6595 48.1198 89.1293 47.7155C89.5721 48.9285 89.6453 50.438 89.368 52.0784L87.6236 53.4916Z" fill="#FFF3D8"/>
<path d="M93.8376 47.0491L85.1619 52.1321C85.1619 52.1321 82.6397 53.6224 83.8373 56.2448C83.8373 56.2448 84.5419 58.5822 87.6187 58.0777L99.864 54.9278C100.234 54.8315 100.584 54.6775 100.908 54.4734L110.045 49.1516" fill="white"/>
<path d="M93.8376 47.0491L85.1619 52.1321C85.1619 52.1321 82.6397 53.6224 83.8373 56.2448C83.8373 56.2448 84.5419 58.5822 87.6187 58.0777L99.864 54.9278C100.234 54.8315 100.584 54.6775 100.908 54.4734L110.045 49.1516" stroke="#001B4B" stroke-width="0.189821" stroke-miterlimit="10"/>
<path d="M79.8637 51.2927C74.2377 50.8113 73.5292 50.1683 72.3393 44.5769C71.8734 50.2838 71.2419 51 65.7314 52.1938C71.3574 52.6751 72.0659 53.3182 73.2558 58.9095C73.7217 53.2027 74.3532 52.4864 79.8637 51.2927Z" fill="white" stroke="#001B4B" stroke-width="0.11465" stroke-miterlimit="10"/>
</svg>
