<svg width="130" height="130" viewBox="0 0 130 130" fill="none" xmlns="http://www.w3.org/2000/svg">
<path d="M73.3198 116.48C102.9 116.48 126.88 115.549 126.88 114.4C126.88 113.251 102.9 112.32 73.3198 112.32C43.7394 112.32 19.7598 113.251 19.7598 114.4C19.7598 115.549 43.7394 116.48 73.3198 116.48Z" fill="#21002A" stroke="#21002A" stroke-width="0.112108" stroke-linejoin="round"/>
<path d="M84.1444 72.6723H17.2192V107.437H84.1444V72.6723Z" fill="#301A3E" stroke="#21002A" stroke-width="0.0926921" stroke-miterlimit="10"/>
<path d="M66.5177 72.8H17.6377V107.12H66.5177V72.8Z" fill="#72468D" stroke="#21002A" stroke-width="0.0926921" stroke-miterlimit="10"/>
<path d="M88.434 76.8952H79.856V105.781H88.434V76.8952Z" fill="white" stroke="#21002A" stroke-width="0.19" stroke-miterlimit="10"/>
<path d="M72.0256 77.1143H62.624V106H72.0256V77.1143Z" fill="white" stroke="#21002A" stroke-width="0.19" stroke-miterlimit="10"/>
<path d="M46.4485 77.1143H37.0469V106H46.4485V77.1143Z" fill="white" stroke="#21002A" stroke-width="0.19" stroke-miterlimit="10"/>
<path d="M19.0286 77.1143H9.62695V106H19.0286V77.1143Z" fill="white" stroke="#21002A" stroke-width="0.19" stroke-miterlimit="10"/>
<path d="M63.8617 44.33L90.2529 67.9412H63.0144L35.7759 44.33H63.8617Z" fill="#B24DD4" stroke="#21002A" stroke-width="0.19" stroke-linecap="round" stroke-linejoin="round"/>
<path d="M68.2983 105.343H3.12012V114.587H68.2983V105.343Z" fill="white" stroke="#21002A" stroke-width="0.19" stroke-miterlimit="10"/>
<path d="M68.2977 67.8842H3.87646V77.1287H68.2977V67.8842Z" fill="white" stroke="#21002A" stroke-width="0.19" stroke-miterlimit="10"/>
<path d="M94.9894 105.338H68.2983V114.587H94.9894V105.338Z" fill="white" stroke="#21002A" stroke-width="0.19" stroke-miterlimit="10"/>
<path d="M94.5419 67.8842H68.2983V77.1287H94.5419V67.8842Z" fill="white" stroke="#21002A" stroke-width="0.19" stroke-miterlimit="10"/>
<path d="M35.7756 44.33L8.53711 67.9412H63.0141L35.7756 44.33Z" fill="white" stroke="#21002A" stroke-width="0.19" stroke-linecap="round" stroke-linejoin="round"/>
<path d="M25.9266 72.3063C25.7743 72.2064 25.6077 72.135 25.4173 72.0921V72.054C25.5696 72.0064 25.7077 71.9398 25.8314 71.8493C25.9314 71.7684 26.0266 71.6542 26.117 71.5114C26.2075 71.3686 26.2503 71.1829 26.2503 70.9544C26.2503 70.7688 26.2122 70.5926 26.1361 70.426C26.0599 70.2594 25.9504 70.1166 25.8076 69.9928C25.6648 69.8691 25.4839 69.7738 25.2745 69.7024C25.0603 69.631 24.8222 69.5977 24.5461 69.5977H21.8232V74.8959H24.5081C24.8222 74.8959 25.0983 74.8579 25.3364 74.7769C25.5744 74.696 25.7791 74.5865 25.9409 74.4485C26.1028 74.3104 26.2265 74.1438 26.3122 73.9582C26.3931 73.7677 26.436 73.5678 26.436 73.3488C26.436 73.0775 26.3836 72.8585 26.2789 72.6919C26.1742 72.5253 26.0552 72.4015 25.9219 72.3159L25.9266 72.3063ZM22.961 70.6164H24.3986C24.6271 70.6164 24.7937 70.6688 24.9079 70.7688C25.0222 70.8687 25.0793 70.9972 25.0793 71.1448C25.0793 71.2924 25.0222 71.4209 24.9079 71.5209C24.7937 71.6208 24.6223 71.6732 24.3986 71.6732H22.961V70.6117V70.6164ZM25.0698 73.6963C24.9365 73.8106 24.727 73.8725 24.4367 73.8725H22.961V72.6634H24.4367C24.7223 72.6634 24.9365 72.7205 25.0698 72.8395C25.2031 72.9537 25.2697 73.1013 25.2697 73.2727C25.2697 73.444 25.2031 73.5869 25.0698 73.7059V73.6963Z" fill="#00E589" stroke="#1F012D" stroke-width="0.0337062" stroke-linecap="round" stroke-linejoin="round"/>
<path d="M29.6583 69.5929L28.2588 74.8911H29.4298L29.7345 73.7201H31.9671L32.2717 74.8911H33.4428L32.0432 69.5929H29.6583ZM30.0011 72.6585L30.5295 70.6544H31.1721L31.7005 72.6585H29.9963H30.0011Z" fill="#00E589" stroke="#1F012D" stroke-width="0.0337062" stroke-linecap="round" stroke-linejoin="round"/>
<path d="M39.0413 72.6966L39.1175 73.3393H39.0413L36.961 69.5929H35.4854V74.8911H36.6183V71.7874L36.5421 71.1448H36.6183L38.7033 74.8911H40.179V69.5929H39.0413V72.6966Z" fill="#00E589" stroke="#1F012D" stroke-width="0.0337062" stroke-linecap="round" stroke-linejoin="round"/>
<path d="M45.5481 72.1301L47.2904 69.5929H46.0051L44.5675 71.6779H43.8106V69.5929H42.6729V74.8911H43.8106V72.7347H44.6055L46.0812 74.8911H47.4046L45.5481 72.1301Z" fill="#00E589" stroke="#1F012D" stroke-width="0.0337062" stroke-linecap="round" stroke-linejoin="round"/>
<path d="M70.1928 53.7985L73.3393 56.1358H57.2543L54.4219 53.7985H70.1928Z" fill="#21002A" stroke="#21002A" stroke-width="0.101119" stroke-linejoin="round"/>
<path d="M70.0387 49.7044C70.3032 49.3599 70.5431 48.9847 70.7584 48.5787C72.2655 45.7552 72.6469 41.5231 71.6934 36.9465C71.5274 36.1283 71.3121 35.304 71.0537 34.4674C70.9614 34.166 70.863 33.8646 70.7584 33.5632C70.6723 33.311 70.58 33.0588 70.4816 32.8066C68.181 26.7167 64.1149 22.3185 60.2334 21.3096L59.8028 20.0609L56.764 21.3835C55.6445 21.771 54.6972 22.503 53.9467 23.5118C53.7314 23.801 53.5284 24.1085 53.3439 24.4407C51.3939 27.9347 51.234 33.7108 53.2639 39.5977C54.5249 43.2516 56.4319 46.3581 58.5726 48.5541C61.3468 51.396 64.5271 52.7247 67.2521 51.7836C67.4921 51.7036 67.7197 51.5929 67.9411 51.4822L70.2909 50.461L70.0264 49.7044H70.0387Z" fill="#CD7302" stroke="#101841" stroke-width="0.0490005" stroke-linecap="round" stroke-linejoin="round"/>
<path d="M63.0514 21.0941L61.2306 21.6355L53.689 23.8807C53.7689 23.7515 53.8551 23.6224 53.9473 23.4993C53.9842 23.4563 54.0088 23.4071 54.0519 23.3702L60.6154 21.414L62.9406 20.7189C63.0452 20.6882 63.1436 20.7435 63.1805 20.8481C63.2175 20.9527 63.1498 21.0572 63.0514 21.0941Z" fill="#A45C0B"/>
<path d="M63.9495 23.266C63.931 23.3275 63.8879 23.3767 63.8203 23.3952L52.4033 26.8031C52.4402 26.6554 52.4833 26.5078 52.5325 26.3663L63.6665 23.0446L63.7096 23.0323C63.8141 23.0015 63.9249 23.0569 63.9495 23.1614C63.9556 23.1984 63.9556 23.2353 63.9495 23.266Z" fill="#A45C0B"/>
<path d="M64.5948 25.6957L51.9106 29.4726C51.9168 29.3373 51.9353 29.1958 51.9599 29.0544L64.4841 25.3205C64.5886 25.2897 64.6932 25.3512 64.7301 25.4496C64.7547 25.5481 64.6994 25.6588 64.6009 25.6957H64.5948Z" fill="#A45C0B"/>
<path d="M65.3583 27.9964L51.8253 32.0318C51.8253 31.8903 51.813 31.7549 51.8253 31.6258L65.2599 27.6212C65.3522 27.5905 65.4629 27.652 65.4937 27.7565C65.5244 27.8611 65.469 27.9595 65.3645 27.9964H65.3583Z" fill="#A45C0B"/>
<path d="M66.1266 30.2973L52.0338 34.4925C52.0153 34.3633 52.003 34.2342 51.9907 34.105L66.022 29.922C66.1266 29.8913 66.2312 29.9466 66.2619 30.0512C66.2927 30.1558 66.2312 30.2604 66.1327 30.2973H66.1266Z" fill="#A45C0B"/>
<path d="M66.8958 32.5976L52.4831 36.8913C52.4523 36.7621 52.4216 36.6391 52.397 36.5099L66.7851 32.2162C66.8835 32.1916 66.9942 32.247 67.025 32.3516C67.0557 32.4438 66.9942 32.5546 66.8896 32.5853L66.8958 32.5976Z" fill="#A45C0B"/>
<path d="M67.6708 34.8981L53.1474 39.2225C53.1044 39.0995 53.0675 38.9765 53.0244 38.8534L67.554 34.5229C67.6586 34.4921 67.7631 34.5536 67.8 34.652C67.8308 34.7566 67.7693 34.8612 67.6708 34.8981Z" fill="#A45C0B"/>
<path d="M68.4399 37.199L54.0026 41.4988C53.9473 41.3819 53.898 41.265 53.855 41.1482L68.3353 36.8299C68.4337 36.8053 68.5383 36.8606 68.5691 36.9652C68.5998 37.0636 68.5445 37.1682 68.4399 37.2051V37.199Z" fill="#A45C0B"/>
<path d="M69.2027 39.4934L55.0669 43.7071C55.0054 43.5964 54.9438 43.4795 54.8823 43.3626L69.092 39.1243C69.1966 39.0935 69.3012 39.1551 69.3319 39.2535C69.3627 39.3581 69.3012 39.4626 69.2027 39.4934Z" fill="#A45C0B"/>
<path d="M69.9782 41.8L56.3775 45.8599C56.3037 45.743 56.2237 45.6323 56.1499 45.5216L69.8675 41.4309C69.9659 41.4063 70.0828 41.4555 70.1135 41.5601C70.1381 41.6585 70.0828 41.7692 69.9844 41.8062L69.9782 41.8Z" fill="#A45C0B"/>
<path d="M70.7466 44.0943L57.9702 47.902C57.8779 47.7975 57.7795 47.6929 57.6934 47.5822L70.6297 43.7253C70.7343 43.6945 70.845 43.7499 70.8758 43.8544C70.9065 43.959 70.845 44.0636 70.7466 44.0943Z" fill="#A45C0B"/>
<path d="M71.6445 46.2598C71.626 46.3213 71.5768 46.3767 71.5153 46.3951L59.9815 49.8338C59.8646 49.7353 59.7416 49.6369 59.6309 49.5385L71.4107 46.0199C71.5092 45.9953 71.6137 46.0445 71.6507 46.1491C71.6568 46.186 71.6568 46.2229 71.6507 46.2537L71.6445 46.2598Z" fill="#A45C0B"/>
<path d="M72.2845 48.6957L70.3529 49.274L62.7867 51.5315C62.6083 51.4577 62.4238 51.3839 62.2393 51.2916L70.6482 48.788L72.1737 48.3328C72.2783 48.302 72.3829 48.3636 72.4198 48.462C72.4444 48.5604 72.389 48.6711 72.2845 48.6957Z" fill="#A45C0B"/>
<path d="M73.7972 32.2409C73.9018 32.5423 74.0002 32.8437 74.0925 33.1451C74.3508 33.9755 74.56 34.806 74.7322 35.6241C75.6857 40.1946 75.3043 44.4329 73.7972 47.2564C72.9668 48.8188 71.7857 49.9445 70.2971 50.4612C67.572 51.4024 64.3917 50.0737 61.6175 47.2318C59.4706 45.0419 57.5637 41.9354 56.3088 38.2754C54.2789 32.3885 54.4388 26.6062 56.3888 23.1184C56.5733 22.7862 56.7763 22.4725 56.9916 22.1895C57.7483 21.1807 58.6894 20.4487 59.809 20.0611C64.4902 18.4433 70.5247 23.5182 73.5265 31.4842C73.625 31.7364 73.7111 31.9887 73.8033 32.247L73.7972 32.2409Z" fill="#F5D30E" stroke="#101841" stroke-width="0.0653339" stroke-linecap="round" stroke-linejoin="round"/>
<path d="M69.3251 47.6439C69.2144 47.6808 69.1037 47.7177 68.993 47.7484C68.993 47.7484 68.993 47.7484 68.9807 47.7484C65.0991 48.745 60.2211 44.359 57.9328 37.7217C55.6814 31.1951 56.7394 24.8468 60.2642 23.0998C60.4302 23.0137 60.6025 22.9461 60.7809 22.8784C64.7116 21.5189 69.8172 25.9602 72.1794 32.8006C74.5354 39.6409 73.262 46.2782 69.3313 47.6377L69.3251 47.6439Z" fill="#CD7302" stroke="#101841" stroke-width="0.0381115" stroke-linecap="round" stroke-linejoin="round"/>
<path d="M68.993 47.7426C68.993 47.7426 68.993 47.7426 68.9807 47.7426C65.0991 48.7392 60.2211 44.3532 57.9328 37.7159C55.6814 31.1893 56.7394 24.841 60.2642 23.094C64.1518 22.0729 69.0422 26.4588 71.3366 33.1146C73.5942 39.6474 72.53 46.0018 68.993 47.7426Z" fill="#F4B70B" stroke="#101841" stroke-width="0.043556" stroke-linecap="round" stroke-linejoin="round"/>
<path opacity="0.49" d="M68.7225 26.489C67.2031 24.6375 65.4684 23.358 63.7707 22.872C63.6845 21.937 63.5984 20.9097 63.5308 20.0547C65.2408 20.5591 66.9817 21.7217 68.581 23.3826L68.7164 26.4829L68.7225 26.489Z" fill="#FFF3D8"/>
<path d="M61.5682 23.1778C55.1466 22.34 54.3678 21.5673 53.2869 15.1C52.4614 21.6095 51.701 22.402 45.3246 23.4925C51.7462 24.3304 52.525 25.1031 53.6059 31.5704C54.4314 25.0609 55.1918 24.2684 61.5682 23.1778Z" fill="white" stroke="#21002A" stroke-width="0.054445" stroke-miterlimit="10"/>
<path d="M117.899 95.6242V113.495C117.899 114.035 117.419 114.479 116.831 114.479H61.0098C60.3017 114.479 59.7256 113.951 59.7256 113.303V95.7322C59.7256 95.1201 60.2657 94.64 60.9138 94.64H116.843C117.419 94.64 117.911 95.0841 117.911 95.6242H117.899Z" fill="#298D56" stroke="#001B4B" stroke-width="0.126944" stroke-miterlimit="10"/>
<path d="M88.8065 94.6519V114.479H61.0098C60.3017 114.479 59.7256 113.951 59.7256 113.303V95.7321C59.7256 95.132 60.2537 94.6519 60.9138 94.6519H88.8065Z" fill="#80EA93" stroke="#001B4B" stroke-width="0.126944" stroke-miterlimit="10"/>
<path d="M59.7256 96.4403H88.8065H117.899" stroke="#459263" stroke-width="0.126944" stroke-miterlimit="10"/>
<path d="M59.7256 98.2408H88.8065H117.899" stroke="#459263" stroke-width="0.126944" stroke-miterlimit="10"/>
<path d="M59.7256 100.029H88.8065H117.899" stroke="#459263" stroke-width="0.126944" stroke-miterlimit="10"/>
<path d="M59.7256 101.829H88.8065H117.899" stroke="#459263" stroke-width="0.126944" stroke-miterlimit="10"/>
<path d="M59.7256 103.605H88.8065H117.899" stroke="#459263" stroke-width="0.126944" stroke-miterlimit="10"/>
<path d="M59.7256 105.406H88.8065H117.899" stroke="#459263" stroke-width="0.126944" stroke-miterlimit="10"/>
<path d="M59.7256 107.194H88.8065H117.899" stroke="#459263" stroke-width="0.126944" stroke-miterlimit="10"/>
<path d="M59.7256 108.994H88.8065H117.899" stroke="#459263" stroke-width="0.126944" stroke-miterlimit="10"/>
<path d="M59.7256 110.783H88.8065H117.899" stroke="#459263" stroke-width="0.126944" stroke-miterlimit="10"/>
<path d="M59.7256 112.583H88.8065H117.899" stroke="#459263" stroke-width="0.126944" stroke-miterlimit="10"/>
<path d="M107.673 94.6519H100.184V114.479H107.673V94.6519Z" fill="#C8FFAF" stroke="#001B4B" stroke-width="0.126944" stroke-miterlimit="10"/>
<path d="M63.5027 92.1475C65.8914 94.4843 77.6403 105.935 79.4708 107.726C79.6265 107.882 79.8343 107.921 80.042 107.856C83.0798 106.895 106.668 98.9242 116.444 81.2036C116.639 80.853 116.535 80.3987 116.223 80.139L98.5935 66.6506C98.3857 66.4948 98.1001 66.5467 97.9573 66.7544C96.2437 69.2989 85.819 83.6831 63.6585 91.5244C63.3989 91.6152 63.308 91.9398 63.5027 92.1345V92.1475Z" fill="#80EA93" stroke="#001B4B" stroke-width="0.137311" stroke-miterlimit="10"/>
<path d="M112.264 83.5277C104.461 95.1986 89.9864 102.04 83.7939 104.455C81.496 102.637 79.2242 103.936 79.2242 103.936C76.446 101.183 70.7598 95.5751 68.3711 93.1994C68.5528 93.0955 69.7602 92.4075 69.189 91.3299C84.3391 84.9297 93.5694 75.2061 96.8409 71.3245C96.8409 71.3245 98.4507 72.1034 99.7489 70.8441L112.03 80.3081C111.316 81.0221 110.966 82.4761 112.251 83.5147L112.264 83.5277Z" fill="#C6FDCD" stroke="#001B4B" stroke-width="0.137311" stroke-miterlimit="10"/>
<path d="M98.7687 92.2591C100.104 88.6708 97.8525 84.5214 93.74 82.9911C89.6275 81.4609 85.2113 83.1293 83.8761 86.7177C82.5409 90.306 84.7923 94.4554 88.9048 95.9856C93.0173 97.5159 97.4335 95.8474 98.7687 92.2591Z" fill="white" stroke="#001B4B" stroke-width="0.137311" stroke-miterlimit="10"/>
<path fill-rule="evenodd" clip-rule="evenodd" d="M91.9564 83.8186C92.0609 83.8813 92.0948 84.0169 92.0321 84.1214C91.8063 84.4977 91.2801 85.0071 90.6489 85.545C90.0088 86.0906 89.2334 86.6879 88.4817 87.2427C87.7296 87.7978 86.999 88.3121 86.4473 88.6916C86.1715 88.8814 85.9401 89.0378 85.7728 89.149C85.6892 89.2045 85.6211 89.2491 85.5713 89.2811C85.5465 89.297 85.5254 89.3103 85.5089 89.3204C85.4974 89.3274 85.4752 89.341 85.4561 89.3497C85.3452 89.4001 85.2143 89.3511 85.1639 89.2401C85.1147 89.1318 85.1602 89.0046 85.2656 88.9516C85.2667 88.951 85.2706 88.9487 85.2784 88.944C85.2911 88.9361 85.3093 88.9247 85.3329 88.9096C85.38 88.8794 85.4459 88.8362 85.5285 88.7813C85.6934 88.6717 85.9228 88.5167 86.1971 88.328C86.7457 87.9505 87.4723 87.4392 88.2196 86.8876C88.9674 86.3356 89.7336 85.7451 90.3626 85.2091C91.0004 84.6655 91.4705 84.1995 91.6536 83.8943C91.7163 83.7898 91.8519 83.7559 91.9564 83.8186Z" fill="#001B4B"/>
<path fill-rule="evenodd" clip-rule="evenodd" d="M91.3552 86.6484C90.7543 86.5242 89.9405 86.4789 89.0736 86.7863C88.9587 86.827 88.8325 86.7669 88.7918 86.6521C88.751 86.5372 88.8112 86.411 88.926 86.3703C89.8896 86.0286 90.7894 86.0807 91.4445 86.2161C91.7725 86.2839 92.041 86.3729 92.2286 86.4455C92.3225 86.4818 92.3963 86.5141 92.4474 86.5377C92.4729 86.5495 92.4928 86.5591 92.5068 86.566L92.5231 86.5742L92.5278 86.5767L92.5293 86.5774C92.5294 86.5775 92.5302 86.5779 92.4271 86.7729L92.5293 86.5774C92.9282 86.7889 93.2145 87.0333 93.3939 87.3076C93.5755 87.5851 93.6405 87.8817 93.6175 88.1797C93.5727 88.7605 93.1954 89.3299 92.7594 89.8113C92.3169 90.3 91.7811 90.7331 91.3601 91.0422C91.2998 91.0863 91.2418 91.1281 91.1866 91.1672L97.3318 91.4598C97.4536 91.4656 97.5476 91.569 97.5418 91.6908C97.536 91.8125 97.4326 91.9065 97.3108 91.9007L89.7722 91.5418L90.3914 91.167L90.3942 91.1652L90.404 91.1593L90.4429 91.135C90.4772 91.1134 90.5274 91.0814 90.5906 91.0399C90.717 90.9568 90.8948 90.8361 91.0989 90.6863C91.5087 90.3856 92.018 89.9725 92.4323 89.515C92.8531 89.0504 93.1444 88.5739 93.1774 88.1457C93.1934 87.9393 93.1497 87.7406 93.0246 87.5492C92.8973 87.3547 92.6779 87.1559 92.3241 86.9683C92.324 86.9682 92.3243 86.9683 92.3241 86.9683L92.3218 86.967L92.3106 86.9614C92.3003 86.9563 92.2841 86.9484 92.2624 86.9384C92.219 86.9184 92.1538 86.8898 92.0694 86.8572C91.9003 86.7918 91.6553 86.7104 91.3552 86.6484Z" fill="#001B4B"/>
<path fill-rule="evenodd" clip-rule="evenodd" d="M94.1193 85.1028C94.21 85.1841 94.2177 85.3236 94.1363 85.4144C93.0524 86.6239 91.3712 87.8731 89.9734 88.8142C89.2722 89.2863 88.638 89.6837 88.179 89.9631C87.9495 90.1028 87.7637 90.2131 87.6351 90.2886C87.5708 90.3263 87.5208 90.3553 87.4867 90.375L87.4479 90.3973L87.4378 90.4031L87.4352 90.4046L87.3251 90.2133L87.216 90.0215L87.219 90.0198L87.2284 90.0144L87.266 89.9927C87.2992 89.9736 87.3483 89.9451 87.4117 89.9079C87.5385 89.8335 87.7222 89.7244 87.9495 89.586C88.4042 89.3092 89.0325 88.9155 89.7269 88.448C91.1202 87.51 92.7624 86.2861 93.8076 85.1198C93.889 85.0291 94.0285 85.0214 94.1193 85.1028ZM87.1333 90.3225C87.073 90.2165 87.11 90.0818 87.216 90.0215L87.3251 90.2133L87.4352 90.4046C87.3293 90.4649 87.1936 90.4284 87.1333 90.3225Z" fill="#001B4B"/>
</svg>
