<svg width="130" height="130" viewBox="0 0 130 130" fill="none" xmlns="http://www.w3.org/2000/svg">
<path d="M99.1302 103.287V108.726H99.1188C98.9708 108.737 98.817 108.749 98.6689 108.754V103.287H99.1302Z" fill="#A26024"/>
<path d="M101.71 103.288V108.493C101.562 108.504 101.408 108.521 101.249 108.538V103.282H101.71V103.288Z" fill="#A26024"/>
<path d="M104.295 103.287V108.082C104.181 108.111 104.056 108.128 103.936 108.145C103.902 108.145 103.834 103.287 103.834 103.287H104.295Z" fill="#A26024"/>
<path d="M106.875 103.287V107.393C106.732 107.45 106.584 107.502 106.414 107.558V103.287H106.875Z" fill="#A26024"/>
<path opacity="0.49" d="M107.986 103.293C107.986 103.749 107.24 104.187 105.833 104.574C104.973 104.808 103.88 105.019 102.598 105.189L98.686 104.352C102.211 104.17 104.842 103.8 105.594 103.35C105.56 103.327 105.525 103.31 105.48 103.287H107.986V103.293Z" fill="#FFFCE4"/>
<path d="M99.1302 99.4265V104.865H99.1188C98.9708 104.876 98.817 104.888 98.6689 104.893V99.4265H99.1302Z" fill="#A26024"/>
<path d="M101.71 99.4267V104.632C101.562 104.643 101.408 104.66 101.249 104.677V99.421H101.71V99.4267Z" fill="#A26024"/>
<path d="M104.295 99.4265V104.25C104.181 104.278 104.062 104.296 103.942 104.313C103.908 104.313 103.874 104.324 103.834 104.33V99.4265H104.295Z" fill="#A26024"/>
<path d="M106.875 99.4265V103.561C106.732 103.618 106.584 103.675 106.414 103.726V99.4265H106.875Z" fill="#A26024"/>
<path opacity="0.49" d="M107.986 99.4322C107.986 99.8878 107.24 100.326 105.833 100.714C104.973 100.947 103.88 101.158 102.598 101.329L98.686 100.491C102.211 100.309 104.842 99.939 105.594 99.4892C105.56 99.4664 105.525 99.4493 105.48 99.4265H107.986V99.4322Z" fill="#FFFCE4"/>
<path d="M99.1302 95.566V101.004H99.1188C98.9708 101.016 98.817 101.027 98.6689 101.033V95.566H99.1302Z" fill="#A26024"/>
<path d="M101.71 95.5659V100.771C101.562 100.782 101.408 100.799 101.249 100.816V95.5602H101.71V95.5659Z" fill="#A26024"/>
<path d="M104.295 95.566V100.389C104.181 100.418 104.062 100.435 103.942 100.452C103.908 100.452 103.874 100.463 103.834 100.469V95.566H104.295Z" fill="#A26024"/>
<path d="M106.875 95.566V99.7004C106.732 99.7573 106.584 99.8142 106.414 99.8655V95.566H106.875Z" fill="#A26024"/>
<path opacity="0.49" d="M107.986 95.5717C107.986 96.0273 107.24 96.4658 105.833 96.853C104.973 97.0865 103.88 97.2972 102.598 97.468L98.686 96.6309C102.211 96.4487 104.842 96.0785 105.594 95.6286C105.56 95.6058 105.525 95.5888 105.48 95.566H107.986V95.5717Z" fill="#FFFCE4"/>
<path d="M99.1302 91.7046V97.1431H99.1188C98.9708 97.1544 98.817 97.1658 98.6689 97.1715V91.7046H99.1302Z" fill="#A26024"/>
<path d="M101.71 91.7044V96.9094C101.562 96.9208 101.408 96.9379 101.249 96.955V91.6987H101.71V91.7044Z" fill="#A26024"/>
<path d="M104.295 91.7046V96.528C104.181 96.5565 104.062 96.5736 103.942 96.5907C103.908 96.5907 103.874 96.6021 103.834 96.6078V91.7046H104.295Z" fill="#A26024"/>
<path d="M106.875 91.7046V95.839C106.732 95.8959 106.584 95.9529 106.414 96.0041V91.7046H106.875Z" fill="#A26024"/>
<path opacity="0.49" d="M107.986 91.7103C107.986 92.1659 107.24 92.6044 105.833 92.9916C104.973 93.2251 103.88 93.4358 102.598 93.6066L98.686 92.7695C102.211 92.5873 104.842 92.2171 105.594 91.7672C105.56 91.7445 105.525 91.7274 105.48 91.7046H107.986V91.7103Z" fill="#FFFCE4"/>
<path d="M99.1302 87.8439V93.2823H99.1188C98.9708 93.2937 98.817 93.3051 98.6689 93.3108V87.8439H99.1302Z" fill="#A26024"/>
<path d="M101.71 87.8435V93.0485C101.562 93.0599 101.408 93.077 101.249 93.0941V87.8378H101.71V87.8435Z" fill="#A26024"/>
<path d="M104.295 87.8439V92.6673C104.181 92.6958 104.062 92.7129 103.942 92.73C103.908 92.73 103.874 92.7413 103.834 92.747V87.8439H104.295Z" fill="#A26024"/>
<path d="M106.875 87.8439V91.9783C106.732 92.0352 106.584 92.0921 106.414 92.1434V87.8439H106.875Z" fill="#A26024"/>
<path opacity="0.49" d="M107.986 87.8496C107.986 88.3051 107.24 88.7436 105.833 89.1309C104.973 89.3644 103.88 89.5751 102.598 89.7459L98.686 88.9088C102.211 88.7266 104.842 88.3564 105.594 87.9065C105.56 87.8837 105.525 87.8667 105.48 87.8439H107.986V87.8496Z" fill="#FFFCE4"/>
<path d="M99.1302 83.9828V89.4213H99.1188C98.9708 89.4326 98.817 89.444 98.6689 89.4497V83.9828H99.1302Z" fill="#A26024"/>
<path d="M101.71 83.9826V89.1876C101.562 89.199 101.408 89.2161 101.249 89.2332V83.9769H101.71V83.9826Z" fill="#A26024"/>
<path d="M104.295 83.9828V88.8062C104.181 88.8347 104.062 88.8518 103.942 88.8689C103.908 88.8689 103.874 88.8803 103.834 88.886V83.9828H104.295Z" fill="#A26024"/>
<path d="M106.875 83.9828V88.1172C106.732 88.1741 106.584 88.2311 106.414 88.2823V83.9828H106.875Z" fill="#A26024"/>
<path opacity="0.49" d="M107.986 83.9885C107.986 84.4441 107.24 84.8826 105.833 85.2698C104.973 85.5033 103.88 85.714 102.598 85.8848L98.686 85.0477C102.211 84.8655 104.842 84.4953 105.594 84.0454C105.56 84.0227 105.525 84.0056 105.48 83.9828H107.986V83.9885Z" fill="#FFFCE4"/>
<path d="M83.3275 111.505C105.595 111.505 123.646 109.43 123.646 106.87C123.646 104.31 105.595 102.234 83.3275 102.234C61.0601 102.234 43.0088 104.31 43.0088 106.87C43.0088 109.43 61.0601 111.505 83.3275 111.505Z" fill="#21002A"/>
<path d="M44.6251 52.6842C45.5249 52.6671 46.1684 51.6933 45.9349 50.7024C44.1525 43.1683 41.4475 23.641 53.7652 22.7754C53.7652 22.7754 68.1671 21.3574 72.9735 51.6933C73.1045 52.5133 73.7195 53.1113 74.4484 53.1113C75.3539 53.1113 76.06 52.2058 75.9348 51.1864C74.904 42.986 70.1432 19.4953 53.3722 19.444C53.3722 19.444 36.1912 19.0454 43.2641 51.4997C43.4179 52.2058 43.9873 52.7012 44.6251 52.6899V52.6842Z" fill="#21002A"/>
<path d="M43.9249 52.7638C44.8247 52.7467 45.4682 51.7729 45.2347 50.782C43.4523 43.2479 40.7473 23.7207 53.065 22.8551C53.065 22.8551 67.4499 21.4428 72.2676 51.7273C72.4043 52.5759 73.0421 53.1909 73.7938 53.1909H73.8337C74.7733 53.1909 75.4965 52.2513 75.3712 51.1863C74.2835 42.1317 68.6628 18.6637 52.672 19.518C52.672 19.518 35.491 19.1193 42.5639 51.5736C42.7177 52.2797 43.2871 52.7752 43.9249 52.7638Z" fill="white" stroke="#1D0228" stroke-width="0.19" stroke-linecap="round" stroke-linejoin="round"/>
<path d="M81.2938 36.1293L85.4965 37.4961C85.787 37.553 86.0034 37.7865 86.0375 38.0769L93.6856 104.495L85.8268 103.834L76.0205 108.259L81.2938 36.1293Z" fill="#B24DD4" stroke="#21002A" stroke-width="0.19" stroke-linecap="round" stroke-linejoin="round"/>
<path d="M23.7546 38.8969L80.9525 36.0552C81.3739 36.0324 81.7213 36.3912 81.6871 36.8126L76.1917 108.373L7.27979 107.069L23.0542 39.4493C23.1453 39.1361 23.4243 38.914 23.7489 38.8969H23.7546Z" fill="white" stroke="#1D0228" stroke-width="0.19" stroke-linecap="round" stroke-linejoin="round"/>
<path d="M65.1159 51.3231C65.1159 49.7685 63.9143 48.5156 62.4337 48.5156C60.9531 48.5156 59.7515 49.7742 59.7515 51.3231C59.7515 52.8721 60.9531 54.1306 62.4337 54.1306C63.9143 54.1306 65.1159 52.8721 65.1159 51.3231Z" stroke="#21002A" stroke-width="0.19" stroke-miterlimit="10"/>
<path d="M64.6488 51.3229C64.6488 50.0416 63.6579 49.0052 62.4335 49.0052C61.2091 49.0052 60.2183 50.0416 60.2183 51.3229C60.2183 52.6043 61.2091 53.6407 62.4335 53.6407C63.6579 53.6407 64.6488 52.6043 64.6488 51.3229Z" fill="#21002A"/>
<path d="M35.3888 51.2489C35.2692 49.6316 33.9309 48.413 32.4047 48.5268C30.8786 48.6407 29.7396 50.0416 29.8592 51.6646C29.9788 53.2876 31.3171 54.5006 32.8432 54.3867C34.3694 54.2728 35.5084 52.8719 35.3888 51.2546V51.2489Z" stroke="#21002A" stroke-width="0.19" stroke-miterlimit="10"/>
<path d="M34.9562 51.2831C34.8594 49.9506 33.7375 48.9483 32.4505 49.0451C31.1635 49.1419 30.2068 50.2979 30.3036 51.6305C30.4004 52.9631 31.5223 53.9653 32.8093 53.8685C34.0963 53.7717 35.053 52.6157 34.9562 51.2831Z" fill="#21002A"/>
<path d="M62.8263 52.9063C61.9265 52.8892 61.283 51.8927 61.5165 50.879C63.2989 43.1683 66.0039 23.1912 53.6862 22.3028C53.6862 22.3028 39.2843 20.8564 34.4779 51.8927C34.3469 52.7298 33.7319 53.3448 33.003 53.3448C32.0975 53.3448 31.4027 52.4223 31.5166 51.3744C32.5303 42.2686 38.0656 18.0147 54.0792 18.8917C54.0792 18.8917 71.2602 18.4817 64.1873 51.6877C64.0335 52.4109 63.4641 52.9177 62.8263 52.9006V52.9063Z" fill="#21002A"/>
<path d="M62.2622 52.7524C61.3624 52.7353 60.6848 51.7274 60.9524 50.7251C63.0595 42.798 65.0469 22.8494 53.1222 22.1489C53.1222 22.1489 38.7373 20.7025 33.9195 51.6875C33.7829 52.5531 33.145 53.1852 32.3933 53.1852H32.3535C31.4138 53.1852 30.6906 52.2228 30.8159 51.1351C31.9036 41.8755 37.5243 17.8665 53.5151 18.7435C53.5151 18.7435 70.9239 18.6125 63.7713 51.4312C63.6119 52.1545 62.9 52.7695 62.2622 52.7524Z" fill="white" stroke="#1D0228" stroke-width="0.19" stroke-linecap="round" stroke-linejoin="round"/>
<path d="M49.176 65.554H54.197L39.0092 93.3955L34.0508 93.2076L49.176 65.554Z" fill="#5FDDA1" stroke="#1C032B" stroke-width="0.19" stroke-linecap="round" stroke-linejoin="round"/>
<path d="M40.537 65.6111C38.3787 64.1533 35.1783 65.1498 33.3731 67.8264C31.5678 70.5029 31.8526 73.8457 34.0052 75.2979C36.1635 76.75 39.3639 75.7591 41.1691 73.0826C42.9744 70.4061 42.6896 67.0633 40.537 65.6111ZM38.8172 71.4254C38.0997 72.4904 36.8241 72.8833 35.9699 72.3024C35.1156 71.7273 35.0074 70.4004 35.7193 69.3412C36.4311 68.2763 37.7067 67.8833 38.561 68.4585C39.4209 69.0337 39.5291 70.3662 38.8115 71.4254H38.8172Z" fill="#5FDDA1" stroke="#1C032B" stroke-width="0.19" stroke-linecap="round" stroke-linejoin="round"/>
<path d="M56.0835 82.1089C53.7259 80.5144 50.2179 81.6021 48.2475 84.5292C46.2772 87.4563 46.5847 91.1123 48.9423 92.7011C51.2999 94.29 54.8079 93.208 56.7782 90.2809C58.7486 87.3538 58.4411 83.6978 56.0835 82.1089ZM54.153 88.4756C53.3671 89.6374 51.9719 90.0702 51.0379 89.4324C50.104 88.8059 49.9844 87.3538 50.7646 86.1921C51.5448 85.0303 52.94 84.5975 53.8739 85.2239C54.8136 85.8561 54.9331 87.3082 54.1473 88.4699L54.153 88.4756Z" fill="#5FDDA1" stroke="#1C032B" stroke-width="0.19" stroke-linecap="round" stroke-linejoin="round"/>
<path opacity="0.45" d="M104.532 86.5938C104.532 86.5938 99.7347 81.6144 91.5505 81.4673C81.6372 81.2898 76.5259 82.3496 76.5259 84.1954L76.2217 105.427V105.442C76.2673 106.917 82.4891 108.028 90.7037 108.028C98.9183 108.028 104.572 106.633 104.572 105.153C104.572 105.061 104.547 104.975 104.496 104.884L104.532 86.5888V86.5938Z" fill="#1C032B"/>
<path d="M107.986 103.288V106.477C107.986 106.665 107.861 106.847 107.628 107.023C107.497 107.12 107.343 107.206 107.149 107.297C107.064 107.342 106.967 107.376 106.87 107.422C106.728 107.479 106.58 107.536 106.409 107.587C106.284 107.627 106.153 107.667 106.016 107.707C105.868 107.752 105.708 107.792 105.538 107.838C105.196 107.923 104.814 108.009 104.41 108.088C104.364 108.1 104.33 108.105 104.285 108.111C104.171 108.14 104.051 108.157 103.932 108.174C103.898 108.174 103.863 108.185 103.823 108.191C103.499 108.253 103.157 108.305 102.798 108.356C102.645 108.379 102.485 108.402 102.32 108.419C102.121 108.447 101.91 108.47 101.699 108.498C101.551 108.51 101.398 108.527 101.238 108.544H101.187C101.033 108.561 100.874 108.578 100.708 108.595C100.344 108.629 99.9681 108.658 99.5809 108.692C99.4271 108.703 99.2677 108.72 99.1139 108.726H99.1026C98.9545 108.737 98.8007 108.749 98.6527 108.755C98.4306 108.772 98.2028 108.783 97.9693 108.8C97.8098 108.812 97.6504 108.812 97.4909 108.823C97.172 108.834 96.8531 108.851 96.5285 108.863C96.4716 108.863 96.4203 108.863 96.3634 108.863C96.2666 108.863 96.1641 108.874 96.0616 108.874C95.9989 108.874 95.9477 108.874 95.885 108.874C95.5092 108.886 95.1333 108.891 94.7518 108.897C94.5923 108.897 94.4329 108.897 94.2734 108.897H93.1459C92.9807 108.897 92.827 108.897 92.6675 108.897C92.2917 108.897 91.9101 108.886 91.54 108.874C91.4773 108.874 91.4204 108.874 91.3577 108.863C91.2609 108.863 91.1584 108.863 91.0616 108.851C91.0046 108.851 90.9477 108.851 90.8964 108.851C90.5718 108.84 90.2472 108.823 89.934 108.812C89.7746 108.8 89.6151 108.8 89.4557 108.789C89.2279 108.777 89.0001 108.76 88.778 108.743C88.6299 108.732 88.4762 108.72 88.3281 108.715H88.3167C88.1573 108.703 88.0035 108.692 87.8555 108.681C87.4682 108.652 87.0924 108.618 86.7222 108.584L86.2439 108.532H86.1983C86.0388 108.515 85.8851 108.498 85.737 108.487C85.5263 108.458 85.3213 108.436 85.122 108.407C84.9568 108.384 84.8031 108.362 84.6436 108.345C84.2849 108.293 83.9489 108.242 83.6243 108.179C83.5901 108.179 83.5502 108.168 83.5161 108.162C83.3965 108.145 83.2769 108.122 83.1573 108.1C83.1174 108.1 83.0776 108.088 83.0377 108.077C82.6277 107.997 82.2518 107.912 81.9045 107.826C81.7393 107.781 81.5799 107.741 81.4261 107.695C81.2894 107.655 81.1585 107.616 81.0332 107.576C80.868 107.519 80.7143 107.462 80.5719 107.405C80.4751 107.365 80.384 107.325 80.2986 107.285C80.1049 107.194 79.9455 107.103 79.8202 107.012C79.5867 106.835 79.4614 106.653 79.4614 106.465V103.276H107.969L107.986 103.288Z" fill="#CD7302" stroke="#21002A" stroke-width="0.051701" stroke-linecap="round" stroke-linejoin="round"/>
<path d="M81.0555 103.287V107.587C80.8904 107.53 80.7366 107.473 80.5942 107.416V103.287H81.0555Z" fill="#A26024"/>
<path d="M83.6354 103.287V108.191C83.6013 108.191 83.5614 108.179 83.5272 108.173C83.4076 108.156 83.288 108.134 83.1685 108.111V103.287H83.6297H83.6354Z" fill="#A26024"/>
<path d="M86.2206 103.287V108.544C86.0611 108.527 85.9073 108.509 85.7593 108.498V103.293H86.2206V103.287Z" fill="#A26024"/>
<path d="M88.8001 103.287V108.754C88.6521 108.743 88.4983 108.732 88.3503 108.726H88.3389V103.287H88.8001Z" fill="#A26024"/>
<path d="M91.3802 103.287V108.874C91.2834 108.874 91.1809 108.874 91.0841 108.863C91.0271 108.863 90.9702 108.863 90.9189 108.863V103.293H91.3802V103.287Z" fill="#A26024"/>
<path d="M93.9657 103.287H93.5044V108.908H93.9657V103.287Z" fill="#A26024"/>
<path d="M96.5456 103.288V108.857C96.4886 108.857 96.4374 108.857 96.3804 108.857C96.2836 108.857 96.1811 108.869 96.0786 108.869V103.282H96.5399L96.5456 103.288Z" fill="#A26024"/>
<path d="M107.986 103.293C107.986 104.558 102.297 105.594 95.0308 105.708C94.6037 105.708 94.1709 105.719 93.7324 105.719C85.8623 105.719 79.4785 104.632 79.4785 103.293C79.4785 101.955 85.8623 100.867 93.7324 100.867C96.6026 100.867 99.2791 101.015 101.511 101.26C105.407 101.693 107.981 102.445 107.981 103.293H107.986Z" fill="#F7DC4B" stroke="#12183E" stroke-width="0.0465309" stroke-linecap="round" stroke-linejoin="round"/>
<path d="M105.816 103.083C105.816 103.174 105.737 103.265 105.594 103.35C104.518 103.988 99.6148 104.472 93.7322 104.472C87.8495 104.472 82.9463 103.988 81.87 103.35C81.722 103.265 81.6479 103.174 81.6479 103.083C81.6479 102.314 87.0579 101.693 93.7322 101.693C100.406 101.693 105.816 102.314 105.816 103.083Z" fill="#C8782B" stroke="#12183E" stroke-width="0.0465309" stroke-linecap="round" stroke-linejoin="round"/>
<path d="M105.595 103.345C104.519 103.982 99.6154 104.467 93.7327 104.467C87.8501 104.467 82.9469 103.982 81.8706 103.345C82.9469 102.707 87.8501 102.223 93.7327 102.223C99.6154 102.223 104.519 102.707 105.595 103.345Z" fill="#F4C243" stroke="#12183E" stroke-width="0.0568711" stroke-linecap="round" stroke-linejoin="round"/>
<path opacity="0.5" d="M107.986 103.293C107.986 104.557 102.297 105.594 95.0306 105.708C92.2402 105.4 90.1274 104.927 89.1479 104.369C90.5602 104.432 92.1092 104.472 93.7265 104.472C99.6092 104.472 104.512 103.988 105.589 103.35C105.737 103.265 105.811 103.174 105.811 103.082C105.811 102.342 100.834 101.744 94.5409 101.699C96.5454 101.454 98.9315 101.3 101.517 101.254C105.412 101.687 107.986 102.439 107.986 103.287V103.293Z" fill="#F8E292"/>
<path d="M107.986 99.4265V102.616C107.986 102.804 107.861 102.986 107.628 103.162C107.497 103.259 107.343 103.345 107.149 103.436C107.064 103.481 106.967 103.515 106.87 103.561C106.728 103.618 106.58 103.675 106.409 103.726C106.284 103.766 106.153 103.806 106.016 103.846C105.868 103.891 105.708 103.931 105.538 103.977C105.196 104.062 104.814 104.147 104.41 104.227C104.364 104.239 104.33 104.244 104.285 104.25C104.171 104.278 104.051 104.296 103.932 104.313C103.898 104.313 103.863 104.324 103.823 104.33C103.499 104.392 103.157 104.444 102.798 104.495C102.645 104.518 102.485 104.54 102.32 104.558C102.121 104.586 101.91 104.609 101.699 104.637C101.551 104.649 101.398 104.666 101.238 104.683H101.187C101.033 104.7 100.874 104.717 100.708 104.734C100.344 104.768 99.9681 104.797 99.5809 104.831C99.4271 104.842 99.2677 104.859 99.1139 104.865H99.1026C98.9545 104.876 98.8007 104.888 98.6527 104.893C98.4306 104.911 98.2028 104.922 97.9693 104.939C97.8098 104.95 97.6504 104.95 97.4909 104.962C97.172 104.973 96.8531 104.99 96.5285 105.002C96.4716 105.002 96.4203 105.002 96.3634 105.002C96.2666 105.002 96.1641 105.013 96.0616 105.013C95.9989 105.013 95.9477 105.013 95.885 105.013C95.5092 105.024 95.1333 105.03 94.7518 105.036C94.5923 105.036 94.4329 105.036 94.2734 105.036H93.1459C92.9807 105.036 92.827 105.036 92.6675 105.036C92.2917 105.036 91.9101 105.024 91.54 105.013C91.4773 105.013 91.4204 105.013 91.3577 105.002C91.2609 105.002 91.1584 105.002 91.0616 104.99C91.0046 104.99 90.9477 104.99 90.8964 104.99C90.5718 104.979 90.2472 104.962 89.934 104.95C89.7746 104.939 89.6151 104.939 89.4557 104.928C89.2279 104.916 89.0001 104.899 88.778 104.882C88.6299 104.871 88.4762 104.859 88.3281 104.854H88.3167C88.1573 104.842 88.0035 104.831 87.8555 104.819C87.4682 104.791 87.0924 104.757 86.7222 104.723L86.2439 104.671H86.1983C86.0388 104.654 85.8851 104.637 85.737 104.626C85.5263 104.597 85.3213 104.575 85.122 104.546C84.9568 104.523 84.8031 104.501 84.6436 104.483C84.2849 104.432 83.9489 104.381 83.6243 104.318C83.5901 104.318 83.5502 104.307 83.5161 104.301C83.3965 104.284 83.2769 104.261 83.1573 104.239C83.1174 104.239 83.0776 104.227 83.0377 104.216C82.6277 104.136 82.2518 104.051 81.9045 103.965C81.7393 103.92 81.5799 103.88 81.4261 103.834C81.2894 103.794 81.1585 103.755 81.0332 103.715C80.868 103.658 80.7143 103.601 80.5719 103.544C80.4751 103.504 80.384 103.464 80.2986 103.424C80.1049 103.333 79.9455 103.242 79.8202 103.151C79.5867 102.974 79.4614 102.792 79.4614 102.604V99.4152H107.969L107.986 99.4265Z" fill="#CD7302" stroke="#21002A" stroke-width="0.051701" stroke-linecap="round" stroke-linejoin="round"/>
<path d="M81.0555 99.4266V103.726C80.8904 103.669 80.7366 103.612 80.5942 103.555V99.4266H81.0555Z" fill="#A26024"/>
<path d="M83.6354 99.4266V104.33C83.6013 104.33 83.5614 104.318 83.5272 104.313C83.4076 104.296 83.288 104.273 83.1685 104.25V99.4266H83.6297H83.6354Z" fill="#A26024"/>
<path d="M86.2206 99.4266V104.683C86.0611 104.666 85.9073 104.649 85.7593 104.637V99.4323H86.2206V99.4266Z" fill="#A26024"/>
<path d="M88.8001 99.4266V104.894C88.6521 104.882 88.4983 104.871 88.3503 104.865H88.3389V99.4266H88.8001Z" fill="#A26024"/>
<path d="M91.3802 99.4266V105.013C91.2834 105.013 91.1809 105.013 91.0841 105.002C91.0271 105.002 90.9702 105.002 90.9189 105.002V99.4323H91.3802V99.4266Z" fill="#A26024"/>
<path d="M93.9657 99.4266H93.5044V105.047H93.9657V99.4266Z" fill="#A26024"/>
<path d="M96.5456 99.4267V104.996C96.4886 104.996 96.4374 104.996 96.3804 104.996C96.2836 104.996 96.1811 105.007 96.0786 105.007V99.421H96.5399L96.5456 99.4267Z" fill="#A26024"/>
<path d="M107.986 99.432C107.986 100.696 102.297 101.733 95.0308 101.847C94.6037 101.847 94.1709 101.858 93.7324 101.858C85.8623 101.858 79.4785 100.77 79.4785 99.432C79.4785 98.0937 85.8623 97.006 93.7324 97.006C96.6026 97.006 99.2791 97.1541 101.511 97.399C105.407 97.8318 107.981 98.5835 107.981 99.432H107.986Z" fill="#F7DC4B" stroke="#12183E" stroke-width="0.0465309" stroke-linecap="round" stroke-linejoin="round"/>
<path d="M105.816 99.2215C105.816 99.3127 105.737 99.4038 105.594 99.4892C104.518 100.127 99.6148 100.611 93.7322 100.611C87.8495 100.611 82.9463 100.127 81.87 99.4892C81.722 99.4038 81.6479 99.3127 81.6479 99.2215C81.6479 98.4527 87.0579 97.832 93.7322 97.832C100.406 97.832 105.816 98.4527 105.816 99.2215Z" fill="#C8782B" stroke="#12183E" stroke-width="0.0465309" stroke-linecap="round" stroke-linejoin="round"/>
<path d="M105.595 99.4836C104.519 100.121 99.6154 100.605 93.7327 100.605C87.8501 100.605 82.9469 100.121 81.8706 99.4836C82.9469 98.8457 87.8501 98.3617 93.7327 98.3617C99.6154 98.3617 104.519 98.8457 105.595 99.4836Z" fill="#F4C243" stroke="#12183E" stroke-width="0.0568711" stroke-linecap="round" stroke-linejoin="round"/>
<path opacity="0.5" d="M107.986 99.432C107.986 100.696 102.297 101.733 95.0306 101.847C92.2402 101.539 90.1274 101.066 89.1479 100.508C90.5602 100.571 92.1092 100.611 93.7265 100.611C99.6092 100.611 104.512 100.127 105.589 99.489C105.737 99.4035 105.811 99.3124 105.811 99.2213C105.811 98.481 100.834 97.8831 94.5409 97.8375C96.5454 97.5926 98.9315 97.4389 101.517 97.3933C105.412 97.8261 107.986 98.5778 107.986 99.4263V99.432Z" fill="#F8E292"/>
<path d="M107.986 95.5653V98.7544C107.986 98.9423 107.861 99.1245 107.628 99.3011C107.497 99.3979 107.343 99.4833 107.149 99.5744C107.064 99.62 106.967 99.6542 106.87 99.6997C106.728 99.7567 106.58 99.8136 106.409 99.8649C106.284 99.9047 106.153 99.9446 106.016 99.9845C105.868 100.03 105.708 100.07 105.538 100.115C105.196 100.201 104.814 100.286 104.41 100.366C104.364 100.377 104.33 100.383 104.285 100.389C104.171 100.417 104.051 100.434 103.932 100.451C103.898 100.451 103.863 100.463 103.823 100.469C103.499 100.531 103.157 100.582 102.798 100.634C102.645 100.656 102.485 100.679 102.32 100.696C102.121 100.725 101.91 100.748 101.699 100.776C101.551 100.787 101.398 100.804 101.238 100.822H101.187C101.033 100.839 100.874 100.856 100.708 100.873C100.344 100.907 99.9681 100.935 99.5809 100.97C99.4271 100.981 99.2677 100.998 99.1139 101.004H99.1026C98.9545 101.015 98.8007 101.027 98.6527 101.032C98.4306 101.049 98.2028 101.061 97.9693 101.078C97.8098 101.089 97.6504 101.089 97.4909 101.101C97.172 101.112 96.8531 101.129 96.5285 101.14C96.4716 101.14 96.4203 101.14 96.3634 101.14C96.2666 101.14 96.1641 101.152 96.0616 101.152C95.9989 101.152 95.9477 101.152 95.885 101.152C95.5092 101.163 95.1333 101.169 94.7518 101.175C94.5923 101.175 94.4329 101.175 94.2734 101.175H93.1459C92.9807 101.175 92.827 101.175 92.6675 101.175C92.2917 101.175 91.9101 101.163 91.54 101.152C91.4773 101.152 91.4204 101.152 91.3577 101.14C91.2609 101.14 91.1584 101.14 91.0616 101.129C91.0046 101.129 90.9477 101.129 90.8964 101.129C90.5718 101.118 90.2472 101.101 89.934 101.089C89.7746 101.078 89.6151 101.078 89.4557 101.066C89.2279 101.055 89.0001 101.038 88.778 101.021C88.6299 101.01 88.4762 100.998 88.3281 100.992H88.3167C88.1573 100.981 88.0035 100.97 87.8555 100.958C87.4682 100.93 87.0924 100.896 86.7222 100.861L86.2439 100.81H86.1983C86.0388 100.793 85.8851 100.776 85.737 100.765C85.5263 100.736 85.3213 100.713 85.122 100.685C84.9568 100.662 84.8031 100.639 84.6436 100.622C84.2849 100.571 83.9489 100.52 83.6243 100.457C83.5901 100.457 83.5502 100.446 83.5161 100.44C83.3965 100.423 83.2769 100.4 83.1573 100.377C83.1174 100.377 83.0776 100.366 83.0377 100.355C82.6277 100.275 82.2518 100.189 81.9045 100.104C81.7393 100.058 81.5799 100.019 81.4261 99.9731C81.2894 99.9332 81.1585 99.8933 81.0332 99.8535C80.868 99.7965 80.7143 99.7396 80.5719 99.6826C80.4751 99.6428 80.384 99.6029 80.2986 99.563C80.1049 99.4719 79.9455 99.3808 79.8202 99.2897C79.5867 99.1132 79.4614 98.9309 79.4614 98.743V95.554H107.969L107.986 95.5653Z" fill="#CD7302" stroke="#21002A" stroke-width="0.051701" stroke-linecap="round" stroke-linejoin="round"/>
<path d="M81.0555 95.5656V99.8651C80.8904 99.8082 80.7366 99.7512 80.5942 99.6943V95.5656H81.0555Z" fill="#A26024"/>
<path d="M83.6354 95.5656V100.469C83.6013 100.469 83.5614 100.457 83.5272 100.452C83.4076 100.435 83.288 100.412 83.1685 100.389V95.5656H83.6297H83.6354Z" fill="#A26024"/>
<path d="M86.2206 95.5656V100.822C86.0611 100.805 85.9073 100.788 85.7593 100.776V95.5713H86.2206V95.5656Z" fill="#A26024"/>
<path d="M88.8001 95.5656V101.033C88.6521 101.021 88.4983 101.01 88.3503 101.004H88.3389V95.5656H88.8001Z" fill="#A26024"/>
<path d="M91.3802 95.5656V101.152C91.2834 101.152 91.1809 101.152 91.0841 101.141C91.0271 101.141 90.9702 101.141 90.9189 101.141V95.5713H91.3802V95.5656Z" fill="#A26024"/>
<path d="M93.9657 95.5656H93.5044V101.186H93.9657V95.5656Z" fill="#A26024"/>
<path d="M96.5456 95.5654V101.135C96.4886 101.135 96.4374 101.135 96.3804 101.135C96.2836 101.135 96.1811 101.146 96.0786 101.146V95.5598H96.5399L96.5456 95.5654Z" fill="#A26024"/>
<path d="M107.986 95.5711C107.986 96.8353 102.297 97.8718 95.0308 97.9857C94.6037 97.9857 94.1709 97.9971 93.7324 97.9971C85.8623 97.9971 79.4785 96.9094 79.4785 95.5711C79.4785 94.2328 85.8623 93.1451 93.7324 93.1451C96.6026 93.1451 99.2791 93.2932 101.511 93.5381C105.407 93.9709 107.981 94.7226 107.981 95.5711H107.986Z" fill="#F7DC4B" stroke="#12183E" stroke-width="0.0465309" stroke-linecap="round" stroke-linejoin="round"/>
<path d="M105.816 95.3606C105.816 95.4517 105.737 95.5428 105.594 95.6282C104.518 96.266 99.6148 96.7501 93.7322 96.7501C87.8495 96.7501 82.9463 96.266 81.87 95.6282C81.722 95.5428 81.6479 95.4517 81.6479 95.3606C81.6479 94.5918 87.0579 93.9711 93.7322 93.9711C100.406 93.9711 105.816 94.5918 105.816 95.3606Z" fill="#C8782B" stroke="#12183E" stroke-width="0.0465309" stroke-linecap="round" stroke-linejoin="round"/>
<path d="M105.595 95.6281C104.519 96.266 99.6154 96.75 93.7327 96.75C87.8501 96.75 82.9469 96.266 81.8706 95.6281C82.9469 94.9903 87.8501 94.5063 93.7327 94.5063C99.6154 94.5063 104.519 94.9903 105.595 95.6281Z" fill="#F4C243" stroke="#12183E" stroke-width="0.0568711" stroke-linecap="round" stroke-linejoin="round"/>
<path opacity="0.5" d="M107.986 95.5716C107.986 96.8358 102.297 97.8722 95.0306 97.9861C92.2402 97.6786 90.1274 97.2059 89.1479 96.6479C90.5602 96.7105 92.1092 96.7504 93.7265 96.7504C99.6092 96.7504 104.512 96.2663 105.589 95.6285C105.737 95.5431 105.811 95.452 105.811 95.3608C105.811 94.6205 100.834 94.0226 94.5409 93.977C96.5454 93.7322 98.9315 93.5784 101.517 93.5328C105.412 93.9656 107.986 94.7173 107.986 95.5659V95.5716Z" fill="#F8E292"/>
<path d="M107.986 91.7045V94.8936C107.986 95.0815 107.861 95.2637 107.628 95.4402C107.497 95.5371 107.343 95.6225 107.149 95.7136C107.064 95.7592 106.967 95.7933 106.87 95.8389C106.728 95.8958 106.58 95.9528 106.409 96.004C106.284 96.0439 106.153 96.0838 106.016 96.1236C105.868 96.1692 105.708 96.209 105.538 96.2546C105.196 96.34 104.814 96.4254 104.41 96.5052C104.364 96.5165 104.33 96.5222 104.285 96.5279C104.171 96.5564 104.051 96.5735 103.932 96.5906C103.898 96.5906 103.863 96.602 103.823 96.6077C103.499 96.6703 103.157 96.7216 102.798 96.7728C102.645 96.7956 102.485 96.8184 102.32 96.8355C102.121 96.8639 101.91 96.8867 101.699 96.9152C101.551 96.9266 101.398 96.9437 101.238 96.9607H101.187C101.033 96.9778 100.874 96.9949 100.708 97.012C100.344 97.0462 99.9681 97.0746 99.5809 97.1088C99.4271 97.1202 99.2677 97.1373 99.1139 97.143H99.1026C98.9545 97.1544 98.8007 97.1657 98.6527 97.1714C98.4306 97.1885 98.2028 97.1999 97.9693 97.217C97.8098 97.2284 97.6504 97.2284 97.4909 97.2398C97.172 97.2512 96.8531 97.2683 96.5285 97.2796C96.4716 97.2796 96.4203 97.2796 96.3634 97.2796C96.2666 97.2796 96.1641 97.291 96.0616 97.291C95.9989 97.291 95.9477 97.291 95.885 97.291C95.5092 97.3024 95.1333 97.3081 94.7518 97.3138C94.5923 97.3138 94.4329 97.3138 94.2734 97.3138H93.1459C92.9807 97.3138 92.827 97.3138 92.6675 97.3138C92.2917 97.3138 91.9101 97.3024 91.54 97.291C91.4773 97.291 91.4204 97.291 91.3577 97.2796C91.2609 97.2796 91.1584 97.2796 91.0616 97.2683C91.0046 97.2683 90.9477 97.2683 90.8964 97.2683C90.5718 97.2569 90.2472 97.2398 89.934 97.2284C89.7746 97.217 89.6151 97.217 89.4557 97.2056C89.2279 97.1942 89.0001 97.1771 88.778 97.1601C88.6299 97.1487 88.4762 97.1373 88.3281 97.1316H88.3167C88.1573 97.1202 88.0035 97.1088 87.8555 97.0974C87.4682 97.0689 87.0924 97.0348 86.7222 97.0006L86.2439 96.9493H86.1983C86.0388 96.9323 85.8851 96.9152 85.737 96.9038C85.5263 96.8753 85.3213 96.8525 85.122 96.8241C84.9568 96.8013 84.8031 96.7785 84.6436 96.7614C84.2849 96.7102 83.9489 96.6589 83.6243 96.5963C83.5901 96.5963 83.5502 96.5849 83.5161 96.5792C83.3965 96.5621 83.2769 96.5393 83.1573 96.5165C83.1174 96.5165 83.0776 96.5052 83.0377 96.4938C82.6277 96.414 82.2518 96.3286 81.9045 96.2432C81.7393 96.1976 81.5799 96.1578 81.4261 96.1122C81.2894 96.0724 81.1585 96.0325 81.0332 95.9926C80.868 95.9357 80.7143 95.8787 80.5719 95.8218C80.4751 95.7819 80.384 95.7421 80.2986 95.7022C80.1049 95.6111 79.9455 95.52 79.8202 95.4289C79.5867 95.2523 79.4614 95.0701 79.4614 94.8822V91.6931H107.969L107.986 91.7045Z" fill="#CD7302" stroke="#21002A" stroke-width="0.051701" stroke-linecap="round" stroke-linejoin="round"/>
<path d="M81.0555 91.7048V96.0043C80.8904 95.9473 80.7366 95.8904 80.5942 95.8335V91.7048H81.0555Z" fill="#A26024"/>
<path d="M83.6354 91.7048V96.6079C83.6013 96.6079 83.5614 96.5965 83.5272 96.5909C83.4076 96.5738 83.288 96.551 83.1685 96.5282V91.7048H83.6297H83.6354Z" fill="#A26024"/>
<path d="M86.2206 91.7048V96.961C86.0611 96.9439 85.9073 96.9268 85.7593 96.9155V91.7105H86.2206V91.7048Z" fill="#A26024"/>
<path d="M88.8001 91.7048V97.1717C88.6521 97.1603 88.4983 97.1489 88.3503 97.1432H88.3389V91.7048H88.8001Z" fill="#A26024"/>
<path d="M91.3802 91.7048V97.2913C91.2834 97.2913 91.1809 97.2913 91.0841 97.2799C91.0271 97.2799 90.9702 97.2799 90.9189 97.2799V91.7105H91.3802V91.7048Z" fill="#A26024"/>
<path d="M93.9657 91.7048H93.5044V97.3255H93.9657V91.7048Z" fill="#A26024"/>
<path d="M96.5456 91.7046V97.2741C96.4886 97.2741 96.4374 97.2741 96.3804 97.2741C96.2836 97.2741 96.1811 97.2854 96.0786 97.2854V91.6989H96.5399L96.5456 91.7046Z" fill="#A26024"/>
<path d="M107.986 91.7102C107.986 92.9744 102.297 94.0109 95.0308 94.1248C94.6037 94.1248 94.1709 94.1362 93.7324 94.1362C85.8623 94.1362 79.4785 93.0485 79.4785 91.7102C79.4785 90.3719 85.8623 89.2842 93.7324 89.2842C96.6026 89.2842 99.2791 89.4323 101.511 89.6772C105.407 90.11 107.981 90.8617 107.981 91.7102H107.986Z" fill="#F7DC4B" stroke="#12183E" stroke-width="0.0465309" stroke-linecap="round" stroke-linejoin="round"/>
<path d="M105.816 91.4995C105.816 91.5906 105.737 91.6817 105.594 91.7671C104.518 92.405 99.6148 92.889 93.7322 92.889C87.8495 92.889 82.9463 92.405 81.87 91.7671C81.722 91.6817 81.6479 91.5906 81.6479 91.4995C81.6479 90.7307 87.0579 90.11 93.7322 90.11C100.406 90.11 105.816 90.7307 105.816 91.4995Z" fill="#C8782B" stroke="#12183E" stroke-width="0.0465309" stroke-linecap="round" stroke-linejoin="round"/>
<path d="M105.595 91.7668C104.519 92.4046 99.6154 92.8887 93.7327 92.8887C87.8501 92.8887 82.9469 92.4046 81.8706 91.7668C82.9469 91.129 87.8501 90.645 93.7327 90.645C99.6154 90.645 104.519 91.129 105.595 91.7668Z" fill="#F4C243" stroke="#12183E" stroke-width="0.0568711" stroke-linecap="round" stroke-linejoin="round"/>
<path opacity="0.5" d="M107.986 91.7102C107.986 92.9745 102.297 94.0109 95.0306 94.1248C92.2402 93.8173 90.1274 93.3446 89.1479 92.7865C90.5602 92.8492 92.1092 92.889 93.7265 92.889C99.6092 92.889 104.512 92.405 105.589 91.7672C105.737 91.6817 105.811 91.5906 105.811 91.4995C105.811 90.7592 100.834 90.1613 94.5409 90.1157C96.5454 89.8708 98.9315 89.7171 101.517 89.6715C105.412 90.1043 107.986 90.856 107.986 91.7045V91.7102Z" fill="#F8E292"/>
<path d="M107.986 87.8435V91.0325C107.986 91.2205 107.861 91.4027 107.628 91.5792C107.497 91.676 107.343 91.7615 107.149 91.8526C107.064 91.8981 106.967 91.9323 106.87 91.9779C106.728 92.0348 106.58 92.0918 106.409 92.143C106.284 92.1829 106.153 92.2227 106.016 92.2626C105.868 92.3082 105.708 92.348 105.538 92.3936C105.196 92.479 104.814 92.5644 104.41 92.6441C104.364 92.6555 104.33 92.6612 104.285 92.6669C104.171 92.6954 104.051 92.7125 103.932 92.7296C103.898 92.7296 103.863 92.7409 103.823 92.7466C103.499 92.8093 103.157 92.8605 102.798 92.9118C102.645 92.9346 102.485 92.9574 102.32 92.9744C102.121 93.0029 101.91 93.0257 101.699 93.0542C101.551 93.0656 101.398 93.0826 101.238 93.0997H101.187C101.033 93.1168 100.874 93.1339 100.708 93.151C100.344 93.1851 99.9681 93.2136 99.5809 93.2478C99.4271 93.2592 99.2677 93.2763 99.1139 93.2819H99.1026C98.9545 93.2933 98.8007 93.3047 98.6527 93.3104C98.4306 93.3275 98.2028 93.3389 97.9693 93.356C97.8098 93.3674 97.6504 93.3674 97.4909 93.3788C97.172 93.3901 96.8531 93.4072 96.5285 93.4186C96.4716 93.4186 96.4203 93.4186 96.3634 93.4186C96.2666 93.4186 96.1641 93.43 96.0616 93.43C95.9989 93.43 95.9477 93.43 95.885 93.43C95.5092 93.4414 95.1333 93.4471 94.7518 93.4528C94.5923 93.4528 94.4329 93.4528 94.2734 93.4528H93.1459C92.9807 93.4528 92.827 93.4528 92.6675 93.4528C92.2917 93.4528 91.9101 93.4414 91.54 93.43C91.4773 93.43 91.4204 93.43 91.3577 93.4186C91.2609 93.4186 91.1584 93.4186 91.0616 93.4072C91.0046 93.4072 90.9477 93.4072 90.8964 93.4072C90.5718 93.3958 90.2472 93.3788 89.934 93.3674C89.7746 93.356 89.6151 93.356 89.4557 93.3446C89.2279 93.3332 89.0001 93.3161 88.778 93.299C88.6299 93.2876 88.4762 93.2763 88.3281 93.2706H88.3167C88.1573 93.2592 88.0035 93.2478 87.8555 93.2364C87.4682 93.2079 87.0924 93.1737 86.7222 93.1396L86.2439 93.0883H86.1983C86.0388 93.0712 85.8851 93.0542 85.737 93.0428C85.5263 93.0143 85.3213 92.9915 85.122 92.963C84.9568 92.9403 84.8031 92.9175 84.6436 92.9004C84.2849 92.8492 83.9489 92.7979 83.6243 92.7353C83.5901 92.7353 83.5502 92.7239 83.5161 92.7182C83.3965 92.7011 83.2769 92.6783 83.1573 92.6555C83.1174 92.6555 83.0776 92.6441 83.0377 92.6328C82.6277 92.553 82.2518 92.4676 81.9045 92.3822C81.7393 92.3366 81.5799 92.2968 81.4261 92.2512C81.2894 92.2113 81.1585 92.1715 81.0332 92.1316C80.868 92.0747 80.7143 92.0177 80.5719 91.9608C80.4751 91.9209 80.384 91.881 80.2986 91.8412C80.1049 91.7501 79.9455 91.659 79.8202 91.5678C79.5867 91.3913 79.4614 91.2091 79.4614 91.0211V87.8321H107.969L107.986 87.8435Z" fill="#CD7302" stroke="#21002A" stroke-width="0.051701" stroke-linecap="round" stroke-linejoin="round"/>
<path d="M81.0555 87.8438V92.1433C80.8904 92.0863 80.7366 92.0294 80.5942 91.9724V87.8438H81.0555Z" fill="#A26024"/>
<path d="M83.6354 87.8438V92.7469C83.6013 92.7469 83.5614 92.7355 83.5272 92.7298C83.4076 92.7127 83.288 92.69 83.1685 92.6672V87.8438H83.6297H83.6354Z" fill="#A26024"/>
<path d="M86.2206 87.8438V93.1C86.0611 93.0829 85.9073 93.0658 85.7593 93.0544V87.8494H86.2206V87.8438Z" fill="#A26024"/>
<path d="M88.8001 87.8438V93.3107C88.6521 93.2993 88.4983 93.2879 88.3503 93.2822H88.3389V87.8438H88.8001Z" fill="#A26024"/>
<path d="M91.3802 87.8438V93.4303C91.2834 93.4303 91.1809 93.4303 91.0841 93.4189C91.0271 93.4189 90.9702 93.4189 90.9189 93.4189V87.8494H91.3802V87.8438Z" fill="#A26024"/>
<path d="M93.9657 87.8438H93.5044V93.4644H93.9657V87.8438Z" fill="#A26024"/>
<path d="M96.5456 87.8433V93.4128C96.4886 93.4128 96.4374 93.4128 96.3804 93.4128C96.2836 93.4128 96.1811 93.4242 96.0786 93.4242V87.8376H96.5399L96.5456 87.8433Z" fill="#A26024"/>
<path d="M107.986 87.849C107.986 89.1132 102.297 90.1497 95.0308 90.2636C94.6037 90.2636 94.1709 90.2749 93.7324 90.2749C85.8623 90.2749 79.4785 89.1873 79.4785 87.849C79.4785 86.5107 85.8623 85.423 93.7324 85.423C96.6026 85.423 99.2791 85.5711 101.511 85.816C105.407 86.2488 107.981 87.0005 107.981 87.849H107.986Z" fill="#F7DC4B" stroke="#12183E" stroke-width="0.0465309" stroke-linecap="round" stroke-linejoin="round"/>
<path d="M105.816 87.6385C105.816 87.7296 105.737 87.8207 105.594 87.9061C104.518 88.5439 99.6148 89.028 93.7322 89.028C87.8495 89.028 82.9463 88.5439 81.87 87.9061C81.722 87.8207 81.6479 87.7296 81.6479 87.6385C81.6479 86.8697 87.0579 86.249 93.7322 86.249C100.406 86.249 105.816 86.8697 105.816 87.6385Z" fill="#C8782B" stroke="#12183E" stroke-width="0.0465309" stroke-linecap="round" stroke-linejoin="round"/>
<path d="M105.595 87.906C104.519 88.5439 99.6154 89.0279 93.7327 89.0279C87.8501 89.0279 82.9469 88.5439 81.8706 87.906C82.9469 87.2682 87.8501 86.7842 93.7327 86.7842C99.6154 86.7842 104.519 87.2682 105.595 87.906Z" fill="#F4C243" stroke="#12183E" stroke-width="0.0568711" stroke-linecap="round" stroke-linejoin="round"/>
<path opacity="0.5" d="M107.986 87.8494C107.986 89.1137 102.297 90.1501 95.0306 90.264C92.2402 89.9565 90.1274 89.4838 89.1479 88.9257C90.5602 88.9884 92.1092 89.0283 93.7265 89.0283C99.6092 89.0283 104.512 88.5442 105.589 87.9064C105.737 87.821 105.811 87.7299 105.811 87.6387C105.811 86.8984 100.834 86.3005 94.5409 86.2549C96.5454 86.01 98.9315 85.8563 101.517 85.8107C105.412 86.2435 107.986 86.9952 107.986 87.8437V87.8494Z" fill="#F8E292"/>
<path d="M107.986 83.9824V87.1714C107.986 87.3594 107.861 87.5416 107.628 87.7181C107.497 87.8149 107.343 87.9004 107.149 87.9915C107.064 88.037 106.967 88.0712 106.87 88.1168C106.728 88.1737 106.58 88.2307 106.409 88.2819C106.284 88.3218 106.153 88.3616 106.016 88.4015C105.868 88.4471 105.708 88.4869 105.538 88.5325C105.196 88.6179 104.814 88.7033 104.41 88.7831C104.364 88.7944 104.33 88.8001 104.285 88.8058C104.171 88.8343 104.051 88.8514 103.932 88.8685C103.898 88.8685 103.863 88.8799 103.823 88.8856C103.499 88.9482 103.157 88.9995 102.798 89.0507C102.645 89.0735 102.485 89.0963 102.32 89.1133C102.121 89.1418 101.91 89.1646 101.699 89.1931C101.551 89.2045 101.398 89.2215 101.238 89.2386H101.187C101.033 89.2557 100.874 89.2728 100.708 89.2899C100.344 89.3241 99.9681 89.3525 99.5809 89.3867C99.4271 89.3981 99.2677 89.4152 99.1139 89.4209H99.1026C98.9545 89.4323 98.8007 89.4436 98.6527 89.4493C98.4306 89.4664 98.2028 89.4778 97.9693 89.4949C97.8098 89.5063 97.6504 89.5063 97.4909 89.5177C97.172 89.5291 96.8531 89.5461 96.5285 89.5575C96.4716 89.5575 96.4203 89.5575 96.3634 89.5575C96.2666 89.5575 96.1641 89.5689 96.0616 89.5689C95.9989 89.5689 95.9477 89.5689 95.885 89.5689C95.5092 89.5803 95.1333 89.586 94.7518 89.5917C94.5923 89.5917 94.4329 89.5917 94.2734 89.5917H93.1459C92.9807 89.5917 92.827 89.5917 92.6675 89.5917C92.2917 89.5917 91.9101 89.5803 91.54 89.5689C91.4773 89.5689 91.4204 89.5689 91.3577 89.5575C91.2609 89.5575 91.1584 89.5575 91.0616 89.5461C91.0046 89.5461 90.9477 89.5461 90.8964 89.5461C90.5718 89.5348 90.2472 89.5177 89.934 89.5063C89.7746 89.4949 89.6151 89.4949 89.4557 89.4835C89.2279 89.4721 89.0001 89.455 88.778 89.4379C88.6299 89.4266 88.4762 89.4152 88.3281 89.4095H88.3167C88.1573 89.3981 88.0035 89.3867 87.8555 89.3753C87.4682 89.3468 87.0924 89.3127 86.7222 89.2785L86.2439 89.2272H86.1983C86.0388 89.2102 85.8851 89.1931 85.737 89.1817C85.5263 89.1532 85.3213 89.1304 85.122 89.102C84.9568 89.0792 84.8031 89.0564 84.6436 89.0393C84.2849 88.9881 83.9489 88.9368 83.6243 88.8742C83.5901 88.8742 83.5502 88.8628 83.5161 88.8571C83.3965 88.84 83.2769 88.8172 83.1573 88.7944C83.1174 88.7944 83.0776 88.7831 83.0377 88.7717C82.6277 88.6919 82.2518 88.6065 81.9045 88.5211C81.7393 88.4755 81.5799 88.4357 81.4261 88.3901C81.2894 88.3503 81.1585 88.3104 81.0332 88.2705C80.868 88.2136 80.7143 88.1566 80.5719 88.0997C80.4751 88.0598 80.384 88.02 80.2986 87.9801C80.1049 87.889 79.9455 87.7979 79.8202 87.7067C79.5867 87.5302 79.4614 87.348 79.4614 87.1601V83.971H107.969L107.986 83.9824Z" fill="#CD7302" stroke="#21002A" stroke-width="0.051701" stroke-linecap="round" stroke-linejoin="round"/>
<path d="M81.0555 83.9827V88.2822C80.8904 88.2252 80.7366 88.1683 80.5942 88.1113V83.9827H81.0555Z" fill="#A26024"/>
<path d="M83.6354 83.9827V88.8858C83.6013 88.8858 83.5614 88.8744 83.5272 88.8687C83.4076 88.8517 83.288 88.8289 83.1685 88.8061V83.9827H83.6297H83.6354Z" fill="#A26024"/>
<path d="M86.2206 83.9827V89.2389C86.0611 89.2218 85.9073 89.2047 85.7593 89.1933V83.9884H86.2206V83.9827Z" fill="#A26024"/>
<path d="M88.8001 83.9827V89.4496C88.6521 89.4382 88.4983 89.4268 88.3503 89.4211H88.3389V83.9827H88.8001Z" fill="#A26024"/>
<path d="M91.3802 83.9827V89.5692C91.2834 89.5692 91.1809 89.5692 91.0841 89.5578C91.0271 89.5578 90.9702 89.5578 90.9189 89.5578V83.9884H91.3802V83.9827Z" fill="#A26024"/>
<path d="M93.9657 83.9827H93.5044V89.6034H93.9657V83.9827Z" fill="#A26024"/>
<path d="M96.5456 83.9825V89.5519C96.4886 89.5519 96.4374 89.5519 96.3804 89.5519C96.2836 89.5519 96.1811 89.5633 96.0786 89.5633V83.9768H96.5399L96.5456 83.9825Z" fill="#A26024"/>
<path d="M107.986 83.9881C107.986 85.2523 102.297 86.2888 95.0308 86.4027C94.6037 86.4027 94.1709 86.414 93.7324 86.414C85.8623 86.414 79.4785 85.3264 79.4785 83.9881C79.4785 82.6498 85.8623 81.5621 93.7324 81.5621C96.6026 81.5621 99.2791 81.7102 101.511 81.9551C105.407 82.3879 107.981 83.1396 107.981 83.9881H107.986Z" fill="#F7DC4B" stroke="#12183E" stroke-width="0.0465309" stroke-linecap="round" stroke-linejoin="round"/>
<path d="M105.816 83.7774C105.816 83.8685 105.737 83.9596 105.594 84.045C104.518 84.6829 99.6148 85.1669 93.7322 85.1669C87.8495 85.1669 82.9463 84.6829 81.87 84.045C81.722 83.9596 81.6479 83.8685 81.6479 83.7774C81.6479 83.0086 87.0579 82.3879 93.7322 82.3879C100.406 82.3879 105.816 83.0086 105.816 83.7774Z" fill="#C8782B" stroke="#12183E" stroke-width="0.0465309" stroke-linecap="round" stroke-linejoin="round"/>
<path d="M105.595 84.0452C104.519 84.683 99.6154 85.1671 93.7327 85.1671C87.8501 85.1671 82.9469 84.683 81.8706 84.0452C82.9469 83.4074 87.8501 82.9233 93.7327 82.9233C99.6154 82.9233 104.519 83.4074 105.595 84.0452Z" fill="#F4C243" stroke="#12183E" stroke-width="0.0568711" stroke-linecap="round" stroke-linejoin="round"/>
<path opacity="0.5" d="M107.986 83.9886C107.986 85.2528 102.297 86.2893 95.0306 86.4032C92.2402 86.0957 90.1274 85.623 89.1479 85.0649C90.5602 85.1276 92.1092 85.1674 93.7265 85.1674C99.6092 85.1674 104.512 84.6834 105.589 84.0456C105.737 83.9601 105.811 83.869 105.811 83.7779C105.811 83.0376 100.834 82.4396 94.5409 82.3941C96.5454 82.1492 98.9315 81.9954 101.517 81.9499C105.412 82.3827 107.986 83.1344 107.986 83.9829V83.9886Z" fill="#F8E292"/>
<path opacity="0.5" d="M93.7608 86.3455C96.6993 86.3455 99.4726 86.2714 101.938 86.1348V108.423C101.676 108.435 101.494 108.429 101.215 108.446C97.6466 109.098 92.582 108.853 92.4453 108.853V86.3341C92.8781 86.3398 93.3166 86.3398 93.7551 86.3398L93.7608 86.3455Z" fill="#F4C243"/>
<path opacity="0.5" d="M106.876 85.0114V107.394C105.532 107.883 103.881 108.191 103.835 108.191L103.887 85.6984C105.447 85.4384 105.884 85.2111 106.876 85.0114Z" fill="#F4C243"/>
<path opacity="0.45" d="M80.8354 100.605C80.8354 100.605 76.0384 99.5746 67.8543 99.4276C57.941 99.2501 52.8296 100.31 52.8296 102.156V104.486C52.2981 104.486 51.8672 104.917 51.8672 105.449V108.921V109.094C51.8672 109.752 58.7928 111.507 67.0074 111.507C75.222 111.507 80.8759 110.113 80.8759 108.632C80.8759 108.541 80.8506 108.455 80.7999 108.363L80.8354 104.549V100.605Z" fill="#1C032B"/>
<path d="M81.8691 105.89V109.079C81.8691 109.267 81.7439 109.449 81.5104 109.626C81.3794 109.723 81.2256 109.808 81.032 109.899C80.9466 109.945 80.8498 109.979 80.753 110.024C80.6106 110.081 80.4625 110.138 80.2917 110.19C80.1664 110.229 80.0354 110.269 79.8988 110.309C79.7507 110.355 79.5912 110.395 79.4204 110.44C79.0787 110.526 78.6972 110.611 78.2929 110.691C78.2473 110.702 78.2131 110.708 78.1676 110.713C78.0537 110.742 77.9341 110.759 77.8145 110.776C77.7803 110.776 77.7462 110.788 77.7063 110.793C77.3817 110.856 77.04 110.907 76.6812 110.958C76.5275 110.981 76.368 111.004 76.2029 111.021C76.0036 111.049 75.7929 111.072 75.5822 111.101C75.4341 111.112 75.2803 111.129 75.1209 111.146H75.0696C74.9159 111.163 74.7564 111.18 74.5913 111.198C74.2268 111.232 73.851 111.26 73.4637 111.294C73.31 111.306 73.1505 111.323 72.9968 111.329H72.9854C72.8373 111.34 72.6835 111.351 72.5355 111.357C72.3134 111.374 72.0856 111.385 71.8521 111.403C71.6927 111.414 71.5332 111.414 71.3738 111.425C71.0548 111.437 70.7359 111.454 70.4113 111.465C70.3544 111.465 70.3031 111.465 70.2462 111.465C70.1494 111.465 70.0469 111.477 69.9444 111.477C69.8817 111.477 69.8305 111.477 69.7678 111.477C69.392 111.488 69.0161 111.494 68.6346 111.499C68.4751 111.499 68.3157 111.499 68.1562 111.499H67.0287C66.8635 111.499 66.7098 111.499 66.5503 111.499C66.1745 111.499 65.7929 111.488 65.4228 111.477C65.3601 111.477 65.3032 111.477 65.2405 111.465C65.1437 111.465 65.0412 111.465 64.9444 111.454C64.8875 111.454 64.8305 111.454 64.7793 111.454C64.4547 111.442 64.1301 111.425 63.8168 111.414C63.6574 111.403 63.4979 111.403 63.3385 111.391C63.1107 111.38 62.8829 111.363 62.6608 111.346C62.5128 111.334 62.359 111.323 62.2109 111.317H62.1995C62.0401 111.306 61.8863 111.294 61.7383 111.283C61.351 111.254 60.9752 111.22 60.605 111.186L60.1267 111.135H60.0811C59.9217 111.118 59.7679 111.101 59.6198 111.089C59.4091 111.061 59.2041 111.038 59.0048 111.01C58.8397 110.987 58.6859 110.964 58.5264 110.947C58.1677 110.896 57.8317 110.844 57.5071 110.782C57.4729 110.782 57.4331 110.77 57.3989 110.765C57.2793 110.748 57.1597 110.725 57.0401 110.702C57.0003 110.702 56.9604 110.691 56.9205 110.679C56.5105 110.6 56.1347 110.514 55.7873 110.429C55.6221 110.383 55.4627 110.343 55.3089 110.298C55.1722 110.258 55.0413 110.218 54.916 110.178C54.7508 110.121 54.5971 110.064 54.4547 110.007C54.3579 109.967 54.2668 109.928 54.1814 109.888C53.9877 109.797 53.8283 109.706 53.703 109.614C53.4695 109.438 53.3442 109.256 53.3442 109.068V105.879H81.8521L81.8691 105.89Z" fill="#CD7302" stroke="#21002A" stroke-width="0.051701" stroke-linecap="round" stroke-linejoin="round"/>
<path d="M54.9388 105.89V110.19C54.7737 110.133 54.6199 110.076 54.4775 110.019V105.89H54.9388Z" fill="#A26024"/>
<path d="M57.5187 105.89V110.793C57.4846 110.793 57.4447 110.782 57.4105 110.776C57.2909 110.759 57.1713 110.737 57.0518 110.714V105.89H57.513H57.5187Z" fill="#A26024"/>
<path d="M60.0985 105.89V111.147C59.939 111.129 59.7853 111.112 59.6372 111.101V105.896H60.0985V105.89Z" fill="#A26024"/>
<path d="M62.6834 105.89V111.357C62.5354 111.346 62.3816 111.334 62.2336 111.329H62.2222V105.89H62.6834Z" fill="#A26024"/>
<path d="M65.263 105.89V111.477C65.1662 111.477 65.0637 111.477 64.9669 111.465C64.91 111.465 64.853 111.465 64.8018 111.465V105.896H65.263V105.89Z" fill="#A26024"/>
<path d="M67.8485 105.89H67.3872V111.511H67.8485V105.89Z" fill="#A26024"/>
<path d="M70.4284 105.89V111.46C70.3714 111.46 70.3202 111.46 70.2633 111.46C70.1664 111.46 70.0639 111.471 69.9614 111.471V105.884H70.4227L70.4284 105.89Z" fill="#A26024"/>
<path d="M73.0082 105.89V111.329H72.9968C72.8487 111.34 72.6949 111.352 72.5469 111.357V105.89H73.0082Z" fill="#A26024"/>
<path d="M75.5936 105.89V111.095C75.4455 111.107 75.2918 111.124 75.1323 111.141V105.884H75.5936V105.89Z" fill="#A26024"/>
<path d="M78.1732 105.89V110.714C78.0593 110.742 77.9397 110.759 77.8201 110.776C77.7859 110.776 77.7518 110.788 77.7119 110.793V105.89H78.1732Z" fill="#A26024"/>
<path d="M80.7586 105.89V110.025C80.6163 110.082 80.4682 110.139 80.2974 110.19V105.89H80.7586Z" fill="#A26024"/>
<path d="M81.8691 105.89C81.8691 107.155 76.1801 108.191 68.9136 108.305C68.4865 108.305 68.0537 108.316 67.6152 108.316C59.7451 108.316 53.3613 107.229 53.3613 105.89C53.3613 104.552 59.7451 103.464 67.6152 103.464C70.4854 103.464 73.1619 103.612 75.3942 103.857C79.2894 104.29 81.8634 105.042 81.8634 105.89H81.8691Z" fill="#F7DC4B" stroke="#12183E" stroke-width="0.0465309" stroke-linecap="round" stroke-linejoin="round"/>
<path d="M79.6992 105.685C79.6992 105.776 79.6195 105.867 79.4771 105.953C78.4008 106.591 73.4976 107.075 67.615 107.075C61.7323 107.075 56.8292 106.591 55.7529 105.953C55.6048 105.867 55.5308 105.776 55.5308 105.685C55.5308 104.916 60.9408 104.296 67.615 104.296C74.2892 104.296 79.6992 104.916 79.6992 105.685Z" fill="#C8782B" stroke="#12183E" stroke-width="0.0465309" stroke-linecap="round" stroke-linejoin="round"/>
<path d="M79.4777 105.947C78.4014 106.585 73.4982 107.069 67.6155 107.069C61.7329 107.069 56.8297 106.585 55.7534 105.947C56.8297 105.309 61.7329 104.825 67.6155 104.825C73.4982 104.825 78.4014 105.309 79.4777 105.947Z" fill="#F4C243" stroke="#12183E" stroke-width="0.0568711" stroke-linecap="round" stroke-linejoin="round"/>
<path opacity="0.5" d="M81.8694 105.89C81.8694 107.154 76.1804 108.191 68.9139 108.305C66.1235 107.997 64.0107 107.524 63.0312 106.966C64.4435 107.029 65.9925 107.069 67.6098 107.069C73.4925 107.069 78.3956 106.585 79.4719 105.947C79.62 105.862 79.694 105.77 79.694 105.679C79.694 104.939 74.7168 104.341 68.4242 104.296C70.4287 104.051 72.8148 103.897 75.4002 103.851C79.2954 104.284 81.8694 105.036 81.8694 105.884V105.89Z" fill="#F8E292"/>
<path opacity="0.49" d="M81.8688 105.89C81.8688 106.346 81.1228 106.784 79.7162 107.171C78.8563 107.405 77.7629 107.616 76.4816 107.786L72.5693 106.949C76.0944 106.767 78.7253 106.397 79.477 105.947C79.4429 105.924 79.4087 105.907 79.3631 105.884H81.8688V105.89Z" fill="#FFFCE4"/>
<path d="M84.2158 102.132V105.321C84.2158 105.509 84.0905 105.691 83.857 105.867C83.7261 105.964 83.5723 106.05 83.3787 106.141C83.2933 106.186 83.1965 106.22 83.0996 106.266C82.9573 106.323 82.8092 106.38 82.6384 106.431C82.5131 106.471 82.3821 106.511 82.2454 106.551C82.0974 106.596 81.9379 106.636 81.7671 106.682C81.4254 106.767 81.0439 106.852 80.6395 106.932C80.594 106.944 80.5598 106.949 80.5142 106.955C80.4004 106.983 80.2808 107.001 80.1612 107.018C80.127 107.018 80.0928 107.029 80.053 107.035C79.7284 107.097 79.3867 107.149 79.0279 107.2C78.8742 107.223 78.7147 107.245 78.5496 107.263C78.3502 107.291 78.1395 107.314 77.9288 107.342C77.7808 107.354 77.627 107.371 77.4676 107.388H77.4163C77.2626 107.405 77.1031 107.422 76.938 107.439C76.5735 107.473 76.1976 107.502 75.8104 107.536C75.6566 107.547 75.4972 107.564 75.3434 107.57H75.332C75.184 107.581 75.0302 107.593 74.8822 107.599C74.6601 107.616 74.4323 107.627 74.1988 107.644C74.0393 107.655 73.8799 107.655 73.7204 107.667C73.4015 107.678 73.0826 107.695 72.758 107.707C72.7011 107.707 72.6498 107.707 72.5929 107.707C72.4961 107.707 72.3936 107.718 72.2911 107.718C72.2284 107.718 72.1772 107.718 72.1145 107.718C71.7387 107.729 71.3628 107.735 70.9813 107.741C70.8218 107.741 70.6624 107.741 70.5029 107.741H69.3754C69.2102 107.741 69.0564 107.741 68.897 107.741C68.5211 107.741 68.1396 107.729 67.7694 107.718C67.7068 107.718 67.6498 107.718 67.5872 107.707C67.4904 107.707 67.3879 107.707 67.2911 107.695C67.2341 107.695 67.1772 107.695 67.1259 107.695C66.8013 107.684 66.4767 107.667 66.1635 107.655C66.0041 107.644 65.8446 107.644 65.6852 107.633C65.4574 107.621 65.2296 107.604 65.0075 107.587C64.8594 107.576 64.7057 107.564 64.5576 107.559H64.5462C64.3868 107.547 64.233 107.536 64.0849 107.524C63.6977 107.496 63.3219 107.462 62.9517 107.428L62.4733 107.376H62.4278C62.2683 107.359 62.1146 107.342 61.9665 107.331C61.7558 107.302 61.5508 107.28 61.3515 107.251C61.1863 107.228 61.0326 107.206 60.8731 107.188C60.5144 107.137 60.1784 107.086 59.8538 107.023C59.8196 107.023 59.7797 107.012 59.7456 107.006C59.626 106.989 59.5064 106.966 59.3868 106.944C59.3469 106.944 59.3071 106.932 59.2672 106.921C58.8572 106.841 58.4813 106.756 58.134 106.67C57.9688 106.625 57.8094 106.585 57.6556 106.539C57.5189 106.499 57.3879 106.46 57.2627 106.42C57.0975 106.363 56.9438 106.306 56.8014 106.249C56.7046 106.209 56.6135 106.169 56.528 106.129C56.3344 106.038 56.175 105.947 56.0497 105.856C55.8162 105.679 55.6909 105.497 55.6909 105.309V102.12H84.1987L84.2158 102.132Z" fill="#CD7302" stroke="#21002A" stroke-width="0.051701" stroke-linecap="round" stroke-linejoin="round"/>
<path d="M57.2855 102.132V106.431C57.1203 106.374 56.9666 106.317 56.8242 106.26V102.132H57.2855Z" fill="#A26024"/>
<path d="M59.8654 102.132V107.035C59.8312 107.035 59.7914 107.023 59.7572 107.018C59.6376 107.001 59.518 106.978 59.3984 106.955V102.132H59.8597H59.8654Z" fill="#A26024"/>
<path d="M62.4505 102.132V107.388C62.2911 107.371 62.1373 107.354 61.9893 107.342V102.137H62.4505V102.132Z" fill="#A26024"/>
<path d="M65.0296 102.132V107.598C64.8816 107.587 64.7278 107.576 64.5797 107.57H64.5684V102.132H65.0296Z" fill="#A26024"/>
<path d="M67.6156 102.132V107.718C67.5188 107.718 67.4163 107.718 67.3194 107.707C67.2625 107.707 67.2055 107.707 67.1543 107.707V102.137H67.6156V102.132Z" fill="#A26024"/>
<path d="M70.1947 102.132H69.7334V107.752H70.1947V102.132Z" fill="#A26024"/>
<path d="M72.7746 102.132V107.701C72.7176 107.701 72.6664 107.701 72.6094 107.701C72.5126 107.701 72.4101 107.713 72.3076 107.713V102.126H72.7689L72.7746 102.132Z" fill="#A26024"/>
<path d="M75.3602 102.132V107.57H75.3488C75.2007 107.581 75.047 107.593 74.8989 107.598V102.132H75.3602Z" fill="#A26024"/>
<path d="M77.9398 102.132V107.337C77.7917 107.348 77.638 107.365 77.4785 107.382V102.126H77.9398V102.132Z" fill="#A26024"/>
<path d="M80.5257 102.132V106.955C80.4118 106.983 80.2922 107.001 80.1727 107.018C80.1385 107.018 80.1043 107.029 80.0645 107.035V102.132H80.5257Z" fill="#A26024"/>
<path d="M83.1048 102.132V106.266C82.9625 106.323 82.8144 106.38 82.6436 106.431V102.132H83.1048Z" fill="#A26024"/>
<path d="M84.2158 102.137C84.2158 103.402 78.5268 104.438 71.2603 104.552C70.8332 104.552 70.4004 104.563 69.9619 104.563C62.0918 104.563 55.708 103.476 55.708 102.137C55.708 100.799 62.0918 99.7114 69.9619 99.7114C72.8321 99.7114 75.5086 99.8595 77.7409 100.104C81.6361 100.537 84.2101 101.289 84.2101 102.137H84.2158Z" fill="#F7DC4B" stroke="#12183E" stroke-width="0.0465309" stroke-linecap="round" stroke-linejoin="round"/>
<path d="M82.0459 101.927C82.0459 102.018 81.9662 102.109 81.8238 102.194C80.7475 102.832 75.8443 103.316 69.9617 103.316C64.079 103.316 59.1758 102.832 58.0995 102.194C57.9515 102.109 57.8774 102.018 57.8774 101.927C57.8774 101.158 63.2874 100.537 69.9617 100.537C76.6359 100.537 82.0459 101.158 82.0459 101.927Z" fill="#C8782B" stroke="#12183E" stroke-width="0.0465309" stroke-linecap="round" stroke-linejoin="round"/>
<path d="M81.8234 102.194C80.7471 102.832 75.8439 103.316 69.9612 103.316C64.0786 103.316 59.1754 102.832 58.0991 102.194C59.1754 101.557 64.0786 101.072 69.9612 101.072C75.8439 101.072 80.7471 101.557 81.8234 102.194Z" fill="#F4C243" stroke="#12183E" stroke-width="0.0568711" stroke-linecap="round" stroke-linejoin="round"/>
<path opacity="0.5" d="M84.2156 102.137C84.2156 103.402 78.5266 104.438 71.2601 104.552C68.4697 104.245 66.3569 103.772 65.3774 103.214C66.7897 103.276 68.3387 103.316 69.956 103.316C75.8387 103.316 80.7418 102.832 81.8181 102.194C81.9662 102.109 82.0402 102.018 82.0402 101.927C82.0402 101.186 77.063 100.589 70.7704 100.543C72.7749 100.298 75.161 100.144 77.7464 100.099C81.6416 100.532 84.2156 101.283 84.2156 102.132V102.137Z" fill="#F8E292"/>
<path opacity="0.49" d="M84.2155 102.137C84.2155 102.593 83.4695 103.031 82.0629 103.419C81.203 103.652 80.1096 103.863 78.8283 104.034L74.916 103.196C78.4411 103.014 81.072 102.644 81.8237 102.194C81.7896 102.171 81.7554 102.154 81.7098 102.132H84.2155V102.137Z" fill="#FFFCE4"/>
<path d="M114.255 81.904C108.378 80.412 107.74 79.609 107.456 73.4815C105.969 79.4439 105.172 80.0931 99.1299 80.3949C105.007 81.8869 105.645 82.6899 105.929 88.8174C107.416 82.855 108.213 82.2058 114.255 81.904Z" fill="white" stroke="#0E1844" stroke-width="0.0723814" stroke-linecap="round" stroke-linejoin="round"/>
</svg>
