<svg width="130" height="130" viewBox="0 0 130 130" fill="none" xmlns="http://www.w3.org/2000/svg">
<path d="M51.6152 99.9957L81.3402 97.3609V70.701L52.0239 68.0662L51.6152 100.001V99.9957Z" fill="#301A3E" stroke="#0E1844" stroke-width="0.113499" stroke-linecap="round" stroke-linejoin="round"/>
<path d="M51.6153 99.9957L15.6582 99.1999V69.8837L32.1876 50.6658L52.0185 68.0609L51.6099 99.9957H51.6153Z" fill="white" stroke="#061A48" stroke-width="0.143368" stroke-linecap="round" stroke-linejoin="round"/>
<path d="M40.0169 99.7107L29.3701 99.4848V77.3901H40.0169V99.7107Z" fill="#1C032B" stroke="#1D0228" stroke-width="0.191157" stroke-linecap="round" stroke-linejoin="round"/>
<path d="M40.0165 99.7107L31.0312 99.5225V77.3901H40.0165V99.7107Z" fill="#23DB88" stroke="#1D0228" stroke-width="0.191157" stroke-linecap="round" stroke-linejoin="round"/>
<path opacity="0.7" d="M51.8408 81.1326L81.3399 78.1106V73.2174L52.0236 74.0455L51.8408 81.1326Z" fill="#1C032B"/>
<path d="M15.6576 74.5024L12.7324 78.3525L15.6576 78.4331V74.5024Z" fill="#1C032B"/>
<path d="M33.6025 48.7838L54.6434 76.7289L87.1214 74.1478L64.2254 49.058L33.6025 48.7838Z" fill="#BB4AE1" stroke="#1D0228" stroke-width="0.191157" stroke-linecap="round" stroke-linejoin="round"/>
<path d="M10.3672 76.2019L33.6019 48.7838L54.6427 76.7289L52.067 78.1914L33.3008 53.2684L12.7815 78.2936L10.3672 76.2019Z" fill="white" stroke="#1D0228" stroke-width="0.191157" stroke-linecap="round" stroke-linejoin="round"/>
<path d="M33.3007 53.2681L35.5268 56.2685L15.6582 79.8634V74.7121L33.3007 53.2681Z" fill="#1C032B"/>
<path d="M30.8308 36.7951C31.4869 32.1277 32.0299 31.5631 36.6274 30.8426C32.0299 30.1758 31.4653 29.6273 30.7556 24.96C30.0995 29.6273 29.5565 30.1919 24.959 30.9125C29.5565 31.5792 30.1211 32.1277 30.8308 36.7951Z" fill="white" stroke="#001B42" stroke-width="0.0896047" stroke-miterlimit="10"/>
<path d="M18.807 58.8252C20.9041 50.5283 22.0011 49.6142 30.4432 49.2109C22.2753 47.1084 21.3666 46.0007 20.9955 37.4403C18.8985 45.7372 17.8015 46.6514 9.35938 47.0493C17.5273 49.1517 18.436 50.2594 18.807 58.8199V58.8252Z" fill="white" stroke="#001B42" stroke-width="0.137394" stroke-miterlimit="10"/>
<path d="M54.6421 76.7285L87.1201 74.1475L84.8079 75.6692L52.0664 78.1911L54.6421 76.7285Z" fill="#1C032B" stroke="#1D0228" stroke-width="0.19144"/>
<path d="M81.1382 42.3634C81.1382 42.3634 87.7897 44.9068 95.8985 42.3634H81.1382Z" fill="white"/>
<path d="M81.1382 42.3634C81.1382 42.3634 87.7897 44.9068 95.8985 42.3634" stroke="#101841" stroke-width="0.24492" stroke-miterlimit="10"/>
<path d="M95.9466 100.808C111.882 100.808 124.8 98.3039 124.8 95.2154C124.8 92.1269 111.882 89.6232 95.9466 89.6232C80.0111 89.6232 67.0928 92.1269 67.0928 95.2154C67.0928 98.3039 80.0111 100.808 95.9466 100.808Z" fill="#21002A" stroke="#21002A" stroke-width="0.101552" stroke-linejoin="round"/>
<path d="M114.499 79.7614C114.499 79.7614 111.939 65.27 95.899 42.358C95.899 42.358 98.6091 35.9376 100.572 32.991C102.534 30.0443 100.819 29.27 100.819 29.27C98.7812 28.1569 91.6134 33.6362 86.5912 32.9802C83.4885 32.5715 76.224 28.5817 74.6861 30.5659C73.5354 32.0446 80.7032 42.3633 80.7032 42.3633C80.7032 42.3633 62.9747 65.0872 60.6195 80.0733C60.6195 80.0733 55.2746 102.668 88.5646 101.388C88.5646 101.388 119.037 103.2 114.504 79.7668L114.499 79.7614Z" fill="white" stroke="#0E1844" stroke-width="0.200592" stroke-linecap="round" stroke-linejoin="round"/>
<path d="M98.8726 58.9464C98.2489 58.9464 97.7058 58.4947 97.6036 57.871C96.7487 52.7788 96.0927 50.7893 94.829 47.6167C95.727 51.1227 94.6731 54.6823 94.5655 54.892C94.2537 55.5265 93.4794 55.8008 92.8287 55.4728C92.1835 55.1609 91.92 54.3866 92.2319 53.7359C92.2588 53.6822 93.517 47.2726 91.8608 43.0193C91.8608 43.0193 93.8934 42.944 94.4741 43.1483C94.8237 43.2666 98.2489 46.9123 100.142 57.43C100.26 58.1291 99.7921 58.8012 99.077 58.9195C99.0017 58.9195 99.077 58.9303 98.9963 58.9303L98.8726 58.9464Z" fill="#BB4AE1" stroke="#21002A" stroke-width="0.119473" stroke-miterlimit="10"/>
<path d="M87.8276 89.8974C95.9417 89.8974 102.518 83.3534 102.518 75.2877C102.518 67.222 95.9417 60.6726 87.8276 60.6726C79.7135 60.6726 73.1372 67.2166 73.1372 75.2877C73.1372 83.3588 79.7135 89.8974 87.8276 89.8974Z" fill="#23DB88" stroke="#0E1844" stroke-width="0.16" stroke-linecap="round" stroke-linejoin="round"/>
<path d="M93.662 70.8351V68.4476H81.187V70.8351H86.876C87.3546 71.1308 87.7579 71.803 87.9353 72.5934H81.187V74.9809H87.6557C87.5482 75.1637 87.4138 75.3411 87.2417 75.5025C86.1394 76.551 84.9564 76.7123 83.3271 76.5134V78.5621L89.656 85.0146L91.253 83.3047L86.5911 78.5567C87.4729 78.2771 88.2203 77.8308 88.828 77.2231C89.441 76.6101 89.8765 75.8412 90.1131 74.9809H93.6674V72.5934H90.2637C90.1776 71.9804 90.0109 71.3836 89.7582 70.8351H93.6674H93.662Z" fill="white" stroke="#21002A" stroke-width="0.16" stroke-miterlimit="10"/>
<path d="M79.3427 43.8153C79.3427 43.8153 86.9298 42.2613 97.383 43.412C97.5228 43.4282 97.668 43.3905 97.7809 43.3045C98.6036 42.6915 98.2756 41.4064 97.2378 41.2988C97.2378 41.2988 86.4835 40.1642 79.3534 41.9387C78.3909 42.1807 78.407 43.5035 79.3427 43.8153Z" fill="#BB4AE1" stroke="#21002A" stroke-width="0.119473" stroke-miterlimit="10"/>
<path d="M79.67 41.8899C79.67 41.8899 86.9023 40.3574 96.8716 41.5296C97.006 41.5458 97.1404 41.5081 97.248 41.4275C98.033 40.8199 97.7158 39.5347 96.7264 39.4218C96.7264 39.4218 86.4668 38.2603 79.6754 40.0187C78.7559 40.2553 78.7774 41.5834 79.67 41.8953V41.8899Z" fill="#BB4AE1" stroke="#21002A" stroke-width="0.119473" stroke-miterlimit="10"/>
</svg>
