<svg width="130" height="130" viewBox="0 0 130 130" fill="none" xmlns="http://www.w3.org/2000/svg">
<path d="M13.7793 93.2096V97.4881C13.7793 97.7385 13.9338 97.9836 14.2215 98.218C14.3814 98.3459 14.5785 98.4631 14.8129 98.5857C14.9195 98.6443 15.0367 98.6976 15.1593 98.7562C15.3351 98.8308 15.5216 98.9054 15.7294 98.9799C15.8839 99.0279 16.0491 99.0918 16.2196 99.1398C16.4061 99.1984 16.6032 99.257 16.811 99.3156C17.2372 99.4275 17.7114 99.5447 18.2069 99.646C18.2602 99.6619 18.3082 99.6673 18.3615 99.6726C18.5053 99.7099 18.6492 99.7365 18.7984 99.7579C18.841 99.7579 18.8836 99.7738 18.9316 99.7792C19.3365 99.8591 19.7628 99.9283 20.1997 99.9976C20.3915 100.024 20.5886 100.056 20.7911 100.083C21.0415 100.12 21.2972 100.152 21.5637 100.189C21.7501 100.205 21.9366 100.232 22.1338 100.253C22.1551 100.253 22.1764 100.253 22.1977 100.253C22.3895 100.275 22.5866 100.301 22.7891 100.323C23.242 100.365 23.7109 100.408 24.1904 100.451C24.3822 100.466 24.5794 100.488 24.7658 100.498H24.7765L25.3306 100.541C25.6077 100.562 25.8847 100.584 26.1725 100.6C26.3696 100.616 26.5667 100.616 26.7639 100.626C27.1582 100.642 27.5578 100.669 27.9627 100.674C28.032 100.674 28.0959 100.674 28.1652 100.674C28.2877 100.674 28.4156 100.69 28.5381 100.69C28.6127 100.69 28.682 100.69 28.7566 100.69C29.2201 100.706 29.689 100.712 30.1632 100.717C30.3603 100.717 30.5575 100.717 30.7546 100.717H32.1559C32.3584 100.717 32.5555 100.717 32.7473 100.717C33.2162 100.717 33.6851 100.701 34.1486 100.69C34.2232 100.69 34.2978 100.69 34.3724 100.674C34.4949 100.674 34.6175 100.674 34.74 100.658C34.8093 100.658 34.8786 100.658 34.9478 100.658C35.3528 100.642 35.7471 100.621 36.1467 100.61C36.3438 100.594 36.5409 100.594 36.7381 100.584C37.0205 100.568 37.3029 100.546 37.5746 100.525L38.1287 100.482H38.1447C38.3418 100.472 38.5336 100.456 38.7201 100.435C39.1997 100.392 39.6632 100.355 40.1268 100.307L40.7182 100.237C40.7182 100.237 40.7555 100.237 40.7768 100.237C40.9739 100.216 41.1657 100.189 41.3522 100.173C41.6133 100.136 41.869 100.104 42.1195 100.067C42.3219 100.04 42.5191 100.008 42.7162 99.9816C43.1584 99.9124 43.5794 99.8431 43.9843 99.7632C44.0269 99.7632 44.0749 99.7472 44.1175 99.7419C44.2667 99.7206 44.4159 99.6939 44.5597 99.6566C44.6077 99.6566 44.661 99.6406 44.7089 99.63C45.2151 99.5234 45.684 99.4115 46.1155 99.2996C46.3233 99.241 46.5205 99.1824 46.707 99.1238C46.8775 99.0759 47.0373 99.0172 47.1918 98.964C47.3996 98.8894 47.5914 98.8148 47.7672 98.7349C47.8898 98.6869 48.0017 98.6283 48.1082 98.575C48.348 98.4578 48.5452 98.3352 48.6997 98.2074C48.9927 97.9676 49.1472 97.7278 49.1472 97.4774V93.199H13.7793V93.2096Z" fill="#CF7302" stroke="#101841" stroke-width="0.0687004" stroke-linecap="round" stroke-linejoin="round"/>
<path d="M47.1592 93.2096V98.9746C47.367 98.9 47.5588 98.8254 47.7346 98.7455V93.2096H47.1592Z" fill="#A55C0B"/>
<path d="M43.9619 93.2096V99.7845C44.0045 99.7845 44.0525 99.7685 44.0951 99.7631C44.2443 99.7418 44.3935 99.7152 44.5373 99.6779V93.2149H43.9619V93.2096Z" fill="#A55C0B"/>
<path d="M40.7656 93.2096V100.253C40.9628 100.232 41.1546 100.205 41.3411 100.189V93.2096H40.7656Z" fill="#A55C0B"/>
<path d="M37.5639 93.2096V100.541L38.118 100.498H38.134V93.2096H37.5586H37.5639Z" fill="#A55C0B"/>
<path d="M34.3604 93.2096V100.696C34.4829 100.696 34.6054 100.696 34.728 100.68C34.7973 100.68 34.8665 100.68 34.9358 100.68V93.2096H34.3604Z" fill="#A55C0B"/>
<path d="M31.1592 93.2096H31.7346V100.744H31.1592V93.2096Z" fill="#A55C0B"/>
<path d="M27.9561 93.2097V100.68C28.0253 100.68 28.0893 100.68 28.1585 100.68C28.2811 100.68 28.4089 100.696 28.5315 100.696V93.2043H27.9561V93.2097Z" fill="#A55C0B"/>
<path d="M24.7588 93.2096V100.498H24.7694C24.9559 100.514 25.1424 100.525 25.3289 100.541V93.2096H24.7588Z" fill="#A55C0B"/>
<path d="M21.5576 93.2096V100.189C21.7441 100.205 21.9306 100.232 22.1277 100.253V93.2096H21.5576Z" fill="#A55C0B"/>
<path d="M18.3559 93.2099V99.6729C18.4998 99.7102 18.6436 99.7368 18.7875 99.7581C18.8301 99.7581 18.8727 99.7741 18.9207 99.7795V93.2046H18.3506L18.3559 93.2099Z" fill="#A55C0B"/>
<path d="M15.1543 93.2096V98.7508C15.3301 98.8254 15.5166 98.9 15.7244 98.9746V93.2096H15.1543Z" fill="#A55C0B"/>
<path d="M13.7793 93.2095C13.7793 94.9092 20.8337 96.2998 29.8382 96.449C30.371 96.4597 30.9038 96.465 31.4473 96.465C41.203 96.465 49.1152 95.0104 49.1152 93.2149C49.1152 91.4193 41.2083 89.9647 31.4473 89.9647C27.8881 89.9647 24.574 90.1619 21.8034 90.4922C16.9708 91.073 13.7846 92.08 13.7846 93.2202H13.7793V93.2095Z" fill="#F6D40F" stroke="#101841" stroke-width="0.0898389" stroke-linecap="round" stroke-linejoin="round"/>
<path d="M16.4697 92.9325C16.4697 93.055 16.5603 93.1722 16.7415 93.2894C18.0788 94.1473 24.1528 94.7973 31.4417 94.7973C38.7305 94.7973 44.8099 94.1473 46.1472 93.2894C46.3284 93.1775 46.419 93.055 46.419 92.9325C46.419 91.8988 39.7109 91.0676 31.447 91.0676C23.1831 91.0676 16.4751 91.9041 16.4751 92.9325H16.4697Z" fill="#CE7303" stroke="#101841" stroke-width="0.0898389" stroke-linecap="round" stroke-linejoin="round"/>
<path d="M16.7471 93.2892C18.0844 94.147 24.1585 94.7971 31.4473 94.7971C38.7361 94.7971 44.8155 94.147 46.1528 93.2892C44.8155 92.4314 38.7415 91.7814 31.4473 91.7814C24.1531 91.7814 18.0844 92.4314 16.7471 93.2892Z" fill="#F6B90B" stroke="#101841" stroke-width="0.100408" stroke-linecap="round" stroke-linejoin="round"/>
<path opacity="0.5" d="M13.7793 93.2093C13.7793 94.909 20.8337 96.2996 29.8382 96.4488C33.2961 96.0332 35.9175 95.3992 37.127 94.6586C35.3741 94.7492 33.456 94.7971 31.4473 94.7971C24.1584 94.7971 18.0844 94.1471 16.747 93.2893C16.5659 93.1774 16.4753 93.0602 16.4753 92.9323C16.4753 91.9413 22.6453 91.1367 30.4509 91.0728C27.9734 90.7478 25.0109 90.5346 21.8087 90.4867C16.9762 91.0675 13.79 92.0745 13.79 93.2147H13.7793V93.2093Z" fill="#F6DA80"/>
<path opacity="0.49" d="M13.7793 93.2096C13.7793 93.817 14.7011 94.4137 16.4433 94.9306C17.509 95.2449 18.8676 95.5273 20.4554 95.7618L25.304 94.6375C20.9349 94.3924 17.6795 93.8969 16.7417 93.2948C16.7843 93.2682 16.8323 93.2416 16.8802 93.2149H13.7793V93.2096Z" fill="#FFF5DA"/>
<path d="M15.3027 87.9131V92.1916C15.3027 92.442 15.4572 92.6871 15.745 92.9215C15.9048 93.0494 16.1019 93.1666 16.3364 93.2892C16.4429 93.3478 16.5602 93.4011 16.6827 93.4597C16.8585 93.5343 17.045 93.6088 17.2528 93.6834C17.4073 93.7314 17.5725 93.7953 17.743 93.8433C17.9295 93.9019 18.1266 93.9605 18.3344 94.0191C18.7607 94.131 19.2349 94.2482 19.7304 94.3494C19.7837 94.3654 19.8316 94.3708 19.8849 94.3761C20.0288 94.4134 20.1726 94.44 20.3218 94.4613C20.3644 94.4613 20.4071 94.4773 20.455 94.4827C20.8599 94.5626 21.2862 94.6318 21.7231 94.7011C21.9149 94.7277 22.112 94.7597 22.3145 94.7864C22.5649 94.8237 22.8207 94.8556 23.0871 94.8929C23.2736 94.9089 23.4601 94.9355 23.6572 94.9569C23.6785 94.9569 23.6998 94.9569 23.7211 94.9569C23.9129 94.9782 24.1101 95.0048 24.3126 95.0261C24.7654 95.0687 25.2343 95.1114 25.7138 95.154C25.9057 95.17 26.1028 95.1913 26.2893 95.2019H26.2999L26.8541 95.2446C27.1311 95.2659 27.4082 95.2872 27.6959 95.3032C27.893 95.3192 28.0902 95.3192 28.2873 95.3298C28.6816 95.3458 29.0812 95.3724 29.4861 95.3778C29.5554 95.3778 29.6193 95.3778 29.6886 95.3778C29.8112 95.3778 29.939 95.3938 30.0616 95.3938C30.1362 95.3938 30.2054 95.3938 30.28 95.3938C30.7436 95.4097 31.2124 95.4151 31.6866 95.4204C31.8838 95.4204 32.0809 95.4204 32.2781 95.4204H33.6794C33.8818 95.4204 34.079 95.4204 34.2708 95.4204C34.7396 95.4204 35.2085 95.4044 35.6721 95.3938C35.7467 95.3938 35.8212 95.3938 35.8958 95.3778C36.0184 95.3778 36.1409 95.3778 36.2635 95.3618C36.3327 95.3618 36.402 95.3618 36.4713 95.3618C36.8762 95.3458 37.2705 95.3245 37.6701 95.3138C37.8672 95.2979 38.0644 95.2979 38.2615 95.2872C38.5439 95.2712 38.8263 95.2499 39.098 95.2286L39.6522 95.186H39.6681C39.8653 95.1753 40.0571 95.1593 40.2436 95.138C40.7231 95.0954 41.1866 95.0581 41.6502 95.0101L42.2416 94.9409C42.2416 94.9409 42.2789 94.9409 42.3002 94.9409C42.4974 94.9196 42.6892 94.8929 42.8757 94.8769C43.1367 94.8396 43.3925 94.8077 43.6429 94.7704C43.8454 94.7437 44.0425 94.7118 44.2396 94.6851C44.6819 94.6159 45.1028 94.5466 45.5077 94.4667C45.5504 94.4667 45.5983 94.4507 45.6409 94.4454C45.7901 94.424 45.9393 94.3974 46.0832 94.3601C46.1311 94.3601 46.1844 94.3441 46.2324 94.3335C46.7385 94.2269 47.2074 94.115 47.639 94.0031C47.8468 93.9445 48.0439 93.8859 48.2304 93.8273C48.4009 93.7793 48.5607 93.7207 48.7153 93.6675C48.923 93.5929 49.1149 93.5183 49.2907 93.4384C49.4132 93.3904 49.5251 93.3318 49.6317 93.2785C49.8714 93.1613 50.0686 93.0387 50.2231 92.9109C50.5162 92.6711 50.6707 92.4313 50.6707 92.1809V87.9025H15.3027V87.9131Z" fill="#CF7302" stroke="#101841" stroke-width="0.0687004" stroke-linecap="round" stroke-linejoin="round"/>
<path d="M48.6836 87.9131V93.6781C48.8914 93.6035 49.0832 93.5289 49.259 93.449V87.9131H48.6836Z" fill="#A55C0B"/>
<path d="M45.4873 87.9133V94.4882C45.5299 94.4882 45.5779 94.4722 45.6205 94.4669C45.7697 94.4456 45.9189 94.4189 46.0627 94.3816V87.9187H45.4873V87.9133Z" fill="#A55C0B"/>
<path d="M42.291 87.9133V94.9571C42.4882 94.9357 42.68 94.9091 42.8664 94.8931V87.9133H42.291Z" fill="#A55C0B"/>
<path d="M39.0874 87.9133V95.2448L39.6415 95.2022H39.6575V87.9133H39.082H39.0874Z" fill="#A55C0B"/>
<path d="M35.8857 87.9133V95.3993C36.0083 95.3993 36.1308 95.3993 36.2534 95.3833C36.3226 95.3833 36.3919 95.3833 36.4612 95.3833V87.9133H35.8857Z" fill="#A55C0B"/>
<path d="M32.6836 87.9133H33.259V95.4472H32.6836V87.9133Z" fill="#A55C0B"/>
<path d="M29.4814 87.9134V95.3834C29.5507 95.3834 29.6146 95.3834 29.6839 95.3834C29.8065 95.3834 29.9343 95.3994 30.0569 95.3994V87.9081H29.4814V87.9134Z" fill="#A55C0B"/>
<path d="M26.2842 87.9133V95.2022H26.2948C26.4813 95.2181 26.6678 95.2288 26.8543 95.2448V87.9133H26.2842Z" fill="#A55C0B"/>
<path d="M23.0811 87.9131V94.8929C23.2675 94.9089 23.454 94.9355 23.6512 94.9568V87.9131H23.0811Z" fill="#A55C0B"/>
<path d="M19.8803 87.9134V94.3764C20.0242 94.4137 20.168 94.4403 20.3119 94.4616C20.3545 94.4616 20.3972 94.4776 20.4451 94.4829V87.9081H19.875L19.8803 87.9134Z" fill="#A55C0B"/>
<path d="M16.6777 87.9133V93.4545C16.8536 93.5291 17.04 93.6037 17.2478 93.6783V87.9133H16.6777Z" fill="#A55C0B"/>
<path d="M15.3027 87.9133C15.3027 89.6129 22.3571 91.0036 31.3616 91.1527C31.8944 91.1634 32.4272 91.1687 32.9707 91.1687C42.7265 91.1687 50.6387 89.7142 50.6387 87.9186C50.6387 86.123 42.7318 84.6685 32.9707 84.6685C29.4115 84.6685 26.0975 84.8656 23.3269 85.1959C18.4943 85.7767 15.3081 86.7837 15.3081 87.9239L15.3027 87.9133Z" fill="#F6D40F" stroke="#101841" stroke-width="0.0898389" stroke-linecap="round" stroke-linejoin="round"/>
<path d="M17.9932 87.6363C17.9932 87.7589 18.0837 87.8761 18.2649 87.9933C19.6023 88.8511 25.6763 89.5011 32.9651 89.5011C40.254 89.5011 46.3333 88.8511 47.6707 87.9933C47.8518 87.8814 47.9424 87.7589 47.9424 87.6363C47.9424 86.6027 41.2343 85.7715 32.9705 85.7715C24.7066 85.7715 17.9985 86.608 17.9985 87.6363H17.9932Z" fill="#CE7303" stroke="#101841" stroke-width="0.0898389" stroke-linecap="round" stroke-linejoin="round"/>
<path d="M18.2705 87.993C19.6079 88.8508 25.6819 89.5008 32.9707 89.5008C40.2596 89.5008 46.3389 88.8508 47.6763 87.993C46.3389 87.1351 40.2649 86.4851 32.9707 86.4851C25.6766 86.4851 19.6079 87.1351 18.2705 87.993Z" fill="#F6B90B" stroke="#101841" stroke-width="0.100408" stroke-linecap="round" stroke-linejoin="round"/>
<path opacity="0.5" d="M15.3027 87.9137C15.3027 89.6134 22.3571 91.004 31.3616 91.1532C34.8196 90.7376 37.441 90.1035 38.6505 89.3629C36.8975 89.4535 34.9794 89.5015 32.9707 89.5015C25.6819 89.5015 19.6078 88.8514 18.2705 87.9936C18.0893 87.8817 17.9988 87.7645 17.9988 87.6366C17.9988 86.6456 24.1687 85.8411 31.9744 85.7771C29.4968 85.4521 26.5344 85.239 23.3322 85.191C18.4996 85.7718 15.3134 86.7788 15.3134 87.919H15.3027V87.9137Z" fill="#F6DA80"/>
<path opacity="0.49" d="M15.3027 87.9133C15.3027 88.5207 16.2245 89.1175 17.9668 89.6343C19.0324 89.9487 20.3911 90.231 21.9788 90.4655L26.8274 89.3413C22.4584 89.0962 19.2029 88.6006 18.2652 87.9986C18.3078 87.9719 18.3557 87.9453 18.4037 87.9187H15.3027V87.9133Z" fill="#FFF5DA"/>
<path d="M13.7793 82.6225V86.9009C13.7793 87.1514 13.9338 87.3964 14.2215 87.6309C14.3814 87.7587 14.5785 87.876 14.8129 87.9985C14.9195 88.0571 15.0367 88.1104 15.1593 88.169C15.3351 88.2436 15.5216 88.3182 15.7294 88.3928C15.8839 88.4407 16.0491 88.5047 16.2196 88.5526C16.4061 88.6113 16.6032 88.6699 16.811 88.7285C17.2372 88.8404 17.7114 88.9576 18.2069 89.0588C18.2602 89.0748 18.3082 89.0801 18.3615 89.0855C18.5053 89.1227 18.6492 89.1494 18.7984 89.1707C18.841 89.1707 18.8836 89.1867 18.9316 89.192C19.3365 89.2719 19.7628 89.3412 20.1997 89.4105C20.3915 89.4371 20.5886 89.4691 20.7911 89.4957C21.0415 89.533 21.2972 89.565 21.5637 89.6023C21.7501 89.6183 21.9366 89.6449 22.1338 89.6662C22.1551 89.6662 22.1764 89.6662 22.1977 89.6662C22.3895 89.6875 22.5866 89.7142 22.7891 89.7355C23.242 89.7781 23.7109 89.8207 24.1904 89.8633C24.3822 89.8793 24.5794 89.9006 24.7658 89.9113H24.7765L25.3306 89.9539C25.6077 89.9752 25.8847 89.9965 26.1725 90.0125C26.3696 90.0285 26.5667 90.0285 26.7639 90.0392C27.1582 90.0552 27.5578 90.0818 27.9627 90.0871C28.032 90.0871 28.0959 90.0871 28.1652 90.0871C28.2877 90.0871 28.4156 90.1031 28.5381 90.1031C28.6127 90.1031 28.682 90.1031 28.7566 90.1031C29.2201 90.1191 29.689 90.1244 30.1632 90.1298C30.3603 90.1298 30.5575 90.1298 30.7546 90.1298H32.1559C32.3584 90.1298 32.5555 90.1298 32.7473 90.1298C33.2162 90.1298 33.6851 90.1138 34.1486 90.1031C34.2232 90.1031 34.2978 90.1031 34.3724 90.0871C34.4949 90.0871 34.6175 90.0871 34.74 90.0711C34.8093 90.0711 34.8786 90.0711 34.9478 90.0711C35.3528 90.0552 35.7471 90.0338 36.1467 90.0232C36.3438 90.0072 36.5409 90.0072 36.7381 89.9965C37.0205 89.9806 37.3029 89.9593 37.5746 89.9379L38.1287 89.8953H38.1447C38.3418 89.8847 38.5336 89.8687 38.7201 89.8474C39.1997 89.8047 39.6632 89.7674 40.1268 89.7195L40.7182 89.6502C40.7182 89.6502 40.7555 89.6502 40.7768 89.6502C40.9739 89.6289 41.1657 89.6023 41.3522 89.5863C41.6133 89.549 41.869 89.517 42.1195 89.4797C42.3219 89.4531 42.5191 89.4211 42.7162 89.3945C43.1584 89.3252 43.5794 89.2559 43.9843 89.176C44.0269 89.176 44.0749 89.16 44.1175 89.1547C44.2667 89.1334 44.4159 89.1068 44.5597 89.0695C44.6077 89.0695 44.661 89.0535 44.7089 89.0428C45.2151 88.9363 45.684 88.8244 46.1155 88.7125C46.3233 88.6539 46.5205 88.5953 46.707 88.5367C46.8775 88.4887 47.0373 88.4301 47.1918 88.3768C47.3996 88.3022 47.5914 88.2276 47.7672 88.1477C47.8898 88.0997 48.0017 88.0411 48.1082 87.9879C48.348 87.8706 48.5452 87.7481 48.6997 87.6202C48.9927 87.3805 49.1472 87.1407 49.1472 86.8903V82.6118H13.7793V82.6225Z" fill="#CF7302" stroke="#101841" stroke-width="0.0687004" stroke-linecap="round" stroke-linejoin="round"/>
<path d="M47.1592 82.6224V88.3874C47.367 88.3128 47.5588 88.2382 47.7346 88.1583V82.6224H47.1592Z" fill="#A55C0B"/>
<path d="M43.9619 82.6224V89.1973C44.0045 89.1973 44.0525 89.1813 44.0951 89.176C44.2443 89.1547 44.3935 89.128 44.5373 89.0907V82.6278H43.9619V82.6224Z" fill="#A55C0B"/>
<path d="M40.7656 82.6224V89.6662C40.9628 89.6449 41.1546 89.6182 41.3411 89.6022V82.6224H40.7656Z" fill="#A55C0B"/>
<path d="M37.5639 82.6224V89.9539L38.118 89.9113H38.134V82.6224H37.5586H37.5639Z" fill="#A55C0B"/>
<path d="M34.3604 82.6228V90.1088C34.4829 90.1088 34.6054 90.1088 34.728 90.0928C34.7973 90.0928 34.8665 90.0928 34.9358 90.0928V82.6228H34.3604Z" fill="#A55C0B"/>
<path d="M31.1592 82.6224H31.7346V90.1564H31.1592V82.6224Z" fill="#A55C0B"/>
<path d="M27.9561 82.6228V90.0927C28.0253 90.0927 28.0893 90.0927 28.1585 90.0927C28.2811 90.0927 28.4089 90.1087 28.5315 90.1087V82.6174H27.9561V82.6228Z" fill="#A55C0B"/>
<path d="M24.7588 82.6224V89.9113H24.7694C24.9559 89.9273 25.1424 89.9379 25.3289 89.9539V82.6224H24.7588Z" fill="#A55C0B"/>
<path d="M21.5576 82.6224V89.6022C21.7441 89.6182 21.9306 89.6449 22.1277 89.6662V82.6224H21.5576Z" fill="#A55C0B"/>
<path d="M18.3559 82.6228V89.0857C18.4998 89.123 18.6436 89.1497 18.7875 89.171C18.8301 89.171 18.8727 89.187 18.9207 89.1923V82.6174H18.3506L18.3559 82.6228Z" fill="#A55C0B"/>
<path d="M15.1543 82.6228V88.164C15.3301 88.2386 15.5166 88.3132 15.7244 88.3878V82.6228H15.1543Z" fill="#A55C0B"/>
<path d="M13.7793 82.6172C13.7793 84.3169 20.8337 85.7075 29.8382 85.8567C30.371 85.8674 30.9038 85.8727 31.4473 85.8727C41.203 85.8727 49.1152 84.4181 49.1152 82.6226C49.1152 80.827 41.2083 79.3724 31.4473 79.3724C27.8881 79.3724 24.574 79.5696 21.8034 79.8999C16.9708 80.4807 13.7846 81.4877 13.7846 82.6279H13.7793V82.6172Z" fill="#F6D40F" stroke="#101841" stroke-width="0.0898389" stroke-linecap="round" stroke-linejoin="round"/>
<path d="M16.4697 82.3405C16.4697 82.4631 16.5603 82.5803 16.7415 82.6975C18.0788 83.5553 24.1528 84.2054 31.4417 84.2054C38.7305 84.2054 44.8099 83.5553 46.1472 82.6975C46.3284 82.5856 46.419 82.4631 46.419 82.3405C46.419 81.3069 39.7109 80.4757 31.447 80.4757C23.1831 80.4757 16.4751 81.3122 16.4751 82.3405H16.4697Z" fill="#CE7303" stroke="#101841" stroke-width="0.0898389" stroke-linecap="round" stroke-linejoin="round"/>
<path d="M16.7471 82.7024C18.0844 83.5602 24.1585 84.2103 31.4473 84.2103C38.7361 84.2103 44.8155 83.5602 46.1528 82.7024C44.8155 81.8446 38.7415 81.1946 31.4473 81.1946C24.1531 81.1946 18.0844 81.8446 16.7471 82.7024Z" fill="#F6B90B" stroke="#101841" stroke-width="0.100408" stroke-linecap="round" stroke-linejoin="round"/>
<path opacity="0.5" d="M13.7793 82.6172C13.7793 84.3168 20.8337 85.7075 29.8382 85.8567C33.2961 85.4411 35.9175 84.807 37.127 84.0664C35.3741 84.157 33.456 84.205 31.4473 84.205C24.1584 84.205 18.0844 83.5549 16.747 82.6971C16.5659 82.5852 16.4753 82.468 16.4753 82.3401C16.4753 81.3491 22.6453 80.5446 30.4509 80.4806C27.9734 80.1556 25.0109 79.9425 21.8087 79.8945C16.9762 80.4753 13.79 81.4823 13.79 82.6225H13.7793V82.6172Z" fill="#F6DA80"/>
<path opacity="0.49" d="M13.7793 82.6224C13.7793 83.2298 14.7011 83.8266 16.4433 84.3434C17.509 84.6578 18.8676 84.9402 20.4554 85.1746L25.304 84.0504C20.9349 83.8053 17.6795 83.3098 16.7417 82.7077C16.7843 82.681 16.8323 82.6544 16.8802 82.6278H13.7793V82.6224Z" fill="#FFF5DA"/>
<path d="M15.8145 77.3265V81.6049C15.8145 81.8553 15.969 82.1004 16.2567 82.3349C16.4165 82.4627 16.6137 82.5799 16.8481 82.7025C16.9547 82.7611 17.0719 82.8144 17.1944 82.873C17.3703 82.9476 17.5567 83.0222 17.7645 83.0968C17.9191 83.1447 18.0842 83.2087 18.2547 83.2566C18.4412 83.3152 18.6383 83.3738 18.8461 83.4324C19.2724 83.5443 19.7466 83.6616 20.2421 83.7628C20.2954 83.7788 20.3433 83.7841 20.3966 83.7894C20.5405 83.8267 20.6843 83.8534 20.8335 83.8747C20.8761 83.8747 20.9188 83.8907 20.9667 83.896C21.3717 83.9759 21.7979 84.0452 22.2348 84.1144C22.4266 84.1411 22.6238 84.1731 22.8262 84.1997C23.0767 84.237 23.3324 84.269 23.5988 84.3063C23.7853 84.3222 23.9718 84.3489 24.1689 84.3702C24.1902 84.3702 24.2115 84.3702 24.2329 84.3702C24.4247 84.3915 24.6218 84.4181 24.8243 84.4395C25.2772 84.4821 25.746 84.5247 26.2256 84.5673C26.4174 84.5833 26.6145 84.6046 26.801 84.6153H26.8117L27.3658 84.6579C27.6428 84.6792 27.9199 84.7005 28.2076 84.7165C28.4048 84.7325 28.6019 84.7325 28.799 84.7432C29.1933 84.7591 29.5929 84.7858 29.9979 84.7911C30.0671 84.7911 30.1311 84.7911 30.2003 84.7911C30.3229 84.7911 30.4507 84.8071 30.5733 84.8071C30.6479 84.8071 30.7171 84.8071 30.7917 84.8071C31.2553 84.8231 31.7242 84.8284 32.1984 84.8337C32.3955 84.8337 32.5926 84.8337 32.7898 84.8337H34.1911C34.3935 84.8337 34.5907 84.8337 34.7825 84.8337C35.2514 84.8337 35.7202 84.8177 36.1838 84.8071C36.2584 84.8071 36.333 84.8071 36.4076 84.7911C36.5301 84.7911 36.6527 84.7911 36.7752 84.7751C36.8445 84.7751 36.9137 84.7751 36.983 84.7751C37.3879 84.7591 37.7822 84.7378 38.1818 84.7272C38.379 84.7112 38.5761 84.7112 38.7732 84.7005C39.0556 84.6845 39.338 84.6632 39.6097 84.6419L40.1639 84.5993H40.1799C40.377 84.5886 40.5688 84.5727 40.7553 84.5513C41.2348 84.5087 41.6984 84.4714 42.1619 84.4235L42.7533 84.3542C42.7533 84.3542 42.7906 84.3542 42.8119 84.3542C43.0091 84.3329 43.2009 84.3063 43.3874 84.2903C43.6484 84.253 43.9042 84.221 44.1546 84.1837C44.3571 84.1571 44.5542 84.1251 44.7514 84.0985C45.1936 84.0292 45.6145 83.9599 46.0195 83.88C46.0621 83.88 46.11 83.864 46.1527 83.8587C46.3018 83.8374 46.451 83.8107 46.5949 83.7734C46.6428 83.7734 46.6961 83.7575 46.7441 83.7468C47.2502 83.6402 47.7191 83.5284 48.1507 83.4165C48.3585 83.3579 48.5556 83.2992 48.7421 83.2406C48.9126 83.1927 49.0725 83.1341 49.227 83.0808C49.4348 83.0062 49.6266 82.9316 49.8024 82.8517C49.9249 82.8037 50.0368 82.7451 50.1434 82.6918C50.3832 82.5746 50.5803 82.4521 50.7348 82.3242C51.0279 82.0844 51.1824 81.8447 51.1824 81.5943V77.3158H15.8145V77.3265Z" fill="#CF7302" stroke="#101841" stroke-width="0.0687004" stroke-linecap="round" stroke-linejoin="round"/>
<path d="M49.1953 77.3263V83.0913C49.4031 83.0167 49.5949 82.9421 49.7707 82.8622V77.3263H49.1953Z" fill="#A55C0B"/>
<path d="M45.999 77.3263V83.9012C46.0416 83.9012 46.0896 83.8852 46.1322 83.8798C46.2814 83.8585 46.4306 83.8319 46.5745 83.7946V77.3316H45.999V77.3263Z" fill="#A55C0B"/>
<path d="M42.7959 77.3263V84.37C42.993 84.3487 43.1848 84.3221 43.3713 84.3061V77.3263H42.7959Z" fill="#A55C0B"/>
<path d="M39.5932 77.3263V84.6578L40.1473 84.6151H40.1633V77.3263H39.5879H39.5932Z" fill="#A55C0B"/>
<path d="M36.3906 77.3263V84.8123C36.5132 84.8123 36.6357 84.8123 36.7583 84.7963C36.8275 84.7963 36.8968 84.7963 36.9661 84.7963V77.3263H36.3906Z" fill="#A55C0B"/>
<path d="M33.1885 77.3263H33.7639V84.8602H33.1885V77.3263Z" fill="#A55C0B"/>
<path d="M29.9873 77.3265V84.7965C30.0566 84.7965 30.1205 84.7965 30.1898 84.7965C30.3123 84.7965 30.4402 84.8125 30.5627 84.8125V77.3212H29.9873V77.3265Z" fill="#A55C0B"/>
<path d="M26.7891 77.3263V84.6151H26.7997C26.9862 84.6311 27.1727 84.6418 27.3592 84.6578V77.3263H26.7891Z" fill="#A55C0B"/>
<path d="M23.5879 77.3265V84.3063C23.7744 84.3223 23.9609 84.349 24.158 84.3703V77.3265H23.5879Z" fill="#A55C0B"/>
<path d="M20.3911 77.3265V83.7895C20.5349 83.8268 20.6788 83.8534 20.8226 83.8747C20.8653 83.8747 20.9079 83.8907 20.9558 83.896V77.3212H20.3857L20.3911 77.3265Z" fill="#A55C0B"/>
<path d="M17.1885 77.3265V82.8678C17.3643 82.9423 17.5508 83.0169 17.7586 83.0915V77.3265H17.1885Z" fill="#A55C0B"/>
<path d="M15.8145 77.3265C15.8145 79.0261 22.8689 80.4168 31.8733 80.566C32.4062 80.5766 32.939 80.5819 33.4824 80.5819C43.2382 80.5819 51.1504 79.1274 51.1504 77.3318C51.1504 75.5362 43.2435 74.0817 33.4824 74.0817C29.9233 74.0817 26.6092 74.2788 23.8386 74.6091C19.006 75.1899 15.8198 76.1969 15.8198 77.3371L15.8145 77.3265Z" fill="#F6D40F" stroke="#101841" stroke-width="0.0898389" stroke-linecap="round" stroke-linejoin="round"/>
<path d="M18.5049 77.0443C18.5049 77.1668 18.5955 77.284 18.7766 77.4013C20.114 78.2591 26.188 78.9091 33.4768 78.9091C40.7657 78.9091 46.845 78.2591 48.1824 77.4013C48.3635 77.2894 48.4541 77.1668 48.4541 77.0443C48.4541 76.0106 41.746 75.1794 33.4822 75.1794C25.2183 75.1794 18.5102 76.016 18.5102 77.0443H18.5049Z" fill="#CE7303" stroke="#101841" stroke-width="0.0898389" stroke-linecap="round" stroke-linejoin="round"/>
<path d="M18.7764 77.4062C20.1137 78.264 26.1878 78.914 33.4766 78.914C40.7654 78.914 46.8448 78.264 48.1821 77.4062C46.8448 76.5483 40.7708 75.8983 33.4766 75.8983C26.1824 75.8983 20.1137 76.5483 18.7764 77.4062Z" fill="#F6B90B" stroke="#101841" stroke-width="0.100408" stroke-linecap="round" stroke-linejoin="round"/>
<path opacity="0.5" d="M15.8145 77.3263C15.8145 79.0259 22.8689 80.4166 31.8733 80.5658C35.3313 80.1502 37.9527 79.5161 39.1622 78.7755C37.4092 78.8661 35.4911 78.9141 33.4824 78.9141C26.1936 78.9141 20.1196 78.264 18.7822 77.4062C18.601 77.2943 18.5105 77.1771 18.5105 77.0492C18.5105 76.0582 24.6804 75.2537 32.4861 75.1897C30.0085 74.8647 27.0461 74.6516 23.8439 74.6036C19.0113 75.1844 15.8251 76.1914 15.8251 77.3316H15.8145V77.3263Z" fill="#F6DA80"/>
<path opacity="0.49" d="M15.8145 77.3265C15.8145 77.9339 16.7362 78.5307 18.4785 79.0475C19.5441 79.3619 20.9028 79.6443 22.4906 79.8787L27.3391 78.7545C22.9701 78.5094 19.7146 78.0139 18.7769 77.4118C18.8195 77.3851 18.8675 77.3585 18.9154 77.3319H15.8145V77.3265Z" fill="#FFF5DA"/>
<path d="M58.1387 36.5526C58.1387 36.5526 66.0503 39.5816 75.7058 36.5526H58.1387Z" fill="white"/>
<path d="M58.1387 36.5526C58.1387 36.5526 66.0503 39.5816 75.7058 36.5526" stroke="#101841" stroke-width="0.165851" stroke-miterlimit="10"/>
<path d="M79.2353 56.2882C78.4948 56.2882 77.8498 55.7483 77.7256 55.0078C76.708 48.9498 75.9244 46.5802 74.4195 42.8059C75.4849 46.9815 74.2332 51.2144 74.109 51.4628C73.7411 52.2177 72.8142 52.5426 72.0403 52.1556C71.2711 51.7877 70.9606 50.8609 71.3332 50.0917C71.3619 50.0296 72.733 44.1293 70.7599 39.0699C70.2344 38.5778 71.4718 37.9997 71.4718 37.9997C71.8587 37.3834 72.6136 37.1063 73.3063 37.3499C73.722 37.4885 78.5521 41.5446 80.745 54.4822C80.8835 55.3135 80.3293 56.1162 79.4789 56.2547C79.3882 56.2547 79.4742 56.2643 79.3786 56.2643L79.2305 56.2834L79.2353 56.2882Z" fill="#22CF80" stroke="#21002A" stroke-width="0.165851" stroke-miterlimit="10"/>
<path d="M83.0812 108.765C105.404 108.765 123.499 105.112 123.499 100.605C123.499 96.0983 105.404 92.4449 83.0812 92.4449C60.7589 92.4449 42.6631 96.0983 42.6631 100.605C42.6631 105.112 60.7589 108.765 83.0812 108.765Z" fill="#21002A" stroke="#21002A" stroke-width="0.104249" stroke-linejoin="round"/>
<path d="M97.8349 81.0604C97.8349 81.0604 94.7916 63.8134 75.7004 36.5527C75.7004 36.5527 78.9253 28.9086 81.2615 25.4067C83.5977 21.9 81.5529 20.9779 81.5529 20.9779C79.1259 19.6545 70.5932 26.1759 64.6213 25.3924C60.9282 24.9051 52.2809 20.161 50.451 22.5211C49.0847 24.284 57.6126 36.5575 57.6126 36.5575C57.6126 36.5575 36.5149 61.0377 33.7105 78.8675C33.7105 78.8675 25.5743 107.523 66.9623 106.792C66.9623 106.792 103.224 108.947 97.8301 81.0652L97.8349 81.0604Z" fill="white" stroke="#0E1844" stroke-width="0.189544" stroke-linecap="round" stroke-linejoin="round"/>
<path d="M62.2555 91.8382C71.9109 91.8382 79.7366 84.0508 79.7366 74.4479C79.7366 64.845 71.9109 57.0576 62.2555 57.0576C52.6001 57.0576 44.7744 64.845 44.7744 74.4479C44.7744 84.0508 52.6001 91.8382 62.2555 91.8382Z" fill="#23DB88" stroke="#0E1844" stroke-width="0.165851" stroke-linecap="round" stroke-linejoin="round"/>
<path d="M69.1974 69.1543V66.3116H54.3535V69.1543H61.1233C61.6918 69.5078 62.1744 70.3057 62.3846 71.2421H54.3535V74.0847H62.0502C61.9259 74.2997 61.7635 74.5147 61.5581 74.7058C60.249 75.9575 58.8396 76.1438 56.9 75.9097V78.3463L64.4342 86.0238L66.3356 83.9934L60.7889 78.3415C61.84 78.0119 62.7286 77.4816 63.45 76.7554C64.1762 76.0244 64.6969 75.1071 64.9788 74.0895H69.2069V71.2469H65.1556C65.0552 70.5207 64.8546 69.8088 64.5536 69.1591H69.2069H69.2022L69.1974 69.1543Z" fill="white" stroke="#21002A" stroke-width="0.165851" stroke-miterlimit="10"/>
<path d="M55.4314 37.8933C55.4314 37.8933 65.1812 39.8963 78.3959 36.9338C78.5763 36.8917 78.7568 36.9478 78.9063 37.0808C79.9942 38.0684 79.6642 40.3375 78.3546 40.6247C78.3546 40.6247 64.7584 43.5942 55.5757 41.164C54.3332 40.8348 54.2661 38.5236 55.4365 37.9003L55.4314 37.8933Z" fill="#BB4AE1" stroke="#21002A" stroke-width="0.165851" stroke-miterlimit="10"/>
<path d="M55.4282 34.7733C55.4282 34.7733 65.1799 36.7763 78.3931 33.8138C78.5715 33.7717 78.7554 33.8278 78.9069 33.9608C79.994 34.9484 79.6641 37.2175 78.3552 37.5047C78.3552 37.5047 64.758 40.4742 55.5742 38.044C54.3356 37.7148 54.2653 35.4036 55.4336 34.7803L55.4282 34.7733Z" fill="#BB4AE1" stroke="#21002A" stroke-width="0.165851" stroke-miterlimit="10"/>
<path d="M103.88 91.0341C103.949 91.2519 104.012 91.475 104.07 91.6976C105.968 98.6744 104.313 105.107 100.232 106.231C99.2551 106.501 98.2271 106.442 97.1959 106.103C96.8938 106.01 96.6047 105.889 96.3061 105.745C93.1939 104.255 90.1811 100.315 88.6358 95.2465C87.678 92.0968 87.4495 89.0248 87.8478 86.4664C88.3589 83.1587 89.9165 80.7073 92.2886 80.0498C93.5862 79.6894 94.9735 79.9072 96.34 80.5946C98.8075 81.8336 101.2 84.593 102.831 88.2315C103.123 88.8796 103.391 89.5595 103.629 90.2656C103.718 90.5184 103.802 90.7764 103.88 91.0341Z" fill="#1C032B"/>
<path d="M94.8388 78.5148L94.4471 77.9049L92.3992 78.996C92.1922 79.0911 91.9908 79.1974 91.7949 79.3205C89.5904 80.7306 88.7399 83.7297 89.1931 87.2995C89.54 90.058 90.6759 93.1578 92.5559 96.1122C95.5886 100.874 99.7851 104.013 103.355 104.595C103.696 104.651 104.032 104.684 104.357 104.69C105.498 104.723 106.55 104.466 107.456 103.89L110.109 102.474L109.465 101.467C110.937 98.1433 110.103 92.7773 107.076 87.7191C106.953 87.5065 106.824 87.2995 106.695 87.0981C106.539 86.8575 106.382 86.6113 106.22 86.3819C105.772 85.7272 105.302 85.1117 104.821 84.5298C102.113 81.2789 98.8898 79.1639 96.0418 78.6435C95.6334 78.5708 95.2305 78.526 94.8388 78.5204V78.5148Z" fill="#D96D00" stroke="#0E1844" stroke-width="0.077696" stroke-linecap="round" stroke-linejoin="round"/>
<path d="M111.194 99.5866C111.278 99.5306 111.384 99.5474 111.44 99.6313C111.496 99.7153 111.479 99.816 111.401 99.8719L109.599 101.131L104.513 104.684C104.463 104.69 104.412 104.684 104.362 104.684C104.222 104.684 104.082 104.673 103.942 104.656L109.784 100.571L111.2 99.581L111.194 99.5866Z" fill="#AD5700"/>
<path d="M110.242 97.7904C110.304 97.8687 110.281 97.975 110.203 98.031L110.169 98.059L101.541 104.091C101.413 104.046 101.284 103.99 101.155 103.934L110.002 97.7512C110.052 97.7232 110.113 97.7121 110.169 97.7344C110.197 97.7512 110.22 97.768 110.242 97.796V97.7904Z" fill="#AD5700"/>
<path d="M109.05 95.9441C109.106 96.0281 109.089 96.1344 109.005 96.1903L99.303 102.977C99.1855 102.91 99.0792 102.849 98.9785 102.776L108.804 95.8994C108.888 95.8434 108.994 95.8714 109.05 95.9441Z" fill="#AD5700"/>
<path d="M107.607 94.064C107.685 94.008 107.791 94.0248 107.847 94.1031C107.903 94.187 107.886 94.2934 107.808 94.3437L97.4006 101.618C97.3055 101.551 97.2104 101.467 97.1152 101.388L107.607 94.0584V94.064Z" fill="#AD5700"/>
<path d="M106.404 92.2177C106.488 92.1617 106.594 92.1785 106.65 92.2624C106.706 92.3464 106.689 92.4471 106.611 92.503L95.7394 100.101C95.6554 100.023 95.5715 99.9392 95.4932 99.8553L106.41 92.2177H106.404Z" fill="#AD5700"/>
<path d="M105.206 90.376C105.29 90.32 105.396 90.3368 105.447 90.4151C105.497 90.4935 105.48 90.6054 105.402 90.6613L94.2504 98.4556C94.1721 98.3717 94.105 98.2766 94.0322 98.1871L105.201 90.3816L105.206 90.376Z" fill="#AD5700"/>
<path d="M104.249 88.5803C104.305 88.6642 104.289 88.7705 104.205 88.8265L92.9468 96.7047C92.8797 96.6096 92.8125 96.5089 92.751 96.4082L104.003 88.5355C104.087 88.4796 104.193 88.4964 104.249 88.5803Z" fill="#AD5700"/>
<path d="M102.806 86.7007C102.89 86.6447 102.996 86.6615 103.047 86.7398C103.097 86.8182 103.08 86.9245 103.008 86.9804L91.7889 94.8195C91.733 94.7188 91.6715 94.6181 91.6211 94.5174L102.806 86.6951V86.7007Z" fill="#AD5700"/>
<path d="M101.61 84.8539C101.689 84.7923 101.795 84.8147 101.851 84.893C101.912 84.9714 101.89 85.0777 101.812 85.1336L90.8 92.8328C90.7497 92.7209 90.6993 92.6146 90.6602 92.5027L101.616 84.8483L101.61 84.8539Z" fill="#AD5700"/>
<path d="M100.657 83.053C100.713 83.137 100.685 83.2433 100.612 83.2992L89.9869 90.7299C89.9477 90.6124 89.9142 90.4949 89.875 90.3774L100.411 83.0139C100.495 82.9579 100.601 82.9859 100.657 83.0586V83.053Z" fill="#AD5700"/>
<path d="M99.4542 81.212C99.5102 81.2959 99.4934 81.4022 99.4094 81.4582L89.3826 88.4635C89.3546 88.3404 89.3322 88.2117 89.3154 88.0886L99.2136 81.1672C99.2919 81.1057 99.3983 81.128 99.4542 81.2064V81.212Z" fill="#AD5700"/>
<path d="M98.1844 79.3146C98.1844 79.3146 98.2348 79.3481 98.2572 79.3761C98.3131 79.46 98.2907 79.5608 98.218 79.6167L89.0864 85.9954C89.0808 85.8555 89.0808 85.7156 89.0752 85.5757L98.011 79.3258C98.0613 79.2922 98.1285 79.2866 98.1788 79.309L98.1844 79.3146Z" fill="#AD5700"/>
<path d="M96.82 77.4849C96.8928 77.4289 97.0047 77.4513 97.0606 77.524C97.1166 77.608 97.0998 77.7143 97.0159 77.7702L95.8353 78.5984L89.3223 83.1586C89.3614 82.9739 89.4118 82.806 89.4621 82.6326L95.3261 78.5368L96.8256 77.4905L96.82 77.4849Z" fill="#AD5700"/>
<path d="M109.34 85.6713C109.474 85.8784 109.603 86.091 109.726 86.298C113.682 92.9173 113.894 100.057 110.106 102.469C109.2 103.045 108.148 103.302 107.007 103.269C106.677 103.263 106.346 103.23 106.005 103.174C102.43 102.592 98.2387 99.4527 95.2004 94.6966C93.3148 91.7423 92.1845 88.6425 91.8376 85.8839C91.3844 82.3141 92.2349 79.3094 94.4395 77.905C95.6425 77.1384 97.1029 76.937 98.6863 77.228C101.54 77.7483 104.757 79.8634 107.465 83.1143C107.952 83.6962 108.422 84.3117 108.864 84.9663C109.027 85.2013 109.189 85.4419 109.34 85.6825V85.6713Z" fill="#FACF00" stroke="#0E1844" stroke-width="0.0943452" stroke-linecap="round" stroke-linejoin="round"/>
<path d="M95.9027 80.1818C99.0809 78.1563 104.514 80.9932 108.039 86.5158C111.558 92.044 111.844 98.1653 108.66 100.196C108.515 100.286 108.369 100.37 108.212 100.437C104.99 101.959 99.8866 99.1333 96.5238 93.8569C93.105 88.4965 92.7357 82.5655 95.6341 80.3665C95.6341 80.3609 95.6341 80.3553 95.6341 80.3553C95.7181 80.2938 95.802 80.2322 95.8915 80.1762L95.9027 80.1818Z" fill="#D96D00" stroke="#0E1844" stroke-width="0.0610469" stroke-linecap="round" stroke-linejoin="round"/>
<path d="M95.6397 80.361C98.8626 78.8279 103.977 81.6535 107.34 86.9355C110.764 92.3126 111.128 98.2549 108.212 100.437C104.99 101.959 99.8866 99.1334 96.5238 93.857C93.105 88.4966 92.7357 82.5656 95.6341 80.3666C95.6341 80.361 95.6341 80.3554 95.6341 80.3554L95.6397 80.361Z" fill="#FFB200" stroke="#0E1844" stroke-width="0.0665966" stroke-linecap="round" stroke-linejoin="round"/>
<path d="M99.8729 84.0836C100.985 76.2467 101.902 75.2979 109.627 74.0926C101.905 72.9638 100.959 72.035 99.7804 64.1983C98.6683 72.0353 97.7509 72.9841 90.0266 74.1894C97.7487 75.3181 98.6943 76.2469 99.8729 84.0836Z" fill="white" stroke="#25002C" stroke-width="0.182888" stroke-miterlimit="10"/>
<path d="M18.1554 80.6956C19.3284 72.2747 20.3137 71.2509 28.6098 69.9435C20.3113 68.7506 19.2933 67.7563 18.0046 59.3374C16.8315 67.7583 15.8462 68.7821 7.5454 70.0889C15.8439 71.2818 16.8619 72.2761 18.1506 80.695L18.1554 80.6956Z" fill="white" stroke="#25002C" stroke-width="0.165851" stroke-miterlimit="10"/>
</svg>
