<svg width="130" height="130" viewBox="0 0 130 130" fill="none" xmlns="http://www.w3.org/2000/svg">
<path d="M25.6201 104.343L62.2058 120.34C62.4367 120.438 62.697 120.443 62.9327 120.35L113.172 100.876C113.742 100.65 113.688 99.8247 113.094 99.6774L95.2257 95.1686L25.6152 104.343H25.6201Z" fill="#21002A"/>
<path d="M54.1404 47.5274L14.5391 60.2776L54.1404 75.3854L97.0324 60.1696L54.1404 47.5274Z" fill="#21002A" stroke="#001B4B" stroke-width="0.192125" stroke-linecap="round" stroke-linejoin="round"/>
<path d="M79.3481 63.6321C79.1696 63.3696 78.9648 63.1176 78.7286 62.8761C77.1064 61.1857 74.2452 59.9572 70.8486 59.5793C70.2396 59.511 69.6149 59.4743 68.9797 59.4638C68.7487 59.4585 68.5177 59.4638 68.2814 59.4638C68.082 59.4638 67.8877 59.4743 67.6882 59.4795C62.9319 59.6895 58.942 61.5217 57.3566 63.9944L56.3906 64.0101L56.6164 66.425C56.6321 67.2912 56.9261 68.1155 57.4563 68.8662C57.6086 69.0814 57.7766 69.2967 57.9708 69.4962C59.9552 71.6486 63.9346 73.0765 68.4967 73.003C71.3263 72.9558 73.9197 72.3363 75.9357 71.3493C78.5448 70.0684 80.188 68.1575 80.1565 66.047C80.1565 65.8633 80.1355 65.6795 80.104 65.4958L79.9308 63.6321L79.3481 63.6426V63.6321Z" fill="#D96D00" stroke="#0E1844" stroke-width="0.0334455" stroke-linecap="round" stroke-linejoin="round"/>
<path d="M57.8604 61.9835L57.8237 63.3747L57.6714 69.1285C57.5979 69.0392 57.5297 68.95 57.4667 68.8607C57.4457 68.824 57.4194 68.7925 57.3984 68.7557L57.5297 63.7474L57.5717 61.9677C57.5717 61.889 57.6347 61.8312 57.7134 61.8312C57.7922 61.8312 57.8552 61.8995 57.8552 61.9782L57.8604 61.9835Z" fill="#AD5700"/>
<path d="M59.5728 61.8527C59.6096 61.8789 59.6306 61.9209 59.6358 61.9734L59.4101 70.6881C59.3156 70.6251 59.2211 70.5674 59.1318 70.4991L59.3576 61.9997V61.9682C59.3576 61.8894 59.4311 61.8264 59.5046 61.8317C59.5308 61.8317 59.5571 61.8422 59.5781 61.8579L59.5728 61.8527Z" fill="#AD5700"/>
<path d="M61.4105 61.9626L61.1532 71.6433C61.0587 71.6065 60.9642 71.5645 60.875 71.5173L61.127 61.9574C61.127 61.8786 61.1952 61.8156 61.274 61.8156C61.3527 61.8156 61.4157 61.8839 61.4157 61.9626H61.4105Z" fill="#AD5700"/>
<path d="M63.1844 61.9467L62.9114 72.2784C62.8117 72.2521 62.7172 72.2206 62.6279 72.1891L62.8957 61.9362C62.8957 61.8627 62.9639 61.7997 63.0427 61.7997C63.1214 61.7997 63.1792 61.8627 63.1792 61.9415L63.1844 61.9467Z" fill="#AD5700"/>
<path d="M64.9586 61.9362L64.6698 72.6931C64.5753 72.6774 64.4808 72.6564 64.3916 72.6354L64.6751 61.9257C64.6751 61.847 64.7381 61.7892 64.8168 61.7892C64.8956 61.7892 64.9586 61.8575 64.9586 61.9362Z" fill="#AD5700"/>
<path d="M66.7334 61.9255L66.4446 72.9291C66.3501 72.9186 66.2556 72.9134 66.1611 72.9029L66.4499 61.9202C66.4499 61.8415 66.5181 61.7838 66.6021 61.7838C66.6756 61.7838 66.7386 61.852 66.7386 61.9307L66.7334 61.9255Z" fill="#AD5700"/>
<path d="M68.5125 61.915L68.2186 73.0026C68.1241 73.0026 68.0296 73.0026 67.9351 73.0026L68.2291 61.9098C68.2291 61.831 68.2973 61.768 68.376 61.768C68.4548 61.768 68.5178 61.8363 68.5178 61.915H68.5125Z" fill="#AD5700"/>
<path d="M70.2881 61.8994L69.9941 72.9188C69.9048 72.9293 69.8051 72.9346 69.7158 72.9398L70.0046 61.8889C70.0046 61.8102 70.0728 61.7524 70.1516 61.7524C70.2251 61.7524 70.2881 61.8154 70.2881 61.8942V61.8994Z" fill="#AD5700"/>
<path d="M72.0558 61.8884L71.7723 72.6768C71.683 72.6978 71.5885 72.7083 71.4888 72.7293L71.7723 61.8779C71.7723 61.7991 71.8405 61.7361 71.914 61.7414C71.9928 61.7414 72.0558 61.8096 72.0505 61.8831L72.0558 61.8884Z" fill="#AD5700"/>
<path d="M73.8357 61.8731L73.5627 72.252C73.4682 72.2782 73.3737 72.3045 73.2739 72.336L73.5522 61.8626C73.5522 61.7838 73.6204 61.7208 73.6992 61.7208C73.7779 61.7208 73.8409 61.7891 73.8409 61.8678L73.8357 61.8731Z" fill="#AD5700"/>
<path d="M75.6101 61.8624L75.3528 71.6166C75.2636 71.6586 75.1638 71.7006 75.0693 71.7374L75.3266 61.8572C75.3266 61.7785 75.3948 61.7155 75.4736 61.7155C75.5523 61.7155 75.6153 61.7837 75.6101 61.8572V61.8624Z" fill="#AD5700"/>
<path d="M77.3215 61.7316C77.3582 61.7578 77.3845 61.8051 77.3845 61.8523L77.1535 70.6563C77.059 70.714 76.9645 70.777 76.8647 70.8348L77.0957 61.8418C77.0957 61.7631 77.1587 61.7053 77.2375 61.7053C77.2637 61.7053 77.29 61.7158 77.311 61.7316H77.3215Z" fill="#AD5700"/>
<path d="M79.1588 61.8419L79.122 63.3171L78.9698 69.0919C78.8805 69.2022 78.7808 69.3124 78.6758 69.4174L78.849 62.9969L78.8805 61.8314C78.8805 61.7527 78.9488 61.6897 79.0275 61.6897C79.1063 61.6897 79.164 61.7579 79.164 61.8367L79.1588 61.8419Z" fill="#AD5700"/>
<path d="M68.0611 57.0433C68.2973 57.0433 68.5283 57.0433 68.7541 57.0433C69.3893 57.0538 70.014 57.0958 70.623 57.1588C74.0249 57.5368 76.8808 58.7653 78.503 60.4557C79.4007 61.3902 79.9152 62.4664 79.9362 63.6161C79.9677 65.7265 78.3245 67.6375 75.7153 68.9184C73.6994 69.9106 71.106 70.5301 68.2763 70.5774C63.7143 70.6509 59.7349 69.2229 57.7505 67.0705C57.5615 66.8657 57.3882 66.6558 57.236 66.4405C56.7058 65.6898 56.4065 64.8656 56.396 63.9993C56.3383 60.377 61.2416 57.3373 67.4626 57.0538C67.6569 57.0433 67.8564 57.0381 68.0559 57.0381L68.0611 57.0433Z" fill="#FACF00" stroke="#0E1844" stroke-width="0.0430013" stroke-linecap="round" stroke-linejoin="round"/>
<path d="M77.7515 63.6583C77.7515 63.7476 77.7515 63.8316 77.7463 63.9103C77.7463 63.9103 77.7463 63.9103 77.7463 63.9156C77.5573 66.845 73.3942 69.2389 68.2599 69.3176C63.2095 69.4016 59.0307 67.2177 58.6212 64.3723C58.6002 64.2358 58.5897 64.0993 58.5845 63.9628C58.532 60.9179 62.7896 58.3823 68.0814 58.293C73.3732 58.209 77.7043 60.6082 77.7515 63.6531V63.6583Z" fill="#D96D00" stroke="#0E1844" stroke-width="0.0286675" stroke-linecap="round" stroke-linejoin="round"/>
<path d="M77.7471 63.9153C77.5581 66.85 73.395 69.2439 68.2607 69.3279C63.2104 69.4119 59.0316 67.228 58.6221 64.3826C58.7953 61.4479 62.9584 59.0435 68.1085 58.9595C73.164 58.8755 77.3429 61.0594 77.7471 63.9206V63.9153Z" fill="#FFB200" stroke="#0E1844" stroke-width="0.0286675" stroke-linecap="round" stroke-linejoin="round"/>
<path opacity="0.49" d="M62.9001 59.2643C61.2674 59.8995 59.9812 60.8129 59.2568 61.8839C58.59 61.7317 57.8551 61.5584 57.2461 61.4114C57.9863 60.3352 59.1885 59.3902 60.711 58.6553L62.9001 59.2643Z" fill="#FFF0D3"/>
<path d="M95.4319 67.251C95.2403 66.976 95.0242 66.7058 94.7786 66.4504C93.0694 64.6676 90.0538 63.3709 86.4684 62.9731C85.8299 62.8994 85.1718 62.8602 84.494 62.8503C84.2484 62.8454 84.0028 62.8503 83.7573 62.8503C83.5461 62.8503 83.3398 62.8602 83.1335 62.87C78.114 63.0959 73.9097 65.0212 72.2398 67.6292L71.2231 67.6439L71.4638 70.193C71.4785 71.1065 71.788 71.9759 72.3528 72.7715C72.51 72.9975 72.6917 73.2234 72.893 73.4395C74.9903 75.7086 79.1847 77.2164 83.9979 77.1379C86.9841 77.0887 89.7149 76.4355 91.8416 75.3894C94.592 74.0387 96.3307 72.0201 96.2963 69.7952C96.2963 69.5987 96.2717 69.4072 96.2423 69.2156L96.0556 67.251L95.4368 67.2608L95.4319 67.251Z" fill="#D96D00" stroke="#0E1844" stroke-width="0.0312901" stroke-linecap="round" stroke-linejoin="round"/>
<path d="M72.7651 65.5129L72.7258 66.9815L72.5637 73.0521C72.4851 72.9588 72.4164 72.8654 72.3476 72.7721C72.323 72.7377 72.2985 72.7034 72.2739 72.6641L72.4114 67.3793L72.4606 65.5031C72.4606 65.4196 72.5293 65.3558 72.6128 65.3607C72.6963 65.3607 72.7602 65.4343 72.7602 65.5129H72.7651Z" fill="#AD5700"/>
<path d="M74.5672 65.3753C74.6065 65.3998 74.631 65.4489 74.631 65.503L74.3904 74.6973C74.2921 74.6334 74.189 74.5696 74.1006 74.4959L74.3363 65.5324V65.498C74.3412 65.4146 74.41 65.3507 74.4935 65.3556C74.523 65.3556 74.5524 65.3654 74.5721 65.3851L74.5672 65.3753Z" fill="#AD5700"/>
<path d="M76.5077 65.4879L76.2327 75.6989C76.1345 75.6596 76.0362 75.6154 75.938 75.5614L76.2032 65.4781C76.2032 65.3946 76.2769 65.3307 76.3555 65.3307C76.439 65.3307 76.5028 65.4044 76.5028 65.483L76.5077 65.4879Z" fill="#AD5700"/>
<path d="M78.3794 65.4732L78.0945 76.3718C77.9914 76.3423 77.8932 76.3128 77.7949 76.2785L78.0798 65.4634C78.0798 65.3897 78.1535 65.3209 78.232 65.3209C78.3155 65.3209 78.3794 65.3897 78.3745 65.4732H78.3794Z" fill="#AD5700"/>
<path d="M80.2501 65.4636L79.9456 76.8091C79.8473 76.7944 79.7491 76.7698 79.6509 76.7502L79.9505 65.4537C79.9505 65.3702 80.0192 65.3064 80.1027 65.3113C80.1862 65.3113 80.2501 65.385 80.2501 65.4636Z" fill="#AD5700"/>
<path d="M82.1217 65.4538L81.8171 77.0596C81.714 77.0498 81.6158 77.0449 81.5225 77.0302L81.827 65.4489C81.827 65.3654 81.9006 65.3015 81.9841 65.3015C82.0578 65.3015 82.1266 65.3752 82.1266 65.4538H82.1217Z" fill="#AD5700"/>
<path d="M83.9977 65.4388L83.6834 77.1331C83.5802 77.1331 83.482 77.1331 83.3838 77.1331L83.6981 65.4339C83.6981 65.3504 83.7718 65.2866 83.8504 65.2866C83.9339 65.2866 83.9977 65.3602 83.9977 65.4388Z" fill="#AD5700"/>
<path d="M85.8692 65.4245L85.5598 77.05C85.4616 77.0598 85.3634 77.0697 85.2651 77.0746L85.5696 65.4196C85.5696 65.3361 85.6433 65.2772 85.7219 65.2772C85.8005 65.2772 85.8693 65.3459 85.8643 65.4294L85.8692 65.4245Z" fill="#AD5700"/>
<path d="M87.7408 65.4144L87.4412 76.7943C87.343 76.814 87.2447 76.8287 87.1416 76.8484L87.4412 65.4046C87.4412 65.3211 87.5149 65.2573 87.5935 65.2622C87.677 65.2622 87.7408 65.3358 87.7359 65.4144H87.7408Z" fill="#AD5700"/>
<path d="M89.6168 65.3996L89.327 76.3473C89.2238 76.3768 89.1256 76.4063 89.0225 76.4308L89.3122 65.3849C89.3122 65.3014 89.3859 65.2375 89.4645 65.2375C89.548 65.2375 89.6118 65.3112 89.6118 65.3898L89.6168 65.3996Z" fill="#AD5700"/>
<path d="M91.4833 65.3851L91.2132 75.6698C91.1199 75.714 91.0118 75.7582 90.9136 75.7975L91.1837 65.3802C91.1837 65.2967 91.2574 65.2328 91.336 65.2328C91.4195 65.2328 91.4833 65.3065 91.4784 65.3851H91.4833Z" fill="#AD5700"/>
<path d="M93.2914 65.2472C93.3307 65.2718 93.3601 65.3258 93.3601 65.3749L93.1146 74.6626C93.0163 74.7264 92.9132 74.7903 92.8101 74.8492L93.0556 65.3651C93.0556 65.2816 93.1244 65.2178 93.2079 65.2227C93.2374 65.2227 93.2668 65.2325 93.2865 65.2521L93.2914 65.2472Z" fill="#AD5700"/>
<path d="M95.2256 65.36L95.1863 66.912L95.0292 73.0072C94.9309 73.125 94.8327 73.238 94.7197 73.351L94.9014 66.5829L94.9358 65.355C94.9358 65.2716 95.0095 65.2077 95.0881 65.2077C95.1716 65.2077 95.2354 65.2814 95.2305 65.36H95.2256Z" fill="#AD5700"/>
<path d="M83.5216 60.3017C83.7672 60.3017 84.0128 60.3017 84.2534 60.3017C84.9263 60.3115 85.5845 60.3557 86.2279 60.4245C89.8133 60.8223 92.8289 62.1189 94.5381 63.9018C95.486 64.889 96.0263 66.0236 96.0508 67.2367C96.0852 69.4616 94.3515 71.4802 91.5961 72.8309C89.4744 73.8771 86.7387 74.5303 83.7525 74.5794C78.9441 74.658 74.7448 73.1502 72.6476 70.881C72.4462 70.6649 72.2645 70.4439 72.1073 70.2131C71.5523 69.4223 71.2331 68.5481 71.2184 67.6345C71.1545 63.8134 76.3312 60.6062 82.893 60.3115C83.0992 60.3017 83.3104 60.2968 83.5167 60.2919L83.5216 60.3017Z" fill="#FACF00" stroke="#0E1844" stroke-width="0.0402301" stroke-linecap="round" stroke-linejoin="round"/>
<path d="M93.7425 67.2807C93.7425 67.374 93.7425 67.4624 93.7376 67.5508C93.7376 67.5508 93.7376 67.5508 93.7376 67.5606C93.5362 70.65 89.1503 73.1745 83.7329 73.2629C78.4039 73.3513 73.9983 71.0478 73.5661 68.0469C73.5416 67.9044 73.5317 67.762 73.5317 67.6147C73.4777 64.4025 77.9668 61.7258 83.5463 61.6374C89.1306 61.549 93.6934 64.0784 93.7474 67.2905L93.7425 67.2807Z" fill="#D96D00" stroke="#0E1844" stroke-width="0.0268201" stroke-linecap="round" stroke-linejoin="round"/>
<path d="M93.7374 67.5507V67.5606C93.5361 70.6499 89.1452 73.1744 83.7278 73.2628C78.3988 73.3512 73.9932 71.0477 73.561 68.0468C73.7477 64.9476 78.1385 62.4182 83.5706 62.3249C88.9045 62.2365 93.3101 64.5449 93.7374 67.5556V67.5507Z" fill="#FFB200" stroke="#0E1844" stroke-width="0.0268201" stroke-linecap="round" stroke-linejoin="round"/>
<path opacity="0.49" d="M78.0798 62.6445C76.3558 63.3125 75.0003 64.28 74.2341 65.4048C73.5317 65.2427 72.7508 65.061 72.1123 64.9038C72.8932 63.7692 74.1604 62.7722 75.7714 62.0011L78.0847 62.6445H78.0798Z" fill="#FFF0D3"/>
<path d="M57.5549 66.3068C57.3678 66.0042 57.1533 65.7071 56.9002 65.4266C55.1783 63.4461 52.0426 61.9168 48.2633 61.3062C47.5866 61.1961 46.8935 61.1191 46.1783 61.0696C45.9198 61.0476 45.6612 61.0421 45.3972 61.0311C45.1771 61.0256 44.9516 61.0201 44.737 61.0201C39.4008 60.9981 34.8403 62.83 32.9314 65.5091L31.8477 65.4761L31.9687 68.1937C31.9357 69.1619 32.2217 70.1026 32.7774 70.9718C32.9314 71.2194 33.1129 71.4669 33.3165 71.709C35.4234 74.223 39.7969 76.0384 44.9076 76.2035C48.0763 76.308 51.0139 75.7524 53.3244 74.7566C56.3116 73.4639 58.259 71.4119 58.336 69.0519C58.336 68.8428 58.3305 68.6393 58.3085 68.4302L58.215 66.3343L57.5604 66.3123L57.5549 66.3068Z" fill="#D96D00" stroke="#0E1844" stroke-width="0.0350471" stroke-linecap="round" stroke-linejoin="round"/>
<path d="M33.5918 63.2919L33.4762 64.8487L32.9921 71.2796C32.9151 71.1806 32.8436 71.0706 32.7776 70.9716C32.7556 70.9331 32.7281 70.8945 32.7061 70.8505L33.1241 65.2503L33.2727 63.2644C33.2782 63.1763 33.3497 63.1158 33.4432 63.1213C33.5312 63.1268 33.5973 63.2038 33.5918 63.2919Z" fill="#AD5700"/>
<path d="M35.518 63.2373C35.5565 63.2648 35.584 63.3143 35.5785 63.3749L34.8469 73.1175C34.7423 73.0405 34.6433 72.969 34.5498 72.8865L35.265 63.3859V63.3474C35.276 63.2593 35.353 63.1933 35.441 63.2043C35.474 63.2098 35.5015 63.2208 35.5235 63.2373H35.518Z" fill="#AD5700"/>
<path d="M37.5685 63.4566L36.7544 74.2775C36.6498 74.2335 36.5508 74.1785 36.4463 74.118L37.2495 63.4346C37.255 63.3466 37.332 63.2806 37.42 63.2861C37.508 63.2971 37.574 63.3686 37.5685 63.4566Z" fill="#AD5700"/>
<path d="M39.5562 63.5398L38.6925 75.0868C38.5825 75.0483 38.4779 75.0153 38.3789 74.9713L39.2371 63.5122C39.2426 63.4297 39.3196 63.3637 39.4076 63.3692C39.4957 63.3747 39.5562 63.4462 39.5507 63.5398H39.5562Z" fill="#AD5700"/>
<path d="M41.541 63.6224L40.6333 75.6481C40.5287 75.6261 40.4242 75.5986 40.3252 75.5711L41.2219 63.6004C41.2274 63.5124 41.2989 63.4519 41.3924 63.4574C41.4805 63.4629 41.5465 63.5399 41.541 63.6279V63.6224Z" fill="#AD5700"/>
<path d="M43.5278 63.7101L42.6036 76.0053C42.4991 75.9888 42.3946 75.9778 42.29 75.9613L43.2087 63.6881C43.2197 63.6001 43.2913 63.5396 43.3848 63.5396C43.4673 63.5451 43.5333 63.6221 43.5278 63.7101Z" fill="#AD5700"/>
<path d="M45.5189 63.7926L44.5837 76.1813C44.4737 76.1813 44.3692 76.1758 44.2646 76.1648L45.1999 63.7651C45.2054 63.677 45.2824 63.611 45.3704 63.6165C45.4584 63.622 45.5244 63.699 45.5189 63.7871V63.7926Z" fill="#AD5700"/>
<path d="M47.505 63.875L46.5753 76.1923C46.4708 76.1978 46.3662 76.2033 46.2617 76.2033L47.1859 63.853C47.1969 63.765 47.2684 63.7045 47.3565 63.71C47.439 63.71 47.505 63.787 47.4995 63.8805L47.505 63.875Z" fill="#AD5700"/>
<path d="M49.4856 63.9579L48.5779 76.0166C48.4733 76.0331 48.3688 76.0441 48.2588 76.0606L49.1665 63.9359C49.172 63.8479 49.249 63.7819 49.337 63.7929C49.425 63.7984 49.4911 63.8754 49.4801 63.9634L49.4856 63.9579Z" fill="#AD5700"/>
<path d="M51.476 64.0404L50.6068 75.6424C50.4968 75.6699 50.3923 75.692 50.2822 75.7195L51.1624 64.0184C51.1734 63.9303 51.2449 63.8643 51.333 63.8698C51.421 63.8808 51.487 63.9523 51.4815 64.0404H51.476Z" fill="#AD5700"/>
<path d="M53.4636 64.1229L52.6439 75.0208C52.5394 75.0593 52.4294 75.1033 52.3193 75.1418L53.1445 64.1009C53.15 64.0129 53.227 63.9468 53.3151 63.9523C53.4031 63.9578 53.4691 64.0349 53.4581 64.1229H53.4636Z" fill="#AD5700"/>
<path d="M55.3831 64.0677C55.4216 64.0952 55.4491 64.1502 55.4491 64.2052L54.7119 74.0469C54.6019 74.1074 54.4919 74.1734 54.3818 74.2284L55.13 64.1777C55.141 64.0897 55.207 64.0291 55.3005 64.0346C55.3335 64.0401 55.3611 64.0512 55.3831 64.0677Z" fill="#AD5700"/>
<path d="M57.4351 64.2932L57.3141 65.938L56.83 72.3965C56.7199 72.5175 56.6099 72.633 56.4834 72.7431L57.0225 65.5695L57.1215 64.2657C57.127 64.1777 57.2041 64.1116 57.2921 64.1171C57.3801 64.1281 57.4406 64.2052 57.4351 64.2877V64.2932Z" fill="#AD5700"/>
<path d="M45.277 58.3189C45.541 58.3244 45.7996 58.3409 46.0526 58.3574C46.7623 58.4015 47.4609 58.484 48.1376 58.594C51.9224 59.1991 55.0526 60.734 56.7745 62.7144C57.7262 63.8092 58.2433 65.0414 58.2048 66.3287C58.1278 68.6942 56.1804 70.7407 53.1932 72.0335C50.8882 73.0347 47.9506 73.5848 44.7764 73.4803C39.6657 73.3153 35.2923 71.4999 33.1853 68.9858C32.9817 68.7493 32.8002 68.5017 32.6462 68.2486C32.096 67.3794 31.8045 66.4387 31.8375 65.4705C31.9695 61.4106 37.6248 58.2749 44.6003 58.3024C44.8204 58.3024 45.0459 58.3024 45.2605 58.3134L45.277 58.3189Z" fill="#FACF00" stroke="#0E1844" stroke-width="0.0450606" stroke-linecap="round" stroke-linejoin="round"/>
<path d="M55.7627 66.2519C55.7627 66.3509 55.7517 66.4445 55.7407 66.538C55.7407 66.538 55.7407 66.538 55.7407 66.549C55.3667 69.8167 50.5806 72.2703 44.8318 72.0832C39.1711 71.9017 34.6161 69.2336 34.3135 66.0209C34.297 65.8668 34.2915 65.7183 34.297 65.5588C34.407 62.148 39.3031 59.5404 45.2334 59.733C51.1582 59.9255 55.8728 62.8467 55.7627 66.2574V66.2519Z" fill="#D96D00" stroke="#0E1844" stroke-width="0.0300404" stroke-linecap="round" stroke-linejoin="round"/>
<path d="M55.7452 66.5324V66.5434C55.3712 69.8112 50.5851 72.2647 44.8308 72.0777C39.1701 71.8961 34.6151 69.228 34.3125 66.0153C34.6701 62.7366 39.4561 60.2775 45.2269 60.4591C50.8877 60.6406 55.4482 63.3142 55.7452 66.5324Z" fill="#FFB200" stroke="#0E1844" stroke-width="0.0300404" stroke-linecap="round" stroke-linejoin="round"/>
<path opacity="0.49" d="M39.3797 60.5251C37.5148 61.1467 36.0294 62.1039 35.1548 63.2592C34.4176 63.0502 33.6034 62.8191 32.9268 62.6211C33.818 61.4548 35.2098 60.4646 36.9592 59.7274L39.3797 60.5306V60.5251Z" fill="#FFF0D3"/>
<path d="M75.1868 66.9667C74.9805 66.7752 74.7595 66.5984 74.5139 66.4363C72.8047 65.2968 70.1132 64.7811 67.132 65.1053C66.5966 65.1593 66.0563 65.2477 65.5063 65.3607C65.3049 65.4 65.1084 65.4442 64.9071 65.4933C64.7351 65.5326 64.5682 65.5768 64.4012 65.621C60.359 66.7064 57.2893 69.0296 56.3954 71.4509L55.5703 71.6474L56.2235 73.6758C56.4004 74.4175 56.808 75.0658 57.4072 75.611C57.5791 75.7681 57.7657 75.9155 57.9671 76.0579C60.0791 77.5264 63.7627 77.9979 67.6624 77.0697C70.0838 76.495 72.1859 75.4685 73.7281 74.2357C75.7221 72.6395 76.7732 70.6896 76.341 68.8871C76.3017 68.73 76.2526 68.5728 76.1936 68.4254L75.6878 66.8587L75.1868 66.9766V66.9667Z" fill="#D96D00" stroke="#0E1844" stroke-width="0.0312901" stroke-linecap="round" stroke-linejoin="round"/>
<path d="M56.4398 69.6335L56.6707 70.8368L57.6333 75.8023C57.5547 75.7434 57.4811 75.6746 57.4074 75.6108C57.3828 75.5862 57.3534 75.5617 57.3288 75.5371L56.4938 71.215L56.1942 69.6826C56.1795 69.6139 56.2237 69.5549 56.2925 69.5402C56.3612 69.5255 56.4251 69.5697 56.4398 69.6384V69.6335Z" fill="#AD5700"/>
<path d="M57.8847 69.1962C57.9239 69.2109 57.9485 69.2453 57.9583 69.2895L59.417 76.809C59.3237 76.7746 59.2304 76.7402 59.142 76.696L57.7226 69.3632V69.3337C57.7078 69.265 57.752 69.2011 57.8159 69.1913C57.8404 69.1913 57.865 69.1913 57.8847 69.2011V69.1962Z" fill="#AD5700"/>
<path d="M59.4847 68.936L61.1006 77.2904C61.0122 77.2757 60.9238 77.256 60.8354 77.2315L59.2392 68.9851C59.2244 68.9163 59.2686 68.8525 59.3374 68.8377C59.4062 68.8279 59.47 68.8672 59.4847 68.936Z" fill="#AD5700"/>
<path d="M61.0028 68.5925L62.7316 77.5068C62.6432 77.5019 62.5548 77.497 62.4713 77.4823L60.7572 68.6367C60.7474 68.5728 60.7916 68.509 60.8555 68.4942C60.9242 68.4795 60.9832 68.5237 60.9979 68.5925H61.0028Z" fill="#AD5700"/>
<path d="M62.5258 68.2435L64.3184 77.5262C64.2349 77.5262 64.1515 77.5262 64.068 77.5311L62.2802 68.2926C62.2654 68.2238 62.3096 68.1649 62.3784 68.1502C62.4472 68.1354 62.511 68.1796 62.5258 68.2484V68.2435Z" fill="#AD5700"/>
<path d="M64.0438 67.8998L65.8807 77.3937C65.7972 77.4035 65.7137 77.4182 65.6351 77.4232L63.7982 67.9489C63.7884 67.8801 63.8326 67.8163 63.9014 67.8015C63.9652 67.7917 64.0291 67.8359 64.0438 67.8998Z" fill="#AD5700"/>
<path d="M65.5658 67.551L67.4174 77.1185C67.3339 77.1382 67.2553 77.1578 67.1718 77.1726L65.3202 67.6001C65.3055 67.5313 65.3497 67.4675 65.4184 67.4527C65.4872 67.438 65.5511 67.4822 65.5658 67.551Z" fill="#AD5700"/>
<path d="M67.0838 67.2025L68.9256 76.7111C68.847 76.7357 68.7685 76.7602 68.6899 76.7848L66.8432 67.2516C66.8333 67.1828 66.8775 67.1239 66.9414 67.1092C67.0052 67.0944 67.0691 67.1386 67.0838 67.2074V67.2025Z" fill="#AD5700"/>
<path d="M68.6004 66.8588L70.4029 76.171C70.3293 76.2054 70.2507 76.2349 70.1721 76.2693L68.3598 66.908C68.345 66.8392 68.3892 66.7754 68.458 66.7655C68.5268 66.7508 68.5906 66.795 68.6004 66.8638V66.8588Z" fill="#AD5700"/>
<path d="M70.1279 66.5101L71.8617 75.4687C71.7831 75.508 71.7094 75.5522 71.6308 75.5915L69.8824 66.5592C69.8725 66.4905 69.9118 66.4266 69.9806 66.4119C70.0493 66.4021 70.1132 66.4414 70.1279 66.5101Z" fill="#AD5700"/>
<path d="M71.641 66.1609L73.2716 74.5743C73.2028 74.6284 73.1243 74.6824 73.0506 74.7315L71.3954 66.2101C71.3807 66.1413 71.4249 66.0774 71.4936 66.0627C71.5624 66.048 71.6263 66.0922 71.6361 66.1609H71.641Z" fill="#AD5700"/>
<path d="M73.085 65.7239C73.1243 65.7386 73.1537 65.773 73.1636 65.8172L74.637 73.4153C74.5683 73.4841 74.4995 73.5577 74.4258 73.6216L72.918 65.8614C72.9082 65.7927 72.9475 65.7337 73.0162 65.719C73.0408 65.719 73.0653 65.719 73.085 65.7288V65.7239Z" fill="#AD5700"/>
<path d="M74.6859 65.4684L74.9315 66.7405L75.899 71.7256C75.8401 71.8386 75.7812 71.9467 75.7075 72.0596L74.6368 66.5195L74.4403 65.5126C74.4256 65.4438 74.4698 65.38 74.5386 65.3653C74.6073 65.3554 74.6712 65.3996 74.681 65.4635L74.6859 65.4684Z" fill="#AD5700"/>
<path d="M64.2541 63.46C64.4554 63.4109 64.6519 63.3667 64.8483 63.3274C65.3984 63.2145 65.9387 63.131 66.474 63.072C69.4602 62.7528 72.1468 63.2636 73.856 64.403C74.8039 65.0366 75.4473 65.8618 75.6831 66.8441C76.1104 68.6466 75.0642 70.6013 73.0702 72.1927C71.5329 73.4255 69.4258 74.447 67.0045 75.0266C63.1048 75.9549 59.4211 75.4834 57.3092 74.0148C57.1078 73.8773 56.9212 73.7251 56.7493 73.5679C56.155 73.0227 55.7424 72.3744 55.5656 71.6328C54.8289 68.5336 58.4585 64.9973 63.7433 63.5779C63.9102 63.5337 64.0772 63.4895 64.2491 63.4502L64.2541 63.46Z" fill="#FACF00" stroke="#0E1844" stroke-width="0.0402301" stroke-linecap="round" stroke-linejoin="round"/>
<path d="M73.8224 67.2959C73.8421 67.3695 73.8519 67.4432 73.8666 67.5169C73.8666 67.5169 73.8666 67.5169 73.8666 67.5218C74.2596 70.0709 71.1457 72.9146 66.7548 73.9559C62.4376 74.9873 58.4397 73.9067 57.5507 71.5394C57.5065 71.4264 57.4721 71.3135 57.4426 71.1956C56.8189 68.5925 59.9868 65.6112 64.5152 64.5307C69.0386 63.4551 73.2085 64.6879 73.8274 67.2959H73.8224Z" fill="#D96D00" stroke="#0E1844" stroke-width="0.0268201" stroke-linecap="round" stroke-linejoin="round"/>
<path d="M73.8655 67.5166C74.2584 70.0705 71.1445 72.9143 66.7536 73.9604C62.4364 74.9919 58.4385 73.9113 57.5495 71.544C57.1419 68.99 60.2557 66.1414 64.6613 65.0903C68.9835 64.0589 72.9814 65.1394 73.8704 67.5166H73.8655Z" fill="#FFB200" stroke="#0E1844" stroke-width="0.0268201" stroke-linecap="round" stroke-linejoin="round"/>
<path opacity="0.49" d="M61.364 65.9579C59.9104 66.9269 58.8579 68.0964 58.3789 69.2882C57.6939 69.2882 56.9421 69.2715 56.3184 69.2604C56.8084 68.0519 57.7719 66.8768 59.0973 65.8354L61.3584 65.9579H61.364Z" fill="#FFF0D3"/>
<path d="M45.4809 74.111C45.4419 73.7379 45.3695 73.3592 45.2637 72.9805C44.5286 70.324 42.2508 67.4448 38.9372 65.1559C38.3469 64.7438 37.7176 64.354 37.066 63.9864C36.8321 63.8527 36.587 63.7247 36.342 63.591C36.1359 63.4796 35.9243 63.3794 35.7183 63.2791C30.6615 60.8399 25.5101 60.5057 22.4805 62.182L21.4669 61.6585L20.3531 64.2927C19.8853 65.2005 19.7294 66.2196 19.8575 67.2944C19.8909 67.6007 19.9521 67.9182 20.0357 68.2356C20.8933 71.5771 24.2181 75.2861 28.9908 77.7588C31.9535 79.2959 34.9831 80.1034 37.6285 80.2036C41.0535 80.3317 43.8269 79.268 44.9741 77.0627C45.0743 76.8677 45.1579 76.6673 45.2303 76.4612L46.0935 74.4285L45.4809 74.111Z" fill="#D96D00" stroke="#0E1844" stroke-width="0.0354796" stroke-linecap="round" stroke-linejoin="round"/>
<path d="M24.1175 60.383L23.2988 61.8086L19.924 67.6952C19.8961 67.5615 19.8794 67.4334 19.8627 67.3054C19.8627 67.2552 19.8516 67.2107 19.8516 67.1606L22.792 62.037L23.8335 60.2159C23.878 60.1379 23.9783 60.1101 24.0562 60.1546C24.1342 60.1992 24.1676 60.305 24.1231 60.383H24.1175Z" fill="#AD5700"/>
<path d="M25.9615 61.2076C25.9894 61.2522 25.9838 61.3134 25.9615 61.3691L20.8491 70.2797C20.7878 70.1627 20.721 70.0458 20.6709 69.9288L25.6552 61.241L25.6775 61.2076C25.7221 61.1296 25.8279 61.0962 25.9003 61.1464C25.9281 61.1686 25.9504 61.1853 25.9615 61.2132V61.2076Z" fill="#AD5700"/>
<path d="M27.8095 62.3438L22.1234 72.2401C22.0455 72.151 21.9731 72.0508 21.9062 71.9505L27.5143 62.1768C27.5589 62.0988 27.6647 62.0654 27.7427 62.1099C27.8206 62.1545 27.854 62.2603 27.8095 62.3383V62.3438Z" fill="#AD5700"/>
<path d="M29.6587 63.3241L23.5995 73.8887C23.516 73.8051 23.4325 73.7216 23.3545 73.6381L29.3691 63.1514C29.4137 63.079 29.5139 63.0512 29.5975 63.0957C29.6754 63.1403 29.7033 63.2405 29.6587 63.3185V63.3241Z" fill="#AD5700"/>
<path d="M31.5029 64.3034L25.1875 75.2968C25.0984 75.23 25.0149 75.152 24.9258 75.0852L31.2077 64.1364C31.2523 64.0584 31.3525 64.0305 31.4305 64.0751C31.514 64.1252 31.5419 64.2255 31.4973 64.3034H31.5029Z" fill="#AD5700"/>
<path d="M33.3453 65.2843L26.8908 76.5339C26.7961 76.4726 26.7014 76.4114 26.6123 76.3501L33.0558 65.1228C33.1003 65.0448 33.2061 65.017 33.2897 65.0615C33.3621 65.1061 33.3899 65.2063 33.3453 65.2899V65.2843Z" fill="#AD5700"/>
<path d="M35.2009 66.2697L28.6907 77.6029C28.5904 77.5472 28.4902 77.497 28.3955 77.4414L34.9058 66.1027C34.9503 66.0247 35.0562 65.9913 35.1341 66.0358C35.2121 66.0804 35.2455 66.1862 35.2009 66.2642V66.2697Z" fill="#AD5700"/>
<path d="M37.0487 67.2497L30.583 78.516C30.4827 78.477 30.3769 78.4324 30.2822 78.3823L36.7647 67.0826C36.8092 67.0046 36.9095 66.9824 36.993 67.0269C37.071 67.0715 37.0988 67.1717 37.0542 67.2497H37.0487Z" fill="#AD5700"/>
<path d="M38.8924 68.2245L32.5603 79.2569C32.4545 79.2291 32.3487 79.1845 32.2373 79.1511L38.6028 68.0575C38.6473 67.9795 38.7531 67.9461 38.8255 67.9962C38.9035 68.0408 38.9369 68.1466 38.8868 68.219L38.8924 68.2245Z" fill="#AD5700"/>
<path d="M40.7419 69.2048L34.6549 79.8195C34.5379 79.7917 34.4265 79.7694 34.3096 79.7415L40.4523 69.0377C40.4968 68.9597 40.6027 68.9263 40.6806 68.9709C40.7586 69.0154 40.792 69.1213 40.7475 69.1992L40.7419 69.2048Z" fill="#AD5700"/>
<path d="M42.5893 70.1853L36.8698 80.1539C36.7529 80.1484 36.6303 80.1317 36.5078 80.1205L42.2997 70.0182C42.3442 69.9402 42.45 69.9068 42.528 69.9514C42.606 69.9959 42.6394 70.1017 42.5893 70.1741V70.1853Z" fill="#AD5700"/>
<path d="M44.4398 71.0036C44.4621 71.0481 44.4676 71.115 44.4398 71.1651L39.2772 80.1648C39.1492 80.1759 39.0155 80.187 38.8818 80.187L44.1558 70.9924C44.2003 70.9145 44.3006 70.8866 44.3785 70.9312C44.4064 70.9535 44.4287 70.9702 44.4398 70.998V71.0036Z" fill="#AD5700"/>
<path d="M46.2826 72.1453L45.4194 73.6545L42.0333 79.5633C41.8774 79.6246 41.7159 79.6858 41.5488 79.736L45.3135 73.1755L45.9985 71.9838C46.0431 71.9058 46.1489 71.8724 46.2269 71.9169C46.3048 71.9615 46.3327 72.0673 46.2826 72.1453Z" fill="#AD5700"/>
<path d="M37.4566 60.9624C37.7017 61.0905 37.9411 61.2185 38.175 61.3522C38.8322 61.7198 39.4559 62.1096 40.0462 62.5217C43.3599 64.8162 45.6376 67.6898 46.3727 70.3463C46.7793 71.8165 46.7125 73.22 46.0887 74.4285C44.9415 76.6338 42.1681 77.6975 38.7431 77.5694C36.0978 77.4748 33.0626 76.6617 30.0998 75.1246C25.3271 72.6519 22.0024 68.9429 21.1447 65.6014C21.0612 65.284 20.9999 64.9665 20.9665 64.6602C20.8384 63.5854 20.9888 62.5607 21.4622 61.6585C23.4281 57.8659 30.2168 57.4594 36.8217 60.6505C37.0278 60.7507 37.2394 60.8565 37.4455 60.9624H37.4566Z" fill="#FACF00" stroke="#0E1844" stroke-width="0.0456166" stroke-linecap="round" stroke-linejoin="round"/>
<path d="M43.8043 73.248C43.7542 73.3371 43.7041 73.4262 43.6539 73.5098C43.6539 73.5098 43.6539 73.5098 43.6484 73.5154C41.8161 76.4447 36.1579 76.6006 30.7893 73.8161C25.5042 71.0761 22.3911 66.476 23.5606 63.296C23.6163 63.1457 23.6776 62.9953 23.7555 62.8505C25.404 59.665 31.2348 59.4144 36.7761 62.2825C42.3118 65.1561 45.4583 70.0625 43.8099 73.248H43.8043Z" fill="#D96D00" stroke="#0E1844" stroke-width="0.0304111" stroke-linecap="round" stroke-linejoin="round"/>
<path d="M43.6598 73.5097H43.6542C41.822 76.4446 36.1638 76.6061 30.7952 73.816C25.5101 71.076 22.397 66.4815 23.5665 63.296C25.3876 60.3499 31.0514 60.1884 36.4422 62.9785C41.7329 65.7185 44.8404 70.3242 43.6654 73.5097H43.6598Z" fill="#FFB200" stroke="#0E1844" stroke-width="0.0304111" stroke-linecap="round" stroke-linejoin="round"/>
<path opacity="0.49" d="M30.8631 60.3831C28.8137 60.1269 26.9703 60.3608 25.617 61.0569C25.01 60.5279 24.3417 59.932 23.7959 59.4419C25.1659 58.7402 26.9424 58.4339 28.9306 58.523L30.8631 60.3831Z" fill="#FFF0D3"/>
<path d="M57.486 73.6952C57.3534 73.4201 57.1914 73.1549 57.0047 72.8897C55.7081 71.0577 53.1688 69.486 50.0009 68.6511C49.4361 68.4988 48.8467 68.376 48.2426 68.2729C48.0265 68.2336 47.8055 68.2041 47.5796 68.1697C47.3929 68.1452 47.2014 68.1206 47.0148 68.101C42.4716 67.6295 38.4344 68.7984 36.5828 70.9153L35.6643 70.7925L35.5366 73.1156C35.4285 73.9408 35.5906 74.761 35.9885 75.5517C36.1014 75.7777 36.234 76.0036 36.3863 76.2246C37.9629 78.5428 41.5335 80.4632 45.8704 81.0379C48.5619 81.3964 51.106 81.1754 53.159 80.5222C55.8112 79.6774 57.6432 78.0959 57.9133 76.092C57.933 75.9152 57.9428 75.7384 57.9428 75.5615L58.041 73.7689L57.486 73.6952Z" fill="#D96D00" stroke="#0E1844" stroke-width="0.0357601" stroke-linecap="round" stroke-linejoin="round"/>
<path d="M37.3441 69.0886L37.1132 70.4048L36.1555 75.8419C36.0966 75.7485 36.0474 75.6552 35.9983 75.557C35.9836 75.5226 35.964 75.4882 35.9492 75.4489L36.7842 70.7192L37.0789 69.0394C37.0936 68.9658 37.1574 68.9167 37.236 68.9314C37.3097 68.9461 37.3588 69.0149 37.349 69.0886H37.3441Z" fill="#AD5700"/>
<path d="M38.9842 69.2112C39.0186 69.2407 39.0333 69.2849 39.0235 69.334L37.5746 77.5657C37.496 77.492 37.4125 77.4232 37.3389 77.3447L38.7534 69.3193L38.7632 69.2898C38.7779 69.2161 38.8467 69.167 38.9204 69.1818C38.9449 69.1916 38.9695 69.2014 38.9891 69.2161L38.9842 69.2112Z" fill="#AD5700"/>
<path d="M40.714 69.5691L39.0981 78.7143C39.0146 78.6652 38.9311 78.6112 38.8525 78.5522L40.4439 69.5249C40.4586 69.4512 40.5274 69.4021 40.601 69.412C40.6747 69.4267 40.7238 69.4954 40.714 69.5691Z" fill="#AD5700"/>
<path d="M42.3982 69.81L40.6792 79.5692C40.5908 79.5299 40.5024 79.4906 40.4238 79.4464L42.133 69.7609C42.1428 69.6922 42.2165 69.643 42.2902 69.6529C42.3639 69.6676 42.413 69.7314 42.3982 69.81Z" fill="#AD5700"/>
<path d="M44.0833 70.0508L42.2857 80.2078C42.1973 80.1783 42.1138 80.144 42.0303 80.1145L43.8131 70.0017C43.8279 69.928 43.8917 69.8789 43.9703 69.8937C44.044 69.9084 44.0931 69.9772 44.0833 70.0508Z" fill="#AD5700"/>
<path d="M45.7622 70.2916L43.9303 80.6794C43.8419 80.6597 43.7534 80.6401 43.665 80.6155L45.4921 70.2424C45.5068 70.1688 45.5756 70.1197 45.6542 70.1344C45.7229 70.1442 45.7721 70.2179 45.7622 70.2916Z" fill="#AD5700"/>
<path d="M47.4518 70.5323L45.6002 81.0036C45.5069 80.9889 45.4185 80.9791 45.3301 80.9643L47.1817 70.4881C47.1964 70.4144 47.2652 70.3653 47.3389 70.3751C47.4125 70.3899 47.4617 70.4586 47.4518 70.5323Z" fill="#AD5700"/>
<path d="M49.1373 70.7731L47.3004 81.1805C47.212 81.1805 47.1187 81.1707 47.0303 81.1609L48.8672 70.724C48.8819 70.6503 48.9507 70.6061 49.0243 70.6159C49.098 70.6257 49.1471 70.6945 49.1324 70.7731H49.1373Z" fill="#AD5700"/>
<path d="M50.8217 71.0085L49.0241 81.1999C48.9357 81.2048 48.8423 81.1999 48.749 81.2097L50.5565 70.9643C50.5712 70.8906 50.6399 70.8415 50.7136 70.8563C50.7873 70.871 50.8364 70.9398 50.8217 71.0134V71.0085Z" fill="#AD5700"/>
<path d="M52.5059 71.2494L50.7771 81.0527C50.6837 81.0625 50.5904 81.0773 50.4922 81.0871L52.2358 71.2003C52.2505 71.1266 52.3193 71.0775 52.3929 71.0873C52.4666 71.102 52.5157 71.1708 52.5059 71.2445V71.2494Z" fill="#AD5700"/>
<path d="M54.1908 71.4848L52.5651 80.6939C52.4718 80.7184 52.3736 80.743 52.2803 80.7676L53.9256 71.4406C53.9404 71.367 54.0091 71.3178 54.0828 71.3277C54.1565 71.3424 54.2056 71.4112 54.1908 71.4848Z" fill="#AD5700"/>
<path d="M55.8313 71.6078C55.8657 71.6373 55.8804 71.6864 55.8755 71.7306L54.4119 80.0457C54.3137 80.0899 54.2154 80.1341 54.1123 80.1734L55.6054 71.6815C55.6201 71.6078 55.684 71.5587 55.7626 71.5734C55.7871 71.5832 55.8117 71.5931 55.8313 71.6078Z" fill="#AD5700"/>
<path d="M57.5597 71.9714L57.3142 73.3613L56.3515 78.818C56.2484 78.9113 56.1403 78.9997 56.0273 79.0832L57.098 73.0224L57.2945 71.9223C57.3092 71.8486 57.378 71.7995 57.4517 71.8093C57.5253 71.824 57.5745 71.8928 57.5597 71.9665V71.9714Z" fill="#AD5700"/>
<path d="M47.7119 65.8514C47.9329 65.8808 48.154 65.9152 48.3701 65.9496C48.9742 66.0478 49.5587 66.1755 50.1284 66.3278C53.2963 67.1677 55.8355 68.7393 57.1322 70.5664C57.8492 71.5782 58.1881 72.6734 58.0408 73.7687C57.7756 75.7726 55.9436 77.3541 53.2865 78.1989C51.2384 78.857 48.6893 79.0731 45.9978 78.7146C41.6659 78.1399 38.0952 76.2195 36.5137 73.9013C36.3615 73.6803 36.2289 73.4544 36.1159 73.2284C35.723 72.4426 35.556 71.6175 35.6641 70.7923C36.1208 67.3494 41.1993 65.1589 47.1422 65.7777C47.3288 65.7973 47.5204 65.8219 47.707 65.8465L47.7119 65.8514Z" fill="#FACF00" stroke="#0E1844" stroke-width="0.0447001" stroke-linecap="round" stroke-linejoin="round"/>
<path d="M55.9688 73.4941C55.959 73.5775 55.9443 73.6561 55.9295 73.7347C55.9295 73.7347 55.9295 73.7347 55.9295 73.7396C55.3352 76.4901 51.0524 78.1698 46.1704 77.5215C41.367 76.883 37.7177 74.2259 37.7325 71.4656C37.7325 71.333 37.7423 71.2053 37.757 71.0727C38.1401 68.1798 42.531 66.3773 47.5653 67.0404C52.5946 67.7083 56.3617 70.5963 55.9737 73.4891L55.9688 73.4941Z" fill="#D96D00" stroke="#0E1844" stroke-width="0.0268201" stroke-linecap="round" stroke-linejoin="round"/>
<path d="M55.9246 73.7346C55.3304 76.4899 51.0475 78.1746 46.1655 77.5213C41.3621 76.8828 37.7128 74.2257 37.7276 71.4655C38.3071 68.7052 42.5949 67.0206 47.4916 67.664C52.2951 68.3025 55.9492 70.9645 55.9296 73.7297L55.9246 73.7346Z" fill="#FFB200" stroke="#0E1844" stroke-width="0.0312901" stroke-linecap="round" stroke-linejoin="round"/>
<path opacity="0.49" d="M42.5067 67.2269C40.8663 67.6001 39.5205 68.2828 38.6807 69.1915C38.0667 68.9508 37.3939 68.6856 36.8389 68.4597C37.6935 67.5461 38.9705 66.8192 40.5176 66.3379L42.5067 67.2269Z" fill="#FFF0D3"/>
<path d="M62.7612 58.9781C62.5157 58.8013 62.2455 58.6343 61.9557 58.4919C59.9469 57.485 56.9657 57.2837 53.7683 58.0351C53.1986 58.1677 52.619 58.3347 52.0395 58.5263C51.8283 58.595 51.6171 58.6736 51.4059 58.7473C51.2291 58.8111 51.0522 58.8799 50.8754 58.9536C46.6368 60.6726 43.6163 63.6048 42.9728 66.3503L42.1035 66.6745L43.0858 68.7864C43.3756 69.5673 43.906 70.2156 44.628 70.7264C44.8343 70.8738 45.0553 71.0113 45.296 71.1341C47.7812 72.4455 51.843 72.4602 55.949 70.9327C58.4981 69.9848 60.6444 68.5948 62.1522 67.0477C64.1021 65.0487 64.9812 62.7944 64.274 60.8936C64.2101 60.7266 64.1364 60.5646 64.048 60.4123L63.2917 58.7817L62.7661 58.9781H62.7612Z" fill="#D96D00" stroke="#0E1844" stroke-width="0.0312901" stroke-linecap="round" stroke-linejoin="round"/>
<path d="M42.7823 64.3756L43.1948 65.6476L44.904 70.9079C44.8107 70.8538 44.7174 70.79 44.6339 70.731C44.6044 70.7065 44.57 70.6868 44.5406 70.6623L43.0524 66.0848L42.522 64.464C42.4974 64.3952 42.5367 64.3215 42.6104 64.297C42.6791 64.2724 42.7626 64.3117 42.7823 64.3854V64.3756Z" fill="#AD5700"/>
<path d="M44.2905 63.7078C44.3347 63.7176 44.369 63.752 44.3838 63.7962L46.9721 71.7577C46.869 71.7332 46.7609 71.7086 46.6627 71.6742L44.1431 63.9092L44.1333 63.8797C44.1087 63.806 44.148 63.7274 44.2217 63.7127C44.2462 63.7078 44.2757 63.7029 44.3003 63.7127H44.2954L44.2905 63.7078Z" fill="#AD5700"/>
<path d="M45.9883 63.2166L48.8566 72.0622C48.7584 72.0622 48.6602 72.0474 48.5619 72.0376L45.728 63.305C45.7035 63.2362 45.7427 63.1527 45.8164 63.1331C45.8852 63.1134 45.9687 63.1478 45.9883 63.2215V63.2166Z" fill="#AD5700"/>
<path d="M47.5906 62.637L50.6554 72.0769C50.5571 72.0818 50.4638 72.0867 50.3705 72.0867L47.3254 62.7205C47.3057 62.6567 47.345 62.5732 47.4138 62.5535C47.4825 62.529 47.5562 62.5682 47.5808 62.6419L47.5906 62.637Z" fill="#AD5700"/>
<path d="M49.1924 62.0575L52.38 71.8854C52.2916 71.9001 52.1982 71.9099 52.1098 71.9247L48.9321 62.141C48.9076 62.0673 48.9468 61.9936 49.0205 61.974C49.0942 61.9494 49.1728 61.9887 49.1924 62.0624V62.0575Z" fill="#AD5700"/>
<path d="M50.7927 61.478L54.0588 71.5269C53.9704 71.5515 53.882 71.576 53.7936 71.5908L50.5324 61.5566C50.5127 61.4878 50.552 61.4093 50.6257 61.3847C50.6895 61.365 50.773 61.4043 50.7927 61.4731V61.478Z" fill="#AD5700"/>
<path d="M52.3995 60.8986L55.6852 71.0261C55.5968 71.0555 55.5133 71.0899 55.4249 71.1194L52.1391 60.9821C52.1146 60.9133 52.1539 60.8298 52.2276 60.8102C52.2963 60.7856 52.3798 60.8249 52.3995 60.8986Z" fill="#AD5700"/>
<path d="M54.0007 60.3186L57.2669 70.3872C57.1883 70.4265 57.1048 70.4658 57.0213 70.5001L53.7404 60.407C53.7208 60.3383 53.7601 60.2597 53.8288 60.24C53.8976 60.2155 53.9713 60.2548 53.9958 60.3284L54.0007 60.3186Z" fill="#AD5700"/>
<path d="M55.6006 59.7393L58.8029 69.5967C58.7243 69.6458 58.6457 69.6851 58.5622 69.7342L55.3452 59.8228C55.3206 59.754 55.3599 59.6705 55.4336 59.6558C55.5024 59.6312 55.5859 59.6705 55.6006 59.7442V59.7393Z" fill="#AD5700"/>
<path d="M57.2062 59.155L60.2857 68.639C60.2071 68.6931 60.1285 68.752 60.0499 68.806L56.9459 59.2384C56.9262 59.1697 56.9606 59.0862 57.0343 59.0665C57.103 59.0469 57.1865 59.0813 57.2062 59.155Z" fill="#AD5700"/>
<path d="M58.8077 58.5751L61.7005 67.4846C61.6318 67.5484 61.5532 67.6172 61.4795 67.6859L58.5473 58.6635C58.5228 58.5948 58.5621 58.5113 58.6358 58.4916C58.7094 58.4671 58.788 58.5064 58.8027 58.58L58.8077 58.5751Z" fill="#AD5700"/>
<path d="M60.3169 57.9073C60.3611 57.9171 60.4004 57.9515 60.4152 57.9957L63.0281 66.0407C62.9642 66.1242 62.8955 66.2126 62.8267 66.2912L60.1549 58.0792C60.1352 58.0105 60.1696 57.9368 60.2433 57.9122C60.2678 57.9073 60.2973 57.9024 60.3219 57.9122L60.3169 57.9073Z" fill="#AD5700"/>
<path d="M62.0117 57.4161L62.4489 58.7619L64.163 64.0368C64.1138 64.1645 64.0647 64.2971 64.0009 64.4248L62.1001 58.5605L61.7563 57.4947C61.7318 57.4259 61.7711 57.3425 61.8447 57.3228C61.9135 57.3032 61.9921 57.3425 62.0117 57.4112V57.4161Z" fill="#AD5700"/>
<path d="M50.4294 56.6351C50.6406 56.5566 50.8518 56.4829 51.0581 56.4141C51.6376 56.2177 52.2172 56.0556 52.7869 55.923C55.9843 55.1764 58.9656 55.3729 60.9744 56.3797C62.0844 56.9397 62.8997 57.7451 63.2828 58.7815C63.99 60.6822 63.1109 62.9366 61.161 64.9356C59.6581 66.4778 57.5068 67.8726 54.9578 68.8206C50.8518 70.348 46.7949 70.3284 44.3048 69.0219C44.069 68.8991 43.8431 68.7616 43.6368 68.6143C42.9197 68.1035 42.3844 67.4503 42.0946 66.6742C40.8815 63.413 44.3441 59.0909 49.8891 56.8414C50.061 56.7727 50.2428 56.7039 50.4196 56.6351H50.4294Z" fill="#FACF00" stroke="#0E1844" stroke-width="0.0402301" stroke-linecap="round" stroke-linejoin="round"/>
<path d="M61.323 59.5184C61.3524 59.597 61.377 59.6756 61.4016 59.7493C61.4016 59.7493 61.4016 59.7493 61.4016 59.7591C62.1678 62.4702 59.1717 65.9721 54.5451 67.6912C49.9971 69.3856 45.5178 68.752 44.2359 66.3012C44.1721 66.1833 44.118 66.0654 44.0738 65.9427C43.0522 63.202 46.0875 59.543 50.8517 57.7699C55.6158 55.9969 60.3014 56.7778 61.323 59.5233V59.5184Z" fill="#D96D00" stroke="#0E1844" stroke-width="0.0268201" stroke-linecap="round" stroke-linejoin="round"/>
<path d="M61.4015 59.7488V59.7586C62.1677 62.4698 59.1717 65.9717 54.5451 67.6907C49.9971 69.3851 45.5178 68.7516 44.2359 66.3007C43.4549 63.5896 46.451 60.0779 51.0874 58.349C55.6354 56.6545 60.1196 57.293 61.4015 59.7488Z" fill="#FFB200" stroke="#0E1844" stroke-width="0.0268201" stroke-linecap="round" stroke-linejoin="round"/>
<path opacity="0.49" d="M46.4712 60.2991C45.1942 61.3993 44.3249 62.637 44.0105 63.8354C43.3573 63.914 42.6353 63.9925 42.0361 64.0515C42.3652 62.8383 43.1461 61.6006 44.2905 60.4464L46.4712 60.2942V60.2991Z" fill="#FFF0D3"/>
<path d="M15.0891 99.535L14.5391 60.2774L54.1404 75.3852L54.4253 116.499L15.0891 99.535Z" fill="white" stroke="#001B4B" stroke-width="0.192125" stroke-linecap="round" stroke-linejoin="round"/>
<path d="M97.0326 60.1694V99.8542L54.4255 116.499L54.1406 75.3852L97.0326 60.1694Z" fill="#B24DD4" stroke="#001B42" stroke-width="0.192125" stroke-linecap="round" stroke-linejoin="round"/>
<path d="M54.8852 122.301H54.0916C53.3785 122.29 52.6814 122.258 52.0004 122.204C51.9844 122.204 51.9683 122.204 51.9522 122.204C51.8664 122.199 51.7806 122.188 51.6948 122.183C47.9254 121.85 44.7672 120.901 42.9763 119.614C42.0058 118.917 41.4374 118.124 41.3838 117.277C41.3838 117.239 41.3838 117.201 41.3838 117.164C41.3838 117.019 41.3999 116.88 41.4267 116.74C41.4535 116.606 41.4964 116.467 41.55 116.333C41.6841 116 41.8985 115.679 42.1827 115.368C42.5152 115.008 42.9441 114.671 43.4589 114.354C44.2256 113.877 45.1854 113.453 46.29 113.094C46.794 112.928 47.3302 112.783 47.8878 112.644C49.9146 112.156 52.29 111.872 54.8262 111.856C57.4214 111.839 59.8503 112.113 61.9093 112.59C61.9308 112.595 61.9576 112.601 61.979 112.606C62.6278 112.762 63.2391 112.933 63.8074 113.126C64.0648 113.212 64.3115 113.303 64.5474 113.4C65.4536 113.759 66.2257 114.167 66.8316 114.622C67.0461 114.783 67.2391 114.944 67.4107 115.11C67.8718 115.561 68.1721 116.049 68.2847 116.553C68.3168 116.703 68.3329 116.848 68.3383 116.998C68.3383 117.357 68.2471 117.705 68.0756 118.043C67.9147 118.354 67.6841 118.655 67.3946 118.939C67.0353 119.293 66.5796 119.625 66.0434 119.941C65.8611 120.049 65.668 120.156 65.4643 120.252C65.1372 120.413 64.7887 120.569 64.4241 120.714C64.1721 120.81 63.9147 120.907 63.6519 120.998C63.3034 121.116 62.9388 121.228 62.5635 121.33C60.5635 121.883 58.1667 122.231 55.5822 122.295C55.4321 122.295 55.2819 122.301 55.1318 122.306H54.9013L54.8852 122.301Z" fill="#21002A" stroke="#21002A" stroke-width="0.0896786" stroke-linejoin="round"/>
<path d="M53.0752 120.303C53.2253 120.303 53.3754 120.297 53.5256 120.292C56.1154 120.228 58.5122 119.879 60.5068 119.327C60.8821 119.225 61.2521 119.112 61.5953 118.994C61.8634 118.903 62.1208 118.807 62.3674 118.71C62.7374 118.565 63.0859 118.41 63.4076 118.249C63.6114 118.147 63.8044 118.045 63.9867 117.938C64.5229 117.627 64.9787 117.289 65.3379 116.935C65.6328 116.646 65.858 116.351 66.0189 116.04C66.1905 115.702 66.287 115.348 66.2816 114.994L66.2655 112.463L65.3969 113.15C65.3969 113.15 65.3701 113.123 65.354 113.107C65.1878 112.941 64.9894 112.774 64.7749 112.619C64.169 112.169 63.4023 111.756 62.4907 111.396C62.2548 111.3 62.0082 111.209 61.7508 111.123C61.1824 110.93 60.5712 110.753 59.9224 110.603C59.9009 110.598 59.8741 110.592 59.8527 110.587C57.7937 110.104 55.3647 109.836 52.7695 109.852C50.2333 109.868 47.8526 110.152 45.8312 110.64C45.2682 110.774 44.732 110.925 44.2333 111.091C43.1287 111.45 42.169 111.879 41.4022 112.351C40.9196 112.651 40.5121 112.968 40.1904 113.305L39.3164 112.41L39.3379 115.064V115.166C39.3379 115.203 39.3379 115.241 39.3379 115.279C39.3915 116.126 39.9598 116.919 40.9304 117.616C42.7212 118.903 45.8794 119.852 49.6489 120.185C49.7347 120.196 49.8205 120.201 49.9062 120.206C49.9223 120.206 49.9384 120.206 49.9545 120.206C50.6301 120.26 51.3272 120.292 52.0457 120.303H52.2172C52.421 120.303 52.6301 120.303 52.8392 120.303H53.0698H53.0644H53.0752Z" fill="#D96D00" stroke="#0E1844" stroke-width="0.0330395" stroke-linecap="round" stroke-linejoin="round"/>
<path d="M65.3494 116.934C65.3923 116.891 65.4298 116.854 65.4727 116.811L65.4512 113.116L65.4137 113.143C65.4137 113.143 65.3869 113.116 65.3708 113.1C65.3172 113.047 65.2582 112.999 65.2046 112.945L65.2314 117.058C65.2743 117.015 65.3172 116.977 65.3547 116.94L65.3494 116.934Z" fill="#AD5700"/>
<path d="M63.9063 117.986L63.8687 112.023C63.7883 111.981 63.7079 111.932 63.6221 111.889L63.6596 118.12C63.7454 118.077 63.8258 118.029 63.9063 117.986Z" fill="#AD5700"/>
<path d="M62.3398 118.721L62.2916 111.305C62.2111 111.273 62.1254 111.246 62.0449 111.214L62.0932 118.817C62.179 118.785 62.2594 118.753 62.3398 118.726V118.721Z" fill="#AD5700"/>
<path d="M60.769 119.252L60.7154 110.796C60.635 110.774 60.5492 110.753 60.4688 110.731L60.5224 119.327C60.6082 119.305 60.6886 119.278 60.769 119.257V119.252Z" fill="#AD5700"/>
<path d="M58.9579 119.696C59.0437 119.68 59.1241 119.664 59.2046 119.643L59.1509 110.42C59.0705 110.404 58.9901 110.388 58.915 110.372C58.9097 110.388 58.9043 110.399 58.9043 110.415L58.9633 119.691L58.9579 119.696Z" fill="#AD5700"/>
<path d="M57.4505 110.308C57.3808 110.308 57.3271 110.361 57.3271 110.431L57.3861 119.97C57.4666 119.959 57.5523 119.948 57.6328 119.932L57.5738 110.431C57.5738 110.361 57.5202 110.308 57.4505 110.308Z" fill="#AD5700"/>
<path d="M55.8841 110.313C55.8144 110.313 55.7607 110.367 55.7607 110.436L55.8197 120.147C55.9055 120.136 55.9859 120.131 56.0664 120.125L56.0074 110.431C56.0074 110.361 55.9538 110.308 55.8841 110.308V110.313Z" fill="#AD5700"/>
<path d="M54.3138 110.329C54.2441 110.329 54.1904 110.383 54.1904 110.452L54.2494 120.265C54.3298 120.265 54.4156 120.26 54.4961 120.254L54.4371 110.452C54.4371 110.383 54.3835 110.329 54.3138 110.329Z" fill="#AD5700"/>
<path d="M52.7425 110.335C52.6728 110.335 52.6191 110.388 52.6191 110.458L52.6781 120.303H52.9248L52.8658 110.458C52.8658 110.388 52.8122 110.335 52.7425 110.335Z" fill="#AD5700"/>
<path d="M51.177 110.345C51.1073 110.345 51.0537 110.398 51.0537 110.468L51.1127 120.27C51.1931 120.27 51.2789 120.275 51.3593 120.281L51.3004 110.474C51.3004 110.404 51.2467 110.35 51.177 110.35V110.345Z" fill="#AD5700"/>
<path d="M49.5999 110.356C49.5302 110.356 49.4766 110.409 49.4766 110.479L49.5355 120.163C49.5731 120.163 49.6106 120.173 49.6481 120.173C49.691 120.173 49.7393 120.184 49.7822 120.184L49.7232 110.479C49.7232 110.409 49.6696 110.356 49.5999 110.356Z" fill="#AD5700"/>
<path d="M48.0335 110.366C47.9638 110.366 47.9102 110.42 47.9102 110.49L47.9691 119.98C48.0496 119.991 48.1354 120.002 48.2158 120.012L48.1568 110.49C48.1568 110.42 48.1032 110.366 48.0335 110.366Z" fill="#AD5700"/>
<path d="M46.6411 119.756L46.5821 110.496C46.5821 110.496 46.5821 110.474 46.5821 110.469C46.5017 110.485 46.4212 110.506 46.3408 110.522L46.3944 119.708C46.4749 119.724 46.5607 119.74 46.6411 119.756Z" fill="#AD5700"/>
<path d="M45.0708 119.391L45.0172 110.849C44.9314 110.871 44.8509 110.897 44.7705 110.924L44.8241 119.326C44.9046 119.348 44.9903 119.375 45.0708 119.391Z" fill="#AD5700"/>
<path d="M43.499 118.897L43.4508 111.358C43.365 111.39 43.2845 111.423 43.2041 111.455L43.247 118.806C43.3274 118.838 43.4132 118.87 43.4936 118.897H43.499Z" fill="#AD5700"/>
<path d="M41.9229 118.211L41.8853 112.072C41.7995 112.12 41.7191 112.163 41.6387 112.211L41.6708 118.077C41.7513 118.126 41.8317 118.169 41.9175 118.211H41.9229Z" fill="#AD5700"/>
<path d="M40.3462 117.127L40.3248 113.176C40.2819 113.219 40.239 113.261 40.2014 113.299L40.0781 113.176L40.0996 116.875C40.18 116.961 40.2604 117.042 40.3516 117.127H40.3462Z" fill="#AD5700"/>
<path d="M52.8354 117.766H52.0418C51.3287 117.755 50.6316 117.723 49.9506 117.67C49.9346 117.67 49.9185 117.67 49.9024 117.67C49.8166 117.664 49.7308 117.654 49.645 117.648C45.8756 117.316 42.7174 116.367 40.9265 115.08C39.956 114.383 39.3876 113.589 39.334 112.742C39.334 112.704 39.334 112.667 39.334 112.629C39.334 112.485 39.3501 112.345 39.3769 112.206C39.4037 112.072 39.4466 111.932 39.5002 111.798C39.6343 111.466 39.8487 111.144 40.1383 110.833C40.4707 110.474 40.8997 110.136 41.4144 109.82C42.1812 109.342 43.141 108.919 44.2455 108.56C44.7495 108.393 45.2857 108.249 45.8434 108.109C47.8702 107.621 50.2455 107.337 52.7817 107.321C55.3769 107.305 57.8059 107.578 59.8649 108.056C59.8863 108.061 59.9131 108.066 59.9346 108.072C60.5834 108.227 61.1946 108.399 61.763 108.592C62.0204 108.678 62.267 108.769 62.503 108.865C63.4091 109.225 64.1812 109.632 64.7871 110.088C65.0016 110.249 65.1947 110.41 65.3662 110.576C65.8274 111.026 66.1276 111.514 66.2402 112.018C66.2724 112.168 66.2885 112.313 66.2938 112.463C66.2938 112.822 66.2027 113.171 66.0311 113.509C65.8703 113.82 65.6451 114.12 65.3501 114.404C64.9909 114.758 64.5405 115.091 63.9989 115.407C63.8166 115.514 63.6236 115.621 63.4198 115.718C63.0928 115.879 62.7442 116.034 62.3796 116.179C62.1276 116.276 61.8702 116.372 61.6075 116.463C61.259 116.581 60.8944 116.694 60.519 116.796C58.519 117.348 56.1222 117.696 53.5378 117.761C53.3876 117.761 53.2375 117.766 53.0874 117.772H52.8568L52.8354 117.766Z" fill="#FACF00" stroke="#0E1844" stroke-width="0.0330395" stroke-linecap="round" stroke-linejoin="round"/>
<path d="M52.824 116.796C46.765 116.833 41.8374 114.956 41.8213 112.602C41.8052 110.249 46.7114 108.313 52.7704 108.275C58.8294 108.238 63.757 110.115 63.7731 112.468C63.7731 112.747 63.7088 113.021 63.5747 113.289C63.2316 113.981 62.4648 114.613 61.3763 115.149C59.371 116.131 56.2879 116.774 52.824 116.796Z" fill="#FFB300" stroke="#0E1844" stroke-width="0.0330395" stroke-linecap="round" stroke-linejoin="round"/>
<path d="M41.8311 112.71C41.8311 112.678 41.8311 112.646 41.8311 112.609C41.815 110.255 46.7212 108.319 52.7802 108.281C58.8392 108.244 63.7668 110.121 63.7829 112.475V112.571C63.6274 110.265 58.8606 108.657 52.8928 108.689C46.9196 108.726 41.9651 110.399 41.8365 112.705L41.8311 112.71Z" fill="#D96D00" stroke="#0E1844" stroke-width="0.0330395" stroke-linecap="round" stroke-linejoin="round"/>
<path opacity="0.49" d="M51.7034 117.718C51.4514 117.456 51.4568 117.172 51.682 116.92C51.7248 116.871 51.7731 116.823 51.8375 116.775C53.5265 116.828 55.2637 116.726 56.8991 116.464C56.9206 116.474 56.9474 116.485 56.9688 116.491C57.06 116.533 57.1404 116.571 57.2208 116.619C57.6015 116.844 57.7624 117.102 57.7249 117.348C55.7785 117.659 53.7195 117.777 51.7141 117.718H51.7034Z" fill="#FFF2D4"/>
<path d="M114.951 27.2478C114.499 30.2242 113.129 32.1642 111.287 32.896L111.262 32.9058L103.1 35.7889L93.1636 10.7746L101.415 7.85722C103.271 7.14996 105.595 7.65585 107.962 9.53204C112.731 13.3237 115.86 21.2459 114.951 27.238V27.2478Z" fill="#23DB88" stroke="#001B4B" stroke-width="0.192125" stroke-miterlimit="10"/>
<path d="M103.124 35.784C107.122 34.1926 106.887 27.6702 104.141 20.7646C101.391 13.8591 97.1668 9.1784 93.1688 10.7746C89.1709 12.366 88.1542 19.2568 90.9046 26.1623C93.655 33.0679 99.1264 37.3753 103.124 35.784Z" fill="#0DBC69" stroke="#001B4B" stroke-width="0.192125" stroke-miterlimit="10"/>
<path d="M71.7594 37.2572C66.1112 27.7141 55.7627 32.9743 55.7627 32.9743L66.2536 17.6308C67.6289 16.624 69.2791 16.0542 70.9834 16.0002L94.3523 14.0602C94.6862 14.0307 95.0202 14.0946 95.31 14.2566C97.0045 15.1702 102.574 19.0453 102.947 30.5972C102.972 31.329 102.525 32.0019 101.842 32.2573L75.0747 42.3946L71.7545 37.2572H71.7594Z" fill="white" stroke="#001B4B" stroke-width="0.192125" stroke-miterlimit="10"/>
<path d="M56.7351 50.6067C57.1182 50.6116 57.5161 50.587 57.9139 50.5232C60.7183 50.1057 63.9305 48.146 66.6858 45.0567C67.1819 44.5066 67.6534 43.9172 68.115 43.2934C68.282 43.0675 68.4441 42.8416 68.6062 42.6058C68.7388 42.4094 68.8714 42.2129 68.9991 42.0066C72.1228 37.159 73.1051 31.9479 71.779 28.6523L72.4421 27.6896L69.8979 26.2211C69.0335 25.6268 68.0119 25.3419 66.897 25.337C66.5778 25.337 66.2487 25.3567 65.9147 25.4009C62.403 25.8577 58.2037 28.7849 55.0849 33.3379C53.1497 36.1669 51.9464 39.158 51.5093 41.8396C50.9494 45.3121 51.6812 48.2737 53.7882 49.7226C53.9749 49.8503 54.1713 49.9583 54.3678 50.0566L56.3324 51.1911L56.7302 50.6067H56.7351Z" fill="#D77300" stroke="#101841" stroke-width="0.0759902" stroke-linecap="round" stroke-linejoin="round"/>
<path d="M73.4149 30.553L72.0692 29.5412L66.4946 25.3567C66.6322 25.3468 66.7697 25.3419 66.9023 25.3419C66.9514 25.3419 67.0005 25.3419 67.0496 25.3468L71.9022 28.9862L73.6212 30.278C73.6998 30.332 73.7096 30.44 73.6556 30.5137C73.6016 30.5874 73.4886 30.607 73.4149 30.5481V30.553Z" fill="#A45C0B"/>
<path d="M72.3442 32.3363C72.2902 32.3559 72.2361 32.3461 72.1821 32.3117L63.7393 25.9808C63.867 25.9317 63.9947 25.8826 64.1174 25.8433L72.3491 32.017L72.3835 32.0416C72.4621 32.0956 72.4768 32.2086 72.4179 32.2773C72.3982 32.3019 72.3687 32.3215 72.3442 32.3313V32.3363Z" fill="#A45C0B"/>
<path d="M70.9542 34.0748L61.5781 27.0415C61.6813 26.9727 61.7893 26.9138 61.9023 26.8549L71.1604 33.7997C71.239 33.8537 71.2538 33.9667 71.1948 34.0404C71.1359 34.114 71.0278 34.1337 70.9542 34.0748Z" fill="#A45C0B"/>
<path d="M69.7206 35.8328L59.7109 28.328C59.8092 28.2544 59.9025 28.1758 59.9958 28.1119L69.9268 35.5627C69.9956 35.6167 70.0152 35.7248 69.9563 35.8033C69.9023 35.8819 69.7942 35.8917 69.7206 35.8377V35.8328Z" fill="#A45C0B"/>
<path d="M68.4895 37.5912L58.0723 29.7721C58.1558 29.6886 58.2393 29.615 58.3227 29.5364L68.6958 37.3162C68.7744 37.3702 68.7891 37.4733 68.7302 37.5519C68.6713 37.6305 68.5632 37.6452 68.4895 37.5863V37.5912Z" fill="#A45C0B"/>
<path d="M67.2565 39.3494L56.6035 31.3585C56.6772 31.27 56.7509 31.1767 56.8294 31.0981L67.4677 39.0744C67.5414 39.1333 67.5561 39.2414 67.4972 39.32C67.4432 39.3887 67.3351 39.4084 67.2565 39.3494Z" fill="#A45C0B"/>
<path d="M66.0275 41.1178L55.291 33.058C55.3549 32.9598 55.4236 32.8714 55.4924 32.7781L66.2338 40.8378C66.3124 40.8919 66.3271 41.0048 66.2682 41.0785C66.2142 41.1571 66.1012 41.1718 66.0275 41.1129V41.1178Z" fill="#A45C0B"/>
<path d="M64.7947 42.876L54.1221 34.8703C54.1761 34.772 54.235 34.6738 54.294 34.5756L65.001 42.6009C65.0747 42.6599 65.0845 42.763 65.0305 42.8416C64.9814 42.9153 64.8684 42.93 64.7947 42.876Z" fill="#A45C0B"/>
<path d="M63.562 44.634L53.1104 36.7953C53.1546 36.6922 53.2086 36.5841 53.2577 36.481L63.7634 44.3639C63.842 44.4179 63.8567 44.5309 63.7977 44.5997C63.7437 44.6782 63.6308 44.693 63.562 44.634Z" fill="#A45C0B"/>
<path d="M62.3302 46.3976L52.2715 38.8585C52.3108 38.7455 52.3501 38.6325 52.3943 38.5146L62.5365 46.1225C62.6102 46.1815 62.6298 46.2846 62.5709 46.3632C62.5119 46.4369 62.4039 46.4565 62.3302 46.3976Z" fill="#A45C0B"/>
<path d="M61.101 48.1561L51.6562 41.0688C51.6808 40.9509 51.7054 40.8232 51.7348 40.7004L61.3024 47.8761C61.381 47.9302 61.3957 48.0382 61.3368 48.1168C61.2779 48.1954 61.1698 48.2101 61.101 48.1512V48.1561Z" fill="#A45C0B"/>
<path d="M60.0361 49.9339C59.9821 49.9536 59.9231 49.9487 59.8691 49.9143L51.3428 43.5195C51.3526 43.3869 51.3575 43.2445 51.3673 43.1119L60.0803 49.6393C60.154 49.6982 60.1687 49.8013 60.1147 49.875C60.095 49.8996 60.0656 49.9192 60.041 49.929L60.0361 49.9339Z" fill="#A45C0B"/>
<path d="M58.6364 51.6726L57.2072 50.6019L51.613 46.4075C51.5688 46.2405 51.5295 46.0686 51.4951 45.8918L57.7131 50.5528L58.8427 51.3976C58.9213 51.4516 58.936 51.5646 58.8771 51.6382C58.8181 51.7119 58.7101 51.7266 58.6364 51.6677V51.6726Z" fill="#A45C0B"/>
<path d="M71.1501 44.0793C70.988 44.315 70.826 44.5409 70.659 44.7669C70.2022 45.3906 69.7258 45.98 69.2346 46.5252C66.4842 49.6145 63.2672 51.5742 60.4627 51.9917C58.9107 52.2225 57.4864 51.9818 56.3371 51.1911C54.23 49.7471 53.4982 46.7855 54.0581 43.3082C54.4903 40.6265 55.6937 37.6305 57.6337 34.8064C60.7525 30.2534 64.9518 27.3262 68.4635 26.8694C68.7975 26.8252 69.1266 26.8055 69.4458 26.8055C70.5607 26.8105 71.5823 27.0953 72.4467 27.6896C76.0665 30.1699 75.6343 37.1393 71.5479 43.4751C71.4202 43.6765 71.2876 43.8779 71.1501 44.0743V44.0793Z" fill="#F5D30E" stroke="#101841" stroke-width="0.0759902" stroke-linecap="round" stroke-linejoin="round"/>
<path d="M57.8246 49.0105C57.7362 48.9515 57.6577 48.8877 57.5742 48.8287C57.5742 48.8287 57.5742 48.8287 57.5693 48.8238C54.8139 46.5842 55.364 40.8034 58.8806 35.6758C62.3383 30.6317 67.4168 28.0384 70.5159 29.6248C70.6633 29.6985 70.8057 29.782 70.9432 29.8802C73.9834 31.9627 73.5119 37.94 69.8873 43.2247C66.2626 48.5095 60.8649 51.1028 57.8246 49.0203V49.0105Z" fill="#CD7302" stroke="#101841" stroke-width="0.0759902" stroke-linecap="round" stroke-linejoin="round"/>
<path d="M57.58 48.8288C57.58 48.8288 57.58 48.8288 57.5751 48.8239C54.8198 46.5842 55.3699 40.8034 58.8865 35.6758C62.3442 30.6317 67.4226 28.0335 70.5218 29.6249C73.2968 31.8547 72.7516 37.6453 69.2301 42.7877C65.7724 47.8367 60.6841 50.4299 57.5849 48.8288H57.58Z" fill="#FFC200" stroke="#101841" stroke-width="0.0759902" stroke-linecap="round" stroke-linejoin="round"/>
<path opacity="0.49" d="M72.5651 37.4292C73.0858 35.3713 73.0759 33.4656 72.5308 31.9971C73.1496 31.4421 73.8372 30.8429 74.4069 30.3419C74.9472 31.8252 75.0405 33.6768 74.6967 35.6905L72.5602 37.4243L72.5651 37.4292Z" fill="#FFF3D8"/>
<path d="M80.5367 29.8014L69.4711 36.2846C69.4711 36.2846 66.2541 38.1853 67.7816 41.53C67.7816 41.53 68.6804 44.5113 72.6047 43.8679L88.2232 39.8503C88.6947 39.7275 89.1417 39.5311 89.5542 39.2707L101.209 32.4831" fill="white"/>
<path d="M80.5367 29.8014L69.4711 36.2846C69.4711 36.2846 66.2541 38.1853 67.7816 41.53C67.7816 41.53 68.6804 44.5113 72.6047 43.8679L88.2232 39.8503C88.6947 39.7275 89.1417 39.5311 89.5542 39.2707L101.209 32.4831" stroke="#001B4B" stroke-width="0.192125" stroke-miterlimit="10"/>
<path d="M62.7117 35.2141C55.536 34.6001 54.6323 33.7799 53.1146 26.6484C52.5203 33.9273 51.7149 34.8408 44.6865 36.3634C51.8622 36.9773 52.7659 37.7975 54.2836 44.929C54.8779 37.6502 55.6833 36.7366 62.7117 35.2141Z" fill="white" stroke="#001B4B" stroke-width="0.0983402" stroke-miterlimit="10"/>
</svg>
