<svg width="130" height="130" viewBox="0 0 130 130" fill="none" xmlns="http://www.w3.org/2000/svg">
<path d="M83.6409 48.0336C84.6106 48.0336 85.4411 48.7388 85.5942 49.6945L93.5369 98.3393C93.7039 99.3739 92.9059 100.306 91.8621 100.306H68.9478L83.6456 48.0289L83.6409 48.0336Z" fill="#21002A"/>
<path opacity="0.45" d="M75.2242 48.2006C75.2242 48.2006 65.0035 58.0873 68.6269 67.2409C68.6269 67.2409 71.2807 72.9336 78.3837 69.737L78.7177 48.0521L75.2242 48.2006Z" fill="#1C032B"/>
<path d="M84.7979 108.943C95.4467 108.943 104.079 106.723 104.079 103.985C104.079 101.247 95.4467 99.0271 84.7979 99.0271C74.1491 99.0271 65.5166 101.247 65.5166 103.985C65.5166 106.723 74.1491 108.943 84.7979 108.943Z" fill="#21002A" stroke="#21002A" stroke-width="0.081776" stroke-linejoin="round"/>
<path d="M83.2603 60.2026L78.6023 100.826C78.4631 101.642 77.7579 102.241 76.9274 102.241L9.5949 102.074C8.80619 102.074 8.2077 101.364 8.3376 100.585L9.41396 94.1218L10.3929 88.2668L11.6363 80.8019L14.9396 61.0145L33.0474 60.7965L38.4756 60.7315L43.9037 60.6712L83.251 60.2026H83.2603Z" fill="white" stroke="#0E1844" stroke-width="0.19" stroke-linecap="round" stroke-linejoin="round"/>
<path d="M84.7314 49.7129L83.2607 60.2074L43.9134 60.6759L38.4852 60.7362L33.057 60.8012L14.9492 61.0193L16.5638 51.3506C16.7215 50.432 17.5148 49.7639 18.4474 49.7639L34.537 49.3232L39.4827 49.1886L44.7253 49.0448L83.27 47.9824C84.1932 47.9824 84.8891 48.8128 84.736 49.7175L84.7314 49.7129Z" fill="#B24DD4" stroke="#21002A" stroke-width="0.19" stroke-miterlimit="10"/>
<path d="M28.7264 49.7108C28.4619 49.7108 28.2439 49.4927 28.2439 49.2283C28.2439 46.3054 26.7282 44.5765 24.8306 44.5765C24.5662 44.5765 24.3481 44.3585 24.3481 44.094C24.3481 43.8296 24.5662 43.6115 24.8306 43.6115C27.2571 43.6115 29.2043 45.7672 29.2043 49.2236C29.2043 49.4881 28.9862 49.7062 28.7217 49.7062L28.7264 49.7108Z" fill="#21002A" stroke="#101841" stroke-width="0.19" stroke-miterlimit="10"/>
<path d="M61.1282 48.6263C60.8638 48.6263 60.6457 48.4083 60.6457 48.1438C60.6457 45.221 59.2609 43.8255 57.3634 43.8255C57.0989 43.8255 56.8809 43.6074 56.8809 43.343C56.8809 43.0785 57.0989 42.8605 57.3634 42.8605C59.7898 42.8605 61.6061 44.6828 61.6061 48.1392C61.6061 48.4036 61.388 48.6217 61.1236 48.6217L61.1282 48.6263Z" fill="#21002A" stroke="#101841" stroke-width="0.19" stroke-miterlimit="10"/>
<path d="M45.0181 49.1043C44.7536 49.1043 44.5356 48.8862 44.5356 48.6218C44.5356 45.6989 42.7343 44.2058 41.0977 44.2058C40.8333 44.2058 40.6152 43.9877 40.6152 43.7233C40.6152 43.4588 40.8333 43.2408 41.0977 43.2408C43.2148 43.2408 45.4658 45.6106 45.4959 48.6171C45.4986 48.8816 45.2779 49.0997 45.0134 49.0997L45.0181 49.1043Z" fill="#21002A" stroke="#101841" stroke-width="0.19" stroke-miterlimit="10"/>
<path d="M77.5493 49.1327C77.2849 49.1327 77.0668 48.9146 77.0668 48.6502C77.0668 45.7273 75.5265 43.3473 73.629 43.3473C73.3645 43.3473 73.1465 43.1292 73.1465 42.8648C73.1465 42.6003 73.3645 42.3823 73.629 42.3823C76.0554 42.3823 78.0272 45.1891 78.0272 48.6455C78.0272 48.91 77.8091 49.128 77.5447 49.128L77.5493 49.1327Z" fill="#21002A" stroke="#101841" stroke-width="0.19" stroke-miterlimit="10"/>
<path d="M24.9467 57.8545C26.1576 57.8545 27.1365 56.8756 27.1365 55.6647C27.1365 54.4538 26.1529 53.4749 24.9467 53.4749C23.7404 53.4749 22.7568 54.4538 22.7568 55.6647C22.7568 56.8756 23.7358 57.8545 24.9467 57.8545Z" fill="white" stroke="#101841" stroke-width="0.19" stroke-miterlimit="10"/>
<path d="M24.9468 56.9641C25.6659 56.9641 26.2504 56.3795 26.2504 55.6604C26.2504 54.9413 25.6659 54.3567 24.9468 54.3567C24.2276 54.3567 23.6431 54.9413 23.6431 55.6604C23.6431 56.3795 24.2276 56.9641 24.9468 56.9641Z" fill="#101841"/>
<path d="M24.8313 44.577C22.9338 44.577 21.3888 46.9571 21.3888 49.8799C21.3888 52.8028 22.9291 55.1828 24.8313 55.1828C25.0958 55.1828 25.3138 55.4009 25.3138 55.6653C25.3138 55.9298 25.0958 56.1478 24.8313 56.1478C22.4049 56.1478 20.4331 53.341 20.4331 49.8846C20.4331 46.4282 22.4095 43.6213 24.8313 43.6213" fill="white"/>
<path d="M24.8313 44.577C22.9338 44.577 21.3888 46.9571 21.3888 49.8799C21.3888 52.8028 22.9291 55.1828 24.8313 55.1828C25.0958 55.1828 25.3138 55.4009 25.3138 55.6653C25.3138 55.9298 25.0958 56.1478 24.8313 56.1478C22.4049 56.1478 20.4331 53.341 20.4331 49.8846C20.4331 46.4282 22.4095 43.6213 24.8313 43.6213" fill="#21002A"/>
<path d="M24.8313 44.577C22.9338 44.577 21.3888 46.9571 21.3888 49.8799C21.3888 52.8028 22.9291 55.1828 24.8313 55.1828C25.0958 55.1828 25.3138 55.4009 25.3138 55.6653C25.3138 55.9298 25.0958 56.1478 24.8313 56.1478C22.4049 56.1478 20.4331 53.341 20.4331 49.8846C20.4331 46.4282 22.4095 43.6213 24.8313 43.6213" stroke="#101841" stroke-width="0.19" stroke-miterlimit="10"/>
<path d="M41.2128 57.4834C42.4237 57.4834 43.4026 56.5044 43.4026 55.2935C43.4026 54.0826 42.4237 53.1037 41.2128 53.1037C40.0019 53.1037 39.0229 54.0826 39.0229 55.2935C39.0229 56.5044 40.0019 57.4834 41.2128 57.4834Z" fill="white" stroke="#101841" stroke-width="0.19" stroke-miterlimit="10"/>
<path d="M41.2134 56.5977C41.9325 56.5977 42.517 56.0131 42.517 55.294C42.517 54.5749 41.9325 53.9903 41.2134 53.9903C40.4942 53.9903 39.9097 54.5749 39.9097 55.294C39.9097 56.0131 40.4942 56.5977 41.2134 56.5977Z" fill="#101841"/>
<path d="M41.0965 44.2052C39.1989 44.2052 37.654 46.5852 37.654 49.5081C37.654 52.431 39.1943 54.811 41.0965 54.811C41.3609 54.811 41.579 55.029 41.579 55.2935C41.579 55.5579 41.3609 55.776 41.0965 55.776C38.67 55.776 36.6982 52.9691 36.6982 49.5127C36.6982 46.0563 38.6747 43.2495 41.0965 43.2495" fill="white"/>
<path d="M41.0965 44.2052C39.1989 44.2052 37.654 46.5852 37.654 49.5081C37.654 52.431 39.1943 54.811 41.0965 54.811C41.3609 54.811 41.579 55.029 41.579 55.2935C41.579 55.5579 41.3609 55.776 41.0965 55.776C38.67 55.776 36.6982 52.9691 36.6982 49.5127C36.6982 46.0563 38.6747 43.2495 41.0965 43.2495" fill="#21002A"/>
<path d="M41.0965 44.2052C39.1989 44.2052 37.654 46.5852 37.654 49.5081C37.654 52.431 39.1943 54.811 41.0965 54.811C41.3609 54.811 41.579 55.029 41.579 55.2935C41.579 55.5579 41.3609 55.776 41.0965 55.776C38.67 55.776 36.6982 52.9691 36.6982 49.5127C36.6982 46.0563 38.6747 43.2495 41.0965 43.2495" stroke="#101841" stroke-width="0.19" stroke-miterlimit="10"/>
<path d="M57.4789 57.103C58.6898 57.103 59.6687 56.1241 59.6687 54.9132C59.6687 53.7023 58.6898 52.7233 57.4789 52.7233C56.268 52.7233 55.2891 53.7023 55.2891 54.9132C55.2891 56.1241 56.268 57.103 57.4789 57.103Z" fill="white" stroke="#101841" stroke-width="0.19" stroke-miterlimit="10"/>
<path d="M57.479 56.2125C58.1981 56.2125 58.7827 55.628 58.7827 54.9089C58.7827 54.1897 58.1981 53.6052 57.479 53.6052C56.7599 53.6052 56.1753 54.1897 56.1753 54.9089C56.1753 55.628 56.7599 56.2125 57.479 56.2125Z" fill="#101841"/>
<path d="M57.3621 43.8248C55.4645 43.8248 53.9196 46.2049 53.9196 49.1277C53.9196 52.0506 55.4599 54.4306 57.3621 54.4306C57.6265 54.4306 57.8446 54.6487 57.8446 54.9131C57.8446 55.1776 57.6265 55.3956 57.3621 55.3956C54.9356 55.3956 52.9639 52.5888 52.9639 49.1324C52.9639 45.676 54.9403 42.8691 57.3621 42.8691" fill="white"/>
<path d="M57.3621 43.8248C55.4645 43.8248 53.9196 46.2049 53.9196 49.1277C53.9196 52.0506 55.4599 54.4306 57.3621 54.4306C57.6265 54.4306 57.8446 54.6487 57.8446 54.9131C57.8446 55.1776 57.6265 55.3956 57.3621 55.3956C54.9356 55.3956 52.9639 52.5888 52.9639 49.1324C52.9639 45.676 54.9403 42.8691 57.3621 42.8691" fill="#21002A"/>
<path d="M57.3621 43.8248C55.4645 43.8248 53.9196 46.2049 53.9196 49.1277C53.9196 52.0506 55.4599 54.4306 57.3621 54.4306C57.6265 54.4306 57.8446 54.6487 57.8446 54.9131C57.8446 55.1776 57.6265 55.3956 57.3621 55.3956C54.9356 55.3956 52.9639 52.5888 52.9639 49.1324C52.9639 45.676 54.9403 42.8691 57.3621 42.8691" stroke="#101841" stroke-width="0.19" stroke-miterlimit="10"/>
<path d="M73.7455 56.6253C74.9564 56.6253 75.9353 55.6463 75.9353 54.4354C75.9353 53.2245 74.9564 52.2456 73.7455 52.2456C72.5346 52.2456 71.5557 53.2245 71.5557 54.4354C71.5557 55.6463 72.5346 56.6253 73.7455 56.6253Z" fill="white" stroke="#101841" stroke-width="0.19" stroke-miterlimit="10"/>
<path d="M73.7451 55.7391C74.4642 55.7391 75.0488 55.1545 75.0488 54.4354C75.0488 53.7163 74.4642 53.1317 73.7451 53.1317C73.026 53.1317 72.4414 53.7163 72.4414 54.4354C72.4414 55.1545 73.026 55.7391 73.7451 55.7391Z" fill="#101841"/>
<path d="M73.6292 43.3519C71.7316 43.3519 70.1867 45.732 70.1867 48.6548C70.1867 51.5777 71.727 53.9577 73.6292 53.9577C73.8936 53.9577 74.1117 54.1758 74.1117 54.4402C74.1117 54.7047 73.8936 54.9227 73.6292 54.9227C71.2027 54.9227 69.231 52.1159 69.231 48.6595C69.231 45.2031 71.2074 42.3962 73.6292 42.3962" fill="white"/>
<path d="M73.6292 43.3519C71.7316 43.3519 70.1867 45.732 70.1867 48.6548C70.1867 51.5777 71.727 53.9577 73.6292 53.9577C73.8936 53.9577 74.1117 54.1758 74.1117 54.4402C74.1117 54.7047 73.8936 54.9227 73.6292 54.9227C71.2027 54.9227 69.231 52.1159 69.231 48.6595C69.231 45.2031 71.2074 42.3962 73.6292 42.3962" fill="#21002A"/>
<path d="M73.6292 43.3519C71.7316 43.3519 70.1867 45.732 70.1867 48.6548C70.1867 51.5777 71.727 53.9577 73.6292 53.9577C73.8936 53.9577 74.1117 54.1758 74.1117 54.4402C74.1117 54.7047 73.8936 54.9227 73.6292 54.9227C71.2027 54.9227 69.231 52.1159 69.231 48.6595C69.231 45.2031 71.2074 42.3962 73.6292 42.3962" stroke="#101841" stroke-width="0.19" stroke-miterlimit="10"/>
<path d="M58.0914 78.5611H50.093C49.745 78.5611 49.4806 78.2502 49.5362 77.9069L50.8121 69.8899C50.877 69.477 51.2343 69.1754 51.6472 69.1754H59.6456C59.9936 69.1754 60.258 69.4863 60.2024 69.8296L58.9265 77.8466C58.8616 78.2595 58.5043 78.5611 58.0914 78.5611Z" fill="white" stroke="#0E1844" stroke-width="0.16" stroke-linecap="round" stroke-linejoin="round"/>
<path d="M55.4103 93.95H47.4118C47.0639 93.95 46.7994 93.6392 46.8551 93.2959L48.1309 85.2789C48.1959 84.866 48.5531 84.5644 48.966 84.5644H56.9645C57.3124 84.5644 57.5769 84.8752 57.5212 85.2186L56.2454 93.2356C56.1804 93.6485 55.8232 93.95 55.4103 93.95Z" fill="white" stroke="#0E1844" stroke-width="0.16" stroke-linecap="round" stroke-linejoin="round"/>
<path d="M41.6817 78.5611H33.6833C33.3353 78.5611 33.0709 78.2502 33.1266 77.9069L34.4024 69.8899C34.4674 69.477 34.8246 69.1754 35.2375 69.1754H43.236C43.5839 69.1754 43.8484 69.4863 43.7927 69.8296L42.5168 77.8466C42.4519 78.2595 42.0946 78.5611 41.6817 78.5611Z" fill="white" stroke="#0E1844" stroke-width="0.16" stroke-linecap="round" stroke-linejoin="round"/>
<path d="M72.0382 94.3816H64.0397C63.6918 94.3816 63.4273 94.0707 63.483 93.7274L64.7589 85.7104C64.8238 85.2975 65.1811 84.9959 65.594 84.9959H73.5924C73.9404 84.9959 74.2048 85.3068 74.1491 85.6501L72.8733 93.6671C72.8083 94.08 72.4511 94.3816 72.0382 94.3816Z" fill="white" stroke="#0E1844" stroke-width="0.16" stroke-linecap="round" stroke-linejoin="round"/>
<path d="M74.5064 78.5611H66.508C66.16 78.5611 65.8956 78.2502 65.9513 77.9069L67.2271 69.8899C67.2921 69.477 67.6493 69.1754 68.0622 69.1754H76.0607C76.4086 69.1754 76.6731 69.4863 76.6174 69.8296L75.3415 77.8466C75.2766 78.2595 74.9194 78.5611 74.5064 78.5611Z" fill="white" stroke="#0E1844" stroke-width="0.16" stroke-linecap="round" stroke-linejoin="round"/>
<path d="M22.7989 94.3816H14.8005C14.4525 94.3816 14.1881 94.0707 14.2438 93.7274L15.5196 85.7104C15.5846 85.2975 15.9418 84.9959 16.3547 84.9959H24.3531C24.7011 84.9959 24.9656 85.3068 24.9099 85.6501L23.634 93.6671C23.5691 94.08 23.2118 94.3816 22.7989 94.3816Z" fill="white" stroke="#0E1844" stroke-width="0.16" stroke-linecap="round" stroke-linejoin="round"/>
<path d="M25.2672 78.5611H17.2688C16.9208 78.5611 16.6563 78.2502 16.712 77.9069L17.9879 69.8899C18.0528 69.477 18.4101 69.1754 18.823 69.1754H26.8214C27.1694 69.1754 27.4338 69.4863 27.3781 69.8296L26.1023 77.8466C26.0373 78.2595 25.6801 78.5611 25.2672 78.5611Z" fill="white" stroke="#0E1844" stroke-width="0.16" stroke-linecap="round" stroke-linejoin="round"/>
<path opacity="0.6" d="M41.589 96.6918H30.5888C30.111 96.6918 29.7444 96.265 29.8187 95.7918L31.5677 84.7684C31.6559 84.2024 32.143 83.7849 32.7183 83.7849H43.7185C44.1964 83.7849 44.5629 84.2117 44.4887 84.6849L42.7396 95.7083C42.6514 96.2743 42.1643 96.6918 41.589 96.6918Z" fill="#383C43"/>
<path d="M40.6705 95.5879H29.6704C29.1925 95.5879 28.826 95.1611 28.9002 94.6878L30.6493 83.6645C30.7374 83.0985 31.2246 82.6809 31.7999 82.6809H42.8C43.2779 82.6809 43.6444 83.1077 43.5702 83.581L41.8211 94.6043C41.733 95.1703 41.2458 95.5879 40.6705 95.5879Z" fill="#61DD80" stroke="#001B4B" stroke-width="0.16" stroke-miterlimit="10"/>
<path d="M39.5099 85.2372L39.4867 86.4018L37.4453 86.3925L37.4685 86.4435C37.5892 86.7265 37.6727 87.0281 37.7098 87.3436V87.3714H39.4681L39.4449 88.5359H37.617L37.6077 88.5591C37.4778 88.9999 37.2412 89.3942 36.935 89.7004C36.6195 90.0113 36.2344 90.2386 35.7798 90.3731L35.7241 90.3917L38.0995 92.8692L37.3061 93.695L34.1328 90.3917L34.1513 89.3896C34.3322 89.4128 34.5039 89.4267 34.6709 89.4267C35.223 89.4267 35.7102 89.2921 36.1741 88.8607C36.2623 88.7818 36.3365 88.689 36.3968 88.5823L36.4293 88.5266L33.061 88.5174L33.0842 87.3528L36.5824 87.3621L36.5731 87.3204C36.485 86.9075 36.2762 86.5502 36.0303 86.3878L33.1074 86.3739L33.1306 85.2094L39.5099 85.228V85.2372Z" fill="white" stroke="#001B4B" stroke-width="0.16" stroke-miterlimit="10"/>
<path d="M122.696 35.9979C122.549 38.4563 121.58 40.1459 120.13 40.8805L120.11 40.8903L113.671 43.8531L103.695 24.1906L110.208 21.1934C111.668 20.4784 113.602 20.7184 115.674 22.075C119.846 24.8076 122.99 31.0419 122.701 35.993L122.696 35.9979Z" fill="#23DB88" stroke="#001B4B" stroke-width="0.200558" stroke-miterlimit="10"/>
<path d="M113.685 43.8431C116.829 42.2466 117.143 36.5511 114.381 31.12C111.619 25.689 106.834 22.5841 103.695 24.1855C100.551 25.782 100.237 31.4775 102.999 36.9086C105.757 42.3397 110.546 45.4446 113.685 43.8431Z" fill="#0DBC69" stroke="#001B4B" stroke-width="0.200558" stroke-miterlimit="10"/>
<path d="M92.0248 53.5791C98.6263 55.7094 96.9417 58.5596 96.9417 58.5596C96.2071 60.019 92.8378 59.5636 92.8378 59.5636C94.6938 62.1542 93.0092 63.1973 93.0092 63.1973C90.7466 64.7743 86.393 62.595 86.393 62.595C88.4351 65.6607 86.1481 66.9927 86.1481 66.9927C80.9668 69.3287 71.3779 55.1119 71.3779 55.1119L78.1753 34.0194C78.6259 31.8254 80.5309 30.1702 82.8522 29.9645L105.027 25.89C105.546 25.7969 106.08 25.8949 106.521 26.1838C108.685 27.5795 114.841 32.3495 113.254 40.6405C113.166 41.1009 112.892 41.5024 112.486 41.7375L92.0346 53.5791H92.0248Z" fill="white" stroke="#001B4B" stroke-width="0.200558" stroke-miterlimit="10"/>
<path d="M86.3883 62.5947C86.3883 62.5947 81.4764 59.9894 78.0679 56.7082" stroke="#001B4B" stroke-width="0.180861" stroke-miterlimit="10"/>
<path d="M81.5352 38.2015C81.5352 38.2015 82.6077 45.2095 84.8604 46.6983" stroke="#001B4B" stroke-width="0.200558" stroke-miterlimit="10"/>
<path d="M92.8328 59.5636C92.8328 59.5636 85.6535 58.163 82.4653 55.6899" stroke="#001B4B" stroke-width="0.180861" stroke-miterlimit="10"/>
<path d="M75.0463 68.7066C75.4087 68.6576 75.776 68.5695 76.1482 68.4568C78.7291 67.6488 81.4667 65.3226 83.6019 62.0022C83.9839 61.4096 84.3463 60.7877 84.6842 60.1315C84.8066 59.8964 84.929 59.6564 85.0417 59.4116C85.1396 59.2059 85.2376 59.0002 85.3257 58.7896C87.5491 53.7601 87.7009 48.7012 85.9624 45.7923L86.4423 44.7834L83.8271 43.7795C82.9212 43.3485 81.9221 43.231 80.8692 43.3926C80.5705 43.4367 80.2619 43.5052 79.9534 43.5983C76.7114 44.5484 73.1903 47.9324 70.9277 52.6827C69.5222 55.6358 68.8317 58.628 68.8219 61.2236C68.8072 64.5782 69.9385 67.2619 72.1374 68.3099C72.3333 68.4029 72.5292 68.4764 72.7299 68.5352L74.7476 69.3089L75.0366 68.6968L75.0463 68.7066Z" fill="#D77300" stroke="#101841" stroke-width="0.0986515" stroke-linecap="round" stroke-linejoin="round"/>
<path d="M87.7788 47.3353L86.3586 46.586L80.4868 43.4713C80.6141 43.4419 80.7415 43.4175 80.8688 43.3979C80.9178 43.3979 80.9618 43.3832 81.0108 43.3832L86.1236 46.0914L87.9356 47.0512C88.0139 47.0904 88.0433 47.1884 88.0041 47.2716C87.9649 47.3549 87.8621 47.3842 87.7788 47.3402V47.3353Z" fill="#A45C0B"/>
<path d="M87.0394 49.1714C86.9953 49.2008 86.9366 49.2008 86.8827 49.1714L77.9893 44.4603C78.1019 44.3917 78.2145 44.328 78.3272 44.2742L87.0002 48.8678L87.0345 48.8874C87.1129 48.9266 87.1471 49.0294 87.1031 49.1078C87.0884 49.1372 87.0639 49.1567 87.0394 49.1714Z" fill="#A45C0B"/>
<path d="M85.9823 51.0182L76.1045 45.783C76.1926 45.7047 76.2857 45.6312 76.3787 45.5577L86.1341 50.7293C86.2125 50.7684 86.2467 50.8713 86.2027 50.9545C86.1586 51.0329 86.0606 51.0672 85.9774 51.0231L85.9823 51.0182Z" fill="#A45C0B"/>
<path d="M85.0858 52.8591L74.542 47.2762C74.6203 47.188 74.6987 47.1048 74.7771 47.0313L85.2425 52.575C85.316 52.6142 85.3503 52.7121 85.3062 52.7954C85.267 52.8738 85.1691 52.9031 85.0858 52.864V52.8591Z" fill="#A45C0B"/>
<path d="M84.1843 54.6959L73.2095 48.8779C73.2731 48.7898 73.3417 48.7016 73.4103 48.6183L84.341 54.4069C84.4193 54.4461 84.4536 54.544 84.4095 54.6273C84.3654 54.7105 84.2675 54.7399 84.1843 54.6959Z" fill="#A45C0B"/>
<path d="M83.2831 56.5374L72.0586 50.5921C72.1174 50.499 72.1712 50.4011 72.2349 50.3129L83.4447 56.2484C83.5231 56.2925 83.5525 56.3904 83.5084 56.4737C83.4692 56.5472 83.3713 56.5814 83.288 56.5374H83.2831Z" fill="#A45C0B"/>
<path d="M82.3864 58.3834L71.0737 52.3842C71.1227 52.2814 71.1717 52.1883 71.2207 52.0904L82.5382 58.0895C82.6166 58.1287 82.6509 58.2316 82.6068 58.3148C82.5676 58.3932 82.4648 58.4275 82.3815 58.3834H82.3864Z" fill="#A45C0B"/>
<path d="M81.4902 60.2251L70.2461 54.27C70.2804 54.1672 70.3245 54.0692 70.3636 53.9664L81.642 59.9361C81.7204 59.9802 81.7449 60.0782 81.7057 60.1565C81.6665 60.2349 81.5686 60.2643 81.4853 60.2251H81.4902Z" fill="#A45C0B"/>
<path d="M80.5891 62.0611L69.5801 56.2285C69.6095 56.1256 69.6437 56.0179 69.6731 55.9102L80.741 61.7722C80.8193 61.8114 80.8536 61.9142 80.8095 61.9926C80.7703 62.0709 80.6675 62.1052 80.5891 62.0611Z" fill="#A45C0B"/>
<path d="M79.6939 63.9078L69.0962 58.2956C69.1158 58.1829 69.1354 58.0703 69.1599 57.9576L79.8408 63.614C79.9192 63.6581 79.9534 63.756 79.9094 63.8393C79.8653 63.9176 79.7673 63.9519 79.6841 63.9078H79.6939Z" fill="#A45C0B"/>
<path d="M78.7926 65.749L68.8413 60.4746C68.8462 60.3571 68.8511 60.2347 68.8609 60.1171L78.9395 65.4551C79.0178 65.4943 79.0521 65.5972 79.008 65.6804C78.964 65.7637 78.866 65.7931 78.7877 65.749H78.7926Z" fill="#A45C0B"/>
<path d="M78.053 67.5807C78.0089 67.6101 77.9452 67.6101 77.8914 67.5856L68.9098 62.8255C68.8951 62.6982 68.8804 62.5659 68.8706 62.4386L78.0481 67.2967C78.1264 67.3408 78.1558 67.4338 78.1166 67.5171C78.102 67.5464 78.0775 67.566 78.053 67.5807Z" fill="#A45C0B"/>
<path d="M76.9955 69.4272L75.4921 68.6289L69.5958 65.5094C69.5321 65.3576 69.4635 65.2058 69.4097 65.0392L75.9573 68.5065L77.1474 69.1383C77.2257 69.1774 77.26 69.2803 77.2159 69.3635C77.1718 69.4419 77.0739 69.4713 76.9955 69.4272Z" fill="#A45C0B"/>
<path d="M87.6515 60.4108C87.534 60.6556 87.4164 60.8956 87.294 61.1307C86.9561 61.782 86.5937 62.4088 86.2117 63.0014C84.0765 66.3218 81.3389 68.648 78.7581 69.456C77.333 69.9017 75.9519 69.887 74.7521 69.314C72.5532 68.266 71.422 65.5823 71.4367 62.2276C71.4416 59.637 72.1321 56.635 73.5425 53.6868C75.805 48.9365 79.3262 45.5525 82.5682 44.6024C82.8767 44.5142 83.1803 44.4408 83.4839 44.3967C84.532 44.2351 85.5359 44.3526 86.4419 44.7836C90.2177 46.5858 90.8445 53.2118 87.9405 59.7888C87.8474 59.9945 87.7544 60.2051 87.6564 60.4108H87.6515Z" fill="#F5D30E" stroke="#101841" stroke-width="0.0986515" stroke-linecap="round" stroke-linejoin="round"/>
<path d="M75.8398 67.0416C75.7468 66.9975 75.6635 66.9534 75.5803 66.9045C75.5803 66.9045 75.5803 66.9045 75.5754 66.8996C72.6468 65.2002 72.304 59.6712 74.8555 54.3185C77.3629 49.0539 81.7606 45.8511 84.9144 46.8893C85.0663 46.9383 85.2132 46.9971 85.3552 47.0656C88.5286 48.5789 88.9694 54.2744 86.3445 59.7936C83.7146 65.308 79.0132 68.5548 75.8398 67.0416Z" fill="#CD7302" stroke="#101841" stroke-width="0.0986515" stroke-linecap="round" stroke-linejoin="round"/>
<path d="M75.5803 66.9045C75.5803 66.9045 75.5803 66.9045 75.5754 66.8996C72.6468 65.2002 72.304 59.6712 74.8555 54.3185C77.3629 49.0539 81.7606 45.8511 84.9144 46.8893C87.8577 48.5789 88.2054 54.1128 85.6539 59.4851C83.1465 64.7595 78.739 67.9525 75.5803 66.9094V66.9045Z" fill="#FFC200" stroke="#101841" stroke-width="0.0986515" stroke-linecap="round" stroke-linejoin="round"/>
<path opacity="0.49" d="M88.0039 53.9368C88.1851 51.9192 87.8962 50.1268 87.1665 48.8241C87.666 48.2119 88.2243 47.541 88.6896 46.9876C89.4192 48.305 89.7816 50.0386 89.7572 51.9828L88.0039 53.9319V53.9368Z" fill="#FFF3D8"/>
<path d="M112.716 41.5614L101.217 49.4117C100.82 49.7692 100.375 50.0582 99.8849 50.2687L85.0217 57.6293C80.908 59.0153 79.096 57.0857 79.096 57.0857C76.2752 54.3482 79.1646 50.9299 79.1646 50.9299L89.0767 41.2725" fill="white"/>
<path d="M112.716 41.5614L101.217 49.4117C100.82 49.7692 100.375 50.0582 99.8849 50.2687L85.0217 57.6293C80.908 59.0153 79.096 57.0857 79.096 57.0857C76.2752 54.3482 79.1646 50.9299 79.1646 50.9299L89.0767 41.2725" stroke="#001B4B" stroke-width="0.200558" stroke-miterlimit="10"/>
<path d="M31.3455 21.8353C30.2106 29.8364 29.2722 30.8111 21.379 32.0406C29.271 33.1914 30.2303 34.1421 31.4425 42.1501C32.5774 34.149 33.5157 33.1743 41.409 31.9448C33.517 30.794 32.5577 29.8433 31.3455 21.8353Z" fill="white" stroke="#0E1844" stroke-width="0.16" stroke-linecap="round" stroke-linejoin="round"/>
<path opacity="0.45" d="M95.2182 80.1196C95.2182 80.1196 89.7533 74.9598 80.4294 74.8074C69.1356 74.6235 63.3126 75.7217 63.3126 77.6343L63.3125 99.6345C63.3125 99.6345 63.3125 98.9604 63.3125 100.922C63.3125 102.883 70.1062 102.33 79.4647 102.33C88.8232 102.33 95.2644 100.885 95.2644 99.3507C95.2644 99.2562 95.2355 99.1668 95.1778 99.0722L95.2182 80.1144V80.1196Z" fill="#1C032B"/>
<path d="M66.6177 99.973V103.411C66.6177 103.615 66.7515 103.807 67.0016 103.999C67.1412 104.103 67.3099 104.196 67.5136 104.295C67.6066 104.342 67.7055 104.383 67.8161 104.429C67.9673 104.487 68.1302 104.551 68.3105 104.609C68.4443 104.65 68.5898 104.697 68.7352 104.737C68.8981 104.784 69.0668 104.831 69.2472 104.877C69.6195 104.97 70.0267 105.057 70.463 105.145C70.5095 105.156 70.5503 105.162 70.5968 105.168C70.719 105.197 70.8469 105.22 70.9749 105.238C71.0098 105.238 71.0506 105.255 71.0913 105.255C71.4461 105.319 71.8126 105.377 72.1966 105.43C72.3595 105.453 72.534 105.476 72.7085 105.5C72.9238 105.529 73.1506 105.552 73.3775 105.581C73.5404 105.598 73.7033 105.616 73.872 105.633C73.8895 105.633 73.9069 105.633 73.9302 105.633C74.0931 105.651 74.2676 105.668 74.4421 105.692C74.8319 105.726 75.2391 105.761 75.658 105.796C75.8208 105.814 75.9954 105.825 76.1583 105.831H76.1699L76.6527 105.866C76.8971 105.883 77.1356 105.901 77.3857 105.913C77.5603 105.924 77.729 105.93 77.8977 105.936C78.2409 105.953 78.5841 105.971 78.939 105.977C78.9972 105.977 79.0553 105.977 79.1135 105.977C79.2182 105.977 79.3287 105.988 79.4393 105.994C79.5033 105.994 79.5614 105.994 79.6313 105.994C80.0327 106.006 80.4399 106.011 80.8529 106.017C81.0274 106.017 81.1961 106.017 81.3649 106.017H82.5807C82.7552 106.017 82.9297 106.017 83.0984 106.017C83.5057 106.017 83.9129 106 84.3143 105.994C84.3783 105.994 84.4423 105.994 84.5063 105.982C84.611 105.982 84.7215 105.982 84.8262 105.971C84.8844 105.971 84.9484 105.971 85.0066 105.971C85.3614 105.959 85.7046 105.942 86.0479 105.93C86.2224 105.918 86.3911 105.913 86.5598 105.907C86.8041 105.889 87.0485 105.878 87.287 105.86L87.7698 105.825H87.7873C87.9618 105.819 88.1247 105.802 88.2876 105.79C88.7006 105.755 89.1078 105.726 89.5093 105.686L90.0212 105.628C90.0212 105.628 90.0561 105.628 90.0735 105.628C90.2481 105.61 90.4109 105.593 90.5738 105.575C90.8007 105.546 91.0218 105.523 91.2428 105.494C91.4174 105.47 91.5919 105.447 91.7606 105.424C92.1445 105.372 92.511 105.313 92.8601 105.249C92.895 105.249 92.9357 105.232 92.9764 105.232C93.1044 105.214 93.2382 105.191 93.3604 105.162C93.4011 105.162 93.4476 105.145 93.4884 105.139C93.9305 105.052 94.3377 104.964 94.71 104.871C94.8904 104.825 95.0591 104.778 95.222 104.732C95.3674 104.691 95.507 104.644 95.6466 104.604C95.827 104.545 95.9957 104.481 96.1469 104.417C96.2516 104.377 96.3505 104.336 96.4436 104.29C96.6531 104.196 96.8218 104.098 96.9556 103.993C97.2057 103.801 97.3453 103.609 97.3453 103.405V99.9672H66.6177V99.973Z" fill="#CF7302" stroke="#101841" stroke-width="0.087773" stroke-linecap="round" stroke-linejoin="round"/>
<path d="M95.6357 99.9731V104.61C95.8161 104.551 95.9848 104.487 96.136 104.423V99.9731H95.6357Z" fill="#A55C0B"/>
<path d="M92.8555 99.9731V105.255C92.8904 105.255 92.9311 105.238 92.9718 105.238C93.0998 105.22 93.2336 105.197 93.3558 105.168V99.9731H92.8555Z" fill="#A55C0B"/>
<path d="M90.0742 99.9731V105.633C90.2487 105.616 90.4116 105.599 90.5745 105.581V99.9731H90.0742Z" fill="#A55C0B"/>
<path d="M87.2881 99.9731V105.866L87.7709 105.831H87.7884V99.9731H87.2881Z" fill="#A55C0B"/>
<path d="M84.5078 99.9731V105.988C84.6125 105.988 84.7231 105.988 84.8278 105.977C84.8859 105.977 84.9499 105.977 85.0081 105.977V99.9731H84.5078Z" fill="#A55C0B"/>
<path d="M81.7266 99.9731H82.2269V106.023H81.7266V99.9731Z" fill="#A55C0B"/>
<path d="M78.9399 99.9731V105.977C78.9981 105.977 79.0562 105.977 79.1144 105.977C79.2191 105.977 79.3297 105.988 79.4344 105.994V99.9731H78.9341H78.9399Z" fill="#A55C0B"/>
<path d="M76.165 99.9731V105.831H76.1767C76.3396 105.843 76.5024 105.855 76.6595 105.866V99.9731H76.165Z" fill="#A55C0B"/>
<path d="M73.3784 99.9731V105.581C73.5413 105.599 73.7042 105.616 73.8729 105.633V99.9731H73.3784Z" fill="#A55C0B"/>
<path d="M70.5977 99.9731V105.168C70.7198 105.197 70.8478 105.22 70.9758 105.238C71.0107 105.238 71.0514 105.255 71.0921 105.255V99.9731H70.5977Z" fill="#A55C0B"/>
<path d="M67.8164 99.9731V104.429C67.9677 104.487 68.1306 104.551 68.3109 104.61V99.9731H67.8164Z" fill="#A55C0B"/>
<path d="M66.6177 99.9675C66.6177 101.329 72.7492 102.452 80.5737 102.568C81.0391 102.574 81.5045 102.58 81.9699 102.58C90.4517 102.58 97.322 101.41 97.322 99.9675C97.322 98.5248 90.4458 97.3555 81.9699 97.3555C78.875 97.3555 75.9954 97.5125 73.5869 97.7801C69.3868 98.2455 66.6177 99.0542 66.6177 99.9733V99.9675Z" fill="#F6D40F" stroke="#101841" stroke-width="0.087773" stroke-linecap="round" stroke-linejoin="round"/>
<path d="M68.9624 99.7466C68.9624 99.8455 69.0438 99.9386 69.2009 100.032C70.3644 100.718 75.6408 101.242 81.976 101.242C88.3112 101.242 93.5934 100.718 94.7569 100.032C94.9139 99.9386 94.9954 99.8455 94.9954 99.7466C94.9954 98.9206 89.1663 98.2457 81.9818 98.2457C74.7973 98.2457 68.9682 98.9147 68.9682 99.7466H68.9624Z" fill="#CE7303" stroke="#101841" stroke-width="0.087773" stroke-linecap="round" stroke-linejoin="round"/>
<path d="M69.2017 100.037C70.3651 100.723 75.6415 101.247 81.9767 101.247C88.3119 101.247 93.5941 100.723 94.7576 100.037C93.5941 99.3504 88.3177 98.8268 81.9767 98.8268C75.6357 98.8268 70.3651 99.3504 69.2017 100.037Z" fill="#F6B90B" stroke="#101841" stroke-width="0.087773" stroke-linecap="round" stroke-linejoin="round"/>
<path opacity="0.5" d="M66.6177 99.9676C66.6177 101.329 72.7492 102.452 80.5737 102.568C83.5813 102.236 85.8559 101.725 86.9089 101.125C85.3847 101.201 83.7209 101.236 81.9757 101.236C75.6405 101.236 70.3641 100.712 69.2006 100.026C69.0435 99.9327 68.9621 99.8397 68.9621 99.7408C68.9621 98.9438 74.3258 98.298 81.1089 98.2457C78.9506 97.9839 76.3851 97.8152 73.5986 97.7745C69.3984 98.2399 66.6293 99.0485 66.6293 99.9676H66.6235H66.6177Z" fill="#F6DA80"/>
<path opacity="0.49" d="M66.6177 99.9731C66.6177 100.462 67.4205 100.939 68.933 101.358C69.858 101.608 71.0389 101.841 72.4177 102.027L76.6353 101.125C72.8365 100.927 70.0092 100.526 69.1948 100.043C69.2297 100.02 69.2704 99.9964 69.317 99.979H66.6177V99.9731Z" fill="#FFF5DA"/>
<path d="M66.6177 95.715V99.1531C66.6177 99.3567 66.7515 99.5487 67.0016 99.7406C67.1412 99.8454 67.3099 99.9384 67.5136 100.037C67.6066 100.084 67.7055 100.125 67.8161 100.171C67.9673 100.229 68.1302 100.293 68.3105 100.351C68.4443 100.392 68.5898 100.439 68.7352 100.479C68.8981 100.526 69.0668 100.573 69.2472 100.619C69.6195 100.712 70.0267 100.799 70.463 100.887C70.5095 100.898 70.5503 100.904 70.5968 100.91C70.719 100.939 70.8469 100.962 70.9749 100.98C71.0098 100.98 71.0506 100.997 71.0913 100.997C71.4461 101.061 71.8126 101.119 72.1966 101.172C72.3595 101.195 72.534 101.218 72.7085 101.242C72.9238 101.271 73.1506 101.294 73.3775 101.323C73.5404 101.34 73.7033 101.358 73.872 101.375C73.8895 101.375 73.9069 101.375 73.9302 101.375C74.0931 101.393 74.2676 101.41 74.4421 101.434C74.8319 101.468 75.2391 101.503 75.658 101.538C75.8208 101.556 75.9954 101.567 76.1583 101.573H76.1699L76.6527 101.608C76.8971 101.625 77.1356 101.643 77.3857 101.655C77.5603 101.666 77.729 101.672 77.8977 101.678C78.2409 101.695 78.5841 101.713 78.939 101.719C78.9972 101.719 79.0553 101.719 79.1135 101.719C79.2182 101.719 79.3287 101.73 79.4393 101.736C79.5033 101.736 79.5614 101.736 79.6313 101.736C80.0327 101.748 80.4399 101.753 80.8529 101.759C81.0274 101.759 81.1961 101.759 81.3649 101.759H82.5807C82.7552 101.759 82.9297 101.759 83.0984 101.759C83.5057 101.759 83.9129 101.742 84.3143 101.736C84.3783 101.736 84.4423 101.736 84.5063 101.724C84.611 101.724 84.7215 101.724 84.8262 101.713C84.8844 101.713 84.9484 101.713 85.0066 101.713C85.3614 101.701 85.7046 101.684 86.0479 101.672C86.2224 101.66 86.3911 101.655 86.5598 101.649C86.8041 101.631 87.0485 101.62 87.287 101.602L87.7698 101.567H87.7873C87.9618 101.562 88.1247 101.544 88.2876 101.532C88.7006 101.498 89.1078 101.468 89.5093 101.428L90.0212 101.37C90.0212 101.37 90.0561 101.37 90.0735 101.37C90.2481 101.352 90.4109 101.335 90.5738 101.317C90.8007 101.288 91.0218 101.265 91.2428 101.236C91.4174 101.212 91.5919 101.189 91.7606 101.166C92.1445 101.114 92.511 101.055 92.8601 100.991C92.895 100.991 92.9357 100.974 92.9764 100.974C93.1044 100.956 93.2382 100.933 93.3604 100.904C93.4011 100.904 93.4476 100.887 93.4884 100.881C93.9305 100.794 94.3377 100.706 94.71 100.613C94.8904 100.567 95.0591 100.52 95.222 100.474C95.3674 100.433 95.507 100.386 95.6466 100.346C95.827 100.287 95.9957 100.223 96.1469 100.16C96.2516 100.119 96.3505 100.078 96.4436 100.032C96.6531 99.9384 96.8218 99.8395 96.9556 99.7348C97.2057 99.5429 97.3453 99.3509 97.3453 99.1473V95.7092H66.6177V95.715Z" fill="#CF7302" stroke="#101841" stroke-width="0.087773" stroke-linecap="round" stroke-linejoin="round"/>
<path d="M95.6357 95.7147V100.351C95.8161 100.293 95.9848 100.229 96.136 100.165V95.7147H95.6357Z" fill="#A55C0B"/>
<path d="M92.8555 95.7147V100.997C92.8904 100.997 92.9311 100.979 92.9718 100.979C93.0998 100.962 93.2336 100.939 93.3558 100.91V95.7147H92.8555Z" fill="#A55C0B"/>
<path d="M90.0742 95.7147V101.375C90.2487 101.358 90.4116 101.34 90.5745 101.323V95.7147H90.0742Z" fill="#A55C0B"/>
<path d="M87.2881 95.7147V101.608L87.7709 101.573H87.7884V95.7147H87.2881Z" fill="#A55C0B"/>
<path d="M84.5078 95.7147V101.73C84.6125 101.73 84.7231 101.73 84.8278 101.718C84.8859 101.718 84.9499 101.718 85.0081 101.718V95.7147H84.5078Z" fill="#A55C0B"/>
<path d="M81.7266 95.7147H82.2269V101.765H81.7266V95.7147Z" fill="#A55C0B"/>
<path d="M78.9399 95.7147V101.718C78.9981 101.718 79.0562 101.718 79.1144 101.718C79.2191 101.718 79.3297 101.73 79.4344 101.736V95.7147H78.9341H78.9399Z" fill="#A55C0B"/>
<path d="M76.165 95.7147V101.573H76.1767C76.3396 101.584 76.5024 101.596 76.6595 101.608V95.7147H76.165Z" fill="#A55C0B"/>
<path d="M73.3784 95.7147V101.323C73.5413 101.34 73.7042 101.358 73.8729 101.375V95.7147H73.3784Z" fill="#A55C0B"/>
<path d="M70.5977 95.7147V100.91C70.7198 100.939 70.8478 100.962 70.9758 100.979C71.0107 100.979 71.0514 100.997 71.0921 100.997V95.7147H70.5977Z" fill="#A55C0B"/>
<path d="M67.8164 95.7147V100.171C67.9677 100.229 68.1306 100.293 68.3109 100.351V95.7147H67.8164Z" fill="#A55C0B"/>
<path d="M66.6177 95.7147C66.6177 97.076 72.7492 98.1987 80.5737 98.3151C81.0391 98.3209 81.5045 98.3267 81.9699 98.3267C90.4517 98.3267 97.322 97.1574 97.322 95.7147C97.322 94.272 90.4458 93.1027 81.9699 93.1027C78.875 93.1027 75.9954 93.2597 73.5869 93.5273C69.3868 93.9927 66.6177 94.8013 66.6177 95.7205V95.7147Z" fill="#F6D40F" stroke="#101841" stroke-width="0.087773" stroke-linecap="round" stroke-linejoin="round"/>
<path d="M68.9624 95.4881C68.9624 95.587 69.0438 95.68 69.2009 95.7731C70.3644 96.4596 75.6408 96.9832 81.976 96.9832C88.3112 96.9832 93.5934 96.4596 94.7569 95.7731C94.9139 95.68 94.9954 95.587 94.9954 95.4881C94.9954 94.662 89.1663 93.9872 81.9818 93.9872C74.7973 93.9872 68.9682 94.6562 68.9682 95.4881H68.9624Z" fill="#CE7303" stroke="#101841" stroke-width="0.087773" stroke-linecap="round" stroke-linejoin="round"/>
<path d="M69.2017 95.7788C70.3651 96.4653 75.6415 96.9888 81.9767 96.9888C88.3119 96.9888 93.5941 96.4653 94.7576 95.7788C93.5941 95.0924 88.3177 94.5688 81.9767 94.5688C75.6357 94.5688 70.3651 95.0924 69.2017 95.7788Z" fill="#F6B90B" stroke="#101841" stroke-width="0.087773" stroke-linecap="round" stroke-linejoin="round"/>
<path opacity="0.5" d="M66.6177 95.715C66.6177 97.0762 72.7492 98.199 80.5737 98.3154C83.5813 97.9838 85.8559 97.4718 86.9089 96.8726C85.3847 96.9483 83.7209 96.9832 81.9757 96.9832C75.6405 96.9832 70.3641 96.4596 69.2006 95.7731C69.0435 95.6801 68.9621 95.587 68.9621 95.4881C68.9621 94.6911 74.3258 94.0454 81.1089 93.993C78.9506 93.7312 76.3851 93.5625 73.5986 93.5218C69.3984 93.9872 66.6293 94.7958 66.6293 95.715H66.6235H66.6177Z" fill="#F6DA80"/>
<path opacity="0.49" d="M66.6177 95.7147C66.6177 96.2033 67.4205 96.6803 68.933 97.0992C69.858 97.3494 71.0389 97.5821 72.4177 97.7682L76.6353 96.8665C72.8365 96.6687 70.0092 96.2673 69.1948 95.7845C69.2297 95.7612 69.2704 95.7379 69.317 95.7205H66.6177V95.7147Z" fill="#FFF5DA"/>
<path d="M66.6177 91.4625V94.9006C66.6177 95.1042 66.7515 95.2962 67.0016 95.4881C67.1412 95.5929 67.3099 95.6859 67.5136 95.7848C67.6066 95.8314 67.7055 95.8721 67.8161 95.9186C67.9673 95.9768 68.1302 96.0408 68.3105 96.099C68.4443 96.1397 68.5898 96.1862 68.7352 96.227C68.8981 96.2735 69.0668 96.32 69.2472 96.3666C69.6195 96.4597 70.0267 96.5469 70.463 96.6342C70.5095 96.6458 70.5503 96.6516 70.5968 96.6574C70.719 96.6865 70.8469 96.7098 70.9749 96.7273C71.0098 96.7273 71.0506 96.7447 71.0913 96.7447C71.4461 96.8087 71.8126 96.8669 72.1966 96.9192C72.3595 96.9425 72.534 96.9658 72.7085 96.989C72.9238 97.0181 73.1506 97.0414 73.3775 97.0705C73.5404 97.0879 73.7033 97.1054 73.872 97.1228C73.8895 97.1228 73.9069 97.1228 73.9302 97.1228C74.0931 97.1403 74.2676 97.1577 74.4421 97.181C74.8319 97.2159 75.2391 97.2508 75.658 97.2857C75.8208 97.3032 75.9954 97.3148 76.1583 97.3206H76.1699L76.6527 97.3555C76.8971 97.373 77.1356 97.3904 77.3857 97.4021C77.5603 97.4137 77.729 97.4195 77.8977 97.4253C78.2409 97.4428 78.5841 97.4603 78.939 97.4661C78.9972 97.4661 79.0553 97.4661 79.1135 97.4661C79.2182 97.4661 79.3287 97.4777 79.4393 97.4835C79.5033 97.4835 79.5614 97.4835 79.6313 97.4835C80.0327 97.4952 80.4399 97.501 80.8529 97.5068C81.0274 97.5068 81.1961 97.5068 81.3649 97.5068H82.5807C82.7552 97.5068 82.9297 97.5068 83.0984 97.5068C83.5057 97.5068 83.9129 97.4893 84.3143 97.4835C84.3783 97.4835 84.4423 97.4835 84.5063 97.4719C84.611 97.4719 84.7215 97.4719 84.8262 97.4603C84.8844 97.4603 84.9484 97.4603 85.0066 97.4603C85.3614 97.4486 85.7046 97.4312 86.0479 97.4195C86.2224 97.4079 86.3911 97.4021 86.5598 97.3963C86.8041 97.3788 87.0485 97.3672 87.287 97.3497L87.7698 97.3148H87.7873C87.9618 97.309 88.1247 97.2915 88.2876 97.2799C88.7006 97.245 89.1078 97.2159 89.5093 97.1752L90.0212 97.117C90.0212 97.117 90.0561 97.117 90.0735 97.117C90.2481 97.0996 90.4109 97.0821 90.5738 97.0647C90.8007 97.0356 91.0218 97.0123 91.2428 96.9832C91.4174 96.96 91.5919 96.9367 91.7606 96.9134C92.1445 96.8611 92.511 96.8029 92.8601 96.7389C92.895 96.7389 92.9357 96.7214 92.9764 96.7214C93.1044 96.704 93.2382 96.6807 93.3604 96.6516C93.4011 96.6516 93.4476 96.6342 93.4884 96.6284C93.9305 96.5411 94.3377 96.4538 94.71 96.3608C94.8904 96.3142 95.0591 96.2677 95.222 96.2211C95.3674 96.1804 95.507 96.1339 95.6466 96.0932C95.827 96.035 95.9957 95.971 96.1469 95.907C96.2516 95.8663 96.3505 95.8256 96.4436 95.779C96.6531 95.6859 96.8218 95.587 96.9556 95.4823C97.2057 95.2903 97.3453 95.0984 97.3453 94.8948V91.4567H66.6177V91.4625Z" fill="#CF7302" stroke="#101841" stroke-width="0.087773" stroke-linecap="round" stroke-linejoin="round"/>
<path d="M95.6357 91.4625V96.099C95.8161 96.0408 95.9848 95.9768 96.136 95.9128V91.4625H95.6357Z" fill="#A55C0B"/>
<path d="M92.8555 91.4625V96.7447C92.8904 96.7447 92.9311 96.7272 92.9718 96.7272C93.0998 96.7098 93.2336 96.6865 93.3558 96.6574V91.4625H92.8555Z" fill="#A55C0B"/>
<path d="M90.0742 91.4625V97.1228C90.2487 97.1054 90.4116 97.0879 90.5745 97.0705V91.4625H90.0742Z" fill="#A55C0B"/>
<path d="M87.2881 91.4625V97.3555L87.7709 97.3206H87.7884V91.4625H87.2881Z" fill="#A55C0B"/>
<path d="M84.5078 91.4625V97.4777C84.6125 97.4777 84.7231 97.4777 84.8278 97.4661C84.8859 97.4661 84.9499 97.4661 85.0081 97.4661V91.4625H84.5078Z" fill="#A55C0B"/>
<path d="M81.7266 91.4625H82.2269V97.5126H81.7266V91.4625Z" fill="#A55C0B"/>
<path d="M78.9399 91.4625V97.4661C78.9981 97.4661 79.0562 97.4661 79.1144 97.4661C79.2191 97.4661 79.3297 97.4777 79.4344 97.4835V91.4625H78.9341H78.9399Z" fill="#A55C0B"/>
<path d="M76.165 91.4625V97.3206H76.1767C76.3396 97.3323 76.5024 97.3439 76.6595 97.3555V91.4625H76.165Z" fill="#A55C0B"/>
<path d="M73.3784 91.4625V97.0705C73.5413 97.0879 73.7042 97.1054 73.8729 97.1228V91.4625H73.3784Z" fill="#A55C0B"/>
<path d="M70.5977 91.4625V96.6574C70.7198 96.6865 70.8478 96.7098 70.9758 96.7272C71.0107 96.7272 71.0514 96.7447 71.0921 96.7447V91.4625H70.5977Z" fill="#A55C0B"/>
<path d="M67.8164 91.4625V95.9186C67.9677 95.9768 68.1306 96.0408 68.3109 96.099V91.4625H67.8164Z" fill="#A55C0B"/>
<path d="M66.6177 91.4625C66.6177 92.8238 72.7492 93.9465 80.5737 94.0629C81.0391 94.0687 81.5045 94.0745 81.9699 94.0745C90.4517 94.0745 97.322 92.9052 97.322 91.4625C97.322 90.0198 90.4458 88.8505 81.9699 88.8505C78.875 88.8505 75.9954 89.0075 73.5869 89.2751C69.3868 89.7405 66.6177 90.5492 66.6177 91.4683V91.4625Z" fill="#F6D40F" stroke="#101841" stroke-width="0.087773" stroke-linecap="round" stroke-linejoin="round"/>
<path d="M68.9624 91.2354C68.9624 91.3343 69.0438 91.4274 69.2009 91.5205C70.3644 92.207 75.6408 92.7305 81.976 92.7305C88.3112 92.7305 93.5934 92.207 94.7569 91.5205C94.9139 91.4274 94.9954 91.3343 94.9954 91.2354C94.9954 90.4094 89.1663 89.7346 81.9818 89.7346C74.7973 89.7346 68.9682 90.4036 68.9682 91.2354H68.9624Z" fill="#CE7303" stroke="#101841" stroke-width="0.087773" stroke-linecap="round" stroke-linejoin="round"/>
<path d="M69.2017 91.5266C70.3651 92.2131 75.6415 92.7366 81.9767 92.7366C88.3119 92.7366 93.5941 92.2131 94.7576 91.5266C93.5941 90.8401 88.3177 90.3166 81.9767 90.3166C75.6357 90.3166 70.3651 90.8401 69.2017 91.5266Z" fill="#F6B90B" stroke="#101841" stroke-width="0.087773" stroke-linecap="round" stroke-linejoin="round"/>
<path opacity="0.5" d="M66.6177 91.4629C66.6177 92.8242 72.7492 93.947 80.5737 94.0633C83.5813 93.7317 85.8559 93.2198 86.9089 92.6206C85.3847 92.6962 83.7209 92.7311 81.9757 92.7311C75.6405 92.7311 70.3641 92.2076 69.2006 91.5211C69.0435 91.428 68.9621 91.335 68.9621 91.2361C68.9621 90.4391 74.3258 89.7933 81.1089 89.741C78.9506 89.4792 76.3851 89.3105 73.5986 89.2698C69.3984 89.7352 66.6293 90.5438 66.6293 91.4629H66.6235H66.6177Z" fill="#F6DA80"/>
<path opacity="0.49" d="M66.6177 91.4625C66.6177 91.9511 67.4205 92.4282 68.933 92.847C69.858 93.0972 71.0389 93.3299 72.4177 93.516L76.6353 92.6143C72.8365 92.4165 70.0092 92.0151 69.1948 91.5323C69.2297 91.509 69.2704 91.4857 69.317 91.4683H66.6177V91.4625Z" fill="#FFF5DA"/>
<path d="M66.6177 87.2048V90.6429C66.6177 90.8465 66.7515 91.0385 67.0016 91.2304C67.1412 91.3352 67.3099 91.4282 67.5136 91.5271C67.6066 91.5737 67.7055 91.6144 67.8161 91.6609C67.9673 91.7191 68.1302 91.7831 68.3105 91.8413C68.4443 91.882 68.5898 91.9285 68.7352 91.9693C68.8981 92.0158 69.0668 92.0623 69.2472 92.1089C69.6195 92.202 70.0267 92.2892 70.463 92.3765C70.5095 92.3881 70.5503 92.3939 70.5968 92.3997C70.719 92.4288 70.8469 92.4521 70.9749 92.4696C71.0098 92.4696 71.0506 92.487 71.0913 92.487C71.4461 92.551 71.8126 92.6092 72.1966 92.6615C72.3595 92.6848 72.534 92.7081 72.7085 92.7313C72.9238 92.7604 73.1506 92.7837 73.3775 92.8128C73.5404 92.8302 73.7033 92.8477 73.872 92.8651C73.8895 92.8651 73.9069 92.8651 73.9302 92.8651C74.0931 92.8826 74.2676 92.9001 74.4421 92.9233C74.8319 92.9582 75.2391 92.9931 75.658 93.028C75.8208 93.0455 75.9954 93.0571 76.1583 93.0629H76.1699L76.6527 93.0978C76.8971 93.1153 77.1356 93.1328 77.3857 93.1444C77.5603 93.156 77.729 93.1618 77.8977 93.1677C78.2409 93.1851 78.5841 93.2026 78.939 93.2084C78.9972 93.2084 79.0553 93.2084 79.1135 93.2084C79.2182 93.2084 79.3287 93.22 79.4393 93.2258C79.5033 93.2258 79.5614 93.2258 79.6313 93.2258C80.0327 93.2375 80.4399 93.2433 80.8529 93.2491C81.0274 93.2491 81.1961 93.2491 81.3649 93.2491H82.5807C82.7552 93.2491 82.9297 93.2491 83.0984 93.2491C83.5057 93.2491 83.9129 93.2316 84.3143 93.2258C84.3783 93.2258 84.4423 93.2258 84.5063 93.2142C84.611 93.2142 84.7215 93.2142 84.8262 93.2026C84.8844 93.2026 84.9484 93.2026 85.0066 93.2026C85.3614 93.1909 85.7046 93.1735 86.0479 93.1618C86.2224 93.1502 86.3911 93.1444 86.5598 93.1386C86.8041 93.1211 87.0485 93.1095 87.287 93.092L87.7698 93.0571H87.7873C87.9618 93.0513 88.1247 93.0339 88.2876 93.0222C88.7006 92.9873 89.1078 92.9582 89.5093 92.9175L90.0212 92.8593C90.0212 92.8593 90.0561 92.8593 90.0735 92.8593C90.2481 92.8419 90.4109 92.8244 90.5738 92.807C90.8007 92.7779 91.0218 92.7546 91.2428 92.7255C91.4174 92.7023 91.5919 92.679 91.7606 92.6557C92.1445 92.6034 92.511 92.5452 92.8601 92.4812C92.895 92.4812 92.9357 92.4637 92.9764 92.4637C93.1044 92.4463 93.2382 92.423 93.3604 92.3939C93.4011 92.3939 93.4476 92.3765 93.4884 92.3707C93.9305 92.2834 94.3377 92.1961 94.71 92.1031C94.8904 92.0565 95.0591 92.01 95.222 91.9634C95.3674 91.9227 95.507 91.8762 95.6466 91.8355C95.827 91.7773 95.9957 91.7133 96.1469 91.6493C96.2516 91.6086 96.3505 91.5679 96.4436 91.5213C96.6531 91.4282 96.8218 91.3293 96.9556 91.2246C97.2057 91.0327 97.3453 90.8407 97.3453 90.6371V87.199H66.6177V87.2048Z" fill="#CF7302" stroke="#101841" stroke-width="0.087773" stroke-linecap="round" stroke-linejoin="round"/>
<path d="M95.6357 87.2043V91.8408C95.8161 91.7826 95.9848 91.7186 96.136 91.6546V87.2043H95.6357Z" fill="#A55C0B"/>
<path d="M92.8555 87.2043V92.4865C92.8904 92.4865 92.9311 92.4691 92.9718 92.4691C93.0998 92.4516 93.2336 92.4283 93.3558 92.3992V87.2043H92.8555Z" fill="#A55C0B"/>
<path d="M90.0742 87.2043V92.8646C90.2487 92.8472 90.4116 92.8297 90.5745 92.8123V87.2043H90.0742Z" fill="#A55C0B"/>
<path d="M87.2881 87.2043V93.0973L87.7709 93.0624H87.7884V87.2043H87.2881Z" fill="#A55C0B"/>
<path d="M84.5078 87.2043V93.2195C84.6125 93.2195 84.7231 93.2195 84.8278 93.2079C84.8859 93.2079 84.9499 93.2079 85.0081 93.2079V87.2043H84.5078Z" fill="#A55C0B"/>
<path d="M81.7266 87.2043H82.2269V93.2544H81.7266V87.2043Z" fill="#A55C0B"/>
<path d="M78.9399 87.2043V93.2079C78.9981 93.2079 79.0562 93.2079 79.1144 93.2079C79.2191 93.2079 79.3297 93.2195 79.4344 93.2253V87.2043H78.9341H78.9399Z" fill="#A55C0B"/>
<path d="M76.165 87.2043V93.0624H76.1767C76.3396 93.0741 76.5024 93.0857 76.6595 93.0973V87.2043H76.165Z" fill="#A55C0B"/>
<path d="M73.3784 87.2043V92.8123C73.5413 92.8297 73.7042 92.8472 73.8729 92.8646V87.2043H73.3784Z" fill="#A55C0B"/>
<path d="M70.5977 87.2043V92.3992C70.7198 92.4283 70.8478 92.4516 70.9758 92.4691C71.0107 92.4691 71.0514 92.4865 71.0921 92.4865V87.2043H70.5977Z" fill="#A55C0B"/>
<path d="M67.8164 87.2043V91.6604C67.9677 91.7186 68.1306 91.7826 68.3109 91.8408V87.2043H67.8164Z" fill="#A55C0B"/>
<path d="M66.6177 87.2044C66.6177 88.5657 72.7492 89.6884 80.5737 89.8048C81.0391 89.8106 81.5045 89.8164 81.9699 89.8164C90.4517 89.8164 97.322 88.6471 97.322 87.2044C97.322 85.7617 90.4458 84.5923 81.9699 84.5923C78.875 84.5923 75.9954 84.7494 73.5869 85.017C69.3868 85.4824 66.6177 86.291 66.6177 87.2102V87.2044Z" fill="#F6D40F" stroke="#101841" stroke-width="0.087773" stroke-linecap="round" stroke-linejoin="round"/>
<path d="M68.9624 86.9832C68.9624 87.0821 69.0438 87.1752 69.2009 87.2683C70.3644 87.9547 75.6408 88.4783 81.976 88.4783C88.3112 88.4783 93.5934 87.9547 94.7569 87.2683C94.9139 87.1752 94.9954 87.0821 94.9954 86.9832C94.9954 86.1571 89.1663 85.4823 81.9818 85.4823C74.7973 85.4823 68.9682 86.1513 68.9682 86.9832H68.9624Z" fill="#CE7303" stroke="#101841" stroke-width="0.087773" stroke-linecap="round" stroke-linejoin="round"/>
<path d="M69.2017 87.2679C70.3651 87.9544 75.6415 88.478 81.9767 88.478C88.3119 88.478 93.5941 87.9544 94.7576 87.2679C93.5941 86.5815 88.3177 86.0579 81.9767 86.0579C75.6357 86.0579 70.3651 86.5815 69.2017 87.2679Z" fill="#F6B90B" stroke="#101841" stroke-width="0.087773" stroke-linecap="round" stroke-linejoin="round"/>
<path opacity="0.5" d="M66.6177 87.2041C66.6177 88.5654 72.7492 89.6881 80.5737 89.8045C83.5813 89.4729 85.8559 88.961 86.9089 88.3618C85.3847 88.4374 83.7209 88.4723 81.9757 88.4723C75.6405 88.4723 70.3641 87.9487 69.2006 87.2623C69.0435 87.1692 68.9621 87.0761 68.9621 86.9772C68.9621 86.1802 74.3258 85.5345 81.1089 85.4821C78.9506 85.2204 76.3851 85.0516 73.5986 85.0109C69.3984 85.4763 66.6293 86.2849 66.6293 87.2041H66.6235H66.6177Z" fill="#F6DA80"/>
<path opacity="0.49" d="M66.6177 87.2043C66.6177 87.6929 67.4205 88.17 68.933 88.5888C69.858 88.839 71.0389 89.0717 72.4177 89.2578L76.6353 88.3561C72.8365 88.1583 70.0092 87.7569 69.1948 87.2741C69.2297 87.2508 69.2704 87.2276 69.317 87.2101H66.6177V87.2043Z" fill="#FFF5DA"/>
<path d="M66.6177 82.9516V86.3897C66.6177 86.5933 66.7515 86.7853 67.0016 86.9773C67.1412 87.082 67.3099 87.1751 67.5136 87.274C67.6066 87.3205 67.7055 87.3612 67.8161 87.4078C67.9673 87.4659 68.1302 87.5299 68.3105 87.5881C68.4443 87.6288 68.5898 87.6754 68.7352 87.7161C68.8981 87.7626 69.0668 87.8092 69.2472 87.8557C69.6195 87.9488 70.0267 88.0361 70.463 88.1233C70.5095 88.135 70.5503 88.1408 70.5968 88.1466C70.719 88.1757 70.8469 88.1989 70.9749 88.2164C71.0098 88.2164 71.0506 88.2338 71.0913 88.2338C71.4461 88.2978 71.8126 88.356 72.1966 88.4084C72.3595 88.4316 72.534 88.4549 72.7085 88.4782C72.9238 88.5073 73.1506 88.5305 73.3775 88.5596C73.5404 88.5771 73.7033 88.5945 73.872 88.612C73.8895 88.612 73.9069 88.612 73.9302 88.612C74.0931 88.6294 74.2676 88.6469 74.4421 88.6702C74.8319 88.7051 75.2391 88.74 75.658 88.7749C75.8208 88.7923 75.9954 88.804 76.1583 88.8098H76.1699L76.6527 88.8447C76.8971 88.8621 77.1356 88.8796 77.3857 88.8912C77.5603 88.9028 77.729 88.9087 77.8977 88.9145C78.2409 88.9319 78.5841 88.9494 78.939 88.9552C78.9972 88.9552 79.0553 88.9552 79.1135 88.9552C79.2182 88.9552 79.3287 88.9668 79.4393 88.9727C79.5033 88.9727 79.5614 88.9727 79.6313 88.9727C80.0327 88.9843 80.4399 88.9901 80.8529 88.9959C81.0274 88.9959 81.1961 88.9959 81.3649 88.9959H82.5807C82.7552 88.9959 82.9297 88.9959 83.0984 88.9959C83.5057 88.9959 83.9129 88.9785 84.3143 88.9727C84.3783 88.9727 84.4423 88.9727 84.5063 88.961C84.611 88.961 84.7215 88.961 84.8262 88.9494C84.8844 88.9494 84.9484 88.9494 85.0066 88.9494C85.3614 88.9378 85.7046 88.9203 86.0479 88.9087C86.2224 88.897 86.3911 88.8912 86.5598 88.8854C86.8041 88.8679 87.0485 88.8563 87.287 88.8389L87.7698 88.804H87.7873C87.9618 88.7981 88.1247 88.7807 88.2876 88.7691C88.7006 88.7341 89.1078 88.7051 89.5093 88.6643L90.0212 88.6062C90.0212 88.6062 90.0561 88.6062 90.0735 88.6062C90.2481 88.5887 90.4109 88.5713 90.5738 88.5538C90.8007 88.5247 91.0218 88.5014 91.2428 88.4724C91.4174 88.4491 91.5919 88.4258 91.7606 88.4025C92.1445 88.3502 92.511 88.292 92.8601 88.228C92.895 88.228 92.9357 88.2106 92.9764 88.2106C93.1044 88.1931 93.2382 88.1699 93.3604 88.1408C93.4011 88.1408 93.4476 88.1233 93.4884 88.1175C93.9305 88.0302 94.3377 87.943 94.71 87.8499C94.8904 87.8034 95.0591 87.7568 95.222 87.7103C95.3674 87.6696 95.507 87.623 95.6466 87.5823C95.827 87.5241 95.9957 87.4601 96.1469 87.3961C96.2516 87.3554 96.3505 87.3147 96.4436 87.2682C96.6531 87.1751 96.8218 87.0762 96.9556 86.9715C97.2057 86.7795 97.3453 86.5875 97.3453 86.3839V82.9458H66.6177V82.9516Z" fill="#CF7302" stroke="#101841" stroke-width="0.087773" stroke-linecap="round" stroke-linejoin="round"/>
<path d="M95.6357 82.9517V87.5882C95.8161 87.53 95.9848 87.466 96.136 87.402V82.9517H95.6357Z" fill="#A55C0B"/>
<path d="M92.8555 82.9517V88.2339C92.8904 88.2339 92.9311 88.2165 92.9718 88.2165C93.0998 88.199 93.2336 88.1758 93.3558 88.1467V82.9517H92.8555Z" fill="#A55C0B"/>
<path d="M90.0742 82.9517V88.6121C90.2487 88.5946 90.4116 88.5772 90.5745 88.5597V82.9517H90.0742Z" fill="#A55C0B"/>
<path d="M87.2881 82.9517V88.8448L87.7709 88.8099H87.7884V82.9517H87.2881Z" fill="#A55C0B"/>
<path d="M84.5078 82.9517V88.9669C84.6125 88.9669 84.7231 88.9669 84.8278 88.9553C84.8859 88.9553 84.9499 88.9553 85.0081 88.9553V82.9517H84.5078Z" fill="#A55C0B"/>
<path d="M81.7266 82.9517H82.2269V89.0018H81.7266V82.9517Z" fill="#A55C0B"/>
<path d="M78.9399 82.9517V88.9553C78.9981 88.9553 79.0562 88.9553 79.1144 88.9553C79.2191 88.9553 79.3297 88.9669 79.4344 88.9728V82.9517H78.9341H78.9399Z" fill="#A55C0B"/>
<path d="M76.165 82.9517V88.8099H76.1767C76.3396 88.8215 76.5024 88.8331 76.6595 88.8448V82.9517H76.165Z" fill="#A55C0B"/>
<path d="M73.3784 82.9517V88.5597C73.5413 88.5772 73.7042 88.5946 73.8729 88.6121V82.9517H73.3784Z" fill="#A55C0B"/>
<path d="M70.5977 82.9517V88.1467C70.7198 88.1758 70.8478 88.199 70.9758 88.2165C71.0107 88.2165 71.0514 88.2339 71.0921 88.2339V82.9517H70.5977Z" fill="#A55C0B"/>
<path d="M67.8164 82.9517V87.4079C67.9677 87.466 68.1306 87.53 68.3109 87.5882V82.9517H67.8164Z" fill="#A55C0B"/>
<path d="M66.6177 82.9511C66.6177 84.3124 72.7492 85.4351 80.5737 85.5515C81.0391 85.5573 81.5045 85.5631 81.9699 85.5631C90.4517 85.5631 97.322 84.3938 97.322 82.9511C97.322 81.5084 90.4458 80.3391 81.9699 80.3391C78.875 80.3391 75.9954 80.4961 73.5869 80.7637C69.3868 81.2291 66.6177 82.0377 66.6177 82.9569V82.9511Z" fill="#F6D40F" stroke="#101841" stroke-width="0.087773" stroke-linecap="round" stroke-linejoin="round"/>
<path d="M68.9624 82.7245C68.9624 82.8234 69.0438 82.9165 69.2009 83.0096C70.3644 83.696 75.6408 84.2196 81.976 84.2196C88.3112 84.2196 93.5934 83.696 94.7569 83.0096C94.9139 82.9165 94.9954 82.8234 94.9954 82.7245C94.9954 81.8985 89.1663 81.2236 81.9818 81.2236C74.7973 81.2236 68.9682 81.8926 68.9682 82.7245H68.9624Z" fill="#CE7303" stroke="#101841" stroke-width="0.087773" stroke-linecap="round" stroke-linejoin="round"/>
<path d="M69.2017 83.0158C70.3651 83.7022 75.6415 84.2258 81.9767 84.2258C88.3119 84.2258 93.5941 83.7022 94.7576 83.0158C93.5941 82.3293 88.3177 81.8057 81.9767 81.8057C75.6357 81.8057 70.3651 82.3293 69.2017 83.0158Z" fill="#F6B90B" stroke="#101841" stroke-width="0.087773" stroke-linecap="round" stroke-linejoin="round"/>
<path opacity="0.5" d="M66.6177 82.9515C66.6177 84.3128 72.7492 85.4356 80.5737 85.5519C83.5813 85.2203 85.8559 84.7084 86.9089 84.1092C85.3847 84.1848 83.7209 84.2197 81.9757 84.2197C75.6405 84.2197 70.3641 83.6962 69.2006 83.0097C69.0435 82.9166 68.9621 82.8236 68.9621 82.7247C68.9621 81.9277 74.3258 81.2819 81.1089 81.2296C78.9506 80.9678 76.3851 80.7991 73.5986 80.7584C69.3984 81.2238 66.6293 82.0324 66.6293 82.9515H66.6235H66.6177Z" fill="#F6DA80"/>
<path opacity="0.49" d="M66.6177 82.9517C66.6177 83.4404 67.4205 83.9174 68.933 84.3363C69.858 84.5864 71.0389 84.8191 72.4177 85.0053L76.6353 84.1036C72.8365 83.9058 70.0092 83.5044 69.1948 83.0215C69.2297 82.9983 69.2704 82.975 69.317 82.9575H66.6177V82.9517Z" fill="#FFF5DA"/>
<path d="M66.6177 78.6178V82.0559C66.6177 82.2595 66.7515 82.4515 67.0016 82.6434C67.1412 82.7481 67.3099 82.8412 67.5136 82.9401C67.6066 82.9867 67.7055 83.0274 67.8161 83.0739C67.9673 83.1321 68.1302 83.1961 68.3105 83.2543C68.4443 83.295 68.5898 83.3415 68.7352 83.3822C68.8981 83.4288 69.0668 83.4753 69.2472 83.5219C69.6195 83.6149 70.0267 83.708 70.463 83.7895C70.5095 83.8011 70.5503 83.8069 70.5968 83.8127C70.719 83.8418 70.8469 83.8651 70.9749 83.8825C71.0098 83.8825 71.0506 83.9 71.0913 83.9C71.4461 83.964 71.8126 84.0222 72.1966 84.0745C72.3595 84.0978 72.534 84.1211 72.7085 84.1443C72.9238 84.1734 73.1506 84.2025 73.3775 84.2316C73.5404 84.249 73.7033 84.2665 73.872 84.2839C73.8895 84.2839 73.9069 84.2839 73.9302 84.2839C74.0931 84.3014 74.2676 84.3188 74.4421 84.3363C74.8319 84.3712 75.2391 84.4061 75.658 84.441C75.8208 84.4585 75.9954 84.4701 76.1583 84.4759H76.1699L76.6527 84.5108C76.8971 84.5283 77.1356 84.5457 77.3857 84.5574C77.5603 84.569 77.729 84.5748 77.8977 84.5806C78.2409 84.5981 78.5841 84.6155 78.939 84.6214C78.9972 84.6214 79.0553 84.6214 79.1135 84.6214C79.2182 84.6214 79.3287 84.633 79.4393 84.633C79.5033 84.633 79.5614 84.633 79.6313 84.633C80.0327 84.6446 80.4399 84.6504 80.8529 84.6563C81.0274 84.6563 81.1961 84.6563 81.3649 84.6563H82.5807C82.7552 84.6563 82.9297 84.6563 83.0984 84.6563C83.5057 84.6563 83.9129 84.6388 84.3143 84.633C84.3783 84.633 84.4423 84.633 84.5063 84.6214C84.611 84.6214 84.7215 84.6214 84.8262 84.6097C84.8844 84.6097 84.9484 84.6097 85.0066 84.6097C85.3614 84.5981 85.7046 84.5806 86.0479 84.569C86.2224 84.5574 86.3911 84.5515 86.5598 84.5457C86.8041 84.5283 87.0485 84.5166 87.287 84.4992L87.7698 84.4643H87.7873C87.9618 84.4585 88.1247 84.441 88.2876 84.4294C88.7006 84.3945 89.1078 84.3654 89.5093 84.3247L90.0212 84.2723C90.0212 84.2723 90.0561 84.2723 90.0735 84.2723C90.2481 84.2549 90.4109 84.2374 90.5738 84.22C90.8007 84.1909 91.0218 84.1618 91.2428 84.1327C91.4174 84.1094 91.5919 84.0862 91.7606 84.0629C92.1445 84.0047 92.511 83.9524 92.8601 83.8884C92.895 83.8884 92.9357 83.8709 92.9764 83.8709C93.1044 83.8535 93.2382 83.8302 93.3604 83.8011C93.4011 83.8011 93.4476 83.7895 93.4884 83.7778C93.9305 83.6906 94.3377 83.6033 94.71 83.5102C94.8904 83.4637 95.0591 83.4172 95.222 83.3706C95.3674 83.3299 95.507 83.2834 95.6466 83.2426C95.827 83.1845 95.9957 83.1205 96.1469 83.0565C96.2516 83.0157 96.3505 82.9692 96.4436 82.9285C96.6531 82.8354 96.8218 82.7365 96.9556 82.6318C97.2057 82.4398 97.3453 82.2479 97.3453 82.0442V78.6061H66.6177V78.6178Z" fill="#CF7302" stroke="#101841" stroke-width="0.087773" stroke-linecap="round" stroke-linejoin="round"/>
<path d="M95.6357 78.6174V83.2539C95.8161 83.1958 95.9848 83.1318 96.136 83.0678V78.6174H95.6357Z" fill="#A55C0B"/>
<path d="M92.8555 78.6174V83.8997C92.8904 83.8997 92.9311 83.8822 92.9718 83.8822C93.0998 83.8647 93.2336 83.8415 93.3558 83.8124V78.6174H92.8555Z" fill="#A55C0B"/>
<path d="M90.0742 78.6174V84.2778C90.2487 84.2603 90.4116 84.2429 90.5745 84.2254V78.6174H90.0742Z" fill="#A55C0B"/>
<path d="M87.2881 78.6174V84.5105L87.7709 84.4756H87.7884V78.6174H87.2881Z" fill="#A55C0B"/>
<path d="M84.5078 78.6174V84.6327C84.6125 84.6327 84.7231 84.6327 84.8278 84.621C84.8859 84.621 84.9499 84.621 85.0081 84.621V78.6174H84.5078Z" fill="#A55C0B"/>
<path d="M81.7266 78.6174H82.2269V84.6676H81.7266V78.6174Z" fill="#A55C0B"/>
<path d="M78.9399 78.6179V84.6215C78.9981 84.6215 79.0562 84.6215 79.1144 84.6215C79.2191 84.6215 79.3297 84.6331 79.4344 84.6331V78.6121H78.9341L78.9399 78.6179Z" fill="#A55C0B"/>
<path d="M76.165 78.6174V84.4756H76.1767C76.3396 84.4872 76.5024 84.4988 76.6595 84.5105V78.6174H76.165Z" fill="#A55C0B"/>
<path d="M73.3784 78.6174V84.2254C73.5413 84.2429 73.7042 84.2603 73.8729 84.2778V78.6174H73.3784Z" fill="#A55C0B"/>
<path d="M70.5977 78.6174V83.8124C70.7198 83.8415 70.8478 83.8647 70.9758 83.8822C71.0107 83.8822 71.0514 83.8997 71.0921 83.8997V78.6174H70.5977Z" fill="#A55C0B"/>
<path d="M67.8164 78.6174V83.0736C67.9677 83.1318 68.1306 83.1958 68.3109 83.2539V78.6174H67.8164Z" fill="#A55C0B"/>
<path d="M66.6177 78.6177C66.6177 79.979 72.7492 81.1017 80.5737 81.2181C81.0391 81.2239 81.5045 81.2297 81.9699 81.2297C90.4517 81.2297 97.322 80.0604 97.322 78.6177C97.322 77.175 90.4458 76.0057 81.9699 76.0057C78.875 76.0057 75.9954 76.1627 73.5869 76.4303C69.3868 76.8957 66.6177 77.7044 66.6177 78.6235V78.6177Z" fill="#F6D40F" stroke="#101841" stroke-width="0.087773" stroke-linecap="round" stroke-linejoin="round"/>
<path d="M68.9624 78.3909C68.9624 78.4897 69.0438 78.5828 69.2009 78.6759C70.3644 79.3624 75.6408 79.8859 81.976 79.8859C88.3112 79.8859 93.5934 79.3624 94.7569 78.6759C94.9139 78.5828 94.9954 78.4897 94.9954 78.3909C94.9954 77.5648 89.1663 76.89 81.9818 76.89C74.7973 76.89 68.9682 77.559 68.9682 78.3909H68.9624Z" fill="#CE7303" stroke="#101841" stroke-width="0.087773" stroke-linecap="round" stroke-linejoin="round"/>
<path d="M69.2017 78.6816C70.3651 79.368 75.6415 79.8916 81.9767 79.8916C88.3119 79.8916 93.5941 79.3739 94.7576 78.6816C93.5941 77.9951 88.3177 77.4716 81.9767 77.4716C75.6357 77.4716 70.3651 77.9951 69.2017 78.6816Z" fill="#F6B90B" stroke="#101841" stroke-width="0.087773" stroke-linecap="round" stroke-linejoin="round"/>
<path opacity="0.5" d="M66.6177 78.6174C66.6177 79.9787 72.7492 81.1014 80.5737 81.2236C83.5813 80.892 85.8559 80.3801 86.9089 79.7809C85.3847 79.8565 83.7209 79.8914 81.9757 79.8914C75.6405 79.8914 70.3641 79.3679 69.2006 78.6814C69.0435 78.5883 68.9621 78.4952 68.9621 78.3963C68.9621 77.5994 74.3258 76.9536 81.1089 76.9013C78.9506 76.6395 76.3851 76.4708 73.5986 76.4301C69.3984 76.8954 66.6293 77.7041 66.6293 78.6232H66.6235L66.6177 78.6174Z" fill="#F6DA80"/>
<path opacity="0.49" d="M66.6177 78.6174C66.6177 79.1061 67.4205 79.5831 68.933 79.9962C69.858 80.2521 71.0389 80.479 72.4177 80.6652L76.6353 79.7635C72.8365 79.5657 70.0092 79.1643 69.1948 78.6814C69.2297 78.6582 69.2704 78.6407 69.317 78.6174H66.6177Z" fill="#FFF5DA"/>
<path opacity="0.5" d="M81.9701 81.2648H81.0103V105.977H83.0929C83.5001 105.977 83.9073 105.971 84.3087 105.966C84.3727 105.966 84.4367 105.966 84.5007 105.966C84.6054 105.966 84.7159 105.966 84.8207 105.966H85.001C85.3559 105.966 85.6991 105.954 86.0423 105.942C86.2168 105.942 86.3797 105.937 86.5543 105.931C86.7986 105.925 87.0429 105.826 87.2814 105.814C87.4443 105.814 87.6014 105.803 87.7643 105.797H87.7817C87.9563 105.797 88.1191 105.785 88.282 105.779C88.5147 105.768 88.7416 105.762 88.9627 105.75V81.131C86.8684 81.2299 84.4949 81.2823 81.9759 81.2823V81.2707L81.9701 81.2648Z" fill="#F6B90B"/>
<path opacity="0.5" d="M91.0981 80.9911V105.471C91.1447 105.471 91.1912 105.465 91.2319 105.459C91.4065 105.448 91.581 105.436 91.7497 105.424C92.1336 105.395 92.535 105.267 92.8841 105.232C92.919 105.232 92.9597 105.226 93.0004 105.221C93.1284 105.209 93.239 105.162 93.3669 105.151C93.4077 105.151 93.4542 105.145 93.4949 105.139C93.8847 105.098 94.2337 104.976 94.5711 104.93V80.6653C93.6113 80.7874 92.442 80.898 91.104 80.9911H91.0981Z" fill="#F6B90B"/>
<path d="M97.9394 70.38C95.8219 78.0765 94.7806 78.9083 86.8979 79.1236C94.4781 81.2411 95.3041 82.2941 95.4845 90.2814C97.602 82.585 98.6433 81.7531 106.526 81.5378C98.9458 79.4203 98.1198 78.3673 97.9394 70.38Z" fill="white" stroke="#0E1844" stroke-width="0.087773" stroke-linecap="round" stroke-linejoin="round"/>
</svg>
