<svg width="130" height="130" viewBox="0 0 130 130" fill="none" xmlns="http://www.w3.org/2000/svg">
<g clip-path="url(#clip0_1902_35480)">
<path d="M101.504 87.9908C96.1775 87.86 95.4764 87.2948 94.0321 82.104C93.9222 87.5042 93.3676 88.2158 88.25 89.6548C93.5769 89.7856 94.2781 90.3507 95.7223 95.5416C95.8322 90.1414 96.3869 89.4298 101.504 87.9908Z" fill="white" stroke="#0E1844" stroke-width="0.081624" stroke-linecap="round" stroke-linejoin="round"/>
<path opacity="0.5" d="M101.333 85.73C104.033 85.73 106.581 85.6515 108.847 85.505V109.466C103.462 110.031 100.124 109.858 100.124 109.858V85.7195C100.522 85.7248 100.925 85.7248 101.328 85.7248L101.333 85.73Z" fill="#F4C243"/>
<path opacity="0.5" d="M110.977 84.9661C111.84 84.9661 112.656 84.8876 113.384 84.7411V108.482C112.149 108.932 110.631 109.214 110.589 109.214V84.9609C110.715 84.9661 110.846 85.3324 110.977 85.3324V84.9713V84.9661Z" fill="#F4C243"/>
<path d="M90.7944 111.459C108.975 111.459 123.713 109.442 123.713 106.954C123.713 104.465 108.975 102.448 90.7944 102.448C72.6138 102.448 57.8755 104.465 57.8755 106.954C57.8755 109.442 72.6138 111.459 90.7944 111.459Z" fill="#21002A" stroke="#21002A" stroke-width="0.0932846" stroke-linejoin="round"/>
<path d="M111.516 20.855L109.522 18.7828L86.9325 23.0161L96.6863 33.1152L69.9157 67.3266L54.3537 52.0314L20.7021 108.283H24.2081L53.5007 71.0052L67.2314 80.6072L103.007 39.4259L112.238 47.4685L111.516 20.855Z" fill="#21002A"/>
<path d="M109.522 18.783L84.138 22.2313L92.9655 29.3687L69.5439 56.4637L52.6789 45.3494L7.34277 108.283H21.6699L53.8511 62.5284L69.2561 75.4374L101.657 38.1126L110.05 45.543L109.522 18.783Z" fill="#23DB88" stroke="#0E1844" stroke-width="0.145757" stroke-linecap="round" stroke-linejoin="round"/>
<path d="M40.4237 57.8038C40.1621 57.8038 39.9475 57.5893 39.9475 57.3276C39.9475 54.4444 38.4248 52.1002 36.5567 52.1002C36.2951 52.1002 36.0806 51.8856 36.0806 51.624C36.0806 51.3624 36.2951 51.1478 36.5567 51.1478C38.9481 51.1478 40.8947 53.9159 40.8947 57.3224C40.8947 57.5841 40.6801 57.7986 40.4185 57.7986L40.4237 57.8038Z" fill="white" stroke="#101841" stroke-width="0.0932846" stroke-miterlimit="10"/>
<path d="M56.4564 57.4366C56.1948 57.4366 55.9802 57.2221 55.9802 56.9605C55.9802 54.0772 54.4575 51.733 52.5895 51.733C52.3278 51.733 52.1133 51.5185 52.1133 51.2568C52.1133 50.9952 52.3278 50.7806 52.5895 50.7806C54.9808 50.7806 56.9274 53.5487 56.9274 56.9552C56.9274 57.2169 56.7128 57.4314 56.4512 57.4314L56.4564 57.4366Z" fill="white" stroke="#101841" stroke-width="0.0932846" stroke-miterlimit="10"/>
<path d="M72.4901 57.0597C72.2285 57.0597 72.0139 56.8451 72.0139 56.5835C72.0139 53.7003 70.4912 51.356 68.6232 51.356C68.3615 51.356 68.147 51.1415 68.147 50.8799C68.147 50.6182 68.3615 50.4037 68.6232 50.4037C71.0145 50.4037 72.9611 53.1718 72.9611 56.5783C72.9611 56.8399 72.7465 57.0545 72.4849 57.0545L72.4901 57.0597Z" fill="white" stroke="#101841" stroke-width="0.0932846" stroke-miterlimit="10"/>
<path d="M88.5223 56.5948C88.2607 56.5948 88.0462 56.3803 88.0462 56.1187C88.0462 53.2354 86.5234 50.8912 84.6554 50.8912C84.3937 50.8912 84.1792 50.6767 84.1792 50.415C84.1792 50.1534 84.3937 49.9388 84.6554 49.9388C87.0467 49.9388 88.9933 52.7069 88.9933 56.1134C88.9933 56.3751 88.7787 56.5896 88.5171 56.5896L88.5223 56.5948Z" fill="white" stroke="#101841" stroke-width="0.0932846" stroke-miterlimit="10"/>
<path d="M94.5248 55.5111C95.4824 55.5111 96.2987 56.2018 96.4504 57.1489L104.279 105.096C104.446 106.117 103.656 107.038 102.63 107.038H80.0459L94.53 55.5111H94.5248Z" fill="#21002A"/>
<path d="M94.1477 67.5033L88.3812 108.632C88.2452 109.438 87.5492 110.024 86.7329 110.024L21.5439 108.768C20.7694 108.768 20.1729 108.072 20.309 107.303L21.3712 100.935L22.334 95.1634L23.5585 87.8062L26.8132 68.3039L44.6567 68.0894L50.0098 68.0266L55.3629 67.9638L94.1424 67.5033H94.1477Z" fill="white" stroke="#0E1844" stroke-width="0.128266" stroke-linecap="round" stroke-linejoin="round"/>
<path d="M95.6029 57.1636L94.1535 67.5034L55.3739 67.9639L50.0208 68.0267L44.6677 68.0895L26.8242 68.304L28.415 58.7753C28.5667 57.87 29.3516 57.2107 30.2726 57.2107L46.1277 56.7764L51.0046 56.6403L56.1692 56.4991L94.1587 55.4525C95.0692 55.4525 95.7546 56.2688 95.6029 57.1636Z" fill="#BB4AE1" stroke="#21002A" stroke-width="0.128266" stroke-miterlimit="10"/>
<path d="M36.6767 65.1849C37.8698 65.1849 38.8378 64.2168 38.8378 63.0238C38.8378 61.8307 37.8698 60.8627 36.6767 60.8627C35.4837 60.8627 34.5156 61.8307 34.5156 63.0238C34.5156 64.2168 35.4837 65.1849 36.6767 65.1849Z" fill="white" stroke="#101841" stroke-width="0.0932846" stroke-miterlimit="10"/>
<path d="M36.677 64.3122C37.3887 64.3122 37.9643 63.7366 37.9643 63.0249C37.9643 62.3133 37.3887 61.7377 36.677 61.7377C35.9654 61.7377 35.395 62.3133 35.395 63.0249C35.395 63.7366 35.9706 64.3122 36.677 64.3122Z" fill="#101841"/>
<path d="M52.7099 64.8255C53.903 64.8255 54.871 63.8575 54.871 62.6644C54.871 61.4713 53.903 60.5033 52.7099 60.5033C51.5169 60.5033 50.5488 61.4713 50.5488 62.6644C50.5488 63.8575 51.5169 64.8255 52.7099 64.8255Z" fill="white" stroke="#101841" stroke-width="0.0932846" stroke-miterlimit="10"/>
<path d="M52.7096 63.945C53.4213 63.945 53.9969 63.3694 53.9969 62.6577C53.9969 61.9461 53.4213 61.3705 52.7096 61.3705C51.998 61.3705 51.4224 61.9461 51.4224 62.6577C51.4224 63.3694 51.998 63.945 52.7096 63.945Z" fill="#101841"/>
<path d="M68.7378 64.4505C69.9308 64.4505 70.8989 63.4825 70.8989 62.2894C70.8989 61.0963 69.9308 60.1283 68.7378 60.1283C67.5447 60.1283 66.5767 61.0963 66.5767 62.2894C66.5767 63.4825 67.5447 64.4505 68.7378 64.4505Z" fill="white" stroke="#101841" stroke-width="0.0932846" stroke-miterlimit="10"/>
<path d="M68.7374 63.5739C69.4491 63.5739 70.0247 62.9983 70.0247 62.2866C70.0247 61.575 69.4491 60.9994 68.7374 60.9994C68.0258 60.9994 67.4502 61.575 67.4502 62.2866C67.4502 62.9983 68.0258 63.5739 68.7374 63.5739Z" fill="#101841"/>
<path d="M84.7705 63.9779C85.9635 63.9779 86.9316 63.0098 86.9316 61.8167C86.9316 60.6237 85.9635 59.6556 84.7705 59.6556C83.5774 59.6556 82.6094 60.6237 82.6094 61.8167C82.6094 63.0098 83.5774 63.9779 84.7705 63.9779Z" fill="white" stroke="#101841" stroke-width="0.0932846" stroke-miterlimit="10"/>
<path d="M84.7706 63.1038C85.4823 63.1038 86.0579 62.5282 86.0579 61.8166C86.0579 61.1049 85.4823 60.5345 84.7706 60.5345C84.059 60.5345 83.4834 61.1101 83.4834 61.8166C83.4834 62.523 84.059 63.1038 84.7706 63.1038Z" fill="#101841"/>
<path d="M36.5615 52.1053C34.6935 52.1053 33.1708 54.4496 33.1708 57.3328C33.1708 60.216 34.6935 62.5603 36.5615 62.5603C36.8232 62.5603 37.0377 62.7748 37.0377 63.0365C37.0377 63.2981 36.8232 63.5126 36.5615 63.5126C34.1702 63.5126 32.2236 60.7445 32.2236 57.338C32.2236 53.9316 34.1702 51.1635 36.5615 51.1635" fill="white"/>
<path d="M36.5615 52.1053C34.6935 52.1053 33.1708 54.4496 33.1708 57.3328C33.1708 60.216 34.6935 62.5603 36.5615 62.5603C36.8232 62.5603 37.0377 62.7748 37.0377 63.0365C37.0377 63.2981 36.8232 63.5126 36.5615 63.5126C34.1702 63.5126 32.2236 60.7445 32.2236 57.338C32.2236 53.9316 34.1702 51.1635 36.5615 51.1635" stroke="#101841" stroke-width="0.0932846" stroke-miterlimit="10"/>
<path d="M52.5947 51.7382C50.7267 51.7382 49.204 54.0824 49.204 56.9656C49.204 59.8488 50.7267 62.1931 52.5947 62.1931C52.8564 62.1931 53.0709 62.4076 53.0709 62.6693C53.0709 62.9309 52.8564 63.1454 52.5947 63.1454C50.2034 63.1454 48.2568 60.3773 48.2568 56.9709C48.2568 53.5644 50.2034 50.7963 52.5947 50.7963" fill="white"/>
<path d="M68.6231 51.3612C66.755 51.3612 65.2323 53.7055 65.2323 56.5887C65.2323 59.4719 66.755 61.8161 68.6231 61.8161C68.8847 61.8161 69.0992 62.0307 69.0992 62.2923C69.0992 62.554 68.8847 62.7685 68.6231 62.7685C66.2317 62.7685 64.2852 60.0004 64.2852 56.5939C64.2852 53.1874 66.2317 50.4193 68.6231 50.4193" fill="white"/>
<path d="M68.6231 51.3612C66.755 51.3612 65.2323 53.7055 65.2323 56.5887C65.2323 59.4719 66.755 61.8161 68.6231 61.8161C68.8847 61.8161 69.0992 62.0307 69.0992 62.2923C69.0992 62.554 68.8847 62.7685 68.6231 62.7685C66.2317 62.7685 64.2852 60.0004 64.2852 56.5939C64.2852 53.1874 66.2317 50.4193 68.6231 50.4193" stroke="#101841" stroke-width="0.0932846" stroke-miterlimit="10"/>
<path d="M84.6553 50.8964C82.7872 50.8964 81.2645 53.2406 81.2645 56.1238C81.2645 59.007 82.7872 61.3513 84.6553 61.3513C84.9169 61.3513 85.1315 61.5658 85.1315 61.8275C85.1315 62.0891 84.9169 62.3037 84.6553 62.3037C82.2639 62.3037 80.3174 59.5356 80.3174 56.1291C80.3174 52.7226 82.2639 49.9545 84.6553 49.9545" fill="white"/>
<path d="M84.6553 50.8964C82.7872 50.8964 81.2645 53.2406 81.2645 56.1238C81.2645 59.007 82.7872 61.3513 84.6553 61.3513C84.9169 61.3513 85.1315 61.5658 85.1315 61.8275C85.1315 62.0891 84.9169 62.3037 84.6553 62.3037C82.2639 62.3037 80.3174 59.5356 80.3174 56.1291C80.3174 52.7226 82.2639 49.9545 84.6553 49.9545" stroke="#101841" stroke-width="0.0932846" stroke-miterlimit="10"/>
<path d="M69.3446 85.5985H61.459C61.1188 85.5985 60.8572 85.295 60.9095 84.9548L62.1654 77.0535C62.2282 76.6453 62.5788 76.347 62.9921 76.347H70.8778C71.2179 76.347 71.4796 76.6505 71.4273 76.9907L70.1714 84.8921C70.1086 85.3002 69.758 85.5985 69.3446 85.5985Z" fill="white" stroke="#0E1844" stroke-width="0.128266" stroke-linecap="round" stroke-linejoin="round"/>
<path d="M66.6977 100.763H58.812C58.4719 100.763 58.2102 100.459 58.2625 100.119L59.5184 92.2175C59.5812 91.8094 59.9318 91.5111 60.3452 91.5111H68.2308C68.571 91.5111 68.8326 91.8146 68.7803 92.1547L67.5244 100.056C67.4616 100.464 67.111 100.763 66.6977 100.763Z" fill="white" stroke="#0E1844" stroke-width="0.128266" stroke-linecap="round" stroke-linejoin="round"/>
<path d="M53.1708 85.5985H45.2851C44.945 85.5985 44.6834 85.295 44.7357 84.9548L45.9915 77.0535C46.0543 76.6453 46.4049 76.347 46.8183 76.347H54.704C55.0441 76.347 55.3057 76.6505 55.2534 76.9907L53.9976 84.8921C53.9348 85.3002 53.5842 85.5985 53.1708 85.5985Z" fill="white" stroke="#0E1844" stroke-width="0.128266" stroke-linecap="round" stroke-linejoin="round"/>
<path d="M83.0917 101.192H75.206C74.8659 101.192 74.6043 100.889 74.6566 100.549L75.9124 92.6472C75.9752 92.2391 76.3258 91.9408 76.7392 91.9408H84.6249C84.965 91.9408 85.2267 92.2443 85.1743 92.5844L83.9185 100.486C83.8557 100.894 83.5051 101.192 83.0917 101.192Z" fill="white" stroke="#0E1844" stroke-width="0.128266" stroke-linecap="round" stroke-linejoin="round"/>
<path d="M85.5194 85.5985H77.6338C77.2936 85.5985 77.032 85.295 77.0843 84.9548L78.3402 77.0535C78.403 76.6453 78.7536 76.347 79.1669 76.347H87.0526C87.3927 76.347 87.6544 76.6505 87.6021 76.9907L86.3462 84.8921C86.2834 85.3002 85.9328 85.5985 85.5194 85.5985Z" fill="white" stroke="#0E1844" stroke-width="0.128266" stroke-linecap="round" stroke-linejoin="round"/>
<path d="M34.5634 101.192H26.6777C26.3376 101.192 26.0759 100.889 26.1283 100.549L27.3841 92.6472C27.4469 92.2391 27.7975 91.9408 28.2109 91.9408H36.0966C36.4367 91.9408 36.6983 92.2443 36.646 92.5844L35.3902 100.486C35.3274 100.894 34.9768 101.192 34.5634 101.192Z" fill="white" stroke="#0E1844" stroke-width="0.128266" stroke-linecap="round" stroke-linejoin="round"/>
<path d="M36.9911 85.5985H29.1054C28.7653 85.5985 28.5037 85.295 28.556 84.9548L29.8119 77.0535C29.8746 76.6453 30.2252 76.347 30.6386 76.347H38.5243C38.8644 76.347 39.1261 76.6505 39.0737 76.9907L37.8179 84.8921C37.7551 85.3002 37.4045 85.5985 36.9911 85.5985Z" fill="white" stroke="#0E1844" stroke-width="0.128266" stroke-linecap="round" stroke-linejoin="round"/>
<path opacity="0.6" d="M52.7989 103.41H41.9567C41.4857 103.41 41.1247 102.992 41.1979 102.526L42.9247 91.6627C43.0137 91.1028 43.4951 90.6947 44.0602 90.6947H54.9024C55.3733 90.6947 55.7344 91.1133 55.6611 91.579L53.9344 102.442C53.8454 103.002 53.364 103.41 52.7989 103.41Z" fill="#383C43"/>
<path d="M51.8941 102.324H41.0519C40.581 102.324 40.2199 101.906 40.2932 101.44L42.02 90.5768C42.1089 90.0169 42.5903 89.6088 43.1555 89.6088H53.9976C54.4686 89.6088 54.8296 90.0274 54.7564 90.4931L53.0296 101.356C52.9406 101.916 52.4592 102.324 51.8941 102.324Z" fill="#61DD80" stroke="#001B4B" stroke-width="0.128266" stroke-miterlimit="10"/>
<path d="M50.7479 92.1193L50.7269 93.2653H48.7176L48.7385 93.3071C48.8589 93.5845 48.9426 93.8827 48.9792 94.1915V94.2176H50.7112L50.6903 95.3688H48.8903V95.3897C48.7542 95.8241 48.524 96.2113 48.2152 96.5148C47.9065 96.8183 47.5245 97.0433 47.0745 97.1793L47.0222 97.195L49.3612 99.6335L48.5763 100.45L45.4471 97.195L45.4628 96.206C45.6408 96.227 45.8134 96.2427 45.9756 96.2427C46.5198 96.2427 47.0013 96.1119 47.4565 95.6828C47.5402 95.6043 47.6187 95.5101 47.6763 95.4107L47.7077 95.3584L44.3901 95.3479L44.4111 94.2019L47.8594 94.2124L47.849 94.1705C47.7652 93.7624 47.5559 93.4118 47.31 93.2548L44.4268 93.2391L44.4477 92.0931L50.7322 92.1088L50.7479 92.1193Z" fill="white" stroke="#001B4B" stroke-width="0.128266" stroke-miterlimit="10"/>
<path d="M52.5947 51.7382C50.7267 51.7382 49.204 54.0824 49.204 56.9656C49.204 59.8488 50.7267 62.1931 52.5947 62.1931C52.8564 62.1931 53.0709 62.4076 53.0709 62.6693C53.0709 62.9309 52.8564 63.1454 52.5947 63.1454C50.2034 63.1454 48.2568 60.3773 48.2568 56.9709C48.2568 53.5644 50.2034 50.7963 52.5947 50.7963" stroke="#101841" stroke-width="0.0932846" stroke-miterlimit="10"/>
<path opacity="0.45" d="M110.174 86.1407C110.174 86.1407 106.031 81.8403 98.9631 81.7133C90.4017 81.56 85.9873 82.4753 85.9873 84.0693L85.9873 107.605V108.678C86.0267 109.953 91.1374 109.852 98.2318 109.852C105.326 109.852 110.209 108.648 110.209 107.369C110.209 107.29 110.187 107.216 110.143 107.137L110.174 86.1364V86.1407Z" fill="#1C032B"/>
<path d="M114.404 104.703V107.634C114.404 107.806 114.289 107.974 114.074 108.136C113.954 108.225 113.813 108.303 113.635 108.387C113.556 108.429 113.467 108.46 113.378 108.502C113.248 108.554 113.111 108.607 112.955 108.654C112.839 108.691 112.719 108.727 112.593 108.764C112.457 108.806 112.311 108.842 112.154 108.884C111.84 108.963 111.489 109.041 111.118 109.114C111.076 109.125 111.045 109.13 111.003 109.135C110.898 109.161 110.788 109.177 110.678 109.193C110.647 109.193 110.615 109.203 110.579 109.209C110.281 109.266 109.967 109.313 109.637 109.36C109.496 109.381 109.349 109.402 109.197 109.418C109.014 109.444 108.821 109.465 108.627 109.491C108.491 109.502 108.35 109.517 108.203 109.533H108.156C108.015 109.549 107.868 109.564 107.717 109.58C107.382 109.611 107.036 109.638 106.681 109.669C106.539 109.68 106.393 109.695 106.251 109.7H106.241C106.105 109.711 105.964 109.721 105.828 109.727C105.623 109.742 105.414 109.753 105.2 109.768C105.053 109.779 104.907 109.779 104.76 109.789C104.467 109.8 104.174 109.816 103.876 109.826C103.823 109.826 103.776 109.826 103.724 109.826C103.635 109.826 103.541 109.836 103.447 109.836C103.389 109.836 103.342 109.836 103.284 109.836C102.939 109.847 102.594 109.852 102.243 109.857C102.097 109.857 101.95 109.857 101.804 109.857H100.768C100.616 109.857 100.475 109.857 100.328 109.857C99.9826 109.857 99.632 109.847 99.2919 109.836C99.2344 109.836 99.182 109.836 99.1245 109.826C99.0355 109.826 98.9413 109.826 98.8524 109.816C98.8 109.816 98.7477 109.816 98.7006 109.816C98.4024 109.805 98.1041 109.789 97.8163 109.779C97.6698 109.768 97.5233 109.768 97.3767 109.758C97.1674 109.748 96.9581 109.732 96.7541 109.716C96.618 109.706 96.4767 109.695 96.3407 109.69H96.3302C96.1837 109.68 96.0424 109.669 95.9064 109.659C95.5505 109.632 95.2052 109.601 94.8651 109.57L94.4255 109.523H94.3836C94.2371 109.507 94.0958 109.491 93.9598 109.481C93.7662 109.455 93.5778 109.434 93.3947 109.407C93.2429 109.386 93.1016 109.366 92.9551 109.35C92.6255 109.303 92.3167 109.256 92.0185 109.198C91.9871 109.198 91.9504 109.188 91.919 109.182C91.8092 109.167 91.6993 109.146 91.5894 109.125C91.5528 109.125 91.5161 109.114 91.4795 109.104C91.1027 109.031 90.7574 108.952 90.4382 108.874C90.2864 108.832 90.1399 108.795 89.9986 108.753C89.8731 108.717 89.7527 108.68 89.6376 108.643C89.4858 108.591 89.3446 108.539 89.2137 108.486C89.1248 108.45 89.0411 108.413 88.9626 108.377C88.7847 108.293 88.6381 108.209 88.523 108.125C88.3085 107.963 88.1934 107.796 88.1934 107.623V104.693H114.388L114.404 104.703Z" fill="#CD7302" stroke="#21002A" stroke-width="0.0583029" stroke-linecap="round" stroke-linejoin="round"/>
<path d="M89.6587 104.701V108.651C89.507 108.599 89.3657 108.547 89.2349 108.494V104.701H89.6587Z" fill="#A26024"/>
<path d="M92.0292 104.701V109.206C91.9978 109.206 91.9612 109.195 91.9298 109.19C91.8199 109.175 91.71 109.154 91.6001 109.133V104.701H92.0239H92.0292Z" fill="#A26024"/>
<path d="M94.4043 104.701V109.53C94.2578 109.515 94.1165 109.499 93.9805 109.488V104.706H94.4043V104.701Z" fill="#A26024"/>
<path d="M96.7749 104.701V109.724C96.6389 109.713 96.4976 109.703 96.3615 109.698H96.3511V104.701H96.7749Z" fill="#A26024"/>
<path d="M99.1455 104.701V109.834C99.0566 109.834 98.9624 109.834 98.8734 109.823C98.8211 109.823 98.7688 109.823 98.7217 109.823V104.706H99.1455V104.701Z" fill="#A26024"/>
<path d="M101.521 104.701H101.097V109.865H101.521V104.701Z" fill="#A26024"/>
<path d="M103.891 104.706V109.823C103.839 109.823 103.792 109.823 103.74 109.823C103.651 109.823 103.557 109.834 103.462 109.834V104.701H103.886L103.891 104.706Z" fill="#A26024"/>
<path d="M106.267 104.701V109.698H106.257C106.121 109.708 105.979 109.719 105.843 109.724V104.701H106.267Z" fill="#A26024"/>
<path d="M108.638 104.706V109.488C108.502 109.499 108.36 109.515 108.214 109.53V104.701H108.638V104.706Z" fill="#A26024"/>
<path d="M111.013 104.701V109.106C110.909 109.133 110.793 109.148 110.684 109.164C110.652 109.164 110.589 104.701 110.589 104.701H111.013Z" fill="#A26024"/>
<path d="M113.384 104.701V108.473C113.253 108.526 113.117 108.573 112.96 108.625V104.701H113.384Z" fill="#A26024"/>
<path d="M114.403 104.711C114.403 105.873 109.176 106.825 102.499 106.93C102.107 106.93 101.709 106.94 101.306 106.94C94.0744 106.94 88.2085 105.941 88.2085 104.711C88.2085 103.481 94.0744 102.482 101.306 102.482C103.943 102.482 106.403 102.618 108.454 102.843C112.033 103.241 114.398 103.931 114.398 104.711H114.403Z" fill="#F7DC4B" stroke="#12183E" stroke-width="0.0524726" stroke-linecap="round" stroke-linejoin="round"/>
<path d="M112.41 104.516C112.41 104.6 112.337 104.684 112.206 104.762C111.217 105.348 106.712 105.793 101.306 105.793C95.9011 105.793 91.3957 105.348 90.4067 104.762C90.2707 104.684 90.2026 104.6 90.2026 104.516C90.2026 103.81 95.1737 103.24 101.306 103.24C107.439 103.24 112.41 103.81 112.41 104.516Z" fill="#C8782B" stroke="#12183E" stroke-width="0.0524726" stroke-linecap="round" stroke-linejoin="round"/>
<path d="M112.207 104.763C111.218 105.349 106.712 105.793 101.307 105.793C95.9016 105.793 91.3962 105.349 90.4072 104.763C91.3962 104.177 95.9016 103.732 101.307 103.732C106.712 103.732 111.218 104.177 112.207 104.763Z" fill="#F4C243" stroke="#12183E" stroke-width="0.0641332" stroke-linecap="round" stroke-linejoin="round"/>
<path opacity="0.5" d="M114.404 104.707C114.404 105.868 109.177 106.821 102.5 106.925C99.9356 106.643 97.9943 106.208 97.0942 105.696C98.3919 105.753 99.8152 105.79 101.301 105.79C106.707 105.79 111.212 105.345 112.201 104.759C112.337 104.681 112.405 104.597 112.405 104.513C112.405 103.833 107.832 103.283 102.05 103.242C103.892 103.017 106.084 102.875 108.46 102.833C112.039 103.231 114.404 103.922 114.404 104.701V104.707Z" fill="#F8E292"/>
<path opacity="0.49" d="M114.404 104.706C114.404 105.124 113.719 105.527 112.426 105.883C111.636 106.098 110.632 106.291 109.454 106.448L105.859 105.679C109.098 105.512 111.516 105.171 112.207 104.758C112.175 104.737 112.144 104.721 112.102 104.701H114.404V104.706Z" fill="#FFFCE4"/>
<path d="M114.404 101.156V104.087C114.404 104.259 114.289 104.427 114.074 104.589C113.954 104.678 113.813 104.756 113.635 104.84C113.556 104.882 113.467 104.913 113.378 104.955C113.248 105.008 113.111 105.06 112.955 105.107C112.839 105.144 112.719 105.18 112.593 105.217C112.457 105.259 112.311 105.295 112.154 105.337C111.84 105.416 111.489 105.494 111.118 105.568C111.076 105.578 111.045 105.583 111.003 105.588C110.898 105.615 110.788 105.63 110.678 105.646C110.647 105.646 110.615 105.656 110.579 105.662C110.281 105.719 109.967 105.766 109.637 105.813C109.496 105.834 109.349 105.855 109.197 105.871C109.014 105.897 108.821 105.918 108.627 105.944C108.491 105.955 108.35 105.97 108.203 105.986H108.156C108.015 106.002 107.868 106.018 107.717 106.033C107.382 106.065 107.036 106.091 106.681 106.122C106.539 106.133 106.393 106.148 106.251 106.154H106.241C106.105 106.164 105.964 106.175 105.828 106.18C105.623 106.195 105.414 106.206 105.2 106.222C105.053 106.232 104.907 106.232 104.76 106.243C104.467 106.253 104.174 106.269 103.876 106.279C103.823 106.279 103.776 106.279 103.724 106.279C103.635 106.279 103.541 106.29 103.447 106.29C103.389 106.29 103.342 106.29 103.284 106.29C102.939 106.3 102.594 106.305 102.243 106.311C102.097 106.311 101.95 106.311 101.804 106.311H100.768C100.616 106.311 100.475 106.311 100.328 106.311C99.9826 106.311 99.632 106.3 99.2919 106.29C99.2344 106.29 99.182 106.29 99.1245 106.279C99.0355 106.279 98.9413 106.279 98.8524 106.269C98.8 106.269 98.7477 106.269 98.7006 106.269C98.4024 106.258 98.1041 106.243 97.8163 106.232C97.6698 106.222 97.5233 106.222 97.3767 106.211C97.1674 106.201 96.9581 106.185 96.7541 106.169C96.618 106.159 96.4767 106.148 96.3407 106.143H96.3302C96.1837 106.133 96.0424 106.122 95.9064 106.112C95.5505 106.086 95.2052 106.054 94.8651 106.023L94.4255 105.976H94.3836C94.2371 105.96 94.0958 105.944 93.9598 105.934C93.7662 105.908 93.5778 105.887 93.3947 105.861C93.2429 105.84 93.1016 105.819 92.9551 105.803C92.6255 105.756 92.3167 105.709 92.0185 105.651C91.9871 105.651 91.9504 105.641 91.919 105.636C91.8092 105.62 91.6993 105.599 91.5894 105.578C91.5528 105.578 91.5161 105.568 91.4795 105.557C91.1027 105.484 90.7574 105.405 90.4382 105.327C90.2864 105.285 90.1399 105.248 89.9986 105.206C89.8731 105.17 89.7527 105.133 89.6376 105.097C89.4858 105.044 89.3446 104.992 89.2137 104.94C89.1248 104.903 89.0411 104.866 88.9626 104.83C88.7847 104.746 88.6381 104.662 88.523 104.579C88.3085 104.416 88.1934 104.249 88.1934 104.076V101.146H114.388L114.404 101.156Z" fill="#CD7302" stroke="#21002A" stroke-width="0.0583029" stroke-linecap="round" stroke-linejoin="round"/>
<path d="M89.6587 101.154V105.104C89.507 105.052 89.3657 105 89.2349 104.947V101.154H89.6587Z" fill="#A26024"/>
<path d="M92.0292 101.154V105.659C91.9978 105.659 91.9612 105.649 91.9298 105.643C91.8199 105.628 91.71 105.607 91.6001 105.586V101.154H92.0239H92.0292Z" fill="#A26024"/>
<path d="M94.4043 101.154V105.983C94.2578 105.968 94.1165 105.952 93.9805 105.942V101.159H94.4043V101.154Z" fill="#A26024"/>
<path d="M96.7749 101.154V106.177C96.6389 106.167 96.4976 106.156 96.3615 106.151H96.3511V101.154H96.7749Z" fill="#A26024"/>
<path d="M99.1455 101.154V106.287C99.0566 106.287 98.9624 106.287 98.8734 106.277C98.8211 106.277 98.7688 106.277 98.7217 106.277V101.159H99.1455V101.154Z" fill="#A26024"/>
<path d="M101.521 101.154H101.097V106.318H101.521V101.154Z" fill="#A26024"/>
<path d="M103.891 101.159V106.277C103.839 106.277 103.792 106.277 103.74 106.277C103.651 106.277 103.557 106.287 103.462 106.287V101.154H103.886L103.891 101.159Z" fill="#A26024"/>
<path d="M106.267 101.154V106.151H106.257C106.121 106.161 105.979 106.172 105.843 106.177V101.154H106.267Z" fill="#A26024"/>
<path d="M108.638 101.159V105.942C108.502 105.952 108.36 105.968 108.214 105.983V101.154H108.638V101.159Z" fill="#A26024"/>
<path d="M111.013 101.154V105.586C110.909 105.612 110.799 105.628 110.689 105.643C110.657 105.643 110.626 105.654 110.589 105.659V101.154H111.013Z" fill="#A26024"/>
<path d="M113.384 101.154V104.953C113.253 105.005 113.117 105.057 112.96 105.104V101.154H113.384Z" fill="#A26024"/>
<path d="M114.403 101.164C114.403 102.326 109.176 103.278 102.499 103.383C102.107 103.383 101.709 103.393 101.306 103.393C94.0744 103.393 88.2085 102.394 88.2085 101.164C88.2085 99.9344 94.0744 98.9349 101.306 98.9349C103.943 98.9349 106.403 99.071 108.454 99.296C112.033 99.6937 114.398 100.384 114.398 101.164H114.403Z" fill="#F7DC4B" stroke="#12183E" stroke-width="0.0524726" stroke-linecap="round" stroke-linejoin="round"/>
<path d="M112.41 100.97C112.41 101.053 112.337 101.137 112.206 101.215C111.217 101.802 106.712 102.246 101.306 102.246C95.9011 102.246 91.3957 101.802 90.4067 101.215C90.2707 101.137 90.2026 101.053 90.2026 100.97C90.2026 100.263 95.1737 99.6927 101.306 99.6927C107.439 99.6927 112.41 100.263 112.41 100.97Z" fill="#C8782B" stroke="#12183E" stroke-width="0.0524726" stroke-linecap="round" stroke-linejoin="round"/>
<path d="M112.207 101.216C111.218 101.802 106.712 102.247 101.307 102.247C95.9016 102.247 91.3962 101.802 90.4072 101.216C91.3962 100.63 95.9016 100.185 101.307 100.185C106.712 100.185 111.218 100.63 112.207 101.216Z" fill="#F4C243" stroke="#12183E" stroke-width="0.0641332" stroke-linecap="round" stroke-linejoin="round"/>
<path opacity="0.5" d="M114.404 101.16C114.404 102.321 109.177 103.274 102.5 103.378C99.9356 103.096 97.9943 102.662 97.0942 102.149C98.3919 102.206 99.8152 102.243 101.301 102.243C106.707 102.243 111.212 101.798 112.201 101.212C112.337 101.134 112.405 101.05 112.405 100.966C112.405 100.286 107.832 99.7365 102.05 99.6946C103.892 99.4696 106.084 99.3284 108.46 99.2865C112.039 99.6842 114.404 100.375 114.404 101.155V101.16Z" fill="#F8E292"/>
<path opacity="0.49" d="M114.404 101.159C114.404 101.578 113.719 101.98 112.426 102.336C111.636 102.551 110.632 102.744 109.454 102.901L105.859 102.132C109.098 101.965 111.516 101.625 112.207 101.211C112.175 101.19 112.144 101.175 112.102 101.154H114.404V101.159Z" fill="#FFFCE4"/>
<path d="M114.404 97.6173V100.548C114.404 100.72 114.289 100.888 114.074 101.05C113.954 101.139 113.813 101.217 113.635 101.301C113.556 101.343 113.467 101.374 113.378 101.416C113.248 101.469 113.111 101.521 112.955 101.568C112.839 101.605 112.719 101.641 112.593 101.678C112.457 101.72 112.311 101.756 112.154 101.798C111.84 101.877 111.489 101.955 111.118 102.028C111.076 102.039 111.045 102.044 111.003 102.049C110.898 102.076 110.788 102.091 110.678 102.107C110.647 102.107 110.615 102.117 110.579 102.123C110.281 102.18 109.967 102.227 109.637 102.274C109.496 102.295 109.349 102.316 109.197 102.332C109.014 102.358 108.821 102.379 108.627 102.405C108.491 102.416 108.35 102.431 108.203 102.447H108.156C108.015 102.463 107.868 102.478 107.717 102.494C107.382 102.526 107.036 102.552 106.681 102.583C106.539 102.594 106.393 102.609 106.251 102.615H106.241C106.105 102.625 105.964 102.635 105.828 102.641C105.623 102.656 105.414 102.667 105.2 102.683C105.053 102.693 104.907 102.693 104.76 102.703C104.467 102.714 104.174 102.73 103.876 102.74C103.823 102.74 103.776 102.74 103.724 102.74C103.635 102.74 103.541 102.751 103.447 102.751C103.389 102.751 103.342 102.751 103.284 102.751C102.939 102.761 102.594 102.766 102.243 102.771C102.097 102.771 101.95 102.771 101.804 102.771H100.768C100.616 102.771 100.475 102.771 100.328 102.771C99.9826 102.771 99.632 102.761 99.2919 102.751C99.2344 102.751 99.182 102.751 99.1245 102.74C99.0355 102.74 98.9413 102.74 98.8524 102.73C98.8 102.73 98.7477 102.73 98.7006 102.73C98.4024 102.719 98.1041 102.703 97.8163 102.693C97.6698 102.683 97.5233 102.683 97.3767 102.672C97.1674 102.662 96.9581 102.646 96.7541 102.63C96.618 102.62 96.4767 102.609 96.3407 102.604H96.3302C96.1837 102.594 96.0424 102.583 95.9064 102.573C95.5505 102.546 95.2052 102.515 94.8651 102.484L94.4255 102.437H94.3836C94.2371 102.421 94.0958 102.405 93.9598 102.395C93.7662 102.369 93.5778 102.348 93.3947 102.321C93.2429 102.301 93.1016 102.28 92.9551 102.264C92.6255 102.217 92.3167 102.17 92.0185 102.112C91.9871 102.112 91.9504 102.102 91.919 102.096C91.8092 102.081 91.6993 102.06 91.5894 102.039C91.5528 102.039 91.5161 102.028 91.4795 102.018C91.1027 101.945 90.7574 101.866 90.4382 101.788C90.2864 101.746 90.1399 101.709 89.9986 101.667C89.8731 101.631 89.7527 101.594 89.6376 101.558C89.4858 101.505 89.3446 101.453 89.2137 101.401C89.1248 101.364 89.0411 101.327 88.9626 101.291C88.7847 101.207 88.6381 101.123 88.523 101.039C88.3085 100.877 88.1934 100.71 88.1934 100.537V97.6068H114.388L114.404 97.6173Z" fill="#CD7302" stroke="#21002A" stroke-width="0.0583029" stroke-linecap="round" stroke-linejoin="round"/>
<path d="M89.6587 97.6146V101.565C89.507 101.513 89.3657 101.461 89.2349 101.408V97.6146H89.6587Z" fill="#A26024"/>
<path d="M92.0292 97.6146V102.12C91.9978 102.12 91.9612 102.11 91.9298 102.104C91.8199 102.089 91.71 102.068 91.6001 102.047V97.6146H92.0239H92.0292Z" fill="#A26024"/>
<path d="M94.4043 97.6146V102.444C94.2578 102.429 94.1165 102.413 93.9805 102.403V97.6199H94.4043V97.6146Z" fill="#A26024"/>
<path d="M96.7749 97.6146V102.638C96.6389 102.628 96.4976 102.617 96.3615 102.612H96.3511V97.6146H96.7749Z" fill="#A26024"/>
<path d="M99.1455 97.6146V102.748C99.0566 102.748 98.9624 102.748 98.8734 102.737C98.8211 102.737 98.7688 102.737 98.7217 102.737V97.6199H99.1455V97.6146Z" fill="#A26024"/>
<path d="M101.521 97.6146H101.097V102.779H101.521V97.6146Z" fill="#A26024"/>
<path d="M103.891 97.612V102.73C103.839 102.73 103.792 102.73 103.74 102.73C103.651 102.73 103.557 102.74 103.462 102.74V97.6068H103.886L103.891 97.612Z" fill="#A26024"/>
<path d="M106.267 97.6146V102.612H106.257C106.121 102.622 105.979 102.633 105.843 102.638V97.6146H106.267Z" fill="#A26024"/>
<path d="M108.638 97.612V102.395C108.502 102.405 108.36 102.421 108.214 102.437V97.6068H108.638V97.612Z" fill="#A26024"/>
<path d="M111.013 97.6146V102.047C110.909 102.073 110.799 102.089 110.689 102.104C110.657 102.104 110.626 102.115 110.589 102.12V97.6146H111.013Z" fill="#A26024"/>
<path d="M113.384 97.6146V101.414C113.253 101.466 113.117 101.518 112.96 101.565V97.6146H113.384Z" fill="#A26024"/>
<path d="M114.403 97.6172C114.403 98.7789 109.176 99.7312 102.499 99.8359C102.107 99.8359 101.709 99.8463 101.306 99.8463C94.0744 99.8463 88.2085 98.8469 88.2085 97.6172C88.2085 96.3875 94.0744 95.3881 101.306 95.3881C103.943 95.3881 106.403 95.5241 108.454 95.7491C112.033 96.1468 114.398 96.8375 114.398 97.6172H114.403Z" fill="#F7DC4B" stroke="#12183E" stroke-width="0.0524726" stroke-linecap="round" stroke-linejoin="round"/>
<path d="M112.41 97.4226C112.41 97.5064 112.337 97.5901 112.206 97.6686C111.217 98.2546 106.712 98.6994 101.306 98.6994C95.9011 98.6994 91.3957 98.2546 90.4067 97.6686C90.2707 97.5901 90.2026 97.5064 90.2026 97.4226C90.2026 96.7162 95.1737 96.1459 101.306 96.1459C107.439 96.1459 112.41 96.7162 112.41 97.4226Z" fill="#C8782B" stroke="#12183E" stroke-width="0.0524726" stroke-linecap="round" stroke-linejoin="round"/>
<path d="M112.207 97.6689C111.218 98.255 106.712 98.6997 101.307 98.6997C95.9016 98.6997 91.3962 98.255 90.4072 97.6689C91.3962 97.0828 95.9016 96.6381 101.307 96.6381C106.712 96.6381 111.218 97.0828 112.207 97.6689Z" fill="#F4C243" stroke="#12183E" stroke-width="0.0641332" stroke-linecap="round" stroke-linejoin="round"/>
<path opacity="0.5" d="M114.404 97.6129C114.404 98.7746 109.177 99.7269 102.5 99.8316C99.9356 99.549 97.9943 99.1147 97.0942 98.6019C98.3919 98.6595 99.8152 98.6961 101.301 98.6961C106.707 98.6961 111.212 98.2513 112.201 97.6653C112.337 97.5868 112.405 97.503 112.405 97.4193C112.405 96.7391 107.832 96.1896 102.05 96.1478C103.892 95.9228 106.084 95.7815 108.46 95.7396C112.039 96.1373 114.404 96.828 114.404 97.6077V97.6129Z" fill="#F8E292"/>
<path opacity="0.49" d="M114.404 97.612C114.404 98.0307 113.719 98.4336 112.426 98.7894C111.636 99.0039 110.632 99.1976 109.454 99.3545L105.859 98.5853C109.098 98.4179 111.516 98.0778 112.207 97.6644C112.175 97.6434 112.144 97.6277 112.102 97.6068H114.404V97.612Z" fill="#FFFCE4"/>
<path d="M114.404 94.0626V96.9929C114.404 97.1656 114.289 97.333 114.074 97.4952C113.954 97.5842 113.813 97.6627 113.635 97.7464C113.556 97.7883 113.467 97.8197 113.378 97.8615C113.248 97.9139 113.111 97.9662 112.955 98.0133C112.839 98.0499 112.719 98.0865 112.593 98.1232C112.457 98.165 112.311 98.2017 112.154 98.2435C111.84 98.322 111.489 98.4005 111.118 98.4738C111.076 98.4842 111.045 98.4895 111.003 98.4947C110.898 98.5209 110.788 98.5366 110.678 98.5523C110.647 98.5523 110.615 98.5627 110.579 98.568C110.281 98.6255 109.967 98.6726 109.637 98.7197C109.496 98.7406 109.349 98.7616 109.197 98.7773C109.014 98.8034 108.821 98.8243 108.627 98.8505C108.491 98.861 108.35 98.8767 108.203 98.8924H108.156C108.015 98.9081 107.868 98.9238 107.717 98.9395C107.382 98.9709 107.036 98.997 106.681 99.0284C106.539 99.0389 106.393 99.0546 106.251 99.0598H106.241C106.105 99.0703 105.964 99.0808 105.828 99.086C105.623 99.1017 105.414 99.1121 105.2 99.1278C105.053 99.1383 104.907 99.1383 104.76 99.1488C104.467 99.1592 104.174 99.1749 103.876 99.1854C103.823 99.1854 103.776 99.1854 103.724 99.1854C103.635 99.1854 103.541 99.1959 103.447 99.1959C103.389 99.1959 103.342 99.1959 103.284 99.1959C102.939 99.2063 102.594 99.2116 102.243 99.2168C102.097 99.2168 101.95 99.2168 101.804 99.2168H100.768C100.616 99.2168 100.475 99.2168 100.328 99.2168C99.9826 99.2168 99.632 99.2063 99.2919 99.1959C99.2344 99.1959 99.182 99.1959 99.1245 99.1854C99.0355 99.1854 98.9413 99.1854 98.8524 99.1749C98.8 99.1749 98.7477 99.1749 98.7006 99.1749C98.4024 99.1645 98.1041 99.1488 97.8163 99.1383C97.6698 99.1278 97.5233 99.1278 97.3767 99.1174C97.1674 99.1069 96.9581 99.0912 96.7541 99.0755C96.618 99.0651 96.4767 99.0546 96.3407 99.0494H96.3302C96.1837 99.0389 96.0424 99.0284 95.9064 99.018C95.5505 98.9918 95.2052 98.9604 94.8651 98.929L94.4255 98.8819H94.3836C94.2371 98.8662 94.0958 98.8505 93.9598 98.84C93.7662 98.8139 93.5778 98.793 93.3947 98.7668C93.2429 98.7459 93.1016 98.7249 92.9551 98.7092C92.6255 98.6621 92.3167 98.615 92.0185 98.5575C91.9871 98.5575 91.9504 98.547 91.919 98.5418C91.8092 98.5261 91.6993 98.5052 91.5894 98.4842C91.5528 98.4842 91.5161 98.4738 91.4795 98.4633C91.1027 98.39 90.7574 98.3115 90.4382 98.2331C90.2864 98.1912 90.1399 98.1546 89.9986 98.1127C89.8731 98.0761 89.7527 98.0394 89.6376 98.0028C89.4858 97.9505 89.3446 97.8982 89.2137 97.8458C89.1248 97.8092 89.0411 97.7726 88.9626 97.7359C88.7847 97.6522 88.6381 97.5685 88.523 97.4848C88.3085 97.3226 88.1934 97.1551 88.1934 96.9824V94.0521H114.388L114.404 94.0626Z" fill="#CD7302" stroke="#21002A" stroke-width="0.0583029" stroke-linecap="round" stroke-linejoin="round"/>
<path d="M89.6587 94.0677V98.0184C89.507 97.9661 89.3657 97.9138 89.2349 97.8615V94.0677H89.6587Z" fill="#A26024"/>
<path d="M92.0292 94.0677V98.5731C91.9978 98.5731 91.9612 98.5626 91.9298 98.5574C91.8199 98.5417 91.71 98.5208 91.6001 98.4999V94.0677H92.0239H92.0292Z" fill="#A26024"/>
<path d="M94.4043 94.0677V98.8975C94.2578 98.8818 94.1165 98.8661 93.9805 98.8557V94.073H94.4043V94.0677Z" fill="#A26024"/>
<path d="M96.7749 94.0677V99.0911C96.6389 99.0807 96.4976 99.0702 96.3615 99.065H96.3511V94.0677H96.7749Z" fill="#A26024"/>
<path d="M99.1455 94.0677V99.201C99.0566 99.201 98.9624 99.201 98.8734 99.1906C98.8211 99.1906 98.7688 99.1906 98.7217 99.1906V94.073H99.1455V94.0677Z" fill="#A26024"/>
<path d="M101.521 94.0677H101.097V99.2324H101.521V94.0677Z" fill="#A26024"/>
<path d="M103.891 94.0652V99.1828C103.839 99.1828 103.792 99.1828 103.74 99.1828C103.651 99.1828 103.557 99.1932 103.462 99.1932V94.0599H103.886L103.891 94.0652Z" fill="#A26024"/>
<path d="M106.267 94.0677V99.065H106.257C106.121 99.0754 105.979 99.0859 105.843 99.0911V94.0677H106.267Z" fill="#A26024"/>
<path d="M108.638 94.0652V98.8479C108.502 98.8583 108.36 98.874 108.214 98.8897V94.0599H108.638V94.0652Z" fill="#A26024"/>
<path d="M111.013 94.0677V98.4999C110.909 98.526 110.799 98.5417 110.689 98.5574C110.657 98.5574 110.626 98.5679 110.589 98.5731V94.0677H111.013Z" fill="#A26024"/>
<path d="M113.384 94.0677V97.8667C113.253 97.919 113.117 97.9713 112.96 98.0184V94.0677H113.384Z" fill="#A26024"/>
<path d="M114.403 94.0625C114.403 95.2242 109.176 96.1765 102.499 96.2812C102.107 96.2812 101.709 96.2916 101.306 96.2916C94.0744 96.2916 88.2085 95.2922 88.2085 94.0625C88.2085 92.8328 94.0744 91.8334 101.306 91.8334C103.943 91.8334 106.403 91.9694 108.454 92.1944C112.033 92.5921 114.398 93.2828 114.398 94.0625H114.403Z" fill="#F7DC4B" stroke="#12183E" stroke-width="0.0524726" stroke-linecap="round" stroke-linejoin="round"/>
<path d="M112.41 93.8758C112.41 93.9595 112.337 94.0432 112.206 94.1217C111.217 94.7078 106.712 95.1526 101.306 95.1526C95.9011 95.1526 91.3957 94.7078 90.4067 94.1217C90.2707 94.0432 90.2026 93.9595 90.2026 93.8758C90.2026 93.1694 95.1737 92.599 101.306 92.599C107.439 92.599 112.41 93.1694 112.41 93.8758Z" fill="#C8782B" stroke="#12183E" stroke-width="0.0524726" stroke-linecap="round" stroke-linejoin="round"/>
<path d="M112.207 94.1142C111.218 94.7003 106.712 95.1451 101.307 95.1451C95.9016 95.1451 91.3962 94.7003 90.4072 94.1142C91.3962 93.5282 95.9016 93.0834 101.307 93.0834C106.712 93.0834 111.218 93.5282 112.207 94.1142Z" fill="#F4C243" stroke="#12183E" stroke-width="0.0641332" stroke-linecap="round" stroke-linejoin="round"/>
<path opacity="0.5" d="M114.404 94.0661C114.404 95.2277 109.177 96.1801 102.5 96.2847C99.9356 96.0022 97.9943 95.5678 97.0942 95.055C98.3919 95.1126 99.8152 95.1492 101.301 95.1492C106.707 95.1492 111.212 94.7044 112.201 94.1184C112.337 94.0399 112.405 93.9562 112.405 93.8724C112.405 93.1922 107.832 92.6428 102.05 92.6009C103.892 92.3759 106.084 92.2346 108.46 92.1927C112.039 92.5904 114.404 93.2811 114.404 94.0608V94.0661Z" fill="#F8E292"/>
<path opacity="0.49" d="M114.404 94.0652C114.404 94.4838 113.719 94.8867 112.426 95.2425C111.636 95.4571 110.632 95.6507 109.454 95.8077L105.859 95.0385C109.098 94.871 111.516 94.5309 112.207 94.1175C112.175 94.0966 112.144 94.0809 112.102 94.0599H114.404V94.0652Z" fill="#FFFCE4"/>
<path d="M114.404 90.5157V93.446C114.404 93.6187 114.289 93.7862 114.074 93.9484C113.954 94.0373 113.813 94.1158 113.635 94.1995C113.556 94.2414 113.467 94.2728 113.378 94.3147C113.248 94.367 113.111 94.4193 112.955 94.4664C112.839 94.503 112.719 94.5397 112.593 94.5763C112.457 94.6182 112.311 94.6548 112.154 94.6966C111.84 94.7751 111.489 94.8536 111.118 94.9269C111.076 94.9373 111.045 94.9426 111.003 94.9478C110.898 94.974 110.788 94.9897 110.678 95.0054C110.647 95.0054 110.615 95.0158 110.579 95.0211C110.281 95.0786 109.967 95.1257 109.637 95.1728C109.496 95.1938 109.349 95.2147 109.197 95.2304C109.014 95.2565 108.821 95.2775 108.627 95.3036C108.491 95.3141 108.35 95.3298 108.203 95.3455H108.156C108.015 95.3612 107.868 95.3769 107.717 95.3926C107.382 95.424 107.036 95.4502 106.681 95.4815C106.539 95.492 106.393 95.5077 106.251 95.5129H106.241C106.105 95.5234 105.964 95.5339 105.828 95.5391C105.623 95.5548 105.414 95.5653 105.2 95.581C105.053 95.5914 104.907 95.5914 104.76 95.6019C104.467 95.6124 104.174 95.6281 103.876 95.6385C103.823 95.6385 103.776 95.6385 103.724 95.6385C103.635 95.6385 103.541 95.649 103.447 95.649C103.389 95.649 103.342 95.649 103.284 95.649C102.939 95.6595 102.594 95.6647 102.243 95.6699C102.097 95.6699 101.95 95.6699 101.804 95.6699H100.768C100.616 95.6699 100.475 95.6699 100.328 95.6699C99.9826 95.6699 99.632 95.6595 99.2919 95.649C99.2344 95.649 99.182 95.649 99.1245 95.6385C99.0355 95.6385 98.9413 95.6385 98.8524 95.6281C98.8 95.6281 98.7477 95.6281 98.7006 95.6281C98.4024 95.6176 98.1041 95.6019 97.8163 95.5914C97.6698 95.581 97.5233 95.581 97.3767 95.5705C97.1674 95.56 96.9581 95.5443 96.7541 95.5286C96.618 95.5182 96.4767 95.5077 96.3407 95.5025H96.3302C96.1837 95.492 96.0424 95.4815 95.9064 95.4711C95.5505 95.4449 95.2052 95.4135 94.8651 95.3821L94.4255 95.335H94.3836C94.2371 95.3193 94.0958 95.3036 93.9598 95.2932C93.7662 95.267 93.5778 95.2461 93.3947 95.2199C93.2429 95.199 93.1016 95.1781 92.9551 95.1624C92.6255 95.1153 92.3167 95.0682 92.0185 95.0106C91.9871 95.0106 91.9504 95.0001 91.919 94.9949C91.8092 94.9792 91.6993 94.9583 91.5894 94.9374C91.5528 94.9374 91.5161 94.9269 91.4795 94.9164C91.1027 94.8432 90.7574 94.7647 90.4382 94.6862C90.2864 94.6443 90.1399 94.6077 89.9986 94.5658C89.8731 94.5292 89.7527 94.4926 89.6376 94.4559C89.4858 94.4036 89.3446 94.3513 89.2137 94.299C89.1248 94.2623 89.0411 94.2257 88.9626 94.1891C88.7847 94.1053 88.6381 94.0216 88.523 93.9379C88.3085 93.7757 88.1934 93.6082 88.1934 93.4356V90.5052H114.388L114.404 90.5157Z" fill="#CD7302" stroke="#21002A" stroke-width="0.0583029" stroke-linecap="round" stroke-linejoin="round"/>
<path d="M89.6587 90.5209V94.4716C89.507 94.4192 89.3657 94.3669 89.2349 94.3146V90.5209H89.6587Z" fill="#A26024"/>
<path d="M92.0292 90.5209V95.0262C91.9978 95.0262 91.9612 95.0158 91.9298 95.0105C91.8199 94.9948 91.71 94.9739 91.6001 94.953V90.5209H92.0239H92.0292Z" fill="#A26024"/>
<path d="M94.4043 90.5209V95.3507C94.2578 95.335 94.1165 95.3193 93.9805 95.3088V90.5261H94.4043V90.5209Z" fill="#A26024"/>
<path d="M96.7749 90.5209V95.5443C96.6389 95.5338 96.4976 95.5233 96.3615 95.5181H96.3511V90.5209H96.7749Z" fill="#A26024"/>
<path d="M99.1455 90.5209V95.6542C99.0566 95.6542 98.9624 95.6542 98.8734 95.6437C98.8211 95.6437 98.7688 95.6437 98.7217 95.6437V90.5261H99.1455V90.5209Z" fill="#A26024"/>
<path d="M101.521 90.5209H101.097V95.6856H101.521V90.5209Z" fill="#A26024"/>
<path d="M103.891 90.5183V95.6359C103.839 95.6359 103.792 95.6359 103.74 95.6359C103.651 95.6359 103.557 95.6463 103.462 95.6463V90.5131H103.886L103.891 90.5183Z" fill="#A26024"/>
<path d="M106.267 90.5209V95.5181H106.257C106.121 95.5286 105.979 95.539 105.843 95.5443V90.5209H106.267Z" fill="#A26024"/>
<path d="M108.638 90.5183V95.301C108.502 95.3115 108.36 95.3271 108.214 95.3428V90.5131H108.638V90.5183Z" fill="#A26024"/>
<path d="M111.013 90.5209V94.953C110.909 94.9791 110.799 94.9948 110.689 95.0105C110.657 95.0105 110.626 95.021 110.589 95.0262V90.5209H111.013Z" fill="#A26024"/>
<path d="M113.384 90.5209V94.3198C113.253 94.3721 113.117 94.4245 112.96 94.4716V90.5209H113.384Z" fill="#A26024"/>
<path d="M114.403 90.5234C114.403 91.6851 109.176 92.6375 102.499 92.7421C102.107 92.7421 101.709 92.7526 101.306 92.7526C94.0744 92.7526 88.2085 91.7531 88.2085 90.5234C88.2085 89.2938 94.0744 88.2943 101.306 88.2943C103.943 88.2943 106.403 88.4304 108.454 88.6554C112.033 89.053 114.398 89.7438 114.398 90.5234H114.403Z" fill="#F7DC4B" stroke="#12183E" stroke-width="0.0524726" stroke-linecap="round" stroke-linejoin="round"/>
<path d="M112.41 90.3289C112.41 90.4126 112.337 90.4964 112.206 90.5748C111.217 91.1609 106.712 91.6057 101.306 91.6057C95.9011 91.6057 91.3957 91.1609 90.4067 90.5748C90.2707 90.4964 90.2026 90.4126 90.2026 90.3289C90.2026 89.6225 95.1737 89.0521 101.306 89.0521C107.439 89.0521 112.41 89.6225 112.41 90.3289Z" fill="#C8782B" stroke="#12183E" stroke-width="0.0524726" stroke-linecap="round" stroke-linejoin="round"/>
<path d="M112.207 90.5673C111.218 91.1534 106.712 91.5982 101.307 91.5982C95.9016 91.5982 91.3962 91.1534 90.4072 90.5673C91.3962 89.9813 95.9016 89.5365 101.307 89.5365C106.712 89.5365 111.218 89.9813 112.207 90.5673Z" fill="#F4C243" stroke="#12183E" stroke-width="0.0641332" stroke-linecap="round" stroke-linejoin="round"/>
<path opacity="0.5" d="M114.404 90.5192C114.404 91.6808 109.177 92.6332 102.5 92.7379C99.9356 92.4553 97.9943 92.021 97.0942 91.5082C98.3919 91.5657 99.8152 91.6023 101.301 91.6023C106.707 91.6023 111.212 91.1576 112.201 90.5715C112.337 90.493 112.405 90.4093 112.405 90.3256C112.405 89.6453 107.832 89.0959 102.05 89.054C103.892 88.829 106.084 88.6877 108.46 88.6459C112.039 89.0436 114.404 89.7343 114.404 90.514V90.5192Z" fill="#F8E292"/>
<path opacity="0.49" d="M114.404 90.5261C114.404 90.9447 113.719 91.3476 112.426 91.7035C111.636 91.918 110.632 92.1116 109.454 92.2686L105.859 91.4994C109.098 91.3319 111.516 90.9918 112.207 90.5784C112.175 90.5575 112.144 90.5418 112.102 90.5209H114.404V90.5261Z" fill="#FFFCE4"/>
<path d="M114.404 86.9688V89.8992C114.404 90.0718 114.289 90.2393 114.074 90.4015C113.954 90.4905 113.813 90.5689 113.635 90.6527C113.556 90.6945 113.467 90.7259 113.378 90.7678C113.248 90.8201 113.111 90.8724 112.955 90.9195C112.839 90.9562 112.719 90.9928 112.593 91.0294C112.457 91.0713 112.311 91.1079 112.154 91.1498C111.84 91.2283 111.489 91.3068 111.118 91.38C111.076 91.3905 111.045 91.3957 111.003 91.4009C110.898 91.4271 110.788 91.4428 110.678 91.4585C110.647 91.4585 110.615 91.469 110.579 91.4742C110.281 91.5318 109.967 91.5789 109.637 91.6259C109.496 91.6469 109.349 91.6678 109.197 91.6835C109.014 91.7097 108.821 91.7306 108.627 91.7568C108.491 91.7672 108.35 91.7829 108.203 91.7986H108.156C108.015 91.8143 107.868 91.83 107.717 91.8457C107.382 91.8771 107.036 91.9033 106.681 91.9347C106.539 91.9451 106.393 91.9608 106.251 91.9661H106.241C106.105 91.9765 105.964 91.987 105.828 91.9922C105.623 92.0079 105.414 92.0184 105.2 92.0341C105.053 92.0446 104.907 92.0446 104.76 92.055C104.467 92.0655 104.174 92.0812 103.876 92.0917C103.823 92.0917 103.776 92.0917 103.724 92.0917C103.635 92.0917 103.541 92.1021 103.447 92.1021C103.389 92.1021 103.342 92.1021 103.284 92.1021C102.939 92.1126 102.594 92.1178 102.243 92.1231C102.097 92.1231 101.95 92.1231 101.804 92.1231H100.768C100.616 92.1231 100.475 92.1231 100.328 92.1231C99.9826 92.1231 99.632 92.1126 99.2919 92.1021C99.2344 92.1021 99.182 92.1021 99.1245 92.0917C99.0355 92.0917 98.9413 92.0917 98.8524 92.0812C98.8 92.0812 98.7477 92.0812 98.7006 92.0812C98.4024 92.0707 98.1041 92.055 97.8163 92.0446C97.6698 92.0341 97.5233 92.0341 97.3767 92.0236C97.1674 92.0132 96.9581 91.9975 96.7541 91.9818C96.618 91.9713 96.4767 91.9608 96.3407 91.9556H96.3302C96.1837 91.9451 96.0424 91.9347 95.9064 91.9242C95.5505 91.898 95.2052 91.8666 94.8651 91.8353L94.4255 91.7882H94.3836C94.2371 91.7725 94.0958 91.7568 93.9598 91.7463C93.7662 91.7201 93.5778 91.6992 93.3947 91.673C93.2429 91.6521 93.1016 91.6312 92.9551 91.6155C92.6255 91.5684 92.3167 91.5213 92.0185 91.4637C91.9871 91.4637 91.9504 91.4533 91.919 91.448C91.8092 91.4323 91.6993 91.4114 91.5894 91.3905C91.5528 91.3905 91.5161 91.38 91.4795 91.3695C91.1027 91.2963 90.7574 91.2178 90.4382 91.1393C90.2864 91.0974 90.1399 91.0608 89.9986 91.0189C89.8731 90.9823 89.7527 90.9457 89.6376 90.9091C89.4858 90.8567 89.3446 90.8044 89.2137 90.7521C89.1248 90.7155 89.0411 90.6788 88.9626 90.6422C88.7847 90.5585 88.6381 90.4748 88.523 90.391C88.3085 90.2288 88.1934 90.0614 88.1934 89.8887V86.9584H114.388L114.404 86.9688Z" fill="#CD7302" stroke="#21002A" stroke-width="0.0583029" stroke-linecap="round" stroke-linejoin="round"/>
<path d="M89.6587 86.9701V90.9208C89.507 90.8685 89.3657 90.8161 89.2349 90.7638V86.9701H89.6587Z" fill="#A26024"/>
<path d="M92.0292 86.9701V91.4755C91.9978 91.4755 91.9612 91.465 91.9298 91.4598C91.8199 91.4441 91.71 91.4231 91.6001 91.4022V86.9701H92.0239H92.0292Z" fill="#A26024"/>
<path d="M94.4043 86.9701V91.7999C94.2578 91.7842 94.1165 91.7685 93.9805 91.758V86.9753H94.4043V86.9701Z" fill="#A26024"/>
<path d="M96.7749 86.9701V91.9935C96.6389 91.983 96.4976 91.9726 96.3615 91.9673H96.3511V86.9701H96.7749Z" fill="#A26024"/>
<path d="M99.1455 86.9701V92.1034C99.0566 92.1034 98.9624 92.1034 98.8734 92.0929C98.8211 92.0929 98.7688 92.0929 98.7217 92.0929V86.9753H99.1455V86.9701Z" fill="#A26024"/>
<path d="M101.521 86.9701H101.097V92.1348H101.521V86.9701Z" fill="#A26024"/>
<path d="M103.891 86.9714V92.089C103.839 92.089 103.792 92.089 103.74 92.089C103.651 92.089 103.557 92.0995 103.462 92.0995V86.9662H103.886L103.891 86.9714Z" fill="#A26024"/>
<path d="M106.267 86.9701V91.9673H106.257C106.121 91.9778 105.979 91.9883 105.843 91.9935V86.9701H106.267Z" fill="#A26024"/>
<path d="M108.638 86.9714V91.7541C108.502 91.7646 108.36 91.7803 108.214 91.796V86.9662H108.638V86.9714Z" fill="#A26024"/>
<path d="M111.013 86.9701V91.4022C110.909 91.4284 110.799 91.4441 110.689 91.4598C110.657 91.4598 110.626 91.4702 110.589 91.4755V86.9701H111.013Z" fill="#A26024"/>
<path d="M113.384 86.9701V90.769C113.253 90.8214 113.117 90.8737 112.96 90.9208V86.9701H113.384Z" fill="#A26024"/>
<path d="M114.403 86.9766C114.403 88.1382 109.176 89.0906 102.499 89.1952C102.107 89.1952 101.709 89.2057 101.306 89.2057C94.0744 89.2057 88.2085 88.2063 88.2085 86.9766C88.2085 85.7469 94.0744 84.7474 101.306 84.7474C103.943 84.7474 106.403 84.8835 108.454 85.1085C112.033 85.5062 114.398 86.1969 114.398 86.9766H114.403Z" fill="#F7DC4B" stroke="#12183E" stroke-width="0.0524726" stroke-linecap="round" stroke-linejoin="round"/>
<path d="M112.41 86.782C112.41 86.8658 112.337 86.9495 112.206 87.028C111.217 87.614 106.712 88.0588 101.306 88.0588C95.9011 88.0588 91.3957 87.614 90.4067 87.028C90.2707 86.9495 90.2026 86.8658 90.2026 86.782C90.2026 86.0756 95.1737 85.5052 101.306 85.5052C107.439 85.5052 112.41 86.0756 112.41 86.782Z" fill="#C8782B" stroke="#12183E" stroke-width="0.0524726" stroke-linecap="round" stroke-linejoin="round"/>
<path d="M112.207 87.0244C111.218 87.6104 106.712 88.0552 101.307 88.0552C95.9016 88.0552 91.3962 87.6104 90.4072 87.0244C91.3962 86.4383 95.9016 85.9935 101.307 85.9935C106.712 85.9935 111.218 86.4383 112.207 87.0244Z" fill="#F4C243" stroke="#12183E" stroke-width="0.0641332" stroke-linecap="round" stroke-linejoin="round"/>
<path opacity="0.5" d="M114.404 86.9762C114.404 88.1379 109.177 89.0902 102.5 89.1949C99.9356 88.9123 97.9943 88.478 97.0942 87.9652C98.3919 88.0228 99.8152 88.0594 101.301 88.0594C106.707 88.0594 111.212 87.6146 112.201 87.0285C112.337 86.95 112.405 86.8663 112.405 86.7826C112.405 86.1024 107.832 85.5529 102.05 85.5111C103.892 85.286 106.084 85.1448 108.46 85.1029C112.039 85.5006 114.404 86.1913 114.404 86.971V86.9762Z" fill="#F8E292"/>
<path opacity="0.49" d="M114.404 86.9753C114.404 87.3939 113.719 87.7969 112.426 88.1527C111.636 88.3672 110.632 88.5608 109.454 88.7178L105.859 87.9486C109.098 87.7812 111.516 87.441 112.207 87.0277C112.175 87.0067 112.144 86.991 112.102 86.9701H114.404V86.9753Z" fill="#FFFCE4"/>
<path d="M114.404 83.422V86.3523C114.404 86.525 114.289 86.6924 114.074 86.8546C113.954 86.9436 113.813 87.0221 113.635 87.1058C113.556 87.1477 113.467 87.179 113.378 87.2209C113.248 87.2732 113.111 87.3256 112.955 87.3727C112.839 87.4093 112.719 87.4459 112.593 87.4825C112.457 87.5244 112.311 87.561 112.154 87.6029C111.84 87.6814 111.489 87.7599 111.118 87.8331C111.076 87.8436 111.045 87.8488 111.003 87.8541C110.898 87.8802 110.788 87.8959 110.678 87.9116C110.647 87.9116 110.615 87.9221 110.579 87.9273C110.281 87.9849 109.967 88.032 109.637 88.0791C109.496 88.1 109.349 88.1209 109.197 88.1366C109.014 88.1628 108.821 88.1837 108.627 88.2099C108.491 88.2204 108.35 88.2361 108.203 88.2518H108.156C108.015 88.2675 107.868 88.2831 107.717 88.2988C107.382 88.3302 107.036 88.3564 106.681 88.3878C106.539 88.3983 106.393 88.414 106.251 88.4192H106.241C106.105 88.4297 105.964 88.4401 105.828 88.4454C105.623 88.4611 105.414 88.4715 105.2 88.4872C105.053 88.4977 104.907 88.4977 104.76 88.5082C104.467 88.5186 104.174 88.5343 103.876 88.5448C103.823 88.5448 103.776 88.5448 103.724 88.5448C103.635 88.5448 103.541 88.5553 103.447 88.5553C103.389 88.5553 103.342 88.5553 103.284 88.5553C102.939 88.5657 102.594 88.5709 102.243 88.5762C102.097 88.5762 101.95 88.5762 101.804 88.5762H100.768C100.616 88.5762 100.475 88.5762 100.328 88.5762C99.9826 88.5762 99.632 88.5657 99.2919 88.5553C99.2344 88.5553 99.182 88.5553 99.1245 88.5448C99.0355 88.5448 98.9413 88.5448 98.8524 88.5343C98.8 88.5343 98.7477 88.5343 98.7006 88.5343C98.4024 88.5239 98.1041 88.5082 97.8163 88.4977C97.6698 88.4872 97.5233 88.4872 97.3767 88.4768C97.1674 88.4663 96.9581 88.4506 96.7541 88.4349C96.618 88.4244 96.4767 88.414 96.3407 88.4087H96.3302C96.1837 88.3983 96.0424 88.3878 95.9064 88.3773C95.5505 88.3512 95.2052 88.3198 94.8651 88.2884L94.4255 88.2413H94.3836C94.2371 88.2256 94.0958 88.2099 93.9598 88.1994C93.7662 88.1733 93.5778 88.1523 93.3947 88.1262C93.2429 88.1052 93.1016 88.0843 92.9551 88.0686C92.6255 88.0215 92.3167 87.9744 92.0185 87.9169C91.9871 87.9169 91.9504 87.9064 91.919 87.9012C91.8092 87.8855 91.6993 87.8645 91.5894 87.8436C91.5528 87.8436 91.5161 87.8331 91.4795 87.8227C91.1027 87.7494 90.7574 87.6709 90.4382 87.5924C90.2864 87.5506 90.1399 87.5139 89.9986 87.4721C89.8731 87.4355 89.7527 87.3988 89.6376 87.3622C89.4858 87.3099 89.3446 87.2575 89.2137 87.2052C89.1248 87.1686 89.0411 87.132 88.9626 87.0953C88.7847 87.0116 88.6381 86.9279 88.523 86.8442C88.3085 86.6819 88.1934 86.5145 88.1934 86.3418V83.4115H114.388L114.404 83.422Z" fill="#CD7302" stroke="#21002A" stroke-width="0.0583029" stroke-linecap="round" stroke-linejoin="round"/>
<path d="M89.6587 83.4232V87.3739C89.507 87.3216 89.3657 87.2693 89.2349 87.2169V83.4232H89.6587Z" fill="#A26024"/>
<path d="M92.0292 83.4232V87.9286C91.9978 87.9286 91.9612 87.9181 91.9298 87.9129C91.8199 87.8972 91.71 87.8762 91.6001 87.8553V83.4232H92.0239H92.0292Z" fill="#A26024"/>
<path d="M94.4043 83.4232V88.253C94.2578 88.2373 94.1165 88.2216 93.9805 88.2111V83.4285H94.4043V83.4232Z" fill="#A26024"/>
<path d="M96.7749 83.4232V88.4466C96.6389 88.4361 96.4976 88.4257 96.3615 88.4204H96.3511V83.4232H96.7749Z" fill="#A26024"/>
<path d="M99.1455 83.4232V88.5565C99.0566 88.5565 98.9624 88.5565 98.8734 88.546C98.8211 88.546 98.7688 88.546 98.7217 88.546V83.4285H99.1455V83.4232Z" fill="#A26024"/>
<path d="M101.521 83.4232H101.097V88.5879H101.521V83.4232Z" fill="#A26024"/>
<path d="M103.891 83.4206V88.5382C103.839 88.5382 103.792 88.5382 103.74 88.5382C103.651 88.5382 103.557 88.5487 103.462 88.5487V83.4154H103.886L103.891 83.4206Z" fill="#A26024"/>
<path d="M106.267 83.4232V88.4204H106.257C106.121 88.4309 105.979 88.4414 105.843 88.4466V83.4232H106.267Z" fill="#A26024"/>
<path d="M108.638 83.4206V88.2033C108.502 88.2138 108.36 88.2295 108.214 88.2452V83.4154H108.638V83.4206Z" fill="#A26024"/>
<path d="M111.013 83.4232V87.8553C110.909 87.8815 110.799 87.8972 110.689 87.9129C110.657 87.9129 110.626 87.9233 110.589 87.9286V83.4232H111.013Z" fill="#A26024"/>
<path d="M113.384 83.4232V87.2222C113.253 87.2745 113.117 87.3268 112.96 87.3739V83.4232H113.384Z" fill="#A26024"/>
<path d="M114.403 83.4258C114.403 84.5874 109.176 85.5398 102.499 85.6445C102.107 85.6445 101.709 85.6549 101.306 85.6549C94.0744 85.6549 88.2085 84.6555 88.2085 83.4258C88.2085 82.1961 94.0744 81.1967 101.306 81.1967C103.943 81.1967 106.403 81.3327 108.454 81.5577C112.033 81.9554 114.398 82.6461 114.398 83.4258H114.403Z" fill="#F7DC4B" stroke="#12183E" stroke-width="0.0524726" stroke-linecap="round" stroke-linejoin="round"/>
<path d="M112.41 83.2352C112.41 83.3189 112.337 83.4026 112.206 83.4811C111.217 84.0672 106.712 84.5119 101.306 84.5119C95.9011 84.5119 91.3957 84.0672 90.4067 83.4811C90.2707 83.4026 90.2026 83.3189 90.2026 83.2352C90.2026 82.5287 95.1737 81.9584 101.306 81.9584C107.439 81.9584 112.41 82.5287 112.41 83.2352Z" fill="#C8782B" stroke="#12183E" stroke-width="0.0524726" stroke-linecap="round" stroke-linejoin="round"/>
<path d="M112.207 83.4814C111.218 84.0675 106.712 84.5122 101.307 84.5122C95.9016 84.5122 91.3962 84.0675 90.4072 83.4814C91.3962 82.8953 95.9016 82.4506 101.307 82.4506C106.712 82.4506 111.218 82.8953 112.207 83.4814Z" fill="#F4C243" stroke="#12183E" stroke-width="0.0641332" stroke-linecap="round" stroke-linejoin="round"/>
<path opacity="0.5" d="M114.404 83.4293C114.404 84.591 109.177 85.5434 102.5 85.648C99.9356 85.3654 97.9943 84.9311 97.0942 84.4183C98.3919 84.4759 99.8152 84.5125 101.301 84.5125C106.707 84.5125 111.212 84.0677 112.201 83.4817C112.337 83.4032 112.405 83.3195 112.405 83.2357C112.405 82.5555 107.832 82.006 102.05 81.9642C103.892 81.7392 106.084 81.5979 108.46 81.556C112.039 81.9537 114.404 82.6444 114.404 83.4241V83.4293Z" fill="#F8E292"/>
<path opacity="0.49" d="M114.404 83.4285C114.404 83.8471 113.719 84.25 112.426 84.6058C111.636 84.8204 110.632 85.014 109.454 85.1709L105.859 84.4017C109.098 84.2343 111.516 83.8942 112.207 83.4808C112.175 83.4598 112.144 83.4441 112.102 83.4232H114.404V83.4285Z" fill="#FFFCE4"/>
<path d="M118.93 86.471C113.53 85.1 112.944 84.3622 112.682 78.7318C111.316 84.2105 110.584 84.807 105.032 85.0843C110.432 86.4553 111.018 87.1931 111.28 92.8235C112.645 87.3448 113.378 86.7483 118.93 86.471Z" fill="white" stroke="#0E1844" stroke-width="0.081624" stroke-linecap="round" stroke-linejoin="round"/>
</g>
<defs>
<clipPath id="clip0_1902_35480">
<rect width="116.48" height="92.7811" fill="white" transform="translate(7.27979 18.72)"/>
</clipPath>
</defs>
</svg>
