<svg width="130" height="130" viewBox="0 0 130 130" fill="none" xmlns="http://www.w3.org/2000/svg">
<path d="M81.8475 37.5549L85.0177 37.7253L86.7888 21.657L81.9249 21.3885L81.8423 37.5549H81.8475Z" fill="#011A48" stroke="#011A48" stroke-width="0.130931" stroke-miterlimit="10"/>
<path d="M7.2832 101.342V104.719C7.2832 104.917 7.40238 105.106 7.6159 105.295C7.74004 105.394 7.88405 105.488 8.06282 105.588C8.14227 105.632 8.23165 105.672 8.326 105.722C8.46007 105.781 8.59911 105.841 8.75801 105.9C8.87718 105.94 9.00132 105.985 9.13043 106.024C9.26947 106.069 9.4234 106.114 9.57734 106.164C9.90011 106.253 10.2576 106.342 10.635 106.427C10.6748 106.437 10.7095 106.447 10.7542 106.447C10.8635 106.476 10.9727 106.496 11.0819 106.516C11.1117 106.516 11.1465 106.531 11.1862 106.536C11.4941 106.601 11.8169 106.655 12.1496 106.71C12.2936 106.73 12.4425 106.754 12.5965 106.779C12.7852 106.809 12.9788 106.834 13.1824 106.864C13.3215 106.879 13.4655 106.898 13.6144 106.913C13.6293 106.913 13.6442 106.913 13.6641 106.913C13.8081 106.933 13.9571 106.948 14.111 106.968C14.4536 107.003 14.8062 107.037 15.1736 107.067C15.3177 107.082 15.4666 107.097 15.6106 107.102H15.6206L16.0426 107.137C16.2562 107.152 16.4647 107.167 16.6832 107.181C16.8322 107.191 16.9812 107.196 17.1301 107.201C17.4281 107.216 17.731 107.236 18.0388 107.241C18.0885 107.241 18.1431 107.241 18.1928 107.241C18.2871 107.241 18.3815 107.251 18.4758 107.256C18.5304 107.256 18.5851 107.256 18.6397 107.256C18.9922 107.266 19.3448 107.276 19.7023 107.276C19.8513 107.276 20.0003 107.276 20.1492 107.276H21.2119C21.3658 107.276 21.5148 107.276 21.6638 107.276C22.0213 107.276 22.3739 107.261 22.7264 107.256C22.786 107.256 22.8357 107.256 22.8953 107.246C22.9896 107.246 23.079 107.246 23.1733 107.236C23.223 107.236 23.2776 107.236 23.3322 107.236C23.6401 107.226 23.9381 107.206 24.241 107.196C24.3899 107.186 24.5389 107.181 24.6879 107.177C24.9014 107.162 25.1149 107.147 25.3235 107.132L25.7456 107.097H25.7605C25.9094 107.092 26.0534 107.077 26.1974 107.062C26.5599 107.028 26.9125 106.998 27.2601 106.963L27.707 106.908C27.707 106.908 27.7368 106.908 27.7517 106.908C27.9007 106.889 28.0447 106.874 28.1887 106.859C28.3873 106.829 28.5809 106.804 28.7696 106.774C28.9236 106.754 29.0725 106.73 29.2215 106.705C29.5592 106.65 29.872 106.596 30.1799 106.531C30.2097 106.531 30.2444 106.516 30.2842 106.511C30.3934 106.491 30.5126 106.471 30.6218 106.442C30.6566 106.442 30.6963 106.427 30.7311 106.422C31.1134 106.337 31.471 106.248 31.7937 106.159C31.9477 106.114 32.1016 106.069 32.2406 106.02C32.3698 105.98 32.4889 105.935 32.6081 105.895C32.767 105.841 32.911 105.776 33.0451 105.717C33.1394 105.677 33.2189 105.632 33.3033 105.592C33.487 105.498 33.631 105.404 33.7502 105.299C33.9687 105.111 34.0879 104.922 34.0879 104.723V101.347H7.29314L7.2832 101.342Z" fill="#CF7302" stroke="#101841" stroke-width="0.0606548" stroke-linecap="round" stroke-linejoin="round"/>
<path d="M32.584 101.342V105.89C32.7429 105.836 32.8869 105.771 33.021 105.712V101.342H32.584Z" fill="#A55C0B"/>
<path d="M30.1592 101.342V106.531C30.189 106.531 30.2287 106.516 30.2635 106.511C30.3727 106.491 30.4919 106.471 30.5962 106.442V101.342H30.1592Z" fill="#A55C0B"/>
<path d="M27.7324 101.342V106.898C27.8814 106.879 28.0254 106.864 28.1694 106.849V101.342H27.7324Z" fill="#A55C0B"/>
<path d="M25.3086 101.341V107.126L25.7307 107.092H25.7456V101.336H25.3086V101.341Z" fill="#A55C0B"/>
<path d="M22.8799 101.342V107.251C22.9742 107.251 23.0636 107.251 23.158 107.241C23.2076 107.241 23.2622 107.241 23.3169 107.241V101.347H22.8799V101.342Z" fill="#A55C0B"/>
<path d="M20.4521 101.342H20.8891V107.286H20.4521V101.342Z" fill="#A55C0B"/>
<path d="M18.0283 101.341V107.236C18.078 107.236 18.1326 107.236 18.1823 107.236C18.2766 107.236 18.371 107.246 18.4653 107.251V101.336H18.0283V101.341Z" fill="#A55C0B"/>
<path d="M15.6055 101.342V107.097H15.6154C15.7544 107.107 15.8984 107.117 16.0375 107.132V101.347H15.6055V101.342Z" fill="#A55C0B"/>
<path d="M13.1768 101.342V106.849C13.3158 106.864 13.4598 106.884 13.6088 106.898V101.342H13.1768Z" fill="#A55C0B"/>
<path d="M10.75 101.342V106.442C10.8592 106.471 10.9685 106.491 11.0777 106.511C11.1075 106.511 11.1423 106.526 11.182 106.531V101.342H10.75Z" fill="#A55C0B"/>
<path d="M8.32617 101.342V105.717C8.46024 105.776 8.59928 105.836 8.75818 105.895V101.347H8.32617V101.342Z" fill="#A55C0B"/>
<path d="M7.2832 101.342C7.2832 102.683 12.6263 103.78 19.4541 103.899C19.8563 103.904 20.2635 103.909 20.6706 103.909C28.0645 103.909 34.0581 102.762 34.0581 101.342C34.0581 99.9216 28.0645 98.7746 20.6706 98.7746C17.9743 98.7746 15.4617 98.9285 13.3612 99.1917C9.70149 99.6485 7.2832 100.443 7.2832 101.347V101.342Z" fill="#F6D40F" stroke="#101841" stroke-width="0.0606548" stroke-linecap="round" stroke-linejoin="round"/>
<path d="M9.32422 101.123C9.32422 101.222 9.39374 101.312 9.53278 101.401C10.5458 102.076 15.1489 102.588 20.6757 102.588C26.2025 102.588 30.8057 102.076 31.8187 101.401C31.9577 101.312 32.0272 101.217 32.0272 101.123C32.0272 100.309 26.9424 99.6481 20.6757 99.6481C14.4091 99.6481 9.32918 100.309 9.32918 101.123H9.32422Z" fill="#CE7303" stroke="#101841" stroke-width="0.0606548" stroke-linecap="round" stroke-linejoin="round"/>
<path d="M9.5332 101.406C10.5462 102.081 15.1494 102.593 20.6762 102.593C26.2029 102.593 30.8061 102.081 31.8191 101.406C30.8061 100.731 26.2029 100.219 20.6762 100.219C15.1494 100.219 10.5462 100.731 9.5332 101.406Z" fill="#F6B90B" stroke="#101841" stroke-width="0.0606548" stroke-linecap="round" stroke-linejoin="round"/>
<path opacity="0.5" d="M7.28328 101.341C7.28328 102.682 12.6263 103.78 19.4541 103.899C22.076 103.571 24.0623 103.07 24.976 102.484C23.6501 102.553 22.1952 102.593 20.6707 102.593C15.1489 102.593 10.5408 102.081 9.52777 101.406C9.38873 101.317 9.31921 101.222 9.31921 101.128C9.31921 100.348 13.9969 99.7078 19.911 99.6581C18.029 99.4049 15.7895 99.236 13.3613 99.1963C9.70157 99.6532 7.28328 100.448 7.28328 101.351H7.27832L7.28328 101.341Z" fill="#F6DA80"/>
<path opacity="0.49" d="M7.28328 101.342C7.28328 101.819 7.98345 102.29 9.30431 102.698C10.1137 102.946 11.1416 103.169 12.3433 103.353L16.0179 102.469C12.7058 102.275 10.2379 101.883 9.52777 101.406C9.55756 101.387 9.59728 101.362 9.63204 101.347H7.27832L7.28328 101.342Z" fill="#FFF5DA"/>
<path d="M8.66211 97.4733V100.85C8.66211 101.049 8.78128 101.237 8.99481 101.426C9.11895 101.525 9.26295 101.62 9.44172 101.719C9.52117 101.764 9.61055 101.803 9.70489 101.853C9.83897 101.913 9.97801 101.972 10.1369 102.032C10.2561 102.072 10.3802 102.116 10.5093 102.156C10.6484 102.201 10.8023 102.245 10.9562 102.295C11.279 102.384 11.6365 102.474 12.0139 102.558C12.0537 102.568 12.0884 102.578 12.1331 102.578C12.2423 102.608 12.3516 102.628 12.4608 102.648C12.4906 102.648 12.5254 102.662 12.5651 102.667C12.873 102.732 13.1958 102.787 13.5285 102.841C13.6725 102.861 13.8214 102.886 13.9754 102.911C14.1641 102.94 14.3577 102.965 14.5613 102.995C14.7004 103.01 14.8444 103.03 14.9933 103.045C15.0082 103.045 15.0231 103.045 15.043 103.045C15.187 103.065 15.336 103.08 15.4899 103.099C15.8325 103.134 16.1851 103.169 16.5526 103.199C16.6966 103.214 16.8455 103.229 16.9895 103.233H16.9995L17.4215 103.268C17.6351 103.283 17.8436 103.298 18.0621 103.313C18.2111 103.323 18.3601 103.328 18.509 103.333C18.807 103.348 19.1099 103.368 19.4177 103.373C19.4674 103.373 19.522 103.373 19.5717 103.373C19.666 103.373 19.7604 103.382 19.8547 103.387C19.9093 103.387 19.964 103.387 20.0186 103.387C20.3711 103.397 20.7237 103.407 21.0812 103.407C21.2302 103.407 21.3792 103.407 21.5281 103.407H22.5908C22.7447 103.407 22.8937 103.407 23.0427 103.407C23.4002 103.407 23.7528 103.392 24.1053 103.387C24.1649 103.387 24.2146 103.387 24.2742 103.377C24.3685 103.377 24.4579 103.377 24.5522 103.368C24.6019 103.368 24.6565 103.368 24.7111 103.368C25.019 103.358 25.317 103.338 25.6199 103.328C25.7688 103.318 25.9178 103.313 26.0668 103.308C26.2803 103.293 26.4938 103.278 26.7024 103.263L27.1245 103.229H27.1393C27.2883 103.224 27.4323 103.209 27.5763 103.194C27.9388 103.159 28.2914 103.129 28.639 103.094L29.0859 103.04C29.0859 103.04 29.1157 103.04 29.1306 103.04C29.2796 103.02 29.4236 103.005 29.5676 102.99C29.7662 102.96 29.9598 102.936 30.1485 102.906C30.3025 102.886 30.4514 102.861 30.6004 102.836C30.9381 102.782 31.2509 102.727 31.5588 102.662C31.5886 102.662 31.6233 102.648 31.6631 102.643C31.7723 102.623 31.8915 102.603 32.0007 102.573C32.0355 102.573 32.0752 102.558 32.11 102.553C32.4923 102.469 32.8499 102.379 33.1726 102.29C33.3266 102.245 33.4805 102.201 33.6195 102.151C33.7487 102.111 33.8678 102.067 33.987 102.027C34.1459 101.972 34.2899 101.908 34.424 101.848C34.5183 101.808 34.5978 101.764 34.6822 101.724C34.8659 101.63 35.0099 101.535 35.1291 101.431C35.3476 101.242 35.4668 101.054 35.4668 100.855V97.4783H8.67204L8.66211 97.4733Z" fill="#CF7302" stroke="#101841" stroke-width="0.0606548" stroke-linecap="round" stroke-linejoin="round"/>
<path d="M33.9639 97.4733V102.022C34.1228 101.967 34.2668 101.903 34.4008 101.843V97.4733H33.9639Z" fill="#A55C0B"/>
<path d="M31.5391 97.4733V102.662C31.5689 102.662 31.6086 102.648 31.6433 102.643C31.7526 102.623 31.8718 102.603 31.976 102.573V97.4733H31.5391Z" fill="#A55C0B"/>
<path d="M29.1123 97.4733V103.03C29.2613 103.01 29.4053 102.995 29.5493 102.98V97.4733H29.1123Z" fill="#A55C0B"/>
<path d="M26.6885 97.4738V103.259L27.1106 103.224H27.1255V97.4688H26.6885V97.4738Z" fill="#A55C0B"/>
<path d="M24.2607 97.4733V103.382C24.3551 103.382 24.4445 103.382 24.5388 103.373C24.5885 103.373 24.6431 103.373 24.6977 103.373V97.4783H24.2607V97.4733Z" fill="#A55C0B"/>
<path d="M21.832 97.4733H22.269V103.417H21.832V97.4733Z" fill="#A55C0B"/>
<path d="M19.4082 97.4738V103.368C19.4579 103.368 19.5125 103.368 19.5621 103.368C19.6565 103.368 19.7508 103.378 19.8452 103.383V97.4688H19.4082V97.4738Z" fill="#A55C0B"/>
<path d="M16.9854 97.4733V103.229H16.9953C17.1343 103.238 17.2783 103.248 17.4174 103.263V97.4783H16.9854V97.4733Z" fill="#A55C0B"/>
<path d="M14.5566 97.4733V102.98C14.6957 102.995 14.8397 103.015 14.9887 103.03V97.4733H14.5566Z" fill="#A55C0B"/>
<path d="M12.1338 97.4733V102.573C12.243 102.603 12.3523 102.623 12.4615 102.643C12.4913 102.643 12.5261 102.657 12.5658 102.662V97.4733H12.1338Z" fill="#A55C0B"/>
<path d="M9.70605 97.4733V101.848C9.84013 101.908 9.97917 101.967 10.1381 102.027V97.4783H9.70605V97.4733Z" fill="#A55C0B"/>
<path d="M8.66309 97.4685C8.66309 98.8092 14.0061 99.9066 20.8339 100.026C21.2361 100.031 21.6433 100.036 22.0505 100.036C29.4444 100.036 35.438 98.8886 35.438 97.4685C35.438 96.0483 29.4444 94.9012 22.0505 94.9012C19.3542 94.9012 16.8415 95.0551 14.7411 95.3183C11.0814 95.7752 8.66309 96.5697 8.66309 97.4734V97.4685Z" fill="#F6D40F" stroke="#101841" stroke-width="0.0606548" stroke-linecap="round" stroke-linejoin="round"/>
<path d="M10.7041 97.2501C10.7041 97.3494 10.7736 97.4388 10.9127 97.5282C11.9257 98.2035 16.5288 98.715 22.0556 98.715C27.5824 98.715 32.1856 98.2035 33.1986 97.5282C33.3376 97.4388 33.4071 97.3445 33.4071 97.2501C33.4071 96.4358 28.3223 95.7753 22.0556 95.7753C15.7889 95.7753 10.7091 96.4358 10.7091 97.2501H10.7041Z" fill="#CE7303" stroke="#101841" stroke-width="0.0606548" stroke-linecap="round" stroke-linejoin="round"/>
<path d="M10.9131 97.5333C11.9261 98.2087 16.5293 98.7201 22.056 98.7201C27.5828 98.7201 32.186 98.2087 33.199 97.5333C32.186 96.858 27.5828 96.3465 22.056 96.3465C16.5293 96.3465 11.9261 96.858 10.9131 97.5333Z" fill="#F6B90B" stroke="#101841" stroke-width="0.0606548" stroke-linecap="round" stroke-linejoin="round"/>
<path opacity="0.5" d="M8.66317 97.4684C8.66317 98.8091 14.0062 99.9065 20.834 100.026C23.4559 99.698 25.4422 99.1964 26.3558 98.6105C25.03 98.68 23.5751 98.7197 22.0506 98.7197C16.5288 98.7197 11.9206 98.2083 10.9076 97.5329C10.7686 97.4435 10.6991 97.3492 10.6991 97.2549C10.6991 96.4752 15.3768 95.8347 21.2909 95.785C19.4089 95.5318 17.1694 95.3629 14.7411 95.3232C11.0814 95.7801 8.66317 96.5746 8.66317 97.4783H8.6582L8.66317 97.4684Z" fill="#F6DA80"/>
<path opacity="0.49" d="M8.66317 97.4733C8.66317 97.95 9.36333 98.4217 10.6842 98.8289C11.4936 99.0772 12.5215 99.3007 13.7232 99.4844L17.3978 98.6005C14.0857 98.4068 11.6177 98.0145 10.9076 97.5378C10.9374 97.518 10.9772 97.4932 11.0119 97.4783H8.6582L8.66317 97.4733Z" fill="#FFF5DA"/>
<path d="M7.51172 93.3768V96.7534C7.51172 96.9521 7.63089 97.1407 7.84442 97.3294C7.96856 97.4288 8.11256 97.5231 8.29132 97.6224C8.37078 97.6671 8.46016 97.7068 8.5545 97.7565C8.68858 97.8161 8.82762 97.8757 8.98652 97.9352C9.1057 97.975 9.22984 98.0197 9.35895 98.0594C9.49799 98.1041 9.65192 98.1488 9.80585 98.1984C10.1286 98.2878 10.4862 98.3772 10.8635 98.4616C10.9033 98.4715 10.938 98.4815 10.9827 98.4815C11.092 98.5113 11.2012 98.5311 11.3105 98.551C11.3402 98.551 11.375 98.5659 11.4147 98.5709C11.7226 98.6354 12.0454 98.69 12.3781 98.7447C12.5221 98.7645 12.671 98.7893 12.825 98.8142C13.0137 98.844 13.2073 98.8688 13.4109 98.8986C13.55 98.9135 13.694 98.9334 13.8429 98.9482C13.8578 98.9482 13.8727 98.9482 13.8926 98.9482C14.0366 98.9681 14.1856 98.983 14.3395 99.0029C14.6821 99.0376 15.0347 99.0724 15.4022 99.1022C15.5462 99.1171 15.6951 99.132 15.8391 99.1369H15.8491L16.2712 99.1717C16.4847 99.1866 16.6932 99.2015 16.9117 99.2164C17.0607 99.2263 17.2097 99.2313 17.3586 99.2363C17.6566 99.2512 17.9595 99.271 18.2673 99.276C18.317 99.276 18.3716 99.276 18.4213 99.276C18.5156 99.276 18.61 99.2859 18.7043 99.2909C18.7589 99.2909 18.8136 99.2909 18.8682 99.2909C19.2208 99.3008 19.5733 99.3107 19.9308 99.3107C20.0798 99.3107 20.2288 99.3107 20.3778 99.3107H21.4404C21.5943 99.3107 21.7433 99.3107 21.8923 99.3107C22.2498 99.3107 22.6024 99.2958 22.9549 99.2909C23.0145 99.2909 23.0642 99.2909 23.1238 99.2809C23.2181 99.2809 23.3075 99.2809 23.4019 99.271C23.4515 99.271 23.5061 99.271 23.5607 99.271C23.8686 99.2611 24.1666 99.2412 24.4695 99.2313C24.6184 99.2214 24.7674 99.2164 24.9164 99.2114C25.1299 99.1965 25.3434 99.1816 25.552 99.1667L25.9741 99.132H25.989C26.1379 99.127 26.2819 99.1121 26.4259 99.0972C26.7884 99.0625 27.141 99.0327 27.4886 98.9979L27.9355 98.9433C27.9355 98.9433 27.9653 98.9433 27.9802 98.9433C28.1292 98.9234 28.2732 98.9085 28.4172 98.8936C28.6158 98.8638 28.8095 98.839 28.9982 98.8092C29.1521 98.7893 29.3011 98.7645 29.45 98.7397C29.7877 98.6851 30.1005 98.6304 30.4084 98.5659C30.4382 98.5659 30.473 98.551 30.5127 98.546C30.6219 98.5262 30.7411 98.5063 30.8503 98.4765C30.8851 98.4765 30.9248 98.4616 30.9596 98.4566C31.342 98.3722 31.6995 98.2828 32.0222 98.1935C32.1762 98.1488 32.3301 98.1041 32.4692 98.0544C32.5983 98.0147 32.7174 97.97 32.8366 97.9303C32.9955 97.8757 33.1395 97.8111 33.2736 97.7515C33.3679 97.7118 33.4474 97.6671 33.5318 97.6274C33.7155 97.533 33.8595 97.4387 33.9787 97.3344C34.1972 97.1457 34.3164 96.957 34.3164 96.7584V93.3817H7.52164L7.51172 93.3768Z" fill="#CF7302" stroke="#101841" stroke-width="0.0606548" stroke-linecap="round" stroke-linejoin="round"/>
<path d="M32.8125 93.3768V97.9253C32.9714 97.8707 33.1154 97.8061 33.2495 97.7466V93.3768H32.8125Z" fill="#A55C0B"/>
<path d="M30.3887 93.3768V98.5659C30.4185 98.5659 30.4582 98.551 30.493 98.546C30.6022 98.5262 30.7214 98.5063 30.8257 98.4765V93.3768H30.3887Z" fill="#A55C0B"/>
<path d="M27.9609 93.3768V98.9334C28.1099 98.9135 28.2539 98.8986 28.3979 98.8837V93.3768H27.9609Z" fill="#A55C0B"/>
<path d="M25.5371 93.3766V99.1616L25.9592 99.1269H25.9741V93.3717H25.5371V93.3766Z" fill="#A55C0B"/>
<path d="M23.1084 93.3768V99.2859C23.2027 99.2859 23.2921 99.2859 23.3865 99.276C23.4361 99.276 23.4908 99.276 23.5454 99.276V93.3817H23.1084V93.3768Z" fill="#A55C0B"/>
<path d="M20.6807 93.3768H21.1176V99.3207H20.6807V93.3768Z" fill="#A55C0B"/>
<path d="M18.2568 93.3766V99.2709C18.3065 99.2709 18.3611 99.2709 18.4108 99.2709C18.5051 99.2709 18.5995 99.2808 18.6938 99.2858V93.3717H18.2568V93.3766Z" fill="#A55C0B"/>
<path d="M15.834 93.3768V99.132H15.8439C15.983 99.1419 16.127 99.1518 16.266 99.1667V93.3817H15.834V93.3768Z" fill="#A55C0B"/>
<path d="M13.4053 93.3768V98.8837C13.5443 98.8986 13.6883 98.9185 13.8373 98.9334V93.3768H13.4053Z" fill="#A55C0B"/>
<path d="M10.9834 93.3768V98.4765C11.0926 98.5063 11.2019 98.5262 11.3111 98.546C11.3409 98.546 11.3757 98.5609 11.4154 98.5659V93.3768H10.9834Z" fill="#A55C0B"/>
<path d="M8.55469 93.3768V97.7515C8.68876 97.8111 8.8278 97.8707 8.98671 97.9303V93.3817H8.55469V93.3768Z" fill="#A55C0B"/>
<path d="M7.51172 93.3768C7.51172 94.7175 12.8548 95.8149 19.6826 95.9341C20.0848 95.939 20.492 95.944 20.8992 95.944C28.293 95.944 34.2866 94.7969 34.2866 93.3768C34.2866 91.9566 28.293 90.8095 20.8992 90.8095C18.2028 90.8095 15.6902 90.9634 13.5897 91.2266C9.92999 91.6835 7.51172 92.478 7.51172 93.3817V93.3768Z" fill="#F6D40F" stroke="#101841" stroke-width="0.0606548" stroke-linecap="round" stroke-linejoin="round"/>
<path d="M9.55273 93.1581C9.55273 93.2574 9.62225 93.3468 9.76129 93.4362C10.7743 94.1115 15.3775 94.623 20.9042 94.623C26.431 94.623 31.0342 94.1115 32.0472 93.4362C32.1862 93.3468 32.2558 93.2524 32.2558 93.1581C32.2558 92.3437 27.1709 91.6833 20.9042 91.6833C14.6376 91.6833 9.5577 92.3437 9.5577 93.1581H9.55273Z" fill="#CE7303" stroke="#101841" stroke-width="0.0606548" stroke-linecap="round" stroke-linejoin="round"/>
<path d="M9.76172 93.4416C10.7747 94.1169 15.3779 94.6284 20.9047 94.6284C26.4315 94.6284 31.0346 94.1169 32.0476 93.4416C31.0346 92.7663 26.4315 92.2548 20.9047 92.2548C15.3779 92.2548 10.7747 92.7663 9.76172 93.4416Z" fill="#F6B90B" stroke="#101841" stroke-width="0.0606548" stroke-linecap="round" stroke-linejoin="round"/>
<path opacity="0.5" d="M7.51181 93.3767C7.51181 94.7174 12.8549 95.8148 19.6827 95.934C22.3045 95.6063 24.2908 95.1047 25.2045 94.5188C23.8786 94.5883 22.4237 94.628 20.8992 94.628C15.3774 94.628 10.7693 94.1166 9.75628 93.4412C9.61724 93.3518 9.54773 93.2575 9.54773 93.1632C9.54773 92.3835 14.2254 91.743 20.1395 91.6933C18.2575 91.4401 16.018 91.2712 13.5898 91.2315C9.93008 91.6883 7.51181 92.4829 7.51181 93.3866H7.50684L7.51181 93.3767Z" fill="#F6DA80"/>
<path opacity="0.49" d="M7.51181 93.3768C7.51181 93.8535 8.21196 94.3252 9.53283 94.7324C10.3422 94.9807 11.3701 95.2041 12.5718 95.3879L16.2464 94.504C12.9343 94.3103 10.4664 93.918 9.75628 93.4413C9.78608 93.4215 9.82581 93.3966 9.86056 93.3817H7.50684L7.51181 93.3768Z" fill="#FFF5DA"/>
<path d="M73.2566 109.991C101.148 109.991 123.759 106.522 123.759 102.241C123.759 97.9609 101.148 94.4911 73.2566 94.4911C45.3647 94.4911 22.7539 97.9609 22.7539 102.241C22.7539 106.522 45.3647 109.991 73.2566 109.991Z" fill="#21002A" stroke="#21002A" stroke-width="0.135967" stroke-linejoin="round"/>
<path d="M110.006 85.9043V105.881C110.006 106.484 109.47 106.981 108.812 106.981H46.415C45.6235 106.981 44.9795 106.39 44.9795 105.666V86.0251C44.9795 85.3409 45.5832 84.8042 46.3077 84.8042H108.826C109.47 84.8042 110.02 85.3006 110.02 85.9043H110.006Z" fill="#298D56" stroke="#001B4B" stroke-width="0.17" stroke-miterlimit="10"/>
<path d="M77.4862 84.8042V106.967H46.415C45.6235 106.967 44.9795 106.377 44.9795 105.653V86.0117C44.9795 85.3409 45.5698 84.8042 46.3077 84.8042H77.4862Z" fill="#80EA93" stroke="#001B4B" stroke-width="0.17" stroke-miterlimit="10"/>
<path d="M44.9795 86.8167H77.4862H110.006" stroke="#459263" stroke-width="0.17" stroke-miterlimit="10"/>
<path d="M44.9795 88.816H77.4862H110.006" stroke="#459263" stroke-width="0.17" stroke-miterlimit="10"/>
<path d="M44.9795 90.8284H77.4862H110.006" stroke="#459263" stroke-width="0.17" stroke-miterlimit="10"/>
<path d="M44.9795 92.8272H77.4862H110.006" stroke="#459263" stroke-width="0.17" stroke-miterlimit="10"/>
<path d="M44.9795 94.826H77.4862H110.006" stroke="#459263" stroke-width="0.17" stroke-miterlimit="10"/>
<path d="M44.9795 96.8253H77.4862H110.006" stroke="#459263" stroke-width="0.17" stroke-miterlimit="10"/>
<path d="M44.9795 98.8377H77.4862H110.006" stroke="#459263" stroke-width="0.17" stroke-miterlimit="10"/>
<path d="M44.9795 100.836H77.4862H110.006" stroke="#459263" stroke-width="0.17" stroke-miterlimit="10"/>
<path d="M44.9795 102.849H77.4862H110.006" stroke="#459263" stroke-width="0.17" stroke-miterlimit="10"/>
<path d="M44.9795 104.848H77.4862H110.006" stroke="#459263" stroke-width="0.17" stroke-miterlimit="10"/>
<path d="M98.5624 84.8044H90.1909V106.967H98.5624V84.8044Z" fill="#C8FFAF" stroke="#001B4B" stroke-width="0.17" stroke-miterlimit="10"/>
<path d="M92.2422 30.0422C92.2422 30.0422 96.7188 79.1302 84.7037 108.365L20.0713 107.926C20.0713 107.926 39.4356 68.4263 32.7862 29.433L92.2473 30.0422H92.2422Z" fill="#21002A" stroke="#21002A" stroke-width="0.130931" stroke-linejoin="round"/>
<path d="M90.8272 30.0422C90.8272 30.0422 92.4139 78.8987 80.4604 107.699L18.4375 104.203C18.4375 104.203 34.5072 78.8987 32.7809 29.4278L90.8272 30.0371V30.0422Z" fill="white" stroke="#011A48" stroke-width="0.19" stroke-miterlimit="10"/>
<path d="M80.8211 38.319H83.9966L84.8434 22.1783H79.9795L80.8263 38.319H80.8211Z" fill="#BB4AE1" stroke="#001B42" stroke-width="0.256827" stroke-linecap="round" stroke-linejoin="round"/>
<path d="M72.7307 78.4128C81.7506 70.0818 83.2952 57.0848 76.1804 49.3834C69.0657 41.6821 55.9879 42.1933 46.9734 50.5243C37.9536 58.8554 36.409 71.8524 43.5237 79.5537C50.6384 87.2551 63.7162 86.7438 72.7307 78.4128Z" fill="#21002A"/>
<path d="M71.6907 77.6414C80.7106 69.3104 82.2551 56.3133 75.1404 48.612C68.0257 40.9106 54.9479 41.4219 45.9334 49.7529C36.9135 58.0839 35.3689 71.081 42.4837 78.7823C49.5984 86.4837 62.6762 85.9724 71.6907 77.6414Z" fill="white" stroke="#011A48" stroke-width="0.166769" stroke-miterlimit="10"/>
<path d="M63.7977 52.4926H68.7403L53.7925 76.9309L48.9014 76.765L63.792 52.4926H63.7977Z" fill="#21002A" stroke="#21002A" stroke-width="0.145061" stroke-linejoin="round"/>
<path d="M55.6745 51.6914C53.6037 50.2956 50.5317 51.251 48.7927 53.8138C47.0594 56.3823 47.3339 59.5915 49.3991 60.9874C51.4699 62.3775 54.5419 61.4278 56.2809 58.865C58.0142 56.2965 57.7397 53.0873 55.6745 51.6972V51.6914ZM54.027 57.269C53.3405 58.2873 52.1163 58.6648 51.2926 58.1099C50.4745 57.5607 50.3658 56.2851 51.0523 55.2668C51.7388 54.2485 52.963 53.871 53.781 54.4202C54.6048 54.975 54.7135 56.2507 54.0213 57.269H54.027Z" fill="#21002A" stroke="#21002A" stroke-width="0.145061" stroke-linejoin="round"/>
<path d="M68.2478 67.0286C66.1769 65.6328 63.105 66.5881 61.3659 69.1509C59.6326 71.7195 59.9072 74.9287 61.9723 76.3188C64.0432 77.7089 67.1151 76.7593 68.8541 74.1965C70.5875 71.6279 70.3129 68.4187 68.2478 67.0229V67.0286ZM66.5545 72.6176C65.868 73.6359 64.6438 74.0134 63.82 73.4585C63.002 72.9093 62.8933 71.6337 63.5798 70.6154C64.2663 69.5971 65.4905 69.2196 66.3085 69.7687C67.1323 70.3236 67.2409 71.5993 66.5488 72.6176H66.5545Z" fill="#21002A" stroke="#21002A" stroke-width="0.145061" stroke-linejoin="round"/>
<path d="M63.2772 51.7889H68.2198L53.2719 76.2272L48.3809 76.0613L63.2715 51.7889H63.2772Z" fill="#22D081" stroke="#1C032B" stroke-width="0.156346" stroke-linecap="round" stroke-linejoin="round"/>
<path d="M55.1599 50.9823C53.089 49.5865 50.0171 50.5418 48.278 53.1046C46.5447 55.6731 46.8193 58.8824 48.8844 60.2782C50.9553 61.6683 54.0272 60.7187 55.7663 58.1559C57.4996 55.5873 57.225 52.3781 55.1599 50.988V50.9823ZM53.5124 56.5598C52.8259 57.5781 51.6017 57.9556 50.7779 57.4007C49.9599 56.8516 49.8512 55.5759 50.5377 54.5576C51.2241 53.5394 52.4483 53.1618 53.2664 53.711C54.0901 54.2659 54.1988 55.5416 53.5066 56.5598H53.5124Z" fill="#22D081" stroke="#1C032B" stroke-width="0.156346" stroke-linecap="round" stroke-linejoin="round"/>
<path d="M67.7282 66.3191C65.6574 64.9233 62.5855 65.8786 60.8464 68.4414C59.1131 71.01 59.3877 74.2192 61.4528 75.6093C63.5236 76.9994 66.5956 76.0498 68.3346 73.487C70.0679 70.9184 69.7934 67.7092 67.7282 66.3134V66.3191ZM66.035 71.9081C65.3485 72.9264 64.1243 73.3039 63.3005 72.749C62.4825 72.1998 62.3738 70.9242 63.0603 69.9059C63.7467 68.8876 64.9709 68.5101 65.789 69.0592C66.6127 69.6141 66.7214 70.8898 66.0292 71.9081H66.035Z" fill="#22D081" stroke="#1C032B" stroke-width="0.156346" stroke-linecap="round" stroke-linejoin="round"/>
<path d="M44.4101 34.3322C34.015 31.9106 32.8623 30.5252 32.1432 19.76C29.7427 30.3032 28.3574 31.477 17.7402 32.2278C28.1354 34.6389 29.288 36.0348 30.0071 46.8C32.4076 36.2568 33.7929 35.083 44.4101 34.3322Z" fill="white" stroke="#110604" stroke-width="0.173266" stroke-miterlimit="10"/>
<path d="M109.493 85.2801C103.922 93.4884 87.5695 103.438 86.4227 102.796L84.8112 89.1869L109.493 85.2801Z" fill="#1C032B"/>
<path d="M62.6956 87.12C64.7348 89.4544 74.7296 100.938 76.2859 102.736C76.42 102.884 76.6079 102.951 76.7957 102.897C79.6801 102.24 102.098 96.6453 112.482 80.989C112.697 80.667 112.63 80.2511 112.348 79.9962L97.0537 66.1912C96.8793 66.0302 96.6109 66.0571 96.4634 66.2315C94.6925 68.4585 83.9598 80.9755 62.87 86.57C62.6151 86.637 62.5077 86.9322 62.6822 87.1334L62.6956 87.12Z" fill="#80EA93" stroke="#001B4B" stroke-width="0.17" stroke-miterlimit="10"/>
<path d="M108.458 82.8135C100.354 93.023 86.4556 98.2552 80.5526 100.026C78.5671 98.1748 76.3669 99.1944 76.3669 99.1944C74.0057 96.4441 69.1625 90.8228 67.1367 88.4482C67.3111 88.3677 68.4783 87.8177 68.0356 86.7847C82.5382 81.9952 91.7951 73.7042 95.1223 70.3636C95.1223 70.3636 96.5578 71.2088 97.8457 70.1355L108.498 79.8218C107.787 80.4255 107.358 81.7403 108.458 82.8135Z" fill="#C6FDCD" stroke="#001B4B" stroke-width="0.17" stroke-miterlimit="10"/>
<path d="M95.63 89.9741C97.2939 86.5566 95.5212 82.2665 91.6707 80.3918C87.8202 78.5171 83.3499 79.7678 81.686 83.1853C80.0222 86.6028 81.7948 90.8929 85.6453 92.7676C89.4958 94.6423 93.9661 93.3916 95.63 89.9741Z" fill="white" stroke="#001B4B" stroke-width="0.17" stroke-miterlimit="10"/>
<path d="M82.645 85.8185C82.7926 85.7783 88.8968 82.8939 89.9299 81.6596" stroke="#001B4B" stroke-width="0.25" stroke-miterlimit="10" stroke-linecap="round"/>
<path d="M86.6831 83.8062C88.615 83.4305 90.0773 84.5172 90.0773 84.5172C92.8544 86.5833 87.4478 88.8237 87.4478 88.8237L94.2363 90.2055" stroke="#001B4B" stroke-width="0.25" stroke-miterlimit="10" stroke-linecap="round"/>
<path d="M84.4434 87.187C84.4434 87.187 89.367 85.3088 91.8623 83.2562" stroke="#001B4B" stroke-width="0.25" stroke-miterlimit="10" stroke-linecap="round"/>
</svg>
